  0
SECTION
  2
HEADER
  9
$ACADVER
  1
AC1018
  9
$HANDSEED
  5
FFFFFFFF
  9
$ANGBASE
  50
0.0
  9
$ANGDIR
  70
1
  9
$MEASUREMENT
  70
0
  9
$INSUNITS
  70
1
  0
ENDSEC
  0
SECTION
  2
TABLES
  0
TABLE
  2
APPID
  5
1
330
0
100
AcDbSymbolTable
 70
1
  0
APPID
  5
2
330
1
100
AcDbSymbolTableRecord
100
AcDbRegAppTableRecord
  2
ACAD
 70
0
  0
ENDTAB
  0
TABLE
  2
LTYPE
  5
3
330
0
100
AcDbSymbolTable
 70
6
  0
LTYPE
  5
4
330
3
100
AcDbSymbolTableRecord
100
AcDbLinetypeTableRecord
  2
ByBlock
 70
0
  3

 72
65
 73
0
 40
0
  0
LTYPE
  5
5
330
3
100
AcDbSymbolTableRecord
100
AcDbLinetypeTableRecord
  2
ByLayer
 70
0
  3

 72
65
 73
0
 40
0
  0
LTYPE
  5
6
330
3
100
AcDbSymbolTableRecord
100
AcDbLinetypeTableRecord
  2
CONTINUOUS
 70
0
  3
Solid line
 72
65
 73
0
 40
0
  0
LTYPE
  5
7
330
3
100
AcDbSymbolTableRecord
100
AcDbLinetypeTableRecord
  2
DASHDOT
 70
0
  3
Dash Dot ____ _ ____ _
 72
65
 73
4
 40
2
 49
1.25
 74
0
 49
-0.25
 74
0
 49
0.25
 74
0
 49
-0.25
 74
0
  0
LTYPE
  5
8
330
3
100
AcDbSymbolTableRecord
100
AcDbLinetypeTableRecord
  2
DASHED
 70
0
  3
Dashed __ __ __ __ __
 72
65
 73
2
 40
0.75
 49
0.5
 74
0
 49
-0.25
 74
0
  0
LTYPE
  5
9
330
3
100
AcDbSymbolTableRecord
100
AcDbLinetypeTableRecord
  2
DOTTED
 70
0
  3
Dotted .  .  .  .
 72
65
 73
2
 40
0.2
 49
0.0
 74
0
 49
-0.2
 74
0
  0
ENDTAB
  0
TABLE
  2
STYLE
  5
A
330
0
100
AcDbSymbolTable
 70
4
  0
STYLE
  5
B
330
A
100
AcDbSymbolTableRecord
100
AcDbTextStyleTableRecord
  2
KICAD
 70
0
 40
0
 41
1
 42
1
 50
0
 71
0
  3
isocp.shx
  0
STYLE
  5
C
330
A
100
AcDbSymbolTableRecord
100
AcDbTextStyleTableRecord
  2
KICADB
 70
0
 40
0
 41
1
 42
1
 50
0
 71
0
  3
isocp.shx
  0
STYLE
  5
D
330
A
100
AcDbSymbolTableRecord
100
AcDbTextStyleTableRecord
  2
KICADI
 70
0
 40
0
 41
1
 42
1
 50
15
 71
0
  3
isocp.shx
  0
STYLE
  5
E
330
A
100
AcDbSymbolTableRecord
100
AcDbTextStyleTableRecord
  2
KICADBI
 70
0
 40
0
 41
1
 42
1
 50
15
 71
0
  3
isocp.shx
  0
ENDTAB
  0
TABLE
  2
LAYER
  5
F
330
0
100
AcDbSymbolTable
 70
3
  0
LAYER
  5
12
330
F
100
AcDbSymbolTableRecord
100
AcDbLayerTableRecord
  2
0
 70
0
 62
7
  6
CONTINUOUS
390
10
  0
LAYER
  5
13
330
F
100
AcDbSymbolTableRecord
100
AcDbLayerTableRecord
  2
Edge.Cuts
 70
0
 62
111
420
8519614
  6
CONTINUOUS
390
10
  0
LAYER
  5
14
330
F
100
AcDbSymbolTableRecord
100
AcDbLayerTableRecord
  2
User.1
 70
0
 62
42
420
12744192
  6
CONTINUOUS
390
10
  0
ENDTAB
  0
TABLE
  2
VPORT
  5
15
330
0
100
AcDbSymbolTable
 70
0
  0
ENDTAB
  0
TABLE
  2
VIEW
  5
16
330
0
100
AcDbSymbolTable
 70
0
  0
ENDTAB
  0
TABLE
  2
UCS
  5
17
330
0
100
AcDbSymbolTable
 70
0
  0
ENDTAB
  0
TABLE
  2
DIMSTYLE
  5
18
330
0
100
AcDbSymbolTable
 70
1
100
AcDbDimStyleTable
 71
0
  0
DIMSTYLE
105
19
330
18
100
AcDbSymbolTableRecord
100
AcDbDimStyleTableRecord
  2
Standard
 70
0
  0
ENDTAB
  0
TABLE
  2
BLOCK_RECORD
  5
1A
330
0
100
AcDbSymbolTable
 70
3
  0
BLOCK_RECORD
  5
1B
330
1A
100
AcDbSymbolTableRecord
100
AcDbBlockTableRecord
  2
*Model_Space
340
1E
 70
0
280
1
281
0
  0
BLOCK_RECORD
  5
1C
330
1A
100
AcDbSymbolTableRecord
100
AcDbBlockTableRecord
  2
*Paper_Space
340
1F
 70
0
280
1
281
0
  0
BLOCK_RECORD
  5
1D
330
1A
100
AcDbSymbolTableRecord
100
AcDbBlockTableRecord
  2
*Paper_Space0
340
20
 70
0
280
1
281
0
  0
ENDTAB
  0
ENDSEC
  0
SECTION
  2
BLOCKS
  0
BLOCK
  5
24
330
1B
100
AcDbEntity
  8
0
100
AcDbBlockBegin
  2
*Model_Space
 70
0
 10
0.0
 20
0.0
 30
0.0
  3
*Model_Space
  1

  0
ENDBLK
  5
23
330
1B
100
AcDbEntity
  8
0
100
AcDbBlockEnd
  0
BLOCK
  5
26
330
1C
100
AcDbEntity
 67
1
  8
0
100
AcDbBlockBegin
  2
*Paper_Space
 70
0
 10
0.0
 20
0.0
 30
0.0
  3
*Paper_Space
  1

  0
ENDBLK
  5
25
330
1C
100
AcDbEntity
 67
1
  8
0
100
AcDbBlockEnd
  0
BLOCK
  5
28
330
1D
100
AcDbEntity
 67
1
  8
0
100
AcDbBlockBegin
  2
*Paper_Space0
 70
0
 10
0.0
 20
0.0
 30
0.0
  3
*Paper_Space0
  1

  0
ENDBLK
  5
27
330
1D
100
AcDbEntity
 67
1
  8
0
100
AcDbBlockEnd
  0
ENDSEC
  0
SECTION
  2
ENTITIES
  0
LINE
  5
29
330
1B
100
AcDbEntity
  8
User.1
  6
CONTINUOUS
100
AcDbLine
 10
6.7083829133858268
 20
-1.4260814566929134
 30
0
 11
6.7180829527559052
 21
-1.4286805511811023
 31
0
  0
LINE
  5
2A
330
1B
100
AcDbEntity
  8
User.1
  6
CONTINUOUS
100
AcDbLine
 10
6.7180829527559052
 20
-1.4286805511811023
 30
0
 11
6.7273607480314963
 21
-1.4325235433070866
 31
0
  0
LINE
  5
2B
330
1B
100
AcDbEntity
  8
User.1
  6
CONTINUOUS
100
AcDbLine
 10
6.7273607480314963
 20
-1.4325235433070866
 30
0
 11
6.7360575590551184
 21
-1.4375446456692913
 31
0
  0
LINE
  5
2C
330
1B
100
AcDbEntity
  8
User.1
  6
CONTINUOUS
100
AcDbLine
 10
6.7360575590551184
 20
-1.4375446456692913
 30
0
 11
6.7440245669291334
 21
-1.4436579527559055
 31
0
  0
LINE
  5
2D
330
1B
100
AcDbEntity
  8
User.1
  6
CONTINUOUS
100
AcDbLine
 10
6.7440245669291334
 20
-1.4436579527559055
 30
0
 11
6.7511255118110238
 21
-1.4507588976377952
 31
0
  0
LINE
  5
2E
330
1B
100
AcDbEntity
  8
User.1
  6
CONTINUOUS
100
AcDbLine
 10
6.7511255118110238
 20
-1.4507588976377952
 30
0
 11
6.7572388188976378
 21
-1.4587259055118109
 31
0
  0
LINE
  5
2F
330
1B
100
AcDbEntity
  8
User.1
  6
CONTINUOUS
100
AcDbLine
 10
6.7572388188976378
 20
-1.4587259055118109
 30
0
 11
6.762259921259842
 21
-1.467422716535433
 31
0
  0
LINE
  5
30
330
1B
100
AcDbEntity
  8
User.1
  6
CONTINUOUS
100
AcDbLine
 10
6.762259921259842
 20
-1.467422716535433
 30
0
 11
6.7661029133858266
 21
-1.4767005118110237
 31
0
  0
LINE
  5
31
330
1B
100
AcDbEntity
  8
User.1
  6
CONTINUOUS
100
AcDbLine
 10
6.7661029133858266
 20
-1.4767005118110237
 30
0
 11
6.7687020078740154
 21
-1.4864005511811023
 31
0
  0
LINE
  5
32
330
1B
100
AcDbEntity
  8
User.1
  6
CONTINUOUS
100
AcDbLine
 10
6.7687020078740154
 20
-1.4864005511811023
 30
0
 11
6.7700127952755906
 21
-1.4963568503937008
 31
0
  0
LINE
  5
33
330
1B
100
AcDbEntity
  8
User.1
  6
CONTINUOUS
100
AcDbLine
 10
6.7700127952755906
 20
-1.4963568503937008
 30
0
 11
6.7700127952755906
 21
-1.5063990551181101
 31
0
  0
LINE
  5
34
330
1B
100
AcDbEntity
  8
User.1
  6
CONTINUOUS
100
AcDbLine
 10
6.7700127952755906
 20
-1.5063990551181101
 30
0
 11
6.7687020078740154
 21
-1.5163553543307087
 31
0
  0
LINE
  5
35
330
1B
100
AcDbEntity
  8
User.1
  6
CONTINUOUS
100
AcDbLine
 10
6.7687020078740154
 20
-1.5163553543307087
 30
0
 11
6.7661029133858266
 21
-1.5260553937007875
 31
0
  0
LINE
  5
36
330
1B
100
AcDbEntity
  8
User.1
  6
CONTINUOUS
100
AcDbLine
 10
6.7661029133858266
 20
-1.5260553937007875
 30
0
 11
6.762259921259842
 21
-1.5353331889763779
 31
0
  0
LINE
  5
37
330
1B
100
AcDbEntity
  8
User.1
  6
CONTINUOUS
100
AcDbLine
 10
6.762259921259842
 20
-1.5353331889763779
 30
0
 11
6.7572388188976378
 21
-1.54403
 31
0
  0
LINE
  5
38
330
1B
100
AcDbEntity
  8
User.1
  6
CONTINUOUS
100
AcDbLine
 10
6.7572388188976378
 20
-1.54403
 30
0
 11
6.7511255118110238
 21
-1.5519970078740157
 31
0
  0
LINE
  5
39
330
1B
100
AcDbEntity
  8
User.1
  6
CONTINUOUS
100
AcDbLine
 10
6.7511255118110238
 20
-1.5519970078740157
 30
0
 11
6.7440245669291334
 21
-1.5590979527559055
 31
0
  0
LINE
  5
3A
330
1B
100
AcDbEntity
  8
User.1
  6
CONTINUOUS
100
AcDbLine
 10
6.7440245669291334
 20
-1.5590979527559055
 30
0
 11
6.7360575590551184
 21
-1.5652112598425196
 31
0
  0
LINE
  5
3B
330
1B
100
AcDbEntity
  8
User.1
  6
CONTINUOUS
100
AcDbLine
 10
6.7360575590551184
 20
-1.5652112598425196
 30
0
 11
6.7273607480314963
 21
-1.5702323622047243
 31
0
  0
LINE
  5
3C
330
1B
100
AcDbEntity
  8
User.1
  6
CONTINUOUS
100
AcDbLine
 10
6.7273607480314963
 20
-1.5702323622047243
 30
0
 11
6.7180829527559052
 21
-1.5740753543307087
 31
0
  0
LINE
  5
3D
330
1B
100
AcDbEntity
  8
User.1
  6
CONTINUOUS
100
AcDbLine
 10
6.7180829527559052
 20
-1.5740753543307087
 30
0
 11
6.7083829133858268
 21
-1.5766744488188975
 31
0
  0
LINE
  5
3E
330
1B
100
AcDbEntity
  8
User.1
  6
CONTINUOUS
100
AcDbLine
 10
6.7083829133858268
 20
-1.5766744488188975
 30
0
 11
6.6984266141732283
 21
-1.5779852362204725
 31
0
  0
LINE
  5
3F
330
1B
100
AcDbEntity
  8
User.1
  6
CONTINUOUS
100
AcDbLine
 10
6.6984266141732283
 20
-1.5779852362204725
 30
0
 11
6.688384409448819
 21
-1.5779852362204725
 31
0
  0
LINE
  5
40
330
1B
100
AcDbEntity
  8
User.1
  6
CONTINUOUS
100
AcDbLine
 10
6.688384409448819
 20
-1.5779852362204725
 30
0
 11
6.6784281102362204
 21
-1.5766744488188975
 31
0
  0
LINE
  5
41
330
1B
100
AcDbEntity
  8
User.1
  6
CONTINUOUS
100
AcDbLine
 10
6.6784281102362204
 20
-1.5766744488188975
 30
0
 11
6.6687280708661412
 21
-1.5740753543307087
 31
0
  0
LINE
  5
42
330
1B
100
AcDbEntity
  8
User.1
  6
CONTINUOUS
100
AcDbLine
 10
6.6687280708661412
 20
-1.5740753543307087
 30
0
 11
6.6594502755905509
 21
-1.5702323622047243
 31
0
  0
LINE
  5
43
330
1B
100
AcDbEntity
  8
User.1
  6
CONTINUOUS
100
AcDbLine
 10
6.6594502755905509
 20
-1.5702323622047243
 30
0
 11
6.6507534645669288
 21
-1.5652112598425196
 31
0
  0
LINE
  5
44
330
1B
100
AcDbEntity
  8
User.1
  6
CONTINUOUS
100
AcDbLine
 10
6.6507534645669288
 20
-1.5652112598425196
 30
0
 11
6.6427864566929129
 21
-1.5590979527559055
 31
0
  0
LINE
  5
45
330
1B
100
AcDbEntity
  8
User.1
  6
CONTINUOUS
100
AcDbLine
 10
6.6427864566929129
 20
-1.5590979527559055
 30
0
 11
6.6356855118110234
 21
-1.5519970078740157
 31
0
  0
LINE
  5
46
330
1B
100
AcDbEntity
  8
User.1
  6
CONTINUOUS
100
AcDbLine
 10
6.6356855118110234
 20
-1.5519970078740157
 30
0
 11
6.6295722047244094
 21
-1.54403
 31
0
  0
LINE
  5
47
330
1B
100
AcDbEntity
  8
User.1
  6
CONTINUOUS
100
AcDbLine
 10
6.6295722047244094
 20
-1.54403
 30
0
 11
6.6245511023622043
 21
-1.5353331889763779
 31
0
  0
LINE
  5
48
330
1B
100
AcDbEntity
  8
User.1
  6
CONTINUOUS
100
AcDbLine
 10
6.6245511023622043
 20
-1.5353331889763779
 30
0
 11
6.6207081102362206
 21
-1.5260553937007875
 31
0
  0
LINE
  5
49
330
1B
100
AcDbEntity
  8
User.1
  6
CONTINUOUS
100
AcDbLine
 10
6.6207081102362206
 20
-1.5260553937007875
 30
0
 11
6.6181090157480318
 21
-1.5163553543307087
 31
0
  0
LINE
  5
4A
330
1B
100
AcDbEntity
  8
User.1
  6
CONTINUOUS
100
AcDbLine
 10
6.6181090157480318
 20
-1.5163553543307087
 30
0
 11
6.6167982283464566
 21
-1.5063990551181101
 31
0
  0
LINE
  5
4B
330
1B
100
AcDbEntity
  8
User.1
  6
CONTINUOUS
100
AcDbLine
 10
6.6167982283464566
 20
-1.5063990551181101
 30
0
 11
6.6167982283464566
 21
-1.4966041338582676
 31
0
  0
LINE
  5
4C
330
1B
100
AcDbEntity
  8
User.1
  6
CONTINUOUS
100
AcDbLine
 10
6.6167982283464566
 20
-1.4966041338582676
 30
0
 11
6.6167982283464566
 21
-1.4963568503937008
 31
0
  0
LINE
  5
4D
330
1B
100
AcDbEntity
  8
User.1
  6
CONTINUOUS
100
AcDbLine
 10
6.6167982283464566
 20
-1.4963568503937008
 30
0
 11
6.6181090157480318
 21
-1.4864005511811023
 31
0
  0
LINE
  5
4E
330
1B
100
AcDbEntity
  8
User.1
  6
CONTINUOUS
100
AcDbLine
 10
6.6181090157480318
 20
-1.4864005511811023
 30
0
 11
6.6207081102362206
 21
-1.4767005118110237
 31
0
  0
LINE
  5
4F
330
1B
100
AcDbEntity
  8
User.1
  6
CONTINUOUS
100
AcDbLine
 10
6.6207081102362206
 20
-1.4767005118110237
 30
0
 11
6.6245511023622043
 21
-1.467422716535433
 31
0
  0
LINE
  5
50
330
1B
100
AcDbEntity
  8
User.1
  6
CONTINUOUS
100
AcDbLine
 10
6.6245511023622043
 20
-1.467422716535433
 30
0
 11
6.6295722047244094
 21
-1.4587259055118109
 31
0
  0
LINE
  5
51
330
1B
100
AcDbEntity
  8
User.1
  6
CONTINUOUS
100
AcDbLine
 10
6.6295722047244094
 20
-1.4587259055118109
 30
0
 11
6.6356855118110234
 21
-1.4507588976377952
 31
0
  0
LINE
  5
52
330
1B
100
AcDbEntity
  8
User.1
  6
CONTINUOUS
100
AcDbLine
 10
6.6356855118110234
 20
-1.4507588976377952
 30
0
 11
6.6427864566929129
 21
-1.4436579527559055
 31
0
  0
LINE
  5
53
330
1B
100
AcDbEntity
  8
User.1
  6
CONTINUOUS
100
AcDbLine
 10
6.6427864566929129
 20
-1.4436579527559055
 30
0
 11
6.6507534645669288
 21
-1.4375446456692913
 31
0
  0
LINE
  5
54
330
1B
100
AcDbEntity
  8
User.1
  6
CONTINUOUS
100
AcDbLine
 10
6.6507534645669288
 20
-1.4375446456692913
 30
0
 11
6.6594502755905509
 21
-1.4325235433070866
 31
0
  0
LINE
  5
55
330
1B
100
AcDbEntity
  8
User.1
  6
CONTINUOUS
100
AcDbLine
 10
6.6594502755905509
 20
-1.4325235433070866
 30
0
 11
6.6687280708661412
 21
-1.4286805511811023
 31
0
  0
LINE
  5
56
330
1B
100
AcDbEntity
  8
User.1
  6
CONTINUOUS
100
AcDbLine
 10
6.6687280708661412
 20
-1.4286805511811023
 30
0
 11
6.6784281102362204
 21
-1.4260814566929134
 31
0
  0
LINE
  5
57
330
1B
100
AcDbEntity
  8
User.1
  6
CONTINUOUS
100
AcDbLine
 10
6.6784281102362204
 20
-1.4260814566929134
 30
0
 11
6.688384409448819
 21
-1.4247706692913384
 31
0
  0
LINE
  5
58
330
1B
100
AcDbEntity
  8
User.1
  6
CONTINUOUS
100
AcDbLine
 10
6.688384409448819
 20
-1.4247706692913384
 30
0
 11
6.6984266141732283
 21
-1.4247706692913384
 31
0
  0
LINE
  5
59
330
1B
100
AcDbEntity
  8
User.1
  6
CONTINUOUS
100
AcDbLine
 10
6.6984266141732283
 20
-1.4247706692913384
 30
0
 11
6.7083829133858268
 21
-1.4260814566929134
 31
0
  0
LINE
  5
5A
330
1B
100
AcDbEntity
  8
User.1
  6
CONTINUOUS
100
AcDbLine
 10
6.6205708661417324
 20
-1.5061517716535433
 30
0
 11
6.6218170866141728
 21
-1.5156177559055117
 31
0
  0
LINE
  5
5B
330
1B
100
AcDbEntity
  8
User.1
  6
CONTINUOUS
100
AcDbLine
 10
6.6218170866141728
 20
-1.5156177559055117
 30
0
 11
6.6242882283464564
 21
-1.5248401181102362
 31
0
  0
LINE
  5
5C
330
1B
100
AcDbEntity
  8
User.1
  6
CONTINUOUS
100
AcDbLine
 10
6.6242882283464564
 20
-1.5248401181102362
 30
0
 11
6.6279419685039365
 21
-1.5336610236220471
 31
0
  0
LINE
  5
5D
330
1B
100
AcDbEntity
  8
User.1
  6
CONTINUOUS
100
AcDbLine
 10
6.6279419685039365
 20
-1.5336610236220471
 30
0
 11
6.6327157874015743
 21
-1.541929527559055
 31
0
  0
LINE
  5
5E
330
1B
100
AcDbEntity
  8
User.1
  6
CONTINUOUS
100
AcDbLine
 10
6.6327157874015743
 20
-1.541929527559055
 30
0
 11
6.6385280314960626
 21
-1.5495042125984251
 31
0
  0
LINE
  5
5F
330
1B
100
AcDbEntity
  8
User.1
  6
CONTINUOUS
100
AcDbLine
 10
6.6385280314960626
 20
-1.5495042125984251
 30
0
 11
6.6452792519685042
 21
-1.556255433070866
 31
0
  0
LINE
  5
60
330
1B
100
AcDbEntity
  8
User.1
  6
CONTINUOUS
100
AcDbLine
 10
6.6452792519685042
 20
-1.556255433070866
 30
0
 11
6.6528539370078743
 21
-1.5620676771653543
 31
0
  0
LINE
  5
61
330
1B
100
AcDbEntity
  8
User.1
  6
CONTINUOUS
100
AcDbLine
 10
6.6528539370078743
 20
-1.5620676771653543
 30
0
 11
6.6611224409448822
 21
-1.5668414960629922
 31
0
  0
LINE
  5
62
330
1B
100
AcDbEntity
  8
User.1
  6
CONTINUOUS
100
AcDbLine
 10
6.6611224409448822
 20
-1.5668414960629922
 30
0
 11
6.6699433464566926
 21
-1.5704952362204725
 31
0
  0
LINE
  5
63
330
1B
100
AcDbEntity
  8
User.1
  6
CONTINUOUS
100
AcDbLine
 10
6.6699433464566926
 20
-1.5704952362204725
 30
0
 11
6.6791657086614169
 21
-1.5729663779527558
 31
0
  0
LINE
  5
64
330
1B
100
AcDbEntity
  8
User.1
  6
CONTINUOUS
100
AcDbLine
 10
6.6791657086614169
 20
-1.5729663779527558
 30
0
 11
6.6886316929133853
 21
-1.5742125984251969
 31
0
  0
LINE
  5
65
330
1B
100
AcDbEntity
  8
User.1
  6
CONTINUOUS
100
AcDbLine
 10
6.6886316929133853
 20
-1.5742125984251969
 30
0
 11
6.698179330708661
 21
-1.5742125984251969
 31
0
  0
LINE
  5
66
330
1B
100
AcDbEntity
  8
User.1
  6
CONTINUOUS
100
AcDbLine
 10
6.698179330708661
 20
-1.5742125984251969
 30
0
 11
6.7076453149606294
 21
-1.5729663779527558
 31
0
  0
LINE
  5
67
330
1B
100
AcDbEntity
  8
User.1
  6
CONTINUOUS
100
AcDbLine
 10
6.7076453149606294
 20
-1.5729663779527558
 30
0
 11
6.7168676771653546
 21
-1.5704952362204725
 31
0
  0
LINE
  5
68
330
1B
100
AcDbEntity
  8
User.1
  6
CONTINUOUS
100
AcDbLine
 10
6.7168676771653546
 20
-1.5704952362204725
 30
0
 11
6.7256885826771651
 21
-1.5668414960629922
 31
0
  0
LINE
  5
69
330
1B
100
AcDbEntity
  8
User.1
  6
CONTINUOUS
100
AcDbLine
 10
6.7256885826771651
 20
-1.5668414960629922
 30
0
 11
6.7339570866141729
 21
-1.5620676771653543
 31
0
  0
LINE
  5
6A
330
1B
100
AcDbEntity
  8
User.1
  6
CONTINUOUS
100
AcDbLine
 10
6.7339570866141729
 20
-1.5620676771653543
 30
0
 11
6.741531771653543
 21
-1.556255433070866
 31
0
  0
LINE
  5
6B
330
1B
100
AcDbEntity
  8
User.1
  6
CONTINUOUS
100
AcDbLine
 10
6.741531771653543
 20
-1.556255433070866
 30
0
 11
6.7482829921259837
 21
-1.5495042125984251
 31
0
  0
LINE
  5
6C
330
1B
100
AcDbEntity
  8
User.1
  6
CONTINUOUS
100
AcDbLine
 10
6.7482829921259837
 20
-1.5495042125984251
 30
0
 11
6.754095236220472
 21
-1.541929527559055
 31
0
  0
LINE
  5
6D
330
1B
100
AcDbEntity
  8
User.1
  6
CONTINUOUS
100
AcDbLine
 10
6.754095236220472
 20
-1.541929527559055
 30
0
 11
6.7588690551181099
 21
-1.5336610236220471
 31
0
  0
LINE
  5
6E
330
1B
100
AcDbEntity
  8
User.1
  6
CONTINUOUS
100
AcDbLine
 10
6.7588690551181099
 20
-1.5336610236220471
 30
0
 11
6.76252279527559
 21
-1.5248401181102362
 31
0
  0
LINE
  5
6F
330
1B
100
AcDbEntity
  8
User.1
  6
CONTINUOUS
100
AcDbLine
 10
6.76252279527559
 20
-1.5248401181102362
 30
0
 11
6.7649939370078735
 21
-1.5156177559055117
 31
0
  0
LINE
  5
70
330
1B
100
AcDbEntity
  8
User.1
  6
CONTINUOUS
100
AcDbLine
 10
6.7649939370078735
 20
-1.5156177559055117
 30
0
 11
6.7662401574803148
 21
-1.5061517716535433
 31
0
  0
LINE
  5
71
330
1B
100
AcDbEntity
  8
User.1
  6
CONTINUOUS
100
AcDbLine
 10
6.7662401574803148
 20
-1.5061517716535433
 30
0
 11
6.7662401574803148
 21
-1.4966041338582676
 31
0
  0
LINE
  5
72
330
1B
100
AcDbEntity
  8
User.1
  6
CONTINUOUS
100
AcDbLine
 10
6.7662401574803148
 20
-1.4966041338582676
 30
0
 11
6.7649939370078735
 21
-1.4871381496062992
 31
0
  0
LINE
  5
73
330
1B
100
AcDbEntity
  8
User.1
  6
CONTINUOUS
100
AcDbLine
 10
6.7649939370078735
 20
-1.4871381496062992
 30
0
 11
6.76252279527559
 21
-1.4779157874015747
 31
0
  0
LINE
  5
74
330
1B
100
AcDbEntity
  8
User.1
  6
CONTINUOUS
100
AcDbLine
 10
6.76252279527559
 20
-1.4779157874015747
 30
0
 11
6.7588690551181099
 21
-1.4690948818897638
 31
0
  0
LINE
  5
75
330
1B
100
AcDbEntity
  8
User.1
  6
CONTINUOUS
100
AcDbLine
 10
6.7588690551181099
 20
-1.4690948818897638
 30
0
 11
6.754095236220472
 21
-1.4608263779527559
 31
0
  0
LINE
  5
76
330
1B
100
AcDbEntity
  8
User.1
  6
CONTINUOUS
100
AcDbLine
 10
6.754095236220472
 20
-1.4608263779527559
 30
0
 11
6.7482829921259837
 21
-1.4532516929133859
 31
0
  0
LINE
  5
77
330
1B
100
AcDbEntity
  8
User.1
  6
CONTINUOUS
100
AcDbLine
 10
6.7482829921259837
 20
-1.4532516929133859
 30
0
 11
6.741531771653543
 21
-1.4465004724409449
 31
0
  0
LINE
  5
78
330
1B
100
AcDbEntity
  8
User.1
  6
CONTINUOUS
100
AcDbLine
 10
6.741531771653543
 20
-1.4465004724409449
 30
0
 11
6.7339570866141729
 21
-1.4406882283464566
 31
0
  0
LINE
  5
79
330
1B
100
AcDbEntity
  8
User.1
  6
CONTINUOUS
100
AcDbLine
 10
6.7339570866141729
 20
-1.4406882283464566
 30
0
 11
6.7256885826771651
 21
-1.4359144094488188
 31
0
  0
LINE
  5
7A
330
1B
100
AcDbEntity
  8
User.1
  6
CONTINUOUS
100
AcDbLine
 10
6.7256885826771651
 20
-1.4359144094488188
 30
0
 11
6.7168676771653546
 21
-1.4322606692913384
 31
0
  0
LINE
  5
7B
330
1B
100
AcDbEntity
  8
User.1
  6
CONTINUOUS
100
AcDbLine
 10
6.7168676771653546
 20
-1.4322606692913384
 30
0
 11
6.7076453149606294
 21
-1.4297895275590551
 31
0
  0
LINE
  5
7C
330
1B
100
AcDbEntity
  8
User.1
  6
CONTINUOUS
100
AcDbLine
 10
6.7076453149606294
 20
-1.4297895275590551
 30
0
 11
6.698179330708661
 21
-1.428543307086614
 31
0
  0
LINE
  5
7D
330
1B
100
AcDbEntity
  8
User.1
  6
CONTINUOUS
100
AcDbLine
 10
6.698179330708661
 20
-1.428543307086614
 30
0
 11
6.6886316929133853
 21
-1.428543307086614
 31
0
  0
LINE
  5
7E
330
1B
100
AcDbEntity
  8
User.1
  6
CONTINUOUS
100
AcDbLine
 10
6.6886316929133853
 20
-1.428543307086614
 30
0
 11
6.6791657086614169
 21
-1.4297895275590551
 31
0
  0
LINE
  5
7F
330
1B
100
AcDbEntity
  8
User.1
  6
CONTINUOUS
100
AcDbLine
 10
6.6791657086614169
 20
-1.4297895275590551
 30
0
 11
6.6699433464566926
 21
-1.4322606692913384
 31
0
  0
LINE
  5
80
330
1B
100
AcDbEntity
  8
User.1
  6
CONTINUOUS
100
AcDbLine
 10
6.6699433464566926
 20
-1.4322606692913384
 30
0
 11
6.6611224409448822
 21
-1.4359144094488188
 31
0
  0
LINE
  5
81
330
1B
100
AcDbEntity
  8
User.1
  6
CONTINUOUS
100
AcDbLine
 10
6.6611224409448822
 20
-1.4359144094488188
 30
0
 11
6.6528539370078743
 21
-1.4406882283464566
 31
0
  0
LINE
  5
82
330
1B
100
AcDbEntity
  8
User.1
  6
CONTINUOUS
100
AcDbLine
 10
6.6528539370078743
 20
-1.4406882283464566
 30
0
 11
6.6452792519685042
 21
-1.4465004724409449
 31
0
  0
LINE
  5
83
330
1B
100
AcDbEntity
  8
User.1
  6
CONTINUOUS
100
AcDbLine
 10
6.6452792519685042
 20
-1.4465004724409449
 30
0
 11
6.6385280314960626
 21
-1.4532516929133859
 31
0
  0
LINE
  5
84
330
1B
100
AcDbEntity
  8
User.1
  6
CONTINUOUS
100
AcDbLine
 10
6.6385280314960626
 20
-1.4532516929133859
 30
0
 11
6.6327157874015743
 21
-1.4608263779527559
 31
0
  0
LINE
  5
85
330
1B
100
AcDbEntity
  8
User.1
  6
CONTINUOUS
100
AcDbLine
 10
6.6327157874015743
 20
-1.4608263779527559
 30
0
 11
6.6279419685039365
 21
-1.4690948818897638
 31
0
  0
LINE
  5
86
330
1B
100
AcDbEntity
  8
User.1
  6
CONTINUOUS
100
AcDbLine
 10
6.6279419685039365
 20
-1.4690948818897638
 30
0
 11
6.6242882283464564
 21
-1.4779157874015747
 31
0
  0
LINE
  5
87
330
1B
100
AcDbEntity
  8
User.1
  6
CONTINUOUS
100
AcDbLine
 10
6.6242882283464564
 20
-1.4779157874015747
 30
0
 11
6.6218170866141728
 21
-1.4871381496062992
 31
0
  0
LINE
  5
88
330
1B
100
AcDbEntity
  8
User.1
  6
CONTINUOUS
100
AcDbLine
 10
6.6218170866141728
 20
-1.4871381496062992
 30
0
 11
6.6205708661417324
 21
-1.4966041338582676
 31
0
  0
LINE
  5
89
330
1B
100
AcDbEntity
  8
User.1
  6
CONTINUOUS
100
AcDbLine
 10
6.6205708661417324
 20
-1.4966041338582676
 30
0
 11
6.6205708661417324
 21
-1.5061517716535433
 31
0
  0
CIRCLE
  5
8A
330
1B
100
AcDbEntity
  8
User.1
100
AcDbCircle
 10
4.8634842519685035
 20
-2.8656250000000001
 30
0
 40
0.0344488188976378
  0
CIRCLE
  5
8B
330
1B
100
AcDbEntity
  8
User.1
100
AcDbCircle
 10
5.0634842519685037
 20
-2.8656250000000001
 30
0
 40
0.078740157480315
  0
CIRCLE
  5
8C
330
1B
100
AcDbEntity
  8
User.1
100
AcDbCircle
 10
5.2634842519685039
 20
-2.8656250000000001
 30
0
 40
0.0344488188976378
  0
CIRCLE
  5
8D
330
1B
100
AcDbEntity
  8
User.1
100
AcDbCircle
 10
4.9134842519685042
 20
-2.765625
 30
0
 40
0.0295275590551181
  0
CIRCLE
  5
8E
330
1B
100
AcDbEntity
  8
User.1
100
AcDbCircle
 10
5.1634842519685042
 20
-2.6656249999999999
 30
0
 40
0.0295275590551181
  0
CIRCLE
  5
8F
330
1B
100
AcDbEntity
  8
User.1
100
AcDbCircle
 10
2.613484251968504
 20
-3.1000000000000001
 30
0
 40
0.0344488188976378
  0
CIRCLE
  5
90
330
1B
100
AcDbEntity
  8
User.1
100
AcDbCircle
 10
2.8134842519685037
 20
-3.1000000000000001
 30
0
 40
0.078740157480315
  0
CIRCLE
  5
91
330
1B
100
AcDbEntity
  8
User.1
100
AcDbCircle
 10
3.0134842519685039
 20
-3.1000000000000001
 30
0
 40
0.0344488188976378
  0
CIRCLE
  5
92
330
1B
100
AcDbEntity
  8
User.1
100
AcDbCircle
 10
2.6634842519685038
 20
-3.
 30
0
 40
0.0295275590551181
  0
CIRCLE
  5
93
330
1B
100
AcDbEntity
  8
User.1
100
AcDbCircle
 10
2.9134842519685038
 20
-2.8999999999999999
 30
0
 40
0.0295275590551181
  0
CIRCLE
  5
94
330
1B
100
AcDbEntity
  8
User.1
100
AcDbCircle
 10
5.6134842519685035
 20
-2.2093750000000001
 30
0
 40
0.0344488188976378
  0
CIRCLE
  5
95
330
1B
100
AcDbEntity
  8
User.1
100
AcDbCircle
 10
5.8134842519685037
 20
-2.2093750000000001
 30
0
 40
0.078740157480315
  0
CIRCLE
  5
96
330
1B
100
AcDbEntity
  8
User.1
100
AcDbCircle
 10
6.0134842519685039
 20
-2.2093750000000001
 30
0
 40
0.0344488188976378
  0
CIRCLE
  5
97
330
1B
100
AcDbEntity
  8
User.1
100
AcDbCircle
 10
5.6634842519685042
 20
-2.109375
 30
0
 40
0.0295275590551181
  0
CIRCLE
  5
98
330
1B
100
AcDbEntity
  8
User.1
100
AcDbCircle
 10
5.9134842519685042
 20
-2.0093749999999999
 30
0
 40
0.0295275590551181
  0
CIRCLE
  5
99
330
1B
100
AcDbEntity
  8
User.1
100
AcDbCircle
 10
4.8634842519685035
 20
-3.6156250000000001
 30
0
 40
0.0344488188976378
  0
CIRCLE
  5
9A
330
1B
100
AcDbEntity
  8
User.1
100
AcDbCircle
 10
5.0634842519685037
 20
-3.6156250000000001
 30
0
 40
0.078740157480315
  0
CIRCLE
  5
9B
330
1B
100
AcDbEntity
  8
User.1
100
AcDbCircle
 10
5.2634842519685039
 20
-3.6156250000000001
 30
0
 40
0.0344488188976378
  0
CIRCLE
  5
9C
330
1B
100
AcDbEntity
  8
User.1
100
AcDbCircle
 10
4.9134842519685042
 20
-3.515625
 30
0
 40
0.0295275590551181
  0
CIRCLE
  5
9D
330
1B
100
AcDbEntity
  8
User.1
100
AcDbCircle
 10
5.1634842519685042
 20
-3.4156249999999999
 30
0
 40
0.0295275590551181
  0
CIRCLE
  5
9E
330
1B
100
AcDbEntity
  8
User.1
100
AcDbCircle
 10
4.1134842519685035
 20
-3.4750000000000001
 30
0
 40
0.0344488188976378
  0
CIRCLE
  5
9F
330
1B
100
AcDbEntity
  8
User.1
100
AcDbCircle
 10
4.3134842519685037
 20
-3.4750000000000001
 30
0
 40
0.078740157480315
  0
CIRCLE
  5
A0
330
1B
100
AcDbEntity
  8
User.1
100
AcDbCircle
 10
4.5134842519685039
 20
-3.4750000000000001
 30
0
 40
0.0344488188976378
  0
CIRCLE
  5
A1
330
1B
100
AcDbEntity
  8
User.1
100
AcDbCircle
 10
4.1634842519685042
 20
-3.375
 30
0
 40
0.0295275590551181
  0
CIRCLE
  5
A2
330
1B
100
AcDbEntity
  8
User.1
100
AcDbCircle
 10
4.4134842519685042
 20
-3.2749999999999999
 30
0
 40
0.0295275590551181
  0
CIRCLE
  5
A3
330
1B
100
AcDbEntity
  8
User.1
100
AcDbCircle
 10
4.9905384645669288
 20
-4.4122683858267715
 30
0
 40
0.0344488188976378
  0
CIRCLE
  5
A4
330
1B
100
AcDbEntity
  8
User.1
100
AcDbCircle
 10
5.1875
 20
-4.4469980314960633
 30
0
 40
0.078740157480315
  0
CIRCLE
  5
A5
330
1B
100
AcDbEntity
  8
User.1
100
AcDbCircle
 10
5.3844615354330712
 20
-4.4817276771653543
 30
0
 40
0.0344488188976378
  0
CIRCLE
  5
A6
330
1B
100
AcDbEntity
  8
User.1
100
AcDbCircle
 10
5.0571436220472439
 20
-4.32247
 30
0
 40
0.0295275590551181
  0
CIRCLE
  5
A7
330
1B
100
AcDbEntity
  8
User.1
100
AcDbCircle
 10
5.3207104330708663
 20
-4.2674012992125983
 30
0
 40
0.0295275590551181
  0
CIRCLE
  5
A8
330
1B
100
AcDbEntity
  8
User.1
100
AcDbCircle
 10
1.863484251968504
 20
-2.3968750000000001
 30
0
 40
0.0344488188976378
  0
CIRCLE
  5
A9
330
1B
100
AcDbEntity
  8
User.1
100
AcDbCircle
 10
2.0634842519685037
 20
-2.3968750000000001
 30
0
 40
0.078740157480315
  0
CIRCLE
  5
AA
330
1B
100
AcDbEntity
  8
User.1
100
AcDbCircle
 10
2.2634842519685039
 20
-2.3968750000000001
 30
0
 40
0.0344488188976378
  0
CIRCLE
  5
AB
330
1B
100
AcDbEntity
  8
User.1
100
AcDbCircle
 10
1.9134842519685038
 20
-2.296875
 30
0
 40
0.0295275590551181
  0
CIRCLE
  5
AC
330
1B
100
AcDbEntity
  8
User.1
100
AcDbCircle
 10
2.1634842519685038
 20
-2.1968749999999999
 30
0
 40
0.0295275590551181
  0
CIRCLE
  5
AD
330
1B
100
AcDbEntity
  8
User.1
100
AcDbCircle
 10
1.113484251968504
 20
-2.3968750000000001
 30
0
 40
0.0344488188976378
  0
CIRCLE
  5
AE
330
1B
100
AcDbEntity
  8
User.1
100
AcDbCircle
 10
1.3134842519685039
 20
-2.3968750000000001
 30
0
 40
0.078740157480315
  0
CIRCLE
  5
AF
330
1B
100
AcDbEntity
  8
User.1
100
AcDbCircle
 10
1.5134842519685039
 20
-2.3968750000000001
 30
0
 40
0.0344488188976378
  0
CIRCLE
  5
B0
330
1B
100
AcDbEntity
  8
User.1
100
AcDbCircle
 10
1.1634842519685038
 20
-2.296875
 30
0
 40
0.0295275590551181
  0
CIRCLE
  5
B1
330
1B
100
AcDbEntity
  8
User.1
100
AcDbCircle
 10
1.4134842519685038
 20
-2.1968749999999999
 30
0
 40
0.0295275590551181
  0
CIRCLE
  5
B2
330
1B
100
AcDbEntity
  8
User.1
100
AcDbCircle
 10
5.6134842519685035
 20
-3.7093750000000001
 30
0
 40
0.0344488188976378
  0
CIRCLE
  5
B3
330
1B
100
AcDbEntity
  8
User.1
100
AcDbCircle
 10
5.8134842519685037
 20
-3.7093750000000001
 30
0
 40
0.078740157480315
  0
CIRCLE
  5
B4
330
1B
100
AcDbEntity
  8
User.1
100
AcDbCircle
 10
6.0134842519685039
 20
-3.7093750000000001
 30
0
 40
0.0344488188976378
  0
CIRCLE
  5
B5
330
1B
100
AcDbEntity
  8
User.1
100
AcDbCircle
 10
5.6634842519685042
 20
-3.609375
 30
0
 40
0.0295275590551181
  0
CIRCLE
  5
B6
330
1B
100
AcDbEntity
  8
User.1
100
AcDbCircle
 10
5.9134842519685042
 20
-3.5093749999999999
 30
0
 40
0.0295275590551181
  0
CIRCLE
  5
B7
330
1B
100
AcDbEntity
  8
User.1
100
AcDbCircle
 10
2.613484251968504
 20
-2.3500000000000001
 30
0
 40
0.0344488188976378
  0
CIRCLE
  5
B8
330
1B
100
AcDbEntity
  8
User.1
100
AcDbCircle
 10
2.8134842519685037
 20
-2.3500000000000001
 30
0
 40
0.078740157480315
  0
CIRCLE
  5
B9
330
1B
100
AcDbEntity
  8
User.1
100
AcDbCircle
 10
3.0134842519685039
 20
-2.3500000000000001
 30
0
 40
0.0344488188976378
  0
CIRCLE
  5
BA
330
1B
100
AcDbEntity
  8
User.1
100
AcDbCircle
 10
2.6634842519685038
 20
-2.25
 30
0
 40
0.0295275590551181
  0
CIRCLE
  5
BB
330
1B
100
AcDbEntity
  8
User.1
100
AcDbCircle
 10
2.9134842519685038
 20
-2.1499999999999999
 30
0
 40
0.0295275590551181
  0
CIRCLE
  5
BC
330
1B
100
AcDbEntity
  8
User.1
100
AcDbCircle
 10
2.613484251968504
 20
-1.5999999999999999
 30
0
 40
0.0344488188976378
  0
CIRCLE
  5
BD
330
1B
100
AcDbEntity
  8
User.1
100
AcDbCircle
 10
2.8134842519685037
 20
-1.5999999999999999
 30
0
 40
0.078740157480315
  0
CIRCLE
  5
BE
330
1B
100
AcDbEntity
  8
User.1
100
AcDbCircle
 10
3.0134842519685039
 20
-1.5999999999999999
 30
0
 40
0.0344488188976378
  0
CIRCLE
  5
BF
330
1B
100
AcDbEntity
  8
User.1
100
AcDbCircle
 10
2.6634842519685038
 20
-1.5
 30
0
 40
0.0295275590551181
  0
CIRCLE
  5
C0
330
1B
100
AcDbEntity
  8
User.1
100
AcDbCircle
 10
2.9134842519685038
 20
-1.3999999999999999
 30
0
 40
0.0295275590551181
  0
CIRCLE
  5
C1
330
1B
100
AcDbEntity
  8
User.1
100
AcDbCircle
 10
2.613484251968504
 20
-3.8500000000000001
 30
0
 40
0.0344488188976378
  0
CIRCLE
  5
C2
330
1B
100
AcDbEntity
  8
User.1
100
AcDbCircle
 10
2.8134842519685037
 20
-3.8500000000000001
 30
0
 40
0.078740157480315
  0
CIRCLE
  5
C3
330
1B
100
AcDbEntity
  8
User.1
100
AcDbCircle
 10
3.0134842519685039
 20
-3.8500000000000001
 30
0
 40
0.0344488188976378
  0
CIRCLE
  5
C4
330
1B
100
AcDbEntity
  8
User.1
100
AcDbCircle
 10
2.6634842519685038
 20
-3.75
 30
0
 40
0.0295275590551181
  0
CIRCLE
  5
C5
330
1B
100
AcDbEntity
  8
User.1
100
AcDbCircle
 10
2.9134842519685038
 20
-3.6499999999999999
 30
0
 40
0.0295275590551181
  0
CIRCLE
  5
C6
330
1B
100
AcDbEntity
  8
User.1
100
AcDbCircle
 10
3.363484251968504
 20
-1.3656249999999999
 30
0
 40
0.0344488188976378
  0
CIRCLE
  5
C7
330
1B
100
AcDbEntity
  8
User.1
100
AcDbCircle
 10
3.5634842519685037
 20
-1.3656249999999999
 30
0
 40
0.078740157480315
  0
CIRCLE
  5
C8
330
1B
100
AcDbEntity
  8
User.1
100
AcDbCircle
 10
3.7634842519685039
 20
-1.3656249999999999
 30
0
 40
0.0344488188976378
  0
CIRCLE
  5
C9
330
1B
100
AcDbEntity
  8
User.1
100
AcDbCircle
 10
3.4134842519685038
 20
-1.265625
 30
0
 40
0.0295275590551181
  0
CIRCLE
  5
CA
330
1B
100
AcDbEntity
  8
User.1
100
AcDbCircle
 10
3.6634842519685038
 20
-1.1656249999999999
 30
0
 40
0.0295275590551181
  0
CIRCLE
  5
CB
330
1B
100
AcDbEntity
  8
User.1
100
AcDbCircle
 10
5.6134842519685035
 20
-2.9593750000000001
 30
0
 40
0.0344488188976378
  0
CIRCLE
  5
CC
330
1B
100
AcDbEntity
  8
User.1
100
AcDbCircle
 10
5.8134842519685037
 20
-2.9593750000000001
 30
0
 40
0.078740157480315
  0
CIRCLE
  5
CD
330
1B
100
AcDbEntity
  8
User.1
100
AcDbCircle
 10
6.0134842519685039
 20
-2.9593750000000001
 30
0
 40
0.0344488188976378
  0
CIRCLE
  5
CE
330
1B
100
AcDbEntity
  8
User.1
100
AcDbCircle
 10
5.6634842519685042
 20
-2.859375
 30
0
 40
0.0295275590551181
  0
CIRCLE
  5
CF
330
1B
100
AcDbEntity
  8
User.1
100
AcDbCircle
 10
5.9134842519685042
 20
-2.7593749999999999
 30
0
 40
0.0295275590551181
  0
CIRCLE
  5
D0
330
1B
100
AcDbEntity
  8
User.1
100
AcDbCircle
 10
4.8634842519685035
 20
-2.1156250000000001
 30
0
 40
0.0344488188976378
  0
CIRCLE
  5
D1
330
1B
100
AcDbEntity
  8
User.1
100
AcDbCircle
 10
5.0634842519685037
 20
-2.1156250000000001
 30
0
 40
0.078740157480315
  0
CIRCLE
  5
D2
330
1B
100
AcDbEntity
  8
User.1
100
AcDbCircle
 10
5.2634842519685039
 20
-2.1156250000000001
 30
0
 40
0.0344488188976378
  0
CIRCLE
  5
D3
330
1B
100
AcDbEntity
  8
User.1
100
AcDbCircle
 10
4.9134842519685042
 20
-2.015625
 30
0
 40
0.0295275590551181
  0
CIRCLE
  5
D4
330
1B
100
AcDbEntity
  8
User.1
100
AcDbCircle
 10
5.1634842519685042
 20
-1.9156249999999999
 30
0
 40
0.0295275590551181
  0
CIRCLE
  5
D5
330
1B
100
AcDbEntity
  8
User.1
100
AcDbCircle
 10
3.363484251968504
 20
-3.6156250000000001
 30
0
 40
0.0344488188976378
  0
CIRCLE
  5
D6
330
1B
100
AcDbEntity
  8
User.1
100
AcDbCircle
 10
3.5634842519685037
 20
-3.6156250000000001
 30
0
 40
0.078740157480315
  0
CIRCLE
  5
D7
330
1B
100
AcDbEntity
  8
User.1
100
AcDbCircle
 10
3.7634842519685039
 20
-3.6156250000000001
 30
0
 40
0.0344488188976378
  0
CIRCLE
  5
D8
330
1B
100
AcDbEntity
  8
User.1
100
AcDbCircle
 10
3.4134842519685038
 20
-3.515625
 30
0
 40
0.0295275590551181
  0
CIRCLE
  5
D9
330
1B
100
AcDbEntity
  8
User.1
100
AcDbCircle
 10
3.6634842519685038
 20
-3.4156249999999999
 30
0
 40
0.0295275590551181
  0
CIRCLE
  5
DA
330
1B
100
AcDbEntity
  8
User.1
100
AcDbCircle
 10
5.6134842519685035
 20
-1.4593749999999999
 30
0
 40
0.0344488188976378
  0
CIRCLE
  5
DB
330
1B
100
AcDbEntity
  8
User.1
100
AcDbCircle
 10
5.8134842519685037
 20
-1.4593749999999999
 30
0
 40
0.078740157480315
  0
CIRCLE
  5
DC
330
1B
100
AcDbEntity
  8
User.1
100
AcDbCircle
 10
6.0134842519685039
 20
-1.4593749999999999
 30
0
 40
0.0344488188976378
  0
CIRCLE
  5
DD
330
1B
100
AcDbEntity
  8
User.1
100
AcDbCircle
 10
5.6634842519685042
 20
-1.359375
 30
0
 40
0.0295275590551181
  0
CIRCLE
  5
DE
330
1B
100
AcDbEntity
  8
User.1
100
AcDbCircle
 10
5.9134842519685042
 20
-1.2593749999999999
 30
0
 40
0.0295275590551181
  0
CIRCLE
  5
DF
330
1B
100
AcDbEntity
  8
User.1
100
AcDbCircle
 10
4.1134842519685035
 20
-4.2249999999999996
 30
0
 40
0.0344488188976378
  0
CIRCLE
  5
E0
330
1B
100
AcDbEntity
  8
User.1
100
AcDbCircle
 10
4.3134842519685037
 20
-4.2249999999999996
 30
0
 40
0.078740157480315
  0
CIRCLE
  5
E1
330
1B
100
AcDbEntity
  8
User.1
100
AcDbCircle
 10
4.5134842519685039
 20
-4.2249999999999996
 30
0
 40
0.0344488188976378
  0
CIRCLE
  5
E2
330
1B
100
AcDbEntity
  8
User.1
100
AcDbCircle
 10
4.1634842519685042
 20
-4.125
 30
0
 40
0.0295275590551181
  0
CIRCLE
  5
E3
330
1B
100
AcDbEntity
  8
User.1
100
AcDbCircle
 10
4.4134842519685042
 20
-4.0249999999999995
 30
0
 40
0.0295275590551181
  0
CIRCLE
  5
E4
330
1B
100
AcDbEntity
  8
User.1
100
AcDbCircle
 10
4.8634842519685035
 20
-1.3656249999999999
 30
0
 40
0.0344488188976378
  0
CIRCLE
  5
E5
330
1B
100
AcDbEntity
  8
User.1
100
AcDbCircle
 10
5.0634842519685037
 20
-1.3656249999999999
 30
0
 40
0.078740157480315
  0
CIRCLE
  5
E6
330
1B
100
AcDbEntity
  8
User.1
100
AcDbCircle
 10
5.2634842519685039
 20
-1.3656249999999999
 30
0
 40
0.0344488188976378
  0
CIRCLE
  5
E7
330
1B
100
AcDbEntity
  8
User.1
100
AcDbCircle
 10
4.9134842519685042
 20
-1.265625
 30
0
 40
0.0295275590551181
  0
CIRCLE
  5
E8
330
1B
100
AcDbEntity
  8
User.1
100
AcDbCircle
 10
5.1634842519685042
 20
-1.1656249999999999
 30
0
 40
0.0295275590551181
  0
CIRCLE
  5
E9
330
1B
100
AcDbEntity
  8
User.1
100
AcDbCircle
 10
3.363484251968504
 20
-2.8656250000000001
 30
0
 40
0.0344488188976378
  0
CIRCLE
  5
EA
330
1B
100
AcDbEntity
  8
User.1
100
AcDbCircle
 10
3.5634842519685037
 20
-2.8656250000000001
 30
0
 40
0.078740157480315
  0
CIRCLE
  5
EB
330
1B
100
AcDbEntity
  8
User.1
100
AcDbCircle
 10
3.7634842519685039
 20
-2.8656250000000001
 30
0
 40
0.0344488188976378
  0
CIRCLE
  5
EC
330
1B
100
AcDbEntity
  8
User.1
100
AcDbCircle
 10
3.4134842519685038
 20
-2.765625
 30
0
 40
0.0295275590551181
  0
CIRCLE
  5
ED
330
1B
100
AcDbEntity
  8
User.1
100
AcDbCircle
 10
3.6634842519685038
 20
-2.6656249999999999
 30
0
 40
0.0295275590551181
  0
CIRCLE
  5
EE
330
1B
100
AcDbEntity
  8
User.1
100
AcDbCircle
 10
4.1134842519685035
 20
-1.9749999999999999
 30
0
 40
0.0344488188976378
  0
CIRCLE
  5
EF
330
1B
100
AcDbEntity
  8
User.1
100
AcDbCircle
 10
4.3134842519685037
 20
-1.9749999999999999
 30
0
 40
0.078740157480315
  0
CIRCLE
  5
F0
330
1B
100
AcDbEntity
  8
User.1
100
AcDbCircle
 10
4.5134842519685039
 20
-1.9749999999999999
 30
0
 40
0.0344488188976378
  0
CIRCLE
  5
F1
330
1B
100
AcDbEntity
  8
User.1
100
AcDbCircle
 10
4.1634842519685042
 20
-1.875
 30
0
 40
0.0295275590551181
  0
CIRCLE
  5
F2
330
1B
100
AcDbEntity
  8
User.1
100
AcDbCircle
 10
4.4134842519685042
 20
-1.7749999999999999
 30
0
 40
0.0295275590551181
  0
CIRCLE
  5
F3
330
1B
100
AcDbEntity
  8
User.1
100
AcDbCircle
 10
1.863484251968504
 20
-3.1468750000000001
 30
0
 40
0.0344488188976378
  0
CIRCLE
  5
F4
330
1B
100
AcDbEntity
  8
User.1
100
AcDbCircle
 10
2.0634842519685037
 20
-3.1468750000000001
 30
0
 40
0.078740157480315
  0
CIRCLE
  5
F5
330
1B
100
AcDbEntity
  8
User.1
100
AcDbCircle
 10
2.2634842519685039
 20
-3.1468750000000001
 30
0
 40
0.0344488188976378
  0
CIRCLE
  5
F6
330
1B
100
AcDbEntity
  8
User.1
100
AcDbCircle
 10
1.9134842519685038
 20
-3.046875
 30
0
 40
0.0295275590551181
  0
CIRCLE
  5
F7
330
1B
100
AcDbEntity
  8
User.1
100
AcDbCircle
 10
2.1634842519685038
 20
-2.9468749999999999
 30
0
 40
0.0295275590551181
  0
CIRCLE
  5
F8
330
1B
100
AcDbEntity
  8
User.1
100
AcDbCircle
 10
6.5456565748031492
 20
-4.6831837401574798
 30
0
 40
0.0344488188976378
  0
CIRCLE
  5
F9
330
1B
100
AcDbEntity
  8
User.1
100
AcDbCircle
 10
6.7426181102362204
 20
-4.7179133858267717
 30
0
 40
0.078740157480315
  0
CIRCLE
  5
FA
330
1B
100
AcDbEntity
  8
User.1
100
AcDbCircle
 10
6.9395796456692915
 20
-4.7526430314960626
 30
0
 40
0.0344488188976378
  0
CIRCLE
  5
FB
330
1B
100
AcDbEntity
  8
User.1
100
AcDbCircle
 10
6.6122617322834643
 20
-4.5933853543307084
 30
0
 40
0.0295275590551181
  0
CIRCLE
  5
FC
330
1B
100
AcDbEntity
  8
User.1
100
AcDbCircle
 10
6.8758285433070867
 20
-4.5383166535433066
 30
0
 40
0.0295275590551181
  0
CIRCLE
  5
FD
330
1B
100
AcDbEntity
  8
User.1
100
AcDbCircle
 10
5.7661290157480316
 20
-4.5493254724409447
 30
0
 40
0.0344488188976378
  0
CIRCLE
  5
FE
330
1B
100
AcDbEntity
  8
User.1
100
AcDbCircle
 10
5.9630905511811019
 20
-4.5840551181102365
 30
0
 40
0.078740157480315
  0
CIRCLE
  5
FF
330
1B
100
AcDbEntity
  8
User.1
100
AcDbCircle
 10
6.160052086614173
 20
-4.6187847637795274
 30
0
 40
0.0344488188976378
  0
CIRCLE
  5
100
330
1B
100
AcDbEntity
  8
User.1
100
AcDbCircle
 10
5.8327342125984254
 20
-4.4595271259842519
 30
0
 40
0.0295275590551181
  0
CIRCLE
  5
101
330
1B
100
AcDbEntity
  8
User.1
100
AcDbCircle
 10
6.0963009842519682
 20
-4.4044583858267714
 30
0
 40
0.0295275590551181
  0
CIRCLE
  5
102
330
1B
100
AcDbEntity
  8
User.1
100
AcDbCircle
 10
4.1134842519685035
 20
-2.7250000000000001
 30
0
 40
0.0344488188976378
  0
CIRCLE
  5
103
330
1B
100
AcDbEntity
  8
User.1
100
AcDbCircle
 10
4.3134842519685037
 20
-2.7250000000000001
 30
0
 40
0.078740157480315
  0
CIRCLE
  5
104
330
1B
100
AcDbEntity
  8
User.1
100
AcDbCircle
 10
4.5134842519685039
 20
-2.7250000000000001
 30
0
 40
0.0344488188976378
  0
CIRCLE
  5
105
330
1B
100
AcDbEntity
  8
User.1
100
AcDbCircle
 10
4.1634842519685042
 20
-2.625
 30
0
 40
0.0295275590551181
  0
CIRCLE
  5
106
330
1B
100
AcDbEntity
  8
User.1
100
AcDbCircle
 10
4.4134842519685042
 20
-2.5249999999999999
 30
0
 40
0.0295275590551181
  0
CIRCLE
  5
107
330
1B
100
AcDbEntity
  8
User.1
100
AcDbCircle
 10
4.1134842519685035
 20
-1.2249999999999999
 30
0
 40
0.0344488188976378
  0
CIRCLE
  5
108
330
1B
100
AcDbEntity
  8
User.1
100
AcDbCircle
 10
4.3134842519685037
 20
-1.2249999999999999
 30
0
 40
0.078740157480315
  0
CIRCLE
  5
109
330
1B
100
AcDbEntity
  8
User.1
100
AcDbCircle
 10
4.5134842519685039
 20
-1.2249999999999999
 30
0
 40
0.0344488188976378
  0
CIRCLE
  5
10A
330
1B
100
AcDbEntity
  8
User.1
100
AcDbCircle
 10
4.1634842519685042
 20
-1.125
 30
0
 40
0.0295275590551181
  0
CIRCLE
  5
10B
330
1B
100
AcDbEntity
  8
User.1
100
AcDbCircle
 10
4.4134842519685042
 20
-1.0249999999999999
 30
0
 40
0.0295275590551181
  0
CIRCLE
  5
10C
330
1B
100
AcDbEntity
  8
User.1
100
AcDbCircle
 10
6.3634842519685035
 20
-3.2875000000000001
 30
0
 40
0.0344488188976378
  0
CIRCLE
  5
10D
330
1B
100
AcDbEntity
  8
User.1
100
AcDbCircle
 10
6.5634842519685037
 20
-3.2875000000000001
 30
0
 40
0.078740157480315
  0
CIRCLE
  5
10E
330
1B
100
AcDbEntity
  8
User.1
100
AcDbCircle
 10
6.7634842519685039
 20
-3.2875000000000001
 30
0
 40
0.0344488188976378
  0
CIRCLE
  5
10F
330
1B
100
AcDbEntity
  8
User.1
100
AcDbCircle
 10
6.4134842519685034
 20
-3.1875
 30
0
 40
0.0295275590551181
  0
CIRCLE
  5
110
330
1B
100
AcDbEntity
  8
User.1
100
AcDbCircle
 10
6.6634842519685034
 20
-3.0874999999999999
 30
0
 40
0.0295275590551181
  0
CIRCLE
  5
111
330
1B
100
AcDbEntity
  8
User.1
100
AcDbCircle
 10
1.113484251968504
 20
-3.1468750000000001
 30
0
 40
0.0344488188976378
  0
CIRCLE
  5
112
330
1B
100
AcDbEntity
  8
User.1
100
AcDbCircle
 10
1.3134842519685039
 20
-3.1468750000000001
 30
0
 40
0.078740157480315
  0
CIRCLE
  5
113
330
1B
100
AcDbEntity
  8
User.1
100
AcDbCircle
 10
1.5134842519685039
 20
-3.1468750000000001
 30
0
 40
0.0344488188976378
  0
CIRCLE
  5
114
330
1B
100
AcDbEntity
  8
User.1
100
AcDbCircle
 10
1.1634842519685038
 20
-3.046875
 30
0
 40
0.0295275590551181
  0
CIRCLE
  5
115
330
1B
100
AcDbEntity
  8
User.1
100
AcDbCircle
 10
1.4134842519685038
 20
-2.9468749999999999
 30
0
 40
0.0295275590551181
  0
CIRCLE
  5
116
330
1B
100
AcDbEntity
  8
User.1
100
AcDbCircle
 10
1.113484251968504
 20
-1.6468749999999999
 30
0
 40
0.0344488188976378
  0
CIRCLE
  5
117
330
1B
100
AcDbEntity
  8
User.1
100
AcDbCircle
 10
1.3134842519685039
 20
-1.6468749999999999
 30
0
 40
0.078740157480315
  0
CIRCLE
  5
118
330
1B
100
AcDbEntity
  8
User.1
100
AcDbCircle
 10
1.5134842519685039
 20
-1.6468749999999999
 30
0
 40
0.0344488188976378
  0
CIRCLE
  5
119
330
1B
100
AcDbEntity
  8
User.1
100
AcDbCircle
 10
1.1634842519685038
 20
-1.546875
 30
0
 40
0.0295275590551181
  0
CIRCLE
  5
11A
330
1B
100
AcDbEntity
  8
User.1
100
AcDbCircle
 10
1.4134842519685038
 20
-1.4468749999999999
 30
0
 40
0.0295275590551181
  0
CIRCLE
  5
11B
330
1B
100
AcDbEntity
  8
User.1
100
AcDbCircle
 10
1.863484251968504
 20
-1.6468749999999999
 30
0
 40
0.0344488188976378
  0
CIRCLE
  5
11C
330
1B
100
AcDbEntity
  8
User.1
100
AcDbCircle
 10
2.0634842519685037
 20
-1.6468749999999999
 30
0
 40
0.078740157480315
  0
CIRCLE
  5
11D
330
1B
100
AcDbEntity
  8
User.1
100
AcDbCircle
 10
2.2634842519685039
 20
-1.6468749999999999
 30
0
 40
0.0344488188976378
  0
CIRCLE
  5
11E
330
1B
100
AcDbEntity
  8
User.1
100
AcDbCircle
 10
1.9134842519685038
 20
-1.546875
 30
0
 40
0.0295275590551181
  0
CIRCLE
  5
11F
330
1B
100
AcDbEntity
  8
User.1
100
AcDbCircle
 10
2.1634842519685038
 20
-1.4468749999999999
 30
0
 40
0.0295275590551181
  0
CIRCLE
  5
120
330
1B
100
AcDbEntity
  8
User.1
100
AcDbCircle
 10
1.863484251968504
 20
-3.8968750000000001
 30
0
 40
0.0344488188976378
  0
CIRCLE
  5
121
330
1B
100
AcDbEntity
  8
User.1
100
AcDbCircle
 10
2.0634842519685037
 20
-3.8968750000000001
 30
0
 40
0.078740157480315
  0
CIRCLE
  5
122
330
1B
100
AcDbEntity
  8
User.1
100
AcDbCircle
 10
2.2634842519685039
 20
-3.8968750000000001
 30
0
 40
0.0344488188976378
  0
CIRCLE
  5
123
330
1B
100
AcDbEntity
  8
User.1
100
AcDbCircle
 10
1.9134842519685038
 20
-3.796875
 30
0
 40
0.0295275590551181
  0
CIRCLE
  5
124
330
1B
100
AcDbEntity
  8
User.1
100
AcDbCircle
 10
2.1634842519685038
 20
-3.6968749999999999
 30
0
 40
0.0295275590551181
  0
CIRCLE
  5
125
330
1B
100
AcDbEntity
  8
User.1
100
AcDbCircle
 10
3.363484251968504
 20
-2.1156250000000001
 30
0
 40
0.0344488188976378
  0
CIRCLE
  5
126
330
1B
100
AcDbEntity
  8
User.1
100
AcDbCircle
 10
3.5634842519685037
 20
-2.1156250000000001
 30
0
 40
0.078740157480315
  0
CIRCLE
  5
127
330
1B
100
AcDbEntity
  8
User.1
100
AcDbCircle
 10
3.7634842519685039
 20
-2.1156250000000001
 30
0
 40
0.0344488188976378
  0
CIRCLE
  5
128
330
1B
100
AcDbEntity
  8
User.1
100
AcDbCircle
 10
3.4134842519685038
 20
-2.015625
 30
0
 40
0.0295275590551181
  0
CIRCLE
  5
129
330
1B
100
AcDbEntity
  8
User.1
100
AcDbCircle
 10
3.6634842519685038
 20
-1.9156249999999999
 30
0
 40
0.0295275590551181
  0
CIRCLE
  5
12A
330
1B
100
AcDbEntity
  8
User.1
100
AcDbCircle
 10
3.363484251968504
 20
-4.3656249999999996
 30
0
 40
0.0344488188976378
  0
CIRCLE
  5
12B
330
1B
100
AcDbEntity
  8
User.1
100
AcDbCircle
 10
3.5634842519685037
 20
-4.3656249999999996
 30
0
 40
0.078740157480315
  0
CIRCLE
  5
12C
330
1B
100
AcDbEntity
  8
User.1
100
AcDbCircle
 10
3.7634842519685039
 20
-4.3656249999999996
 30
0
 40
0.0344488188976378
  0
CIRCLE
  5
12D
330
1B
100
AcDbEntity
  8
User.1
100
AcDbCircle
 10
3.4134842519685038
 20
-4.265625
 30
0
 40
0.0295275590551181
  0
CIRCLE
  5
12E
330
1B
100
AcDbEntity
  8
User.1
100
AcDbCircle
 10
3.6634842519685038
 20
-4.1656249999999995
 30
0
 40
0.0295275590551181
  0
CIRCLE
  5
12F
330
1B
100
AcDbEntity
  8
User.1
100
AcDbCircle
 10
1.113484251968504
 20
-3.8968750000000001
 30
0
 40
0.0344488188976378
  0
CIRCLE
  5
130
330
1B
100
AcDbEntity
  8
User.1
100
AcDbCircle
 10
1.3134842519685039
 20
-3.8968750000000001
 30
0
 40
0.078740157480315
  0
CIRCLE
  5
131
330
1B
100
AcDbEntity
  8
User.1
100
AcDbCircle
 10
1.5134842519685039
 20
-3.8968750000000001
 30
0
 40
0.0344488188976378
  0
CIRCLE
  5
132
330
1B
100
AcDbEntity
  8
User.1
100
AcDbCircle
 10
1.1634842519685038
 20
-3.796875
 30
0
 40
0.0295275590551181
  0
CIRCLE
  5
133
330
1B
100
AcDbEntity
  8
User.1
100
AcDbCircle
 10
1.4134842519685038
 20
-3.6968749999999999
 30
0
 40
0.0295275590551181
  0
CIRCLE
  5
134
330
1B
100
AcDbEntity
  8
User.1
100
AcDbCircle
 10
5.4375
 20
-3.1893700787401573
 30
0
 40
0.015748031496063
  0
CIRCLE
  5
135
330
1B
100
AcDbEntity
  8
User.1
100
AcDbCircle
 10
5.4375
 20
-2.8893700787401575
 30
0
 40
0.015748031496063
  0
CIRCLE
  5
136
330
1B
100
AcDbEntity
  8
User.1
100
AcDbCircle
 10
1.6875
 20
-1.7362450787401575
 30
0
 40
0.015748031496063
  0
CIRCLE
  5
137
330
1B
100
AcDbEntity
  8
User.1
100
AcDbCircle
 10
1.6875
 20
-1.4362450787401575
 30
0
 40
0.015748031496063
  0
CIRCLE
  5
138
330
1B
100
AcDbEntity
  8
User.1
100
AcDbCircle
 10
3.9375
 20
-1.6813730314960629
 30
0
 40
0.015748031496063
  0
CIRCLE
  5
139
330
1B
100
AcDbEntity
  8
User.1
100
AcDbCircle
 10
3.9375
 20
-1.3813730314960631
 30
0
 40
0.015748031496063
  0
CIRCLE
  5
13A
330
1B
100
AcDbEntity
  8
User.1
100
AcDbCircle
 10
6.1875
 20
-3.1813730314960629
 30
0
 40
0.015748031496063
  0
CIRCLE
  5
13B
330
1B
100
AcDbEntity
  8
User.1
100
AcDbCircle
 10
6.1875
 20
-2.8813730314960631
 30
0
 40
0.015748031496063
  0
CIRCLE
  5
13C
330
1B
100
AcDbEntity
  8
User.1
100
AcDbCircle
 10
3.1875
 20
-3.9313730314960629
 30
0
 40
0.015748031496063
  0
CIRCLE
  5
13D
330
1B
100
AcDbEntity
  8
User.1
100
AcDbCircle
 10
3.1875
 20
-3.6313730314960631
 30
0
 40
0.015748031496063
  0
CIRCLE
  5
13E
330
1B
100
AcDbEntity
  8
User.1
100
AcDbCircle
 10
2.4375
 20
-3.2362450787401573
 30
0
 40
0.015748031496063
  0
CIRCLE
  5
13F
330
1B
100
AcDbEntity
  8
User.1
100
AcDbCircle
 10
2.4375
 20
-2.9362450787401575
 30
0
 40
0.015748031496063
  0
CIRCLE
  5
140
330
1B
100
AcDbEntity
  8
User.1
100
AcDbCircle
 10
1.6875
 20
-3.2362450787401573
 30
0
 40
0.015748031496063
  0
CIRCLE
  5
141
330
1B
100
AcDbEntity
  8
User.1
100
AcDbCircle
 10
1.6875
 20
-2.9362450787401575
 30
0
 40
0.015748031496063
  0
CIRCLE
  5
142
330
1B
100
AcDbEntity
  8
User.1
100
AcDbCircle
 10
2.4375
 20
-2.4862450787401573
 30
0
 40
0.015748031496063
  0
CIRCLE
  5
143
330
1B
100
AcDbEntity
  8
User.1
100
AcDbCircle
 10
2.4375
 20
-2.1862450787401575
 30
0
 40
0.015748031496063
  0
CIRCLE
  5
144
330
1B
100
AcDbEntity
  8
User.1
100
AcDbCircle
 10
5.4375
 20
-1.6893700787401575
 30
0
 40
0.015748031496063
  0
CIRCLE
  5
145
330
1B
100
AcDbEntity
  8
User.1
100
AcDbCircle
 10
5.4375
 20
-1.3893700787401575
 30
0
 40
0.015748031496063
  0
CIRCLE
  5
146
330
1B
100
AcDbEntity
  8
User.1
100
AcDbCircle
 10
6.1875
 20
-3.9313730314960629
 30
0
 40
0.015748031496063
  0
CIRCLE
  5
147
330
1B
100
AcDbEntity
  8
User.1
100
AcDbCircle
 10
6.1875
 20
-3.6313730314960631
 30
0
 40
0.015748031496063
  0
CIRCLE
  5
148
330
1B
100
AcDbEntity
  8
User.1
100
AcDbCircle
 10
6.3333277559055112
 20
-4.8290941732283468
 30
0
 40
0.015748031496063
  0
CIRCLE
  5
149
330
1B
100
AcDbEntity
  8
User.1
100
AcDbCircle
 10
6.3854222047244091
 20
-4.5336518503937011
 30
0
 40
0.015748031496063
  0
CIRCLE
  5
14A
330
1B
100
AcDbEntity
  8
User.1
100
AcDbCircle
 10
3.1875
 20
-1.6813730314960629
 30
0
 40
0.015748031496063
  0
CIRCLE
  5
14B
330
1B
100
AcDbEntity
  8
User.1
100
AcDbCircle
 10
3.1875
 20
-1.3813730314960631
 30
0
 40
0.015748031496063
  0
CIRCLE
  5
14C
330
1B
100
AcDbEntity
  8
User.1
100
AcDbCircle
 10
6.8541722440944879
 20
-3.9711518897637794
 30
0
 40
0.015748031496063
  0
CIRCLE
  5
14D
330
1B
100
AcDbEntity
  8
User.1
100
AcDbCircle
 10
6.80207779527559
 20
-4.2665942125984255
 30
0
 40
0.015748031496063
  0
CIRCLE
  5
14E
330
1B
100
AcDbEntity
  8
User.1
100
AcDbCircle
 10
6.1875
 20
-2.4313730314960629
 30
0
 40
0.015748031496063
  0
CIRCLE
  5
14F
330
1B
100
AcDbEntity
  8
User.1
100
AcDbCircle
 10
6.1875
 20
-2.1313730314960631
 30
0
 40
0.015748031496063
  0
CIRCLE
  5
150
330
1B
100
AcDbEntity
  8
User.1
100
AcDbCircle
 10
5.4375
 20
-3.9393700787401573
 30
0
 40
0.015748031496063
  0
CIRCLE
  5
151
330
1B
100
AcDbEntity
  8
User.1
100
AcDbCircle
 10
5.4375
 20
-3.6393700787401575
 30
0
 40
0.015748031496063
  0
CIRCLE
  5
152
330
1B
100
AcDbEntity
  8
User.1
100
AcDbCircle
 10
2.4375
 20
-3.9862450787401573
 30
0
 40
0.015748031496063
  0
CIRCLE
  5
153
330
1B
100
AcDbEntity
  8
User.1
100
AcDbCircle
 10
2.4375
 20
-3.6862450787401575
 30
0
 40
0.015748031496063
  0
CIRCLE
  5
154
330
1B
100
AcDbEntity
  8
User.1
100
AcDbCircle
 10
1.6875
 20
-2.4862450787401573
 30
0
 40
0.015748031496063
  0
CIRCLE
  5
155
330
1B
100
AcDbEntity
  8
User.1
100
AcDbCircle
 10
1.6875
 20
-2.1862450787401575
 30
0
 40
0.015748031496063
  0
CIRCLE
  5
156
330
1B
100
AcDbEntity
  8
User.1
100
AcDbCircle
 10
3.9375
 20
-4.4001230314960633
 30
0
 40
0.015748031496063
  0
CIRCLE
  5
157
330
1B
100
AcDbEntity
  8
User.1
100
AcDbCircle
 10
3.9375
 20
-4.1001230314960626
 30
0
 40
0.015748031496063
  0
CIRCLE
  5
158
330
1B
100
AcDbEntity
  8
User.1
100
AcDbCircle
 10
2.4375
 20
-1.7362450787401575
 30
0
 40
0.015748031496063
  0
CIRCLE
  5
159
330
1B
100
AcDbEntity
  8
User.1
100
AcDbCircle
 10
2.4375
 20
-1.4362450787401575
 30
0
 40
0.015748031496063
  0
CIRCLE
  5
15A
330
1B
100
AcDbEntity
  8
User.1
100
AcDbCircle
 10
3.9375
 20
-2.4313730314960629
 30
0
 40
0.015748031496063
  0
CIRCLE
  5
15B
330
1B
100
AcDbEntity
  8
User.1
100
AcDbCircle
 10
3.9375
 20
-2.1313730314960631
 30
0
 40
0.015748031496063
  0
CIRCLE
  5
15C
330
1B
100
AcDbEntity
  8
User.1
100
AcDbCircle
 10
3.1875
 20
-3.1813730314960629
 30
0
 40
0.015748031496063
  0
CIRCLE
  5
15D
330
1B
100
AcDbEntity
  8
User.1
100
AcDbCircle
 10
3.1875
 20
-2.8813730314960631
 30
0
 40
0.015748031496063
  0
CIRCLE
  5
15E
330
1B
100
AcDbEntity
  8
User.1
100
AcDbCircle
 10
3.1875
 20
-2.4313730314960629
 30
0
 40
0.015748031496063
  0
CIRCLE
  5
15F
330
1B
100
AcDbEntity
  8
User.1
100
AcDbCircle
 10
3.1875
 20
-2.1313730314960631
 30
0
 40
0.015748031496063
  0
CIRCLE
  5
160
330
1B
100
AcDbEntity
  8
User.1
100
AcDbCircle
 10
5.5364527559055121
 20
-4.6884691732283468
 30
0
 40
0.015748031496063
  0
CIRCLE
  5
161
330
1B
100
AcDbEntity
  8
User.1
100
AcDbCircle
 10
5.5885472047244091
 20
-4.3930268503937011
 30
0
 40
0.015748031496063
  0
CIRCLE
  5
162
330
1B
100
AcDbEntity
  8
User.1
100
AcDbCircle
 10
3.9375
 20
-3.9313730314960629
 30
0
 40
0.015748031496063
  0
CIRCLE
  5
163
330
1B
100
AcDbEntity
  8
User.1
100
AcDbCircle
 10
3.9375
 20
-3.6313730314960631
 30
0
 40
0.015748031496063
  0
CIRCLE
  5
164
330
1B
100
AcDbEntity
  8
User.1
100
AcDbCircle
 10
4.6875
 20
-3.1893700787401573
 30
0
 40
0.015748031496063
  0
CIRCLE
  5
165
330
1B
100
AcDbEntity
  8
User.1
100
AcDbCircle
 10
4.6875
 20
-2.8893700787401575
 30
0
 40
0.015748031496063
  0
CIRCLE
  5
166
330
1B
100
AcDbEntity
  8
User.1
100
AcDbCircle
 10
4.6875
 20
-2.4393700787401573
 30
0
 40
0.015748031496063
  0
CIRCLE
  5
167
330
1B
100
AcDbEntity
  8
User.1
100
AcDbCircle
 10
4.6875
 20
-2.1393700787401575
 30
0
 40
0.015748031496063
  0
CIRCLE
  5
168
330
1B
100
AcDbEntity
  8
User.1
100
AcDbCircle
 10
6.9953740157480313
 20
-1.0025590551181103
 30
0
 40
0.0196850393700787
  0
CIRCLE
  5
169
330
1B
100
AcDbEntity
  8
User.1
100
AcDbCircle
 10
6.9953740157480313
 20
-1.1025590551181101
 30
0
 40
0.0196850393700787
  0
CIRCLE
  5
16A
330
1B
100
AcDbEntity
  8
User.1
100
AcDbCircle
 10
6.9953740157480313
 20
-1.2025590551181102
 30
0
 40
0.0196850393700787
  0
CIRCLE
  5
16B
330
1B
100
AcDbEntity
  8
User.1
100
AcDbCircle
 10
6.9953740157480313
 20
-1.3025590551181101
 30
0
 40
0.0196850393700787
  0
CIRCLE
  5
16C
330
1B
100
AcDbEntity
  8
User.1
100
AcDbCircle
 10
6.9953740157480313
 20
-1.4025590551181102
 30
0
 40
0.0196850393700787
  0
CIRCLE
  5
16D
330
1B
100
AcDbEntity
  8
User.1
100
AcDbCircle
 10
6.9953740157480313
 20
-1.5025590551181103
 30
0
 40
0.0196850393700787
  0
CIRCLE
  5
16E
330
1B
100
AcDbEntity
  8
User.1
100
AcDbCircle
 10
6.9953740157480313
 20
-1.6025590551181101
 30
0
 40
0.0196850393700787
  0
CIRCLE
  5
16F
330
1B
100
AcDbEntity
  8
User.1
100
AcDbCircle
 10
6.9953740157480313
 20
-1.7025590551181102
 30
0
 40
0.0196850393700787
  0
CIRCLE
  5
170
330
1B
100
AcDbEntity
  8
User.1
100
AcDbCircle
 10
6.9953740157480313
 20
-1.8025590551181101
 30
0
 40
0.0196850393700787
  0
CIRCLE
  5
171
330
1B
100
AcDbEntity
  8
User.1
100
AcDbCircle
 10
6.9953740157480313
 20
-1.9025590551181102
 30
0
 40
0.0196850393700787
  0
CIRCLE
  5
172
330
1B
100
AcDbEntity
  8
User.1
100
AcDbCircle
 10
6.9953740157480313
 20
-2.0025590551181103
 30
0
 40
0.0196850393700787
  0
CIRCLE
  5
173
330
1B
100
AcDbEntity
  8
User.1
100
AcDbCircle
 10
6.9953740157480313
 20
-2.1025590551181104
 30
0
 40
0.0196850393700787
  0
CIRCLE
  5
174
330
1B
100
AcDbEntity
  8
User.1
100
AcDbCircle
 10
6.3953740157480317
 20
-0.9525590551181102
 30
0
 40
0.0196850393700787
  0
CIRCLE
  5
175
330
1B
100
AcDbEntity
  8
User.1
100
AcDbCircle
 10
6.3953740157480317
 20
-1.1025590551181101
 30
0
 40
0.0196850393700787
  0
CIRCLE
  5
176
330
1B
100
AcDbEntity
  8
User.1
100
AcDbCircle
 10
6.3953740157480317
 20
-1.2025590551181102
 30
0
 40
0.0196850393700787
  0
CIRCLE
  5
177
330
1B
100
AcDbEntity
  8
User.1
100
AcDbCircle
 10
6.3953740157480317
 20
-1.3025590551181101
 30
0
 40
0.0196850393700787
  0
CIRCLE
  5
178
330
1B
100
AcDbEntity
  8
User.1
100
AcDbCircle
 10
6.3953740157480317
 20
-1.4025590551181102
 30
0
 40
0.0196850393700787
  0
CIRCLE
  5
179
330
1B
100
AcDbEntity
  8
User.1
100
AcDbCircle
 10
6.3953740157480317
 20
-1.5025590551181103
 30
0
 40
0.0196850393700787
  0
CIRCLE
  5
17A
330
1B
100
AcDbEntity
  8
User.1
100
AcDbCircle
 10
6.3953740157480317
 20
-1.6025590551181101
 30
0
 40
0.0196850393700787
  0
CIRCLE
  5
17B
330
1B
100
AcDbEntity
  8
User.1
100
AcDbCircle
 10
6.3953740157480317
 20
-1.7025590551181102
 30
0
 40
0.0196850393700787
  0
CIRCLE
  5
17C
330
1B
100
AcDbEntity
  8
User.1
100
AcDbCircle
 10
6.3953740157480317
 20
-1.8025590551181101
 30
0
 40
0.0196850393700787
  0
CIRCLE
  5
17D
330
1B
100
AcDbEntity
  8
User.1
100
AcDbCircle
 10
6.3953740157480317
 20
-1.9025590551181102
 30
0
 40
0.0196850393700787
  0
CIRCLE
  5
17E
330
1B
100
AcDbEntity
  8
User.1
100
AcDbCircle
 10
6.3953740157480317
 20
-2.0025590551181103
 30
0
 40
0.0196850393700787
  0
CIRCLE
  5
17F
330
1B
100
AcDbEntity
  8
User.1
100
AcDbCircle
 10
6.3953740157480317
 20
-2.1025590551181104
 30
0
 40
0.0196850393700787
  0
CIRCLE
  5
180
330
1B
100
AcDbEntity
  8
User.1
100
AcDbCircle
 10
6.8743740157480318
 20
-1.9807590551181102
 30
0
 40
0.0196850393700787
  0
CIRCLE
  5
181
330
1B
100
AcDbEntity
  8
User.1
100
AcDbCircle
 10
6.7743740157480312
 20
-1.9807590551181102
 30
0
 40
0.0196850393700787
  0
CIRCLE
  5
182
330
1B
100
AcDbEntity
  8
User.1
100
AcDbCircle
 10
6.6743740157480316
 20
-1.9807590551181102
 30
0
 40
0.0196850393700787
  0
CIRCLE
  5
183
330
1B
100
AcDbEntity
  8
User.1
100
AcDbCircle
 10
6.9953740157480313
 20
-0.9025590551181102
 30
0
 40
0.0196850393700787
  0
CIRCLE
  5
184
330
1B
100
AcDbEntity
  8
User.1
100
AcDbCircle
 10
6.3953740157480317
 20
-0.9025590551181102
 30
0
 40
0.0196850393700787
  0
CIRCLE
  5
185
330
1B
100
AcDbEntity
  8
User.1
100
AcDbCircle
 10
1.6875
 20
-3.9862450787401573
 30
0
 40
0.015748031496063
  0
CIRCLE
  5
186
330
1B
100
AcDbEntity
  8
User.1
100
AcDbCircle
 10
1.6875
 20
-3.6862450787401575
 30
0
 40
0.015748031496063
  0
CIRCLE
  5
187
330
1B
100
AcDbEntity
  8
User.1
100
AcDbCircle
 10
6.1875
 20
-1.6813730314960629
 30
0
 40
0.015748031496063
  0
CIRCLE
  5
188
330
1B
100
AcDbEntity
  8
User.1
100
AcDbCircle
 10
6.1875
 20
-1.3813730314960631
 30
0
 40
0.015748031496063
  0
CIRCLE
  5
189
330
1B
100
AcDbEntity
  8
User.1
100
AcDbCircle
 10
6.9375
 20
-3.3782480314960628
 30
0
 40
0.015748031496063
  0
CIRCLE
  5
18A
330
1B
100
AcDbEntity
  8
User.1
100
AcDbCircle
 10
6.9375
 20
-3.078248031496063
 30
0
 40
0.015748031496063
  0
CIRCLE
  5
18B
330
1B
100
AcDbEntity
  8
User.1
100
AcDbCircle
 10
5.4375
 20
-2.4393700787401573
 30
0
 40
0.015748031496063
  0
CIRCLE
  5
18C
330
1B
100
AcDbEntity
  8
User.1
100
AcDbCircle
 10
5.4375
 20
-2.1393700787401575
 30
0
 40
0.015748031496063
  0
CIRCLE
  5
18D
330
1B
100
AcDbEntity
  8
User.1
100
AcDbCircle
 10
3.9375
 20
-3.1813730314960629
 30
0
 40
0.015748031496063
  0
CIRCLE
  5
18E
330
1B
100
AcDbEntity
  8
User.1
100
AcDbCircle
 10
3.9375
 20
-2.8813730314960631
 30
0
 40
0.015748031496063
  0
CIRCLE
  5
18F
330
1B
100
AcDbEntity
  8
User.1
100
AcDbCircle
 10
4.6875
 20
-1.6893700787401575
 30
0
 40
0.015748031496063
  0
CIRCLE
  5
190
330
1B
100
AcDbEntity
  8
User.1
100
AcDbCircle
 10
4.6875
 20
-1.3893700787401575
 30
0
 40
0.015748031496063
  0
CIRCLE
  5
191
330
1B
100
AcDbEntity
  8
User.1
100
AcDbCircle
 10
4.6875
 20
-4.3944635826771652
 30
0
 40
0.015748031496063
  0
CIRCLE
  5
192
330
1B
100
AcDbEntity
  8
User.1
100
AcDbCircle
 10
4.6875
 20
-4.0944635826771654
 30
0
 40
0.015748031496063
  0
CIRCLE
  5
193
330
1B
100
AcDbEntity
  8
User.1
100
AcDbCircle
 10
4.6875
 20
-3.9393700787401573
 30
0
 40
0.015748031496063
  0
CIRCLE
  5
194
330
1B
100
AcDbEntity
  8
User.1
100
AcDbCircle
 10
4.6875
 20
-3.6393700787401575
 30
0
 40
0.015748031496063
  0
CIRCLE
  5
195
330
1B
100
AcDbEntity
  8
User.1
100
AcDbCircle
 10
6.8873031496062991
 20
-2.6757874015748029
 30
0
 40
0.0196850393700787
  0
CIRCLE
  5
196
330
1B
100
AcDbEntity
  8
User.1
100
AcDbCircle
 10
6.8873031496062991
 20
-2.5773622047244094
 30
0
 40
0.0196850393700787
  0
CIRCLE
  5
197
330
1B
100
AcDbEntity
  8
User.1
100
AcDbCircle
 10
4.8634842519685035
 20
-2.8656250000000001
 30
0
 40
0.0344487795275591
  0
CIRCLE
  5
198
330
1B
100
AcDbEntity
  8
User.1
100
AcDbCircle
 10
5.0634842519685037
 20
-2.8656250000000001
 30
0
 40
0.0787401181102362
  0
CIRCLE
  5
199
330
1B
100
AcDbEntity
  8
User.1
100
AcDbCircle
 10
5.2634842519685039
 20
-2.8656250000000001
 30
0
 40
0.0344487795275591
  0
CIRCLE
  5
19A
330
1B
100
AcDbEntity
  8
User.1
100
AcDbCircle
 10
4.9134842519685042
 20
-2.765625
 30
0
 40
0.0295275590551181
  0
CIRCLE
  5
19B
330
1B
100
AcDbEntity
  8
User.1
100
AcDbCircle
 10
5.1634842519685042
 20
-2.6656249999999999
 30
0
 40
0.0295275590551181
  0
CIRCLE
  5
19C
330
1B
100
AcDbEntity
  8
User.1
100
AcDbCircle
 10
2.613484251968504
 20
-3.1000000000000001
 30
0
 40
0.0344487795275591
  0
CIRCLE
  5
19D
330
1B
100
AcDbEntity
  8
User.1
100
AcDbCircle
 10
2.8134842519685037
 20
-3.1000000000000001
 30
0
 40
0.0787401181102362
  0
CIRCLE
  5
19E
330
1B
100
AcDbEntity
  8
User.1
100
AcDbCircle
 10
3.0134842519685039
 20
-3.1000000000000001
 30
0
 40
0.0344487795275591
  0
CIRCLE
  5
19F
330
1B
100
AcDbEntity
  8
User.1
100
AcDbCircle
 10
2.6634842519685038
 20
-3.
 30
0
 40
0.0295275590551181
  0
CIRCLE
  5
1A0
330
1B
100
AcDbEntity
  8
User.1
100
AcDbCircle
 10
2.9134842519685038
 20
-2.8999999999999999
 30
0
 40
0.0295275590551181
  0
CIRCLE
  5
1A1
330
1B
100
AcDbEntity
  8
User.1
100
AcDbCircle
 10
5.6134842519685035
 20
-2.2093750000000001
 30
0
 40
0.0344487795275591
  0
CIRCLE
  5
1A2
330
1B
100
AcDbEntity
  8
User.1
100
AcDbCircle
 10
5.8134842519685037
 20
-2.2093750000000001
 30
0
 40
0.0787401181102362
  0
CIRCLE
  5
1A3
330
1B
100
AcDbEntity
  8
User.1
100
AcDbCircle
 10
6.0134842519685039
 20
-2.2093750000000001
 30
0
 40
0.0344487795275591
  0
CIRCLE
  5
1A4
330
1B
100
AcDbEntity
  8
User.1
100
AcDbCircle
 10
5.6634842519685042
 20
-2.109375
 30
0
 40
0.0295275590551181
  0
CIRCLE
  5
1A5
330
1B
100
AcDbEntity
  8
User.1
100
AcDbCircle
 10
5.9134842519685042
 20
-2.0093749999999999
 30
0
 40
0.0295275590551181
  0
CIRCLE
  5
1A6
330
1B
100
AcDbEntity
  8
User.1
100
AcDbCircle
 10
4.8634842519685035
 20
-3.6156250000000001
 30
0
 40
0.0344487795275591
  0
CIRCLE
  5
1A7
330
1B
100
AcDbEntity
  8
User.1
100
AcDbCircle
 10
5.0634842519685037
 20
-3.6156250000000001
 30
0
 40
0.0787401181102362
  0
CIRCLE
  5
1A8
330
1B
100
AcDbEntity
  8
User.1
100
AcDbCircle
 10
5.2634842519685039
 20
-3.6156250000000001
 30
0
 40
0.0344487795275591
  0
CIRCLE
  5
1A9
330
1B
100
AcDbEntity
  8
User.1
100
AcDbCircle
 10
4.9134842519685042
 20
-3.515625
 30
0
 40
0.0295275590551181
  0
CIRCLE
  5
1AA
330
1B
100
AcDbEntity
  8
User.1
100
AcDbCircle
 10
5.1634842519685042
 20
-3.4156249999999999
 30
0
 40
0.0295275590551181
  0
CIRCLE
  5
1AB
330
1B
100
AcDbEntity
  8
User.1
100
AcDbCircle
 10
4.1134842519685035
 20
-3.4750000000000001
 30
0
 40
0.0344487795275591
  0
CIRCLE
  5
1AC
330
1B
100
AcDbEntity
  8
User.1
100
AcDbCircle
 10
4.3134842519685037
 20
-3.4750000000000001
 30
0
 40
0.0787401181102362
  0
CIRCLE
  5
1AD
330
1B
100
AcDbEntity
  8
User.1
100
AcDbCircle
 10
4.5134842519685039
 20
-3.4750000000000001
 30
0
 40
0.0344487795275591
  0
CIRCLE
  5
1AE
330
1B
100
AcDbEntity
  8
User.1
100
AcDbCircle
 10
4.1634842519685042
 20
-3.375
 30
0
 40
0.0295275590551181
  0
CIRCLE
  5
1AF
330
1B
100
AcDbEntity
  8
User.1
100
AcDbCircle
 10
4.4134842519685042
 20
-3.2749999999999999
 30
0
 40
0.0295275590551181
  0
CIRCLE
  5
1B0
330
1B
100
AcDbEntity
  8
User.1
100
AcDbCircle
 10
4.9905384645669288
 20
-4.4122683858267715
 30
0
 40
0.0344487795275591
  0
CIRCLE
  5
1B1
330
1B
100
AcDbEntity
  8
User.1
100
AcDbCircle
 10
5.1875
 20
-4.4469980314960633
 30
0
 40
0.0787401181102362
  0
CIRCLE
  5
1B2
330
1B
100
AcDbEntity
  8
User.1
100
AcDbCircle
 10
5.3844615354330712
 20
-4.4817276771653543
 30
0
 40
0.0344487795275591
  0
CIRCLE
  5
1B3
330
1B
100
AcDbEntity
  8
User.1
100
AcDbCircle
 10
5.0571436220472439
 20
-4.32247
 30
0
 40
0.0295275590551181
  0
CIRCLE
  5
1B4
330
1B
100
AcDbEntity
  8
User.1
100
AcDbCircle
 10
5.3207104330708663
 20
-4.2674012992125983
 30
0
 40
0.0295275590551181
  0
CIRCLE
  5
1B5
330
1B
100
AcDbEntity
  8
User.1
100
AcDbCircle
 10
1.863484251968504
 20
-2.3968750000000001
 30
0
 40
0.0344487795275591
  0
CIRCLE
  5
1B6
330
1B
100
AcDbEntity
  8
User.1
100
AcDbCircle
 10
2.0634842519685037
 20
-2.3968750000000001
 30
0
 40
0.0787401181102362
  0
CIRCLE
  5
1B7
330
1B
100
AcDbEntity
  8
User.1
100
AcDbCircle
 10
2.2634842519685039
 20
-2.3968750000000001
 30
0
 40
0.0344487795275591
  0
CIRCLE
  5
1B8
330
1B
100
AcDbEntity
  8
User.1
100
AcDbCircle
 10
1.9134842519685038
 20
-2.296875
 30
0
 40
0.0295275590551181
  0
CIRCLE
  5
1B9
330
1B
100
AcDbEntity
  8
User.1
100
AcDbCircle
 10
2.1634842519685038
 20
-2.1968749999999999
 30
0
 40
0.0295275590551181
  0
CIRCLE
  5
1BA
330
1B
100
AcDbEntity
  8
User.1
100
AcDbCircle
 10
1.113484251968504
 20
-2.3968750000000001
 30
0
 40
0.0344487795275591
  0
CIRCLE
  5
1BB
330
1B
100
AcDbEntity
  8
User.1
100
AcDbCircle
 10
1.3134842519685039
 20
-2.3968750000000001
 30
0
 40
0.0787401181102362
  0
CIRCLE
  5
1BC
330
1B
100
AcDbEntity
  8
User.1
100
AcDbCircle
 10
1.5134842519685039
 20
-2.3968750000000001
 30
0
 40
0.0344487795275591
  0
CIRCLE
  5
1BD
330
1B
100
AcDbEntity
  8
User.1
100
AcDbCircle
 10
1.1634842519685038
 20
-2.296875
 30
0
 40
0.0295275590551181
  0
CIRCLE
  5
1BE
330
1B
100
AcDbEntity
  8
User.1
100
AcDbCircle
 10
1.4134842519685038
 20
-2.1968749999999999
 30
0
 40
0.0295275590551181
  0
CIRCLE
  5
1BF
330
1B
100
AcDbEntity
  8
User.1
100
AcDbCircle
 10
5.6134842519685035
 20
-3.7093750000000001
 30
0
 40
0.0344487795275591
  0
CIRCLE
  5
1C0
330
1B
100
AcDbEntity
  8
User.1
100
AcDbCircle
 10
5.8134842519685037
 20
-3.7093750000000001
 30
0
 40
0.0787401181102362
  0
CIRCLE
  5
1C1
330
1B
100
AcDbEntity
  8
User.1
100
AcDbCircle
 10
6.0134842519685039
 20
-3.7093750000000001
 30
0
 40
0.0344487795275591
  0
CIRCLE
  5
1C2
330
1B
100
AcDbEntity
  8
User.1
100
AcDbCircle
 10
5.6634842519685042
 20
-3.609375
 30
0
 40
0.0295275590551181
  0
CIRCLE
  5
1C3
330
1B
100
AcDbEntity
  8
User.1
100
AcDbCircle
 10
5.9134842519685042
 20
-3.5093749999999999
 30
0
 40
0.0295275590551181
  0
CIRCLE
  5
1C4
330
1B
100
AcDbEntity
  8
User.1
100
AcDbCircle
 10
2.613484251968504
 20
-2.3500000000000001
 30
0
 40
0.0344487795275591
  0
CIRCLE
  5
1C5
330
1B
100
AcDbEntity
  8
User.1
100
AcDbCircle
 10
2.8134842519685037
 20
-2.3500000000000001
 30
0
 40
0.0787401181102362
  0
CIRCLE
  5
1C6
330
1B
100
AcDbEntity
  8
User.1
100
AcDbCircle
 10
3.0134842519685039
 20
-2.3500000000000001
 30
0
 40
0.0344487795275591
  0
CIRCLE
  5
1C7
330
1B
100
AcDbEntity
  8
User.1
100
AcDbCircle
 10
2.6634842519685038
 20
-2.25
 30
0
 40
0.0295275590551181
  0
CIRCLE
  5
1C8
330
1B
100
AcDbEntity
  8
User.1
100
AcDbCircle
 10
2.9134842519685038
 20
-2.1499999999999999
 30
0
 40
0.0295275590551181
  0
CIRCLE
  5
1C9
330
1B
100
AcDbEntity
  8
User.1
100
AcDbCircle
 10
2.613484251968504
 20
-1.5999999999999999
 30
0
 40
0.0344487795275591
  0
CIRCLE
  5
1CA
330
1B
100
AcDbEntity
  8
User.1
100
AcDbCircle
 10
2.8134842519685037
 20
-1.5999999999999999
 30
0
 40
0.0787401181102362
  0
CIRCLE
  5
1CB
330
1B
100
AcDbEntity
  8
User.1
100
AcDbCircle
 10
3.0134842519685039
 20
-1.5999999999999999
 30
0
 40
0.0344487795275591
  0
CIRCLE
  5
1CC
330
1B
100
AcDbEntity
  8
User.1
100
AcDbCircle
 10
2.6634842519685038
 20
-1.5
 30
0
 40
0.0295275590551181
  0
CIRCLE
  5
1CD
330
1B
100
AcDbEntity
  8
User.1
100
AcDbCircle
 10
2.9134842519685038
 20
-1.3999999999999999
 30
0
 40
0.0295275590551181
  0
CIRCLE
  5
1CE
330
1B
100
AcDbEntity
  8
User.1
100
AcDbCircle
 10
2.613484251968504
 20
-3.8500000000000001
 30
0
 40
0.0344487795275591
  0
CIRCLE
  5
1CF
330
1B
100
AcDbEntity
  8
User.1
100
AcDbCircle
 10
2.8134842519685037
 20
-3.8500000000000001
 30
0
 40
0.0787401181102362
  0
CIRCLE
  5
1D0
330
1B
100
AcDbEntity
  8
User.1
100
AcDbCircle
 10
3.0134842519685039
 20
-3.8500000000000001
 30
0
 40
0.0344487795275591
  0
CIRCLE
  5
1D1
330
1B
100
AcDbEntity
  8
User.1
100
AcDbCircle
 10
2.6634842519685038
 20
-3.75
 30
0
 40
0.0295275590551181
  0
CIRCLE
  5
1D2
330
1B
100
AcDbEntity
  8
User.1
100
AcDbCircle
 10
2.9134842519685038
 20
-3.6499999999999999
 30
0
 40
0.0295275590551181
  0
CIRCLE
  5
1D3
330
1B
100
AcDbEntity
  8
User.1
100
AcDbCircle
 10
3.363484251968504
 20
-1.3656249999999999
 30
0
 40
0.0344487795275591
  0
CIRCLE
  5
1D4
330
1B
100
AcDbEntity
  8
User.1
100
AcDbCircle
 10
3.5634842519685037
 20
-1.3656249999999999
 30
0
 40
0.0787401181102362
  0
CIRCLE
  5
1D5
330
1B
100
AcDbEntity
  8
User.1
100
AcDbCircle
 10
3.7634842519685039
 20
-1.3656249999999999
 30
0
 40
0.0344487795275591
  0
CIRCLE
  5
1D6
330
1B
100
AcDbEntity
  8
User.1
100
AcDbCircle
 10
3.4134842519685038
 20
-1.265625
 30
0
 40
0.0295275590551181
  0
CIRCLE
  5
1D7
330
1B
100
AcDbEntity
  8
User.1
100
AcDbCircle
 10
3.6634842519685038
 20
-1.1656249999999999
 30
0
 40
0.0295275590551181
  0
CIRCLE
  5
1D8
330
1B
100
AcDbEntity
  8
User.1
100
AcDbCircle
 10
5.6134842519685035
 20
-2.9593750000000001
 30
0
 40
0.0344487795275591
  0
CIRCLE
  5
1D9
330
1B
100
AcDbEntity
  8
User.1
100
AcDbCircle
 10
5.8134842519685037
 20
-2.9593750000000001
 30
0
 40
0.0787401181102362
  0
CIRCLE
  5
1DA
330
1B
100
AcDbEntity
  8
User.1
100
AcDbCircle
 10
6.0134842519685039
 20
-2.9593750000000001
 30
0
 40
0.0344487795275591
  0
CIRCLE
  5
1DB
330
1B
100
AcDbEntity
  8
User.1
100
AcDbCircle
 10
5.6634842519685042
 20
-2.859375
 30
0
 40
0.0295275590551181
  0
CIRCLE
  5
1DC
330
1B
100
AcDbEntity
  8
User.1
100
AcDbCircle
 10
5.9134842519685042
 20
-2.7593749999999999
 30
0
 40
0.0295275590551181
  0
CIRCLE
  5
1DD
330
1B
100
AcDbEntity
  8
User.1
100
AcDbCircle
 10
4.8634842519685035
 20
-2.1156250000000001
 30
0
 40
0.0344487795275591
  0
CIRCLE
  5
1DE
330
1B
100
AcDbEntity
  8
User.1
100
AcDbCircle
 10
5.0634842519685037
 20
-2.1156250000000001
 30
0
 40
0.0787401181102362
  0
CIRCLE
  5
1DF
330
1B
100
AcDbEntity
  8
User.1
100
AcDbCircle
 10
5.2634842519685039
 20
-2.1156250000000001
 30
0
 40
0.0344487795275591
  0
CIRCLE
  5
1E0
330
1B
100
AcDbEntity
  8
User.1
100
AcDbCircle
 10
4.9134842519685042
 20
-2.015625
 30
0
 40
0.0295275590551181
  0
CIRCLE
  5
1E1
330
1B
100
AcDbEntity
  8
User.1
100
AcDbCircle
 10
5.1634842519685042
 20
-1.9156249999999999
 30
0
 40
0.0295275590551181
  0
CIRCLE
  5
1E2
330
1B
100
AcDbEntity
  8
User.1
100
AcDbCircle
 10
3.363484251968504
 20
-3.6156250000000001
 30
0
 40
0.0344487795275591
  0
CIRCLE
  5
1E3
330
1B
100
AcDbEntity
  8
User.1
100
AcDbCircle
 10
3.5634842519685037
 20
-3.6156250000000001
 30
0
 40
0.0787401181102362
  0
CIRCLE
  5
1E4
330
1B
100
AcDbEntity
  8
User.1
100
AcDbCircle
 10
3.7634842519685039
 20
-3.6156250000000001
 30
0
 40
0.0344487795275591
  0
CIRCLE
  5
1E5
330
1B
100
AcDbEntity
  8
User.1
100
AcDbCircle
 10
3.4134842519685038
 20
-3.515625
 30
0
 40
0.0295275590551181
  0
CIRCLE
  5
1E6
330
1B
100
AcDbEntity
  8
User.1
100
AcDbCircle
 10
3.6634842519685038
 20
-3.4156249999999999
 30
0
 40
0.0295275590551181
  0
CIRCLE
  5
1E7
330
1B
100
AcDbEntity
  8
User.1
100
AcDbCircle
 10
5.6134842519685035
 20
-1.4593749999999999
 30
0
 40
0.0344487795275591
  0
CIRCLE
  5
1E8
330
1B
100
AcDbEntity
  8
User.1
100
AcDbCircle
 10
5.8134842519685037
 20
-1.4593749999999999
 30
0
 40
0.0787401181102362
  0
CIRCLE
  5
1E9
330
1B
100
AcDbEntity
  8
User.1
100
AcDbCircle
 10
6.0134842519685039
 20
-1.4593749999999999
 30
0
 40
0.0344487795275591
  0
CIRCLE
  5
1EA
330
1B
100
AcDbEntity
  8
User.1
100
AcDbCircle
 10
5.6634842519685042
 20
-1.359375
 30
0
 40
0.0295275590551181
  0
CIRCLE
  5
1EB
330
1B
100
AcDbEntity
  8
User.1
100
AcDbCircle
 10
5.9134842519685042
 20
-1.2593749999999999
 30
0
 40
0.0295275590551181
  0
CIRCLE
  5
1EC
330
1B
100
AcDbEntity
  8
User.1
100
AcDbCircle
 10
4.1134842519685035
 20
-4.2249999999999996
 30
0
 40
0.0344487795275591
  0
CIRCLE
  5
1ED
330
1B
100
AcDbEntity
  8
User.1
100
AcDbCircle
 10
4.3134842519685037
 20
-4.2249999999999996
 30
0
 40
0.0787401181102362
  0
CIRCLE
  5
1EE
330
1B
100
AcDbEntity
  8
User.1
100
AcDbCircle
 10
4.5134842519685039
 20
-4.2249999999999996
 30
0
 40
0.0344487795275591
  0
CIRCLE
  5
1EF
330
1B
100
AcDbEntity
  8
User.1
100
AcDbCircle
 10
4.1634842519685042
 20
-4.125
 30
0
 40
0.0295275590551181
  0
CIRCLE
  5
1F0
330
1B
100
AcDbEntity
  8
User.1
100
AcDbCircle
 10
4.4134842519685042
 20
-4.0249999999999995
 30
0
 40
0.0295275590551181
  0
CIRCLE
  5
1F1
330
1B
100
AcDbEntity
  8
User.1
100
AcDbCircle
 10
4.8634842519685035
 20
-1.3656249999999999
 30
0
 40
0.0344487795275591
  0
CIRCLE
  5
1F2
330
1B
100
AcDbEntity
  8
User.1
100
AcDbCircle
 10
5.0634842519685037
 20
-1.3656249999999999
 30
0
 40
0.0787401181102362
  0
CIRCLE
  5
1F3
330
1B
100
AcDbEntity
  8
User.1
100
AcDbCircle
 10
5.2634842519685039
 20
-1.3656249999999999
 30
0
 40
0.0344487795275591
  0
CIRCLE
  5
1F4
330
1B
100
AcDbEntity
  8
User.1
100
AcDbCircle
 10
4.9134842519685042
 20
-1.265625
 30
0
 40
0.0295275590551181
  0
CIRCLE
  5
1F5
330
1B
100
AcDbEntity
  8
User.1
100
AcDbCircle
 10
5.1634842519685042
 20
-1.1656249999999999
 30
0
 40
0.0295275590551181
  0
CIRCLE
  5
1F6
330
1B
100
AcDbEntity
  8
User.1
100
AcDbCircle
 10
3.363484251968504
 20
-2.8656250000000001
 30
0
 40
0.0344487795275591
  0
CIRCLE
  5
1F7
330
1B
100
AcDbEntity
  8
User.1
100
AcDbCircle
 10
3.5634842519685037
 20
-2.8656250000000001
 30
0
 40
0.0787401181102362
  0
CIRCLE
  5
1F8
330
1B
100
AcDbEntity
  8
User.1
100
AcDbCircle
 10
3.7634842519685039
 20
-2.8656250000000001
 30
0
 40
0.0344487795275591
  0
CIRCLE
  5
1F9
330
1B
100
AcDbEntity
  8
User.1
100
AcDbCircle
 10
3.4134842519685038
 20
-2.765625
 30
0
 40
0.0295275590551181
  0
CIRCLE
  5
1FA
330
1B
100
AcDbEntity
  8
User.1
100
AcDbCircle
 10
3.6634842519685038
 20
-2.6656249999999999
 30
0
 40
0.0295275590551181
  0
CIRCLE
  5
1FB
330
1B
100
AcDbEntity
  8
User.1
100
AcDbCircle
 10
4.1134842519685035
 20
-1.9749999999999999
 30
0
 40
0.0344487795275591
  0
CIRCLE
  5
1FC
330
1B
100
AcDbEntity
  8
User.1
100
AcDbCircle
 10
4.3134842519685037
 20
-1.9749999999999999
 30
0
 40
0.0787401181102362
  0
CIRCLE
  5
1FD
330
1B
100
AcDbEntity
  8
User.1
100
AcDbCircle
 10
4.5134842519685039
 20
-1.9749999999999999
 30
0
 40
0.0344487795275591
  0
CIRCLE
  5
1FE
330
1B
100
AcDbEntity
  8
User.1
100
AcDbCircle
 10
4.1634842519685042
 20
-1.875
 30
0
 40
0.0295275590551181
  0
CIRCLE
  5
1FF
330
1B
100
AcDbEntity
  8
User.1
100
AcDbCircle
 10
4.4134842519685042
 20
-1.7749999999999999
 30
0
 40
0.0295275590551181
  0
CIRCLE
  5
200
330
1B
100
AcDbEntity
  8
User.1
100
AcDbCircle
 10
1.863484251968504
 20
-3.1468750000000001
 30
0
 40
0.0344487795275591
  0
CIRCLE
  5
201
330
1B
100
AcDbEntity
  8
User.1
100
AcDbCircle
 10
2.0634842519685037
 20
-3.1468750000000001
 30
0
 40
0.0787401181102362
  0
CIRCLE
  5
202
330
1B
100
AcDbEntity
  8
User.1
100
AcDbCircle
 10
2.2634842519685039
 20
-3.1468750000000001
 30
0
 40
0.0344487795275591
  0
CIRCLE
  5
203
330
1B
100
AcDbEntity
  8
User.1
100
AcDbCircle
 10
1.9134842519685038
 20
-3.046875
 30
0
 40
0.0295275590551181
  0
CIRCLE
  5
204
330
1B
100
AcDbEntity
  8
User.1
100
AcDbCircle
 10
2.1634842519685038
 20
-2.9468749999999999
 30
0
 40
0.0295275590551181
  0
CIRCLE
  5
205
330
1B
100
AcDbEntity
  8
User.1
100
AcDbCircle
 10
6.5456565748031492
 20
-4.6831837401574798
 30
0
 40
0.0344487795275591
  0
CIRCLE
  5
206
330
1B
100
AcDbEntity
  8
User.1
100
AcDbCircle
 10
6.7426181102362204
 20
-4.7179133858267717
 30
0
 40
0.0787401181102362
  0
CIRCLE
  5
207
330
1B
100
AcDbEntity
  8
User.1
100
AcDbCircle
 10
6.9395796456692915
 20
-4.7526430314960626
 30
0
 40
0.0344487795275591
  0
CIRCLE
  5
208
330
1B
100
AcDbEntity
  8
User.1
100
AcDbCircle
 10
6.6122617322834643
 20
-4.5933853543307084
 30
0
 40
0.0295275590551181
  0
CIRCLE
  5
209
330
1B
100
AcDbEntity
  8
User.1
100
AcDbCircle
 10
6.8758285433070867
 20
-4.5383166535433066
 30
0
 40
0.0295275590551181
  0
CIRCLE
  5
20A
330
1B
100
AcDbEntity
  8
User.1
100
AcDbCircle
 10
5.7661290157480316
 20
-4.5493254724409447
 30
0
 40
0.0344487795275591
  0
CIRCLE
  5
20B
330
1B
100
AcDbEntity
  8
User.1
100
AcDbCircle
 10
5.9630905511811019
 20
-4.5840551181102365
 30
0
 40
0.0787401181102362
  0
CIRCLE
  5
20C
330
1B
100
AcDbEntity
  8
User.1
100
AcDbCircle
 10
6.160052086614173
 20
-4.6187847637795274
 30
0
 40
0.0344487795275591
  0
CIRCLE
  5
20D
330
1B
100
AcDbEntity
  8
User.1
100
AcDbCircle
 10
5.8327342125984254
 20
-4.4595271259842519
 30
0
 40
0.0295275590551181
  0
CIRCLE
  5
20E
330
1B
100
AcDbEntity
  8
User.1
100
AcDbCircle
 10
6.0963009842519682
 20
-4.4044583858267714
 30
0
 40
0.0295275590551181
  0
CIRCLE
  5
20F
330
1B
100
AcDbEntity
  8
User.1
100
AcDbCircle
 10
4.1134842519685035
 20
-2.7250000000000001
 30
0
 40
0.0344487795275591
  0
CIRCLE
  5
210
330
1B
100
AcDbEntity
  8
User.1
100
AcDbCircle
 10
4.3134842519685037
 20
-2.7250000000000001
 30
0
 40
0.0787401181102362
  0
CIRCLE
  5
211
330
1B
100
AcDbEntity
  8
User.1
100
AcDbCircle
 10
4.5134842519685039
 20
-2.7250000000000001
 30
0
 40
0.0344487795275591
  0
CIRCLE
  5
212
330
1B
100
AcDbEntity
  8
User.1
100
AcDbCircle
 10
4.1634842519685042
 20
-2.625
 30
0
 40
0.0295275590551181
  0
CIRCLE
  5
213
330
1B
100
AcDbEntity
  8
User.1
100
AcDbCircle
 10
4.4134842519685042
 20
-2.5249999999999999
 30
0
 40
0.0295275590551181
  0
CIRCLE
  5
214
330
1B
100
AcDbEntity
  8
User.1
100
AcDbCircle
 10
4.1134842519685035
 20
-1.2249999999999999
 30
0
 40
0.0344487795275591
  0
CIRCLE
  5
215
330
1B
100
AcDbEntity
  8
User.1
100
AcDbCircle
 10
4.3134842519685037
 20
-1.2249999999999999
 30
0
 40
0.0787401181102362
  0
CIRCLE
  5
216
330
1B
100
AcDbEntity
  8
User.1
100
AcDbCircle
 10
4.5134842519685039
 20
-1.2249999999999999
 30
0
 40
0.0344487795275591
  0
CIRCLE
  5
217
330
1B
100
AcDbEntity
  8
User.1
100
AcDbCircle
 10
4.1634842519685042
 20
-1.125
 30
0
 40
0.0295275590551181
  0
CIRCLE
  5
218
330
1B
100
AcDbEntity
  8
User.1
100
AcDbCircle
 10
4.4134842519685042
 20
-1.0249999999999999
 30
0
 40
0.0295275590551181
  0
CIRCLE
  5
219
330
1B
100
AcDbEntity
  8
User.1
100
AcDbCircle
 10
6.3634842519685035
 20
-3.2875000000000001
 30
0
 40
0.0344487795275591
  0
CIRCLE
  5
21A
330
1B
100
AcDbEntity
  8
User.1
100
AcDbCircle
 10
6.5634842519685037
 20
-3.2875000000000001
 30
0
 40
0.0787401181102362
  0
CIRCLE
  5
21B
330
1B
100
AcDbEntity
  8
User.1
100
AcDbCircle
 10
6.7634842519685039
 20
-3.2875000000000001
 30
0
 40
0.0344487795275591
  0
CIRCLE
  5
21C
330
1B
100
AcDbEntity
  8
User.1
100
AcDbCircle
 10
6.4134842519685034
 20
-3.1875
 30
0
 40
0.0295275590551181
  0
CIRCLE
  5
21D
330
1B
100
AcDbEntity
  8
User.1
100
AcDbCircle
 10
6.6634842519685034
 20
-3.0874999999999999
 30
0
 40
0.0295275590551181
  0
CIRCLE
  5
21E
330
1B
100
AcDbEntity
  8
User.1
100
AcDbCircle
 10
1.113484251968504
 20
-3.1468750000000001
 30
0
 40
0.0344487795275591
  0
CIRCLE
  5
21F
330
1B
100
AcDbEntity
  8
User.1
100
AcDbCircle
 10
1.3134842519685039
 20
-3.1468750000000001
 30
0
 40
0.0787401181102362
  0
CIRCLE
  5
220
330
1B
100
AcDbEntity
  8
User.1
100
AcDbCircle
 10
1.5134842519685039
 20
-3.1468750000000001
 30
0
 40
0.0344487795275591
  0
CIRCLE
  5
221
330
1B
100
AcDbEntity
  8
User.1
100
AcDbCircle
 10
1.1634842519685038
 20
-3.046875
 30
0
 40
0.0295275590551181
  0
CIRCLE
  5
222
330
1B
100
AcDbEntity
  8
User.1
100
AcDbCircle
 10
1.4134842519685038
 20
-2.9468749999999999
 30
0
 40
0.0295275590551181
  0
CIRCLE
  5
223
330
1B
100
AcDbEntity
  8
User.1
100
AcDbCircle
 10
1.113484251968504
 20
-1.6468749999999999
 30
0
 40
0.0344487795275591
  0
CIRCLE
  5
224
330
1B
100
AcDbEntity
  8
User.1
100
AcDbCircle
 10
1.3134842519685039
 20
-1.6468749999999999
 30
0
 40
0.0787401181102362
  0
CIRCLE
  5
225
330
1B
100
AcDbEntity
  8
User.1
100
AcDbCircle
 10
1.5134842519685039
 20
-1.6468749999999999
 30
0
 40
0.0344487795275591
  0
CIRCLE
  5
226
330
1B
100
AcDbEntity
  8
User.1
100
AcDbCircle
 10
1.1634842519685038
 20
-1.546875
 30
0
 40
0.0295275590551181
  0
CIRCLE
  5
227
330
1B
100
AcDbEntity
  8
User.1
100
AcDbCircle
 10
1.4134842519685038
 20
-1.4468749999999999
 30
0
 40
0.0295275590551181
  0
CIRCLE
  5
228
330
1B
100
AcDbEntity
  8
User.1
100
AcDbCircle
 10
1.863484251968504
 20
-1.6468749999999999
 30
0
 40
0.0344487795275591
  0
CIRCLE
  5
229
330
1B
100
AcDbEntity
  8
User.1
100
AcDbCircle
 10
2.0634842519685037
 20
-1.6468749999999999
 30
0
 40
0.0787401181102362
  0
CIRCLE
  5
22A
330
1B
100
AcDbEntity
  8
User.1
100
AcDbCircle
 10
2.2634842519685039
 20
-1.6468749999999999
 30
0
 40
0.0344487795275591
  0
CIRCLE
  5
22B
330
1B
100
AcDbEntity
  8
User.1
100
AcDbCircle
 10
1.9134842519685038
 20
-1.546875
 30
0
 40
0.0295275590551181
  0
CIRCLE
  5
22C
330
1B
100
AcDbEntity
  8
User.1
100
AcDbCircle
 10
2.1634842519685038
 20
-1.4468749999999999
 30
0
 40
0.0295275590551181
  0
CIRCLE
  5
22D
330
1B
100
AcDbEntity
  8
User.1
100
AcDbCircle
 10
1.863484251968504
 20
-3.8968750000000001
 30
0
 40
0.0344487795275591
  0
CIRCLE
  5
22E
330
1B
100
AcDbEntity
  8
User.1
100
AcDbCircle
 10
2.0634842519685037
 20
-3.8968750000000001
 30
0
 40
0.0787401181102362
  0
CIRCLE
  5
22F
330
1B
100
AcDbEntity
  8
User.1
100
AcDbCircle
 10
2.2634842519685039
 20
-3.8968750000000001
 30
0
 40
0.0344487795275591
  0
CIRCLE
  5
230
330
1B
100
AcDbEntity
  8
User.1
100
AcDbCircle
 10
1.9134842519685038
 20
-3.796875
 30
0
 40
0.0295275590551181
  0
CIRCLE
  5
231
330
1B
100
AcDbEntity
  8
User.1
100
AcDbCircle
 10
2.1634842519685038
 20
-3.6968749999999999
 30
0
 40
0.0295275590551181
  0
CIRCLE
  5
232
330
1B
100
AcDbEntity
  8
User.1
100
AcDbCircle
 10
3.363484251968504
 20
-2.1156250000000001
 30
0
 40
0.0344487795275591
  0
CIRCLE
  5
233
330
1B
100
AcDbEntity
  8
User.1
100
AcDbCircle
 10
3.5634842519685037
 20
-2.1156250000000001
 30
0
 40
0.0787401181102362
  0
CIRCLE
  5
234
330
1B
100
AcDbEntity
  8
User.1
100
AcDbCircle
 10
3.7634842519685039
 20
-2.1156250000000001
 30
0
 40
0.0344487795275591
  0
CIRCLE
  5
235
330
1B
100
AcDbEntity
  8
User.1
100
AcDbCircle
 10
3.4134842519685038
 20
-2.015625
 30
0
 40
0.0295275590551181
  0
CIRCLE
  5
236
330
1B
100
AcDbEntity
  8
User.1
100
AcDbCircle
 10
3.6634842519685038
 20
-1.9156249999999999
 30
0
 40
0.0295275590551181
  0
CIRCLE
  5
237
330
1B
100
AcDbEntity
  8
User.1
100
AcDbCircle
 10
3.363484251968504
 20
-4.3656249999999996
 30
0
 40
0.0344487795275591
  0
CIRCLE
  5
238
330
1B
100
AcDbEntity
  8
User.1
100
AcDbCircle
 10
3.5634842519685037
 20
-4.3656249999999996
 30
0
 40
0.0787401181102362
  0
CIRCLE
  5
239
330
1B
100
AcDbEntity
  8
User.1
100
AcDbCircle
 10
3.7634842519685039
 20
-4.3656249999999996
 30
0
 40
0.0344487795275591
  0
CIRCLE
  5
23A
330
1B
100
AcDbEntity
  8
User.1
100
AcDbCircle
 10
3.4134842519685038
 20
-4.265625
 30
0
 40
0.0295275590551181
  0
CIRCLE
  5
23B
330
1B
100
AcDbEntity
  8
User.1
100
AcDbCircle
 10
3.6634842519685038
 20
-4.1656249999999995
 30
0
 40
0.0295275590551181
  0
CIRCLE
  5
23C
330
1B
100
AcDbEntity
  8
User.1
100
AcDbCircle
 10
1.113484251968504
 20
-3.8968750000000001
 30
0
 40
0.0344487795275591
  0
CIRCLE
  5
23D
330
1B
100
AcDbEntity
  8
User.1
100
AcDbCircle
 10
1.3134842519685039
 20
-3.8968750000000001
 30
0
 40
0.0787401181102362
  0
CIRCLE
  5
23E
330
1B
100
AcDbEntity
  8
User.1
100
AcDbCircle
 10
1.5134842519685039
 20
-3.8968750000000001
 30
0
 40
0.0344487795275591
  0
CIRCLE
  5
23F
330
1B
100
AcDbEntity
  8
User.1
100
AcDbCircle
 10
1.1634842519685038
 20
-3.796875
 30
0
 40
0.0295275590551181
  0
CIRCLE
  5
240
330
1B
100
AcDbEntity
  8
User.1
100
AcDbCircle
 10
1.4134842519685038
 20
-3.6968749999999999
 30
0
 40
0.0295275590551181
  0
CIRCLE
  5
241
330
1B
100
AcDbEntity
  8
User.1
100
AcDbCircle
 10
5.4375
 20
-3.1893700787401573
 30
0
 40
0.015748031496063
  0
CIRCLE
  5
242
330
1B
100
AcDbEntity
  8
User.1
100
AcDbCircle
 10
5.4375
 20
-2.8893700787401575
 30
0
 40
0.015748031496063
  0
CIRCLE
  5
243
330
1B
100
AcDbEntity
  8
User.1
100
AcDbCircle
 10
1.6875
 20
-1.7362450787401575
 30
0
 40
0.015748031496063
  0
CIRCLE
  5
244
330
1B
100
AcDbEntity
  8
User.1
100
AcDbCircle
 10
1.6875
 20
-1.4362450787401575
 30
0
 40
0.015748031496063
  0
CIRCLE
  5
245
330
1B
100
AcDbEntity
  8
User.1
100
AcDbCircle
 10
3.9375
 20
-1.6813730314960629
 30
0
 40
0.015748031496063
  0
CIRCLE
  5
246
330
1B
100
AcDbEntity
  8
User.1
100
AcDbCircle
 10
3.9375
 20
-1.3813730314960631
 30
0
 40
0.015748031496063
  0
CIRCLE
  5
247
330
1B
100
AcDbEntity
  8
User.1
100
AcDbCircle
 10
6.1875
 20
-3.1813730314960629
 30
0
 40
0.015748031496063
  0
CIRCLE
  5
248
330
1B
100
AcDbEntity
  8
User.1
100
AcDbCircle
 10
6.1875
 20
-2.8813730314960631
 30
0
 40
0.015748031496063
  0
CIRCLE
  5
249
330
1B
100
AcDbEntity
  8
User.1
100
AcDbCircle
 10
3.1875
 20
-3.9313730314960629
 30
0
 40
0.015748031496063
  0
CIRCLE
  5
24A
330
1B
100
AcDbEntity
  8
User.1
100
AcDbCircle
 10
3.1875
 20
-3.6313730314960631
 30
0
 40
0.015748031496063
  0
CIRCLE
  5
24B
330
1B
100
AcDbEntity
  8
User.1
100
AcDbCircle
 10
2.4375
 20
-3.2362450787401573
 30
0
 40
0.015748031496063
  0
CIRCLE
  5
24C
330
1B
100
AcDbEntity
  8
User.1
100
AcDbCircle
 10
2.4375
 20
-2.9362450787401575
 30
0
 40
0.015748031496063
  0
CIRCLE
  5
24D
330
1B
100
AcDbEntity
  8
User.1
100
AcDbCircle
 10
1.6875
 20
-3.2362450787401573
 30
0
 40
0.015748031496063
  0
CIRCLE
  5
24E
330
1B
100
AcDbEntity
  8
User.1
100
AcDbCircle
 10
1.6875
 20
-2.9362450787401575
 30
0
 40
0.015748031496063
  0
CIRCLE
  5
24F
330
1B
100
AcDbEntity
  8
User.1
100
AcDbCircle
 10
2.4375
 20
-2.4862450787401573
 30
0
 40
0.015748031496063
  0
CIRCLE
  5
250
330
1B
100
AcDbEntity
  8
User.1
100
AcDbCircle
 10
2.4375
 20
-2.1862450787401575
 30
0
 40
0.015748031496063
  0
CIRCLE
  5
251
330
1B
100
AcDbEntity
  8
User.1
100
AcDbCircle
 10
5.4375
 20
-1.6893700787401575
 30
0
 40
0.015748031496063
  0
CIRCLE
  5
252
330
1B
100
AcDbEntity
  8
User.1
100
AcDbCircle
 10
5.4375
 20
-1.3893700787401575
 30
0
 40
0.015748031496063
  0
CIRCLE
  5
253
330
1B
100
AcDbEntity
  8
User.1
100
AcDbCircle
 10
6.1875
 20
-3.9313730314960629
 30
0
 40
0.015748031496063
  0
CIRCLE
  5
254
330
1B
100
AcDbEntity
  8
User.1
100
AcDbCircle
 10
6.1875
 20
-3.6313730314960631
 30
0
 40
0.015748031496063
  0
CIRCLE
  5
255
330
1B
100
AcDbEntity
  8
User.1
100
AcDbCircle
 10
6.3333277559055112
 20
-4.8290941732283468
 30
0
 40
0.015748031496063
  0
CIRCLE
  5
256
330
1B
100
AcDbEntity
  8
User.1
100
AcDbCircle
 10
6.3854222047244091
 20
-4.5336518503937011
 30
0
 40
0.015748031496063
  0
CIRCLE
  5
257
330
1B
100
AcDbEntity
  8
User.1
100
AcDbCircle
 10
3.1875
 20
-1.6813730314960629
 30
0
 40
0.015748031496063
  0
CIRCLE
  5
258
330
1B
100
AcDbEntity
  8
User.1
100
AcDbCircle
 10
3.1875
 20
-1.3813730314960631
 30
0
 40
0.015748031496063
  0
CIRCLE
  5
259
330
1B
100
AcDbEntity
  8
User.1
100
AcDbCircle
 10
6.8541722440944879
 20
-3.9711518897637794
 30
0
 40
0.015748031496063
  0
CIRCLE
  5
25A
330
1B
100
AcDbEntity
  8
User.1
100
AcDbCircle
 10
6.80207779527559
 20
-4.2665942125984255
 30
0
 40
0.015748031496063
  0
CIRCLE
  5
25B
330
1B
100
AcDbEntity
  8
User.1
100
AcDbCircle
 10
6.1875
 20
-2.4313730314960629
 30
0
 40
0.015748031496063
  0
CIRCLE
  5
25C
330
1B
100
AcDbEntity
  8
User.1
100
AcDbCircle
 10
6.1875
 20
-2.1313730314960631
 30
0
 40
0.015748031496063
  0
CIRCLE
  5
25D
330
1B
100
AcDbEntity
  8
User.1
100
AcDbCircle
 10
5.4375
 20
-3.9393700787401573
 30
0
 40
0.015748031496063
  0
CIRCLE
  5
25E
330
1B
100
AcDbEntity
  8
User.1
100
AcDbCircle
 10
5.4375
 20
-3.6393700787401575
 30
0
 40
0.015748031496063
  0
CIRCLE
  5
25F
330
1B
100
AcDbEntity
  8
User.1
100
AcDbCircle
 10
2.4375
 20
-3.9862450787401573
 30
0
 40
0.015748031496063
  0
CIRCLE
  5
260
330
1B
100
AcDbEntity
  8
User.1
100
AcDbCircle
 10
2.4375
 20
-3.6862450787401575
 30
0
 40
0.015748031496063
  0
CIRCLE
  5
261
330
1B
100
AcDbEntity
  8
User.1
100
AcDbCircle
 10
1.6875
 20
-2.4862450787401573
 30
0
 40
0.015748031496063
  0
CIRCLE
  5
262
330
1B
100
AcDbEntity
  8
User.1
100
AcDbCircle
 10
1.6875
 20
-2.1862450787401575
 30
0
 40
0.015748031496063
  0
CIRCLE
  5
263
330
1B
100
AcDbEntity
  8
User.1
100
AcDbCircle
 10
3.9375
 20
-4.4001230314960633
 30
0
 40
0.015748031496063
  0
CIRCLE
  5
264
330
1B
100
AcDbEntity
  8
User.1
100
AcDbCircle
 10
3.9375
 20
-4.1001230314960626
 30
0
 40
0.015748031496063
  0
CIRCLE
  5
265
330
1B
100
AcDbEntity
  8
User.1
100
AcDbCircle
 10
2.4375
 20
-1.7362450787401575
 30
0
 40
0.015748031496063
  0
CIRCLE
  5
266
330
1B
100
AcDbEntity
  8
User.1
100
AcDbCircle
 10
2.4375
 20
-1.4362450787401575
 30
0
 40
0.015748031496063
  0
CIRCLE
  5
267
330
1B
100
AcDbEntity
  8
User.1
100
AcDbCircle
 10
3.9375
 20
-2.4313730314960629
 30
0
 40
0.015748031496063
  0
CIRCLE
  5
268
330
1B
100
AcDbEntity
  8
User.1
100
AcDbCircle
 10
3.9375
 20
-2.1313730314960631
 30
0
 40
0.015748031496063
  0
CIRCLE
  5
269
330
1B
100
AcDbEntity
  8
User.1
100
AcDbCircle
 10
3.1875
 20
-3.1813730314960629
 30
0
 40
0.015748031496063
  0
CIRCLE
  5
26A
330
1B
100
AcDbEntity
  8
User.1
100
AcDbCircle
 10
3.1875
 20
-2.8813730314960631
 30
0
 40
0.015748031496063
  0
CIRCLE
  5
26B
330
1B
100
AcDbEntity
  8
User.1
100
AcDbCircle
 10
3.1875
 20
-2.4313730314960629
 30
0
 40
0.015748031496063
  0
CIRCLE
  5
26C
330
1B
100
AcDbEntity
  8
User.1
100
AcDbCircle
 10
3.1875
 20
-2.1313730314960631
 30
0
 40
0.015748031496063
  0
CIRCLE
  5
26D
330
1B
100
AcDbEntity
  8
User.1
100
AcDbCircle
 10
5.5364527559055121
 20
-4.6884691732283468
 30
0
 40
0.015748031496063
  0
CIRCLE
  5
26E
330
1B
100
AcDbEntity
  8
User.1
100
AcDbCircle
 10
5.5885472047244091
 20
-4.3930268503937011
 30
0
 40
0.015748031496063
  0
CIRCLE
  5
26F
330
1B
100
AcDbEntity
  8
User.1
100
AcDbCircle
 10
3.9375
 20
-3.9313730314960629
 30
0
 40
0.015748031496063
  0
CIRCLE
  5
270
330
1B
100
AcDbEntity
  8
User.1
100
AcDbCircle
 10
3.9375
 20
-3.6313730314960631
 30
0
 40
0.015748031496063
  0
CIRCLE
  5
271
330
1B
100
AcDbEntity
  8
User.1
100
AcDbCircle
 10
4.6875
 20
-3.1893700787401573
 30
0
 40
0.015748031496063
  0
CIRCLE
  5
272
330
1B
100
AcDbEntity
  8
User.1
100
AcDbCircle
 10
4.6875
 20
-2.8893700787401575
 30
0
 40
0.015748031496063
  0
CIRCLE
  5
273
330
1B
100
AcDbEntity
  8
User.1
100
AcDbCircle
 10
4.6875
 20
-2.4393700787401573
 30
0
 40
0.015748031496063
  0
CIRCLE
  5
274
330
1B
100
AcDbEntity
  8
User.1
100
AcDbCircle
 10
4.6875
 20
-2.1393700787401575
 30
0
 40
0.015748031496063
  0
CIRCLE
  5
275
330
1B
100
AcDbEntity
  8
User.1
100
AcDbCircle
 10
6.9953740157480313
 20
-1.0025590551181103
 30
0
 40
0.0196850393700787
  0
CIRCLE
  5
276
330
1B
100
AcDbEntity
  8
User.1
100
AcDbCircle
 10
6.9953740157480313
 20
-1.1025590551181101
 30
0
 40
0.0196850393700787
  0
CIRCLE
  5
277
330
1B
100
AcDbEntity
  8
User.1
100
AcDbCircle
 10
6.9953740157480313
 20
-1.2025590551181102
 30
0
 40
0.0196850393700787
  0
CIRCLE
  5
278
330
1B
100
AcDbEntity
  8
User.1
100
AcDbCircle
 10
6.9953740157480313
 20
-1.3025590551181101
 30
0
 40
0.0196850393700787
  0
CIRCLE
  5
279
330
1B
100
AcDbEntity
  8
User.1
100
AcDbCircle
 10
6.9953740157480313
 20
-1.4025590551181102
 30
0
 40
0.0196850393700787
  0
CIRCLE
  5
27A
330
1B
100
AcDbEntity
  8
User.1
100
AcDbCircle
 10
6.9953740157480313
 20
-1.5025590551181103
 30
0
 40
0.0196850393700787
  0
CIRCLE
  5
27B
330
1B
100
AcDbEntity
  8
User.1
100
AcDbCircle
 10
6.9953740157480313
 20
-1.6025590551181101
 30
0
 40
0.0196850393700787
  0
CIRCLE
  5
27C
330
1B
100
AcDbEntity
  8
User.1
100
AcDbCircle
 10
6.9953740157480313
 20
-1.7025590551181102
 30
0
 40
0.0196850393700787
  0
CIRCLE
  5
27D
330
1B
100
AcDbEntity
  8
User.1
100
AcDbCircle
 10
6.9953740157480313
 20
-1.8025590551181101
 30
0
 40
0.0196850393700787
  0
CIRCLE
  5
27E
330
1B
100
AcDbEntity
  8
User.1
100
AcDbCircle
 10
6.9953740157480313
 20
-1.9025590551181102
 30
0
 40
0.0196850393700787
  0
CIRCLE
  5
27F
330
1B
100
AcDbEntity
  8
User.1
100
AcDbCircle
 10
6.9953740157480313
 20
-2.0025590551181103
 30
0
 40
0.0196850393700787
  0
CIRCLE
  5
280
330
1B
100
AcDbEntity
  8
User.1
100
AcDbCircle
 10
6.9953740157480313
 20
-2.1025590551181104
 30
0
 40
0.0196850393700787
  0
CIRCLE
  5
281
330
1B
100
AcDbEntity
  8
User.1
100
AcDbCircle
 10
6.3953740157480317
 20
-1.0025590551181103
 30
0
 40
0.0196850393700787
  0
CIRCLE
  5
282
330
1B
100
AcDbEntity
  8
User.1
100
AcDbCircle
 10
6.3953740157480317
 20
-1.1025590551181101
 30
0
 40
0.0196850393700787
  0
CIRCLE
  5
283
330
1B
100
AcDbEntity
  8
User.1
100
AcDbCircle
 10
6.3953740157480317
 20
-1.2025590551181102
 30
0
 40
0.0196850393700787
  0
CIRCLE
  5
284
330
1B
100
AcDbEntity
  8
User.1
100
AcDbCircle
 10
6.3953740157480317
 20
-1.3025590551181101
 30
0
 40
0.0196850393700787
  0
CIRCLE
  5
285
330
1B
100
AcDbEntity
  8
User.1
100
AcDbCircle
 10
6.3953740157480317
 20
-1.4025590551181102
 30
0
 40
0.0196850393700787
  0
CIRCLE
  5
286
330
1B
100
AcDbEntity
  8
User.1
100
AcDbCircle
 10
6.3953740157480317
 20
-1.5025590551181103
 30
0
 40
0.0196850393700787
  0
CIRCLE
  5
287
330
1B
100
AcDbEntity
  8
User.1
100
AcDbCircle
 10
6.3953740157480317
 20
-1.6025590551181101
 30
0
 40
0.0196850393700787
  0
CIRCLE
  5
288
330
1B
100
AcDbEntity
  8
User.1
100
AcDbCircle
 10
6.3953740157480317
 20
-1.7025590551181102
 30
0
 40
0.0196850393700787
  0
CIRCLE
  5
289
330
1B
100
AcDbEntity
  8
User.1
100
AcDbCircle
 10
6.3953740157480317
 20
-1.8025590551181101
 30
0
 40
0.0196850393700787
  0
CIRCLE
  5
28A
330
1B
100
AcDbEntity
  8
User.1
100
AcDbCircle
 10
6.3953740157480317
 20
-1.9025590551181102
 30
0
 40
0.0196850393700787
  0
CIRCLE
  5
28B
330
1B
100
AcDbEntity
  8
User.1
100
AcDbCircle
 10
6.3953740157480317
 20
-2.0025590551181103
 30
0
 40
0.0196850393700787
  0
CIRCLE
  5
28C
330
1B
100
AcDbEntity
  8
User.1
100
AcDbCircle
 10
6.3953740157480317
 20
-2.1025590551181104
 30
0
 40
0.0196850393700787
  0
CIRCLE
  5
28D
330
1B
100
AcDbEntity
  8
User.1
100
AcDbCircle
 10
6.8743740157480318
 20
-1.9807590551181102
 30
0
 40
0.0196850393700787
  0
CIRCLE
  5
28E
330
1B
100
AcDbEntity
  8
User.1
100
AcDbCircle
 10
6.7743740157480312
 20
-1.9807590551181102
 30
0
 40
0.0196850393700787
  0
CIRCLE
  5
28F
330
1B
100
AcDbEntity
  8
User.1
100
AcDbCircle
 10
6.6743740157480316
 20
-1.9807590551181102
 30
0
 40
0.0196850393700787
  0
CIRCLE
  5
290
330
1B
100
AcDbEntity
  8
User.1
100
AcDbCircle
 10
6.9953740157480313
 20
-0.9025590551181102
 30
0
 40
0.0196850393700787
  0
CIRCLE
  5
291
330
1B
100
AcDbEntity
  8
User.1
100
AcDbCircle
 10
6.3953740157480317
 20
-0.9025590551181102
 30
0
 40
0.0196850393700787
  0
CIRCLE
  5
292
330
1B
100
AcDbEntity
  8
User.1
100
AcDbCircle
 10
1.6875
 20
-3.9862450787401573
 30
0
 40
0.015748031496063
  0
CIRCLE
  5
293
330
1B
100
AcDbEntity
  8
User.1
100
AcDbCircle
 10
1.6875
 20
-3.6862450787401575
 30
0
 40
0.015748031496063
  0
CIRCLE
  5
294
330
1B
100
AcDbEntity
  8
User.1
100
AcDbCircle
 10
6.1875
 20
-1.6813730314960629
 30
0
 40
0.015748031496063
  0
CIRCLE
  5
295
330
1B
100
AcDbEntity
  8
User.1
100
AcDbCircle
 10
6.1875
 20
-1.3813730314960631
 30
0
 40
0.015748031496063
  0
CIRCLE
  5
296
330
1B
100
AcDbEntity
  8
User.1
100
AcDbCircle
 10
6.9375
 20
-3.3782480314960628
 30
0
 40
0.015748031496063
  0
CIRCLE
  5
297
330
1B
100
AcDbEntity
  8
User.1
100
AcDbCircle
 10
6.9375
 20
-3.078248031496063
 30
0
 40
0.015748031496063
  0
CIRCLE
  5
298
330
1B
100
AcDbEntity
  8
User.1
100
AcDbCircle
 10
5.4375
 20
-2.4393700787401573
 30
0
 40
0.015748031496063
  0
CIRCLE
  5
299
330
1B
100
AcDbEntity
  8
User.1
100
AcDbCircle
 10
5.4375
 20
-2.1393700787401575
 30
0
 40
0.015748031496063
  0
CIRCLE
  5
29A
330
1B
100
AcDbEntity
  8
User.1
100
AcDbCircle
 10
3.9375
 20
-3.1813730314960629
 30
0
 40
0.015748031496063
  0
CIRCLE
  5
29B
330
1B
100
AcDbEntity
  8
User.1
100
AcDbCircle
 10
3.9375
 20
-2.8813730314960631
 30
0
 40
0.015748031496063
  0
CIRCLE
  5
29C
330
1B
100
AcDbEntity
  8
User.1
100
AcDbCircle
 10
4.6875
 20
-1.6893700787401575
 30
0
 40
0.015748031496063
  0
CIRCLE
  5
29D
330
1B
100
AcDbEntity
  8
User.1
100
AcDbCircle
 10
4.6875
 20
-1.3893700787401575
 30
0
 40
0.015748031496063
  0
CIRCLE
  5
29E
330
1B
100
AcDbEntity
  8
User.1
100
AcDbCircle
 10
4.6875
 20
-4.3944635826771652
 30
0
 40
0.015748031496063
  0
CIRCLE
  5
29F
330
1B
100
AcDbEntity
  8
User.1
100
AcDbCircle
 10
4.6875
 20
-4.0944635826771654
 30
0
 40
0.015748031496063
  0
CIRCLE
  5
2A0
330
1B
100
AcDbEntity
  8
User.1
100
AcDbCircle
 10
4.6875
 20
-3.9393700787401573
 30
0
 40
0.015748031496063
  0
CIRCLE
  5
2A1
330
1B
100
AcDbEntity
  8
User.1
100
AcDbCircle
 10
4.6875
 20
-3.6393700787401575
 30
0
 40
0.015748031496063
  0
CIRCLE
  5
2A2
330
1B
100
AcDbEntity
  8
User.1
100
AcDbCircle
 10
6.8873031496062991
 20
-2.6757874015748029
 30
0
 40
0.0196850393700787
  0
CIRCLE
  5
2A3
330
1B
100
AcDbEntity
  8
User.1
100
AcDbCircle
 10
6.8873031496062991
 20
-2.5773622047244094
 30
0
 40
0.0196850393700787
  0
ENDSEC
  0
SECTION
  2
OBJECTS
  0
DICTIONARY
  5
21
330
0
100
AcDbDictionary
281
1
  3
ACAD_GROUP
350
2A4
  3
ACAD_LAYOUT
350
22
  3
ACAD_PLOTSTYLENAME
350
11
  0
DICTIONARY
  5
2A4
330
21
100
AcDbDictionary
281
1
  0
ACDBDICTIONARYWDFLT
  5
11
330
21
100
AcDbDictionary
281
1
  3
Normal
350
10
100
AcDbDictionaryWithDefault
340
10
  0
ACDBPLACEHOLDER
  5
10
330
11
  0
DICTIONARY
  5
22
330
21
100
AcDbDictionary
281
1
  3
Model
350
1E
  3
Layout1
350
1F
  3
Layout2
350
20
  0
LAYOUT
  5
1E
330
22
100
AcDbPlotSettings
  1

  2
none_device
  4
A3
  6

 40
0.0
 41
0.0
 42
0.0
 43
0.0
 44
420.0
 45
297.0
 46
0.0
 47
0.0
 48
0.0
 49
0.0
140
0.0
141
0.0
142
1.0
143
1.0
 70
1024
 72
1
 73
0
 74
5
  7

 75
16
 76
0
 77
2
 78
300
147
1.0
148
0.0
149
0.0
100
AcDbLayout
  1
Model
 70
1
 71
0
 10
0.0
 20
0.0
 11
420.0
 21
297.0
 12
0.0
 22
0.0
 32
0.0
 14
1e+20
 24
1e+20
 34
1e+20
 15
-1e+20
 25
-1e+20
 35
-1e+20
146
0.0
 13
0.0
 23
0.0
 33
0.0
 16
1.0
 26
0.0
 36
0.0
 17
0.0
 27
1.0
 37
0.0
 76
0
330
1B
  0
LAYOUT
  5
1F
330
22
100
AcDbPlotSettings
  1

  2
none_device
  4
A3
  6

 40
0.0
 41
0.0
 42
0.0
 43
0.0
 44
420.0
 45
297.0
 46
0.0
 47
0.0
 48
0.0
 49
0.0
140
0.0
141
0.0
142
1.0
143
1.0
 70
0
 72
1
 73
0
 74
5
  7

 75
16
 76
0
 77
2
 78
300
147
1.0
148
0.0
149
0.0
100
AcDbLayout
  1
Layout1
 70
1
 71
1
 10
0.0
 20
0.0
 11
420.0
 21
297.0
 12
0.0
 22
0.0
 32
0.0
 14
1e+20
 24
1e+20
 34
1e+20
 15
-1e+20
 25
-1e+20
 35
-1e+20
146
0.0
 13
0.0
 23
0.0
 33
0.0
 16
1.0
 26
0.0
 36
0.0
 17
0.0
 27
1.0
 37
0.0
 76
0
330
1C
  0
LAYOUT
  5
20
330
22
100
AcDbPlotSettings
  1

  2
none_device
  4
A3
  6

 40
0.0
 41
0.0
 42
0.0
 43
0.0
 44
420.0
 45
297.0
 46
0.0
 47
0.0
 48
0.0
 49
0.0
140
0.0
141
0.0
142
1.0
143
1.0
 70
0
 72
1
 73
0
 74
5
  7

 75
16
 76
0
 77
2
 78
300
147
1.0
148
0.0
149
0.0
100
AcDbLayout
  1
Layout2
 70
1
 71
2
 10
0.0
 20
0.0
 11
420.0
 21
297.0
 12
0.0
 22
0.0
 32
0.0
 14
1e+20
 24
1e+20
 34
1e+20
 15
-1e+20
 25
-1e+20
 35
-1e+20
146
0.0
 13
0.0
 23
0.0
 33
0.0
 16
1.0
 26
0.0
 36
0.0
 17
0.0
 27
1.0
 37
0.0
 76
0
330
1D
  0
ENDSEC
  0
EOF
