  0
SECTION
  2
HEADER
  9
$ACADVER
  1
AC1018
  9
$HANDSEED
  5
FFFFFFFF
  9
$ANGBASE
  50
0.0
  9
$ANGDIR
  70
1
  9
$MEASUREMENT
  70
0
  9
$INSUNITS
  70
1
  0
ENDSEC
  0
SECTION
  2
TABLES
  0
TABLE
  2
APPID
  5
1
330
0
100
AcDbSymbolTable
 70
1
  0
APPID
  5
2
330
1
100
AcDbSymbolTableRecord
100
AcDbRegAppTableRecord
  2
ACAD
 70
0
  0
ENDTAB
  0
TABLE
  2
LTYPE
  5
3
330
0
100
AcDbSymbolTable
 70
6
  0
LTYPE
  5
4
330
3
100
AcDbSymbolTableRecord
100
AcDbLinetypeTableRecord
  2
ByBlock
 70
0
  3

 72
65
 73
0
 40
0
  0
LTYPE
  5
5
330
3
100
AcDbSymbolTableRecord
100
AcDbLinetypeTableRecord
  2
ByLayer
 70
0
  3

 72
65
 73
0
 40
0
  0
LTYPE
  5
6
330
3
100
AcDbSymbolTableRecord
100
AcDbLinetypeTableRecord
  2
CONTINUOUS
 70
0
  3
Solid line
 72
65
 73
0
 40
0
  0
LTYPE
  5
7
330
3
100
AcDbSymbolTableRecord
100
AcDbLinetypeTableRecord
  2
DASHDOT
 70
0
  3
Dash Dot ____ _ ____ _
 72
65
 73
4
 40
2
 49
1.25
 74
0
 49
-0.25
 74
0
 49
0.25
 74
0
 49
-0.25
 74
0
  0
LTYPE
  5
8
330
3
100
AcDbSymbolTableRecord
100
AcDbLinetypeTableRecord
  2
DASHED
 70
0
  3
Dashed __ __ __ __ __
 72
65
 73
2
 40
0.75
 49
0.5
 74
0
 49
-0.25
 74
0
  0
LTYPE
  5
9
330
3
100
AcDbSymbolTableRecord
100
AcDbLinetypeTableRecord
  2
DOTTED
 70
0
  3
Dotted .  .  .  .
 72
65
 73
2
 40
0.2
 49
0.0
 74
0
 49
-0.2
 74
0
  0
ENDTAB
  0
TABLE
  2
STYLE
  5
A
330
0
100
AcDbSymbolTable
 70
4
  0
STYLE
  5
B
330
A
100
AcDbSymbolTableRecord
100
AcDbTextStyleTableRecord
  2
KICAD
 70
0
 40
0
 41
1
 42
1
 50
0
 71
0
  3
isocp.shx
  0
STYLE
  5
C
330
A
100
AcDbSymbolTableRecord
100
AcDbTextStyleTableRecord
  2
KICADB
 70
0
 40
0
 41
1
 42
1
 50
0
 71
0
  3
isocp.shx
  0
STYLE
  5
D
330
A
100
AcDbSymbolTableRecord
100
AcDbTextStyleTableRecord
  2
KICADI
 70
0
 40
0
 41
1
 42
1
 50
15
 71
0
  3
isocp.shx
  0
STYLE
  5
E
330
A
100
AcDbSymbolTableRecord
100
AcDbTextStyleTableRecord
  2
KICADBI
 70
0
 40
0
 41
1
 42
1
 50
15
 71
0
  3
isocp.shx
  0
ENDTAB
  0
TABLE
  2
LAYER
  5
F
330
0
100
AcDbSymbolTable
 70
3
  0
LAYER
  5
12
330
F
100
AcDbSymbolTableRecord
100
AcDbLayerTableRecord
  2
0
 70
0
 62
7
  6
CONTINUOUS
390
10
  0
LAYER
  5
13
330
F
100
AcDbSymbolTableRecord
100
AcDbLayerTableRecord
  2
Edge.Cuts
 70
0
 62
111
420
8519614
  6
CONTINUOUS
390
10
  0
LAYER
  5
14
330
F
100
AcDbSymbolTableRecord
100
AcDbLayerTableRecord
  2
User.1
 70
0
 62
42
420
12744192
  6
CONTINUOUS
390
10
  0
ENDTAB
  0
TABLE
  2
VPORT
  5
15
330
0
100
AcDbSymbolTable
 70
0
  0
ENDTAB
  0
TABLE
  2
VIEW
  5
16
330
0
100
AcDbSymbolTable
 70
0
  0
ENDTAB
  0
TABLE
  2
UCS
  5
17
330
0
100
AcDbSymbolTable
 70
0
  0
ENDTAB
  0
TABLE
  2
DIMSTYLE
  5
18
330
0
100
AcDbSymbolTable
 70
1
100
AcDbDimStyleTable
 71
0
  0
DIMSTYLE
105
19
330
18
100
AcDbSymbolTableRecord
100
AcDbDimStyleTableRecord
  2
Standard
 70
0
  0
ENDTAB
  0
TABLE
  2
BLOCK_RECORD
  5
1A
330
0
100
AcDbSymbolTable
 70
3
  0
BLOCK_RECORD
  5
1B
330
1A
100
AcDbSymbolTableRecord
100
AcDbBlockTableRecord
  2
*Model_Space
340
1E
 70
0
280
1
281
0
  0
BLOCK_RECORD
  5
1C
330
1A
100
AcDbSymbolTableRecord
100
AcDbBlockTableRecord
  2
*Paper_Space
340
1F
 70
0
280
1
281
0
  0
BLOCK_RECORD
  5
1D
330
1A
100
AcDbSymbolTableRecord
100
AcDbBlockTableRecord
  2
*Paper_Space0
340
20
 70
0
280
1
281
0
  0
ENDTAB
  0
ENDSEC
  0
SECTION
  2
BLOCKS
  0
BLOCK
  5
24
330
1B
100
AcDbEntity
  8
0
100
AcDbBlockBegin
  2
*Model_Space
 70
0
 10
0.0
 20
0.0
 30
0.0
  3
*Model_Space
  1

  0
ENDBLK
  5
23
330
1B
100
AcDbEntity
  8
0
100
AcDbBlockEnd
  0
BLOCK
  5
26
330
1C
100
AcDbEntity
 67
1
  8
0
100
AcDbBlockBegin
  2
*Paper_Space
 70
0
 10
0.0
 20
0.0
 30
0.0
  3
*Paper_Space
  1

  0
ENDBLK
  5
25
330
1C
100
AcDbEntity
 67
1
  8
0
100
AcDbBlockEnd
  0
BLOCK
  5
28
330
1D
100
AcDbEntity
 67
1
  8
0
100
AcDbBlockBegin
  2
*Paper_Space0
 70
0
 10
0.0
 20
0.0
 30
0.0
  3
*Paper_Space0
  1

  0
ENDBLK
  5
27
330
1D
100
AcDbEntity
 67
1
  8
0
100
AcDbBlockEnd
  0
ENDSEC
  0
SECTION
  2
ENTITIES
  0
LINE
  5
29
330
1B
100
AcDbEntity
  8
Edge.Cuts
  6
CONTINUOUS
100
AcDbLine
 10
6.7676362598425195
 20
-3.7051220078740155
 30
0
 11
6.7785046456692912
 21
-3.7076026377952753
 31
0
  0
LINE
  5
2A
330
1B
100
AcDbEntity
  8
Edge.Cuts
  6
CONTINUOUS
100
AcDbLine
 10
6.7785046456692912
 20
-3.7076026377952753
 30
0
 11
6.7890269291338585
 21
-3.7112845275590551
 31
0
  0
LINE
  5
2B
330
1B
100
AcDbEntity
  8
Edge.Cuts
  6
CONTINUOUS
100
AcDbLine
 10
6.7890269291338585
 20
-3.7112845275590551
 30
0
 11
6.7990707874015746
 21
-3.7161214173228347
 31
0
  0
LINE
  5
2C
330
1B
100
AcDbEntity
  8
Edge.Cuts
  6
CONTINUOUS
100
AcDbLine
 10
6.7990707874015746
 20
-3.7161214173228347
 30
0
 11
6.8085099606299213
 21
-3.7220524409448816
 31
0
  0
LINE
  5
2D
330
1B
100
AcDbEntity
  8
Edge.Cuts
  6
CONTINUOUS
100
AcDbLine
 10
6.8085099606299213
 20
-3.7220524409448816
 30
0
 11
6.8172257086614172
 21
-3.7290030314960627
 31
0
  0
LINE
  5
2E
330
1B
100
AcDbEntity
  8
Edge.Cuts
  6
CONTINUOUS
100
AcDbLine
 10
6.8172257086614172
 20
-3.7290030314960627
 30
0
 11
6.8251084251968503
 21
-3.7368857480314959
 31
0
  0
LINE
  5
2F
330
1B
100
AcDbEntity
  8
Edge.Cuts
  6
CONTINUOUS
100
AcDbLine
 10
6.8251084251968503
 20
-3.7368857480314959
 30
0
 11
6.8320590157480314
 21
-3.7456014960629922
 31
0
  0
LINE
  5
30
330
1B
100
AcDbEntity
  8
Edge.Cuts
  6
CONTINUOUS
100
AcDbLine
 10
6.8320590157480314
 20
-3.7456014960629922
 30
0
 11
6.8379900393700783
 21
-3.7550406692913385
 31
0
  0
LINE
  5
31
330
1B
100
AcDbEntity
  8
Edge.Cuts
  6
CONTINUOUS
100
AcDbLine
 10
6.8379900393700783
 20
-3.7550406692913385
 30
0
 11
6.8428269291338584
 21
-3.765084527559055
 31
0
  0
LINE
  5
32
330
1B
100
AcDbEntity
  8
Edge.Cuts
  6
CONTINUOUS
100
AcDbLine
 10
6.8428269291338584
 20
-3.765084527559055
 30
0
 11
6.8465088188976377
 21
-3.7756068110236218
 31
0
  0
LINE
  5
33
330
1B
100
AcDbEntity
  8
Edge.Cuts
  6
CONTINUOUS
100
AcDbLine
 10
6.8465088188976377
 20
-3.7756068110236218
 30
0
 11
6.8489894488188972
 21
-3.7864751968503936
 31
0
  0
LINE
  5
34
330
1B
100
AcDbEntity
  8
Edge.Cuts
  6
CONTINUOUS
100
AcDbLine
 10
6.8489894488188972
 20
-3.7864751968503936
 30
0
 11
6.8502376377952752
 21
-3.7975529527559053
 31
0
  0
LINE
  5
35
330
1B
100
AcDbEntity
  8
Edge.Cuts
  6
CONTINUOUS
100
AcDbLine
 10
6.8502376377952752
 20
-3.7975529527559053
 30
0
 11
6.8502376377952752
 21
-3.8087008267716533
 31
0
  0
LINE
  5
36
330
1B
100
AcDbEntity
  8
Edge.Cuts
  6
CONTINUOUS
100
AcDbLine
 10
6.8502376377952752
 20
-3.8087008267716533
 30
0
 11
6.8489894488188972
 21
-3.8197785826771651
 31
0
  0
LINE
  5
37
330
1B
100
AcDbEntity
  8
Edge.Cuts
  6
CONTINUOUS
100
AcDbLine
 10
6.8489894488188972
 20
-3.8197785826771651
 30
0
 11
6.8465088188976377
 21
-3.8306469685039368
 31
0
  0
LINE
  5
38
330
1B
100
AcDbEntity
  8
Edge.Cuts
  6
CONTINUOUS
100
AcDbLine
 10
6.8465088188976377
 20
-3.8306469685039368
 30
0
 11
6.8428269291338584
 21
-3.8411692519685037
 31
0
  0
LINE
  5
39
330
1B
100
AcDbEntity
  8
Edge.Cuts
  6
CONTINUOUS
100
AcDbLine
 10
6.8428269291338584
 20
-3.8411692519685037
 30
0
 11
6.8379900393700783
 21
-3.8512131102362206
 31
0
  0
LINE
  5
3A
330
1B
100
AcDbEntity
  8
Edge.Cuts
  6
CONTINUOUS
100
AcDbLine
 10
6.8379900393700783
 20
-3.8512131102362206
 30
0
 11
6.8320590157480314
 21
-3.8606522834645669
 31
0
  0
LINE
  5
3B
330
1B
100
AcDbEntity
  8
Edge.Cuts
  6
CONTINUOUS
100
AcDbLine
 10
6.8320590157480314
 20
-3.8606522834645669
 30
0
 11
6.8251084251968503
 21
-3.8693680314960628
 31
0
  0
LINE
  5
3C
330
1B
100
AcDbEntity
  8
Edge.Cuts
  6
CONTINUOUS
100
AcDbLine
 10
6.8251084251968503
 20
-3.8693680314960628
 30
0
 11
6.8172257086614172
 21
-3.8772507480314959
 31
0
  0
LINE
  5
3D
330
1B
100
AcDbEntity
  8
Edge.Cuts
  6
CONTINUOUS
100
AcDbLine
 10
6.8172257086614172
 20
-3.8772507480314959
 30
0
 11
6.8085099606299213
 21
-3.884201338582677
 31
0
  0
LINE
  5
3E
330
1B
100
AcDbEntity
  8
Edge.Cuts
  6
CONTINUOUS
100
AcDbLine
 10
6.8085099606299213
 20
-3.884201338582677
 30
0
 11
6.7990707874015746
 21
-3.8901323622047244
 31
0
  0
LINE
  5
3F
330
1B
100
AcDbEntity
  8
Edge.Cuts
  6
CONTINUOUS
100
AcDbLine
 10
6.7990707874015746
 20
-3.8901323622047244
 30
0
 11
6.7890269291338585
 21
-3.894969251968504
 31
0
  0
LINE
  5
40
330
1B
100
AcDbEntity
  8
Edge.Cuts
  6
CONTINUOUS
100
AcDbLine
 10
6.7890269291338585
 20
-3.894969251968504
 30
0
 11
6.7785046456692912
 21
-3.8986511417322833
 31
0
  0
LINE
  5
41
330
1B
100
AcDbEntity
  8
Edge.Cuts
  6
CONTINUOUS
100
AcDbLine
 10
6.7785046456692912
 20
-3.8986511417322833
 30
0
 11
6.7676362598425195
 21
-3.9011317716535432
 31
0
  0
LINE
  5
42
330
1B
100
AcDbEntity
  8
Edge.Cuts
  6
CONTINUOUS
100
AcDbLine
 10
6.7676362598425195
 20
-3.9011317716535432
 30
0
 11
6.7565585039370077
 21
-3.9023799606299212
 31
0
  0
LINE
  5
43
330
1B
100
AcDbEntity
  8
Edge.Cuts
  6
CONTINUOUS
100
AcDbLine
 10
6.7565585039370077
 20
-3.9023799606299212
 30
0
 11
6.7454106299212597
 21
-3.9023799606299212
 31
0
  0
LINE
  5
44
330
1B
100
AcDbEntity
  8
Edge.Cuts
  6
CONTINUOUS
100
AcDbLine
 10
6.7454106299212597
 20
-3.9023799606299212
 30
0
 11
6.734332874015748
 21
-3.9011317716535432
 31
0
  0
LINE
  5
45
330
1B
100
AcDbEntity
  8
Edge.Cuts
  6
CONTINUOUS
100
AcDbLine
 10
6.734332874015748
 20
-3.9011317716535432
 30
0
 11
6.7234644881889762
 21
-3.8986511417322833
 31
0
  0
LINE
  5
46
330
1B
100
AcDbEntity
  8
Edge.Cuts
  6
CONTINUOUS
100
AcDbLine
 10
6.7234644881889762
 20
-3.8986511417322833
 30
0
 11
6.7129422047244089
 21
-3.894969251968504
 31
0
  0
LINE
  5
47
330
1B
100
AcDbEntity
  8
Edge.Cuts
  6
CONTINUOUS
100
AcDbLine
 10
6.7129422047244089
 20
-3.894969251968504
 30
0
 11
6.7028983464566929
 21
-3.8901323622047244
 31
0
  0
LINE
  5
48
330
1B
100
AcDbEntity
  8
Edge.Cuts
  6
CONTINUOUS
100
AcDbLine
 10
6.7028983464566929
 20
-3.8901323622047244
 30
0
 11
6.6934591732283462
 21
-3.884201338582677
 31
0
  0
LINE
  5
49
330
1B
100
AcDbEntity
  8
Edge.Cuts
  6
CONTINUOUS
100
AcDbLine
 10
6.6934591732283462
 20
-3.884201338582677
 30
0
 11
6.6847434251968503
 21
-3.8772507480314959
 31
0
  0
LINE
  5
4A
330
1B
100
AcDbEntity
  8
Edge.Cuts
  6
CONTINUOUS
100
AcDbLine
 10
6.6847434251968503
 20
-3.8772507480314959
 30
0
 11
6.6768607086614171
 21
-3.8693680314960628
 31
0
  0
LINE
  5
4B
330
1B
100
AcDbEntity
  8
Edge.Cuts
  6
CONTINUOUS
100
AcDbLine
 10
6.6768607086614171
 20
-3.8693680314960628
 30
0
 11
6.669910118110236
 21
-3.8606522834645669
 31
0
  0
LINE
  5
4C
330
1B
100
AcDbEntity
  8
Edge.Cuts
  6
CONTINUOUS
100
AcDbLine
 10
6.669910118110236
 20
-3.8606522834645669
 30
0
 11
6.6639790944881891
 21
-3.8512131102362206
 31
0
  0
LINE
  5
4D
330
1B
100
AcDbEntity
  8
Edge.Cuts
  6
CONTINUOUS
100
AcDbLine
 10
6.6639790944881891
 20
-3.8512131102362206
 30
0
 11
6.6591422047244091
 21
-3.8411692519685037
 31
0
  0
LINE
  5
4E
330
1B
100
AcDbEntity
  8
Edge.Cuts
  6
CONTINUOUS
100
AcDbLine
 10
6.6591422047244091
 20
-3.8411692519685037
 30
0
 11
6.6554603149606297
 21
-3.8306469685039368
 31
0
  0
LINE
  5
4F
330
1B
100
AcDbEntity
  8
Edge.Cuts
  6
CONTINUOUS
100
AcDbLine
 10
6.6554603149606297
 20
-3.8306469685039368
 30
0
 11
6.6529796850393703
 21
-3.8197785826771651
 31
0
  0
LINE
  5
50
330
1B
100
AcDbEntity
  8
Edge.Cuts
  6
CONTINUOUS
100
AcDbLine
 10
6.6529796850393703
 20
-3.8197785826771651
 30
0
 11
6.6517314960629923
 21
-3.8087008267716533
 31
0
  0
LINE
  5
51
330
1B
100
AcDbEntity
  8
Edge.Cuts
  6
CONTINUOUS
100
AcDbLine
 10
6.6517314960629923
 20
-3.8087008267716533
 30
0
 11
6.6517314960629923
 21
-3.7976547244094485
 31
0
  0
LINE
  5
52
330
1B
100
AcDbEntity
  8
Edge.Cuts
  6
CONTINUOUS
100
AcDbLine
 10
6.6517314960629923
 20
-3.7976547244094485
 30
0
 11
6.6517314960629923
 21
-3.7975529527559053
 31
0
  0
LINE
  5
53
330
1B
100
AcDbEntity
  8
Edge.Cuts
  6
CONTINUOUS
100
AcDbLine
 10
6.6517314960629923
 20
-3.7975529527559053
 30
0
 11
6.6529796850393703
 21
-3.7864751968503936
 31
0
  0
LINE
  5
54
330
1B
100
AcDbEntity
  8
Edge.Cuts
  6
CONTINUOUS
100
AcDbLine
 10
6.6529796850393703
 20
-3.7864751968503936
 30
0
 11
6.6554603149606297
 21
-3.7756068110236218
 31
0
  0
LINE
  5
55
330
1B
100
AcDbEntity
  8
Edge.Cuts
  6
CONTINUOUS
100
AcDbLine
 10
6.6554603149606297
 20
-3.7756068110236218
 30
0
 11
6.6591422047244091
 21
-3.765084527559055
 31
0
  0
LINE
  5
56
330
1B
100
AcDbEntity
  8
Edge.Cuts
  6
CONTINUOUS
100
AcDbLine
 10
6.6591422047244091
 20
-3.765084527559055
 30
0
 11
6.6639790944881891
 21
-3.7550406692913385
 31
0
  0
LINE
  5
57
330
1B
100
AcDbEntity
  8
Edge.Cuts
  6
CONTINUOUS
100
AcDbLine
 10
6.6639790944881891
 20
-3.7550406692913385
 30
0
 11
6.669910118110236
 21
-3.7456014960629922
 31
0
  0
LINE
  5
58
330
1B
100
AcDbEntity
  8
Edge.Cuts
  6
CONTINUOUS
100
AcDbLine
 10
6.669910118110236
 20
-3.7456014960629922
 30
0
 11
6.6768607086614171
 21
-3.7368857480314959
 31
0
  0
LINE
  5
59
330
1B
100
AcDbEntity
  8
Edge.Cuts
  6
CONTINUOUS
100
AcDbLine
 10
6.6768607086614171
 20
-3.7368857480314959
 30
0
 11
6.6847434251968503
 21
-3.7290030314960627
 31
0
  0
LINE
  5
5A
330
1B
100
AcDbEntity
  8
Edge.Cuts
  6
CONTINUOUS
100
AcDbLine
 10
6.6847434251968503
 20
-3.7290030314960627
 30
0
 11
6.6934591732283462
 21
-3.7220524409448816
 31
0
  0
LINE
  5
5B
330
1B
100
AcDbEntity
  8
Edge.Cuts
  6
CONTINUOUS
100
AcDbLine
 10
6.6934591732283462
 20
-3.7220524409448816
 30
0
 11
6.7028983464566929
 21
-3.7161214173228347
 31
0
  0
LINE
  5
5C
330
1B
100
AcDbEntity
  8
Edge.Cuts
  6
CONTINUOUS
100
AcDbLine
 10
6.7028983464566929
 20
-3.7161214173228347
 30
0
 11
6.7129422047244089
 21
-3.7112845275590551
 31
0
  0
LINE
  5
5D
330
1B
100
AcDbEntity
  8
Edge.Cuts
  6
CONTINUOUS
100
AcDbLine
 10
6.7129422047244089
 20
-3.7112845275590551
 30
0
 11
6.7234644881889762
 21
-3.7076026377952753
 31
0
  0
LINE
  5
5E
330
1B
100
AcDbEntity
  8
Edge.Cuts
  6
CONTINUOUS
100
AcDbLine
 10
6.7234644881889762
 20
-3.7076026377952753
 30
0
 11
6.734332874015748
 21
-3.7051220078740155
 31
0
  0
LINE
  5
5F
330
1B
100
AcDbEntity
  8
Edge.Cuts
  6
CONTINUOUS
100
AcDbLine
 10
6.734332874015748
 20
-3.7051220078740155
 30
0
 11
6.7454106299212597
 21
-3.7038738188976379
 31
0
  0
LINE
  5
60
330
1B
100
AcDbEntity
  8
Edge.Cuts
  6
CONTINUOUS
100
AcDbLine
 10
6.7454106299212597
 20
-3.7038738188976379
 30
0
 11
6.7565585039370077
 21
-3.7038738188976379
 31
0
  0
LINE
  5
61
330
1B
100
AcDbEntity
  8
Edge.Cuts
  6
CONTINUOUS
100
AcDbLine
 10
6.7565585039370077
 20
-3.7038738188976379
 30
0
 11
6.7676362598425195
 21
-3.7051220078740155
 31
0
  0
LINE
  5
62
330
1B
100
AcDbEntity
  8
Edge.Cuts
  6
CONTINUOUS
100
AcDbLine
 10
6.6535436220472439
 20
-3.8085990551181101
 30
0
 11
6.6547689763779525
 21
-3.8194745669291339
 31
0
  0
LINE
  5
63
330
1B
100
AcDbEntity
  8
Edge.Cuts
  6
CONTINUOUS
100
AcDbLine
 10
6.6547689763779525
 20
-3.8194745669291339
 30
0
 11
6.6572043307086615
 21
-3.8301445275590549
 31
0
  0
LINE
  5
64
330
1B
100
AcDbEntity
  8
Edge.Cuts
  6
CONTINUOUS
100
AcDbLine
 10
6.6572043307086615
 20
-3.8301445275590549
 30
0
 11
6.6608190157480314
 21
-3.8404746850393701
 31
0
  0
LINE
  5
65
330
1B
100
AcDbEntity
  8
Edge.Cuts
  6
CONTINUOUS
100
AcDbLine
 10
6.6608190157480314
 20
-3.8404746850393701
 30
0
 11
6.6655675984251967
 21
-3.8503351968503936
 31
0
  0
LINE
  5
66
330
1B
100
AcDbEntity
  8
Edge.Cuts
  6
CONTINUOUS
100
AcDbLine
 10
6.6655675984251967
 20
-3.8503351968503936
 30
0
 11
6.6713903149606297
 21
-3.8596020078740159
 31
0
  0
LINE
  5
67
330
1B
100
AcDbEntity
  8
Edge.Cuts
  6
CONTINUOUS
100
AcDbLine
 10
6.6713903149606297
 20
-3.8596020078740159
 30
0
 11
6.678214015748031
 21
-3.8681586614173229
 31
0
  0
LINE
  5
68
330
1B
100
AcDbEntity
  8
Edge.Cuts
  6
CONTINUOUS
100
AcDbLine
 10
6.678214015748031
 20
-3.8681586614173229
 30
0
 11
6.6859527952755906
 21
-3.8758974409448816
 31
0
  0
LINE
  5
69
330
1B
100
AcDbEntity
  8
Edge.Cuts
  6
CONTINUOUS
100
AcDbLine
 10
6.6859527952755906
 20
-3.8758974409448816
 30
0
 11
6.6945094488188976
 21
-3.8827211417322833
 31
0
  0
LINE
  5
6A
330
1B
100
AcDbEntity
  8
Edge.Cuts
  6
CONTINUOUS
100
AcDbLine
 10
6.6945094488188976
 20
-3.8827211417322833
 30
0
 11
6.7037762598425195
 21
-3.8885438582677163
 31
0
  0
LINE
  5
6B
330
1B
100
AcDbEntity
  8
Edge.Cuts
  6
CONTINUOUS
100
AcDbLine
 10
6.7037762598425195
 20
-3.8885438582677163
 30
0
 11
6.713636771653543
 21
-3.8932924409448817
 31
0
  0
LINE
  5
6C
330
1B
100
AcDbEntity
  8
Edge.Cuts
  6
CONTINUOUS
100
AcDbLine
 10
6.713636771653543
 20
-3.8932924409448817
 30
0
 11
6.7239669291338577
 21
-3.896907125984252
 31
0
  0
LINE
  5
6D
330
1B
100
AcDbEntity
  8
Edge.Cuts
  6
CONTINUOUS
100
AcDbLine
 10
6.7239669291338577
 20
-3.896907125984252
 30
0
 11
6.7346368897637792
 21
-3.8993424803149606
 31
0
  0
LINE
  5
6E
330
1B
100
AcDbEntity
  8
Edge.Cuts
  6
CONTINUOUS
100
AcDbLine
 10
6.7346368897637792
 20
-3.8993424803149606
 30
0
 11
6.7455124015748034
 21
-3.9005678346456691
 31
0
  0
LINE
  5
6F
330
1B
100
AcDbEntity
  8
Edge.Cuts
  6
CONTINUOUS
100
AcDbLine
 10
6.7455124015748034
 20
-3.9005678346456691
 30
0
 11
6.7564567322834641
 21
-3.9005678346456691
 31
0
  0
LINE
  5
70
330
1B
100
AcDbEntity
  8
Edge.Cuts
  6
CONTINUOUS
100
AcDbLine
 10
6.7564567322834641
 20
-3.9005678346456691
 30
0
 11
6.7673322440944883
 21
-3.8993424803149606
 31
0
  0
LINE
  5
71
330
1B
100
AcDbEntity
  8
Edge.Cuts
  6
CONTINUOUS
100
AcDbLine
 10
6.7673322440944883
 20
-3.8993424803149606
 30
0
 11
6.7780022047244097
 21
-3.896907125984252
 31
0
  0
LINE
  5
72
330
1B
100
AcDbEntity
  8
Edge.Cuts
  6
CONTINUOUS
100
AcDbLine
 10
6.7780022047244097
 20
-3.896907125984252
 30
0
 11
6.7883323622047245
 21
-3.8932924409448817
 31
0
  0
LINE
  5
73
330
1B
100
AcDbEntity
  8
Edge.Cuts
  6
CONTINUOUS
100
AcDbLine
 10
6.7883323622047245
 20
-3.8932924409448817
 30
0
 11
6.798192874015748
 21
-3.8885438582677163
 31
0
  0
LINE
  5
74
330
1B
100
AcDbEntity
  8
Edge.Cuts
  6
CONTINUOUS
100
AcDbLine
 10
6.798192874015748
 20
-3.8885438582677163
 30
0
 11
6.8074596850393698
 21
-3.8827211417322833
 31
0
  0
LINE
  5
75
330
1B
100
AcDbEntity
  8
Edge.Cuts
  6
CONTINUOUS
100
AcDbLine
 10
6.8074596850393698
 20
-3.8827211417322833
 30
0
 11
6.8160163385826769
 21
-3.8758974409448816
 31
0
  0
LINE
  5
76
330
1B
100
AcDbEntity
  8
Edge.Cuts
  6
CONTINUOUS
100
AcDbLine
 10
6.8160163385826769
 20
-3.8758974409448816
 30
0
 11
6.8237551181102365
 21
-3.8681586614173229
 31
0
  0
LINE
  5
77
330
1B
100
AcDbEntity
  8
Edge.Cuts
  6
CONTINUOUS
100
AcDbLine
 10
6.8237551181102365
 20
-3.8681586614173229
 30
0
 11
6.8305788188976377
 21
-3.8596020078740159
 31
0
  0
LINE
  5
78
330
1B
100
AcDbEntity
  8
Edge.Cuts
  6
CONTINUOUS
100
AcDbLine
 10
6.8305788188976377
 20
-3.8596020078740159
 30
0
 11
6.8364015354330707
 21
-3.8503351968503936
 31
0
  0
LINE
  5
79
330
1B
100
AcDbEntity
  8
Edge.Cuts
  6
CONTINUOUS
100
AcDbLine
 10
6.8364015354330707
 20
-3.8503351968503936
 30
0
 11
6.8411501181102361
 21
-3.8404746850393701
 31
0
  0
LINE
  5
7A
330
1B
100
AcDbEntity
  8
Edge.Cuts
  6
CONTINUOUS
100
AcDbLine
 10
6.8411501181102361
 20
-3.8404746850393701
 30
0
 11
6.844764803149606
 21
-3.8301445275590549
 31
0
  0
LINE
  5
7B
330
1B
100
AcDbEntity
  8
Edge.Cuts
  6
CONTINUOUS
100
AcDbLine
 10
6.844764803149606
 20
-3.8301445275590549
 30
0
 11
6.847200157480315
 21
-3.8194745669291339
 31
0
  0
LINE
  5
7C
330
1B
100
AcDbEntity
  8
Edge.Cuts
  6
CONTINUOUS
100
AcDbLine
 10
6.847200157480315
 20
-3.8194745669291339
 30
0
 11
6.8484255118110235
 21
-3.8085990551181101
 31
0
  0
LINE
  5
7D
330
1B
100
AcDbEntity
  8
Edge.Cuts
  6
CONTINUOUS
100
AcDbLine
 10
6.8484255118110235
 20
-3.8085990551181101
 30
0
 11
6.8484255118110235
 21
-3.7976547244094485
 31
0
  0
LINE
  5
7E
330
1B
100
AcDbEntity
  8
Edge.Cuts
  6
CONTINUOUS
100
AcDbLine
 10
6.8484255118110235
 20
-3.7976547244094485
 30
0
 11
6.847200157480315
 21
-3.7867792125984252
 31
0
  0
LINE
  5
7F
330
1B
100
AcDbEntity
  8
Edge.Cuts
  6
CONTINUOUS
100
AcDbLine
 10
6.847200157480315
 20
-3.7867792125984252
 30
0
 11
6.844764803149606
 21
-3.7761092519685038
 31
0
  0
LINE
  5
80
330
1B
100
AcDbEntity
  8
Edge.Cuts
  6
CONTINUOUS
100
AcDbLine
 10
6.844764803149606
 20
-3.7761092519685038
 30
0
 11
6.8411501181102361
 21
-3.765779094488189
 31
0
  0
LINE
  5
81
330
1B
100
AcDbEntity
  8
Edge.Cuts
  6
CONTINUOUS
100
AcDbLine
 10
6.8411501181102361
 20
-3.765779094488189
 30
0
 11
6.8364015354330707
 21
-3.7559185826771651
 31
0
  0
LINE
  5
82
330
1B
100
AcDbEntity
  8
Edge.Cuts
  6
CONTINUOUS
100
AcDbLine
 10
6.8364015354330707
 20
-3.7559185826771651
 30
0
 11
6.8305788188976377
 21
-3.7466517716535432
 31
0
  0
LINE
  5
83
330
1B
100
AcDbEntity
  8
Edge.Cuts
  6
CONTINUOUS
100
AcDbLine
 10
6.8305788188976377
 20
-3.7466517716535432
 30
0
 11
6.8237551181102365
 21
-3.7380951181102362
 31
0
  0
LINE
  5
84
330
1B
100
AcDbEntity
  8
Edge.Cuts
  6
CONTINUOUS
100
AcDbLine
 10
6.8237551181102365
 20
-3.7380951181102362
 30
0
 11
6.8160163385826769
 21
-3.730356338582677
 31
0
  0
LINE
  5
85
330
1B
100
AcDbEntity
  8
Edge.Cuts
  6
CONTINUOUS
100
AcDbLine
 10
6.8160163385826769
 20
-3.730356338582677
 30
0
 11
6.8074596850393698
 21
-3.7235326377952753
 31
0
  0
LINE
  5
86
330
1B
100
AcDbEntity
  8
Edge.Cuts
  6
CONTINUOUS
100
AcDbLine
 10
6.8074596850393698
 20
-3.7235326377952753
 30
0
 11
6.798192874015748
 21
-3.7177099212598423
 31
0
  0
LINE
  5
87
330
1B
100
AcDbEntity
  8
Edge.Cuts
  6
CONTINUOUS
100
AcDbLine
 10
6.798192874015748
 20
-3.7177099212598423
 30
0
 11
6.7883323622047245
 21
-3.712961338582677
 31
0
  0
LINE
  5
88
330
1B
100
AcDbEntity
  8
Edge.Cuts
  6
CONTINUOUS
100
AcDbLine
 10
6.7883323622047245
 20
-3.712961338582677
 30
0
 11
6.7780022047244097
 21
-3.7093466535433071
 31
0
  0
LINE
  5
89
330
1B
100
AcDbEntity
  8
Edge.Cuts
  6
CONTINUOUS
100
AcDbLine
 10
6.7780022047244097
 20
-3.7093466535433071
 30
0
 11
6.7673322440944883
 21
-3.7069112992125985
 31
0
  0
LINE
  5
8A
330
1B
100
AcDbEntity
  8
Edge.Cuts
  6
CONTINUOUS
100
AcDbLine
 10
6.7673322440944883
 20
-3.7069112992125985
 30
0
 11
6.7564567322834641
 21
-3.7056859448818895
 31
0
  0
LINE
  5
8B
330
1B
100
AcDbEntity
  8
Edge.Cuts
  6
CONTINUOUS
100
AcDbLine
 10
6.7564567322834641
 20
-3.7056859448818895
 30
0
 11
6.7455124015748034
 21
-3.7056859448818895
 31
0
  0
LINE
  5
8C
330
1B
100
AcDbEntity
  8
Edge.Cuts
  6
CONTINUOUS
100
AcDbLine
 10
6.7455124015748034
 20
-3.7056859448818895
 30
0
 11
6.7346368897637792
 21
-3.7069112992125985
 31
0
  0
LINE
  5
8D
330
1B
100
AcDbEntity
  8
Edge.Cuts
  6
CONTINUOUS
100
AcDbLine
 10
6.7346368897637792
 20
-3.7069112992125985
 30
0
 11
6.7239669291338577
 21
-3.7093466535433071
 31
0
  0
LINE
  5
8E
330
1B
100
AcDbEntity
  8
Edge.Cuts
  6
CONTINUOUS
100
AcDbLine
 10
6.7239669291338577
 20
-3.7093466535433071
 30
0
 11
6.713636771653543
 21
-3.712961338582677
 31
0
  0
LINE
  5
8F
330
1B
100
AcDbEntity
  8
Edge.Cuts
  6
CONTINUOUS
100
AcDbLine
 10
6.713636771653543
 20
-3.712961338582677
 30
0
 11
6.7037762598425195
 21
-3.7177099212598423
 31
0
  0
LINE
  5
90
330
1B
100
AcDbEntity
  8
Edge.Cuts
  6
CONTINUOUS
100
AcDbLine
 10
6.7037762598425195
 20
-3.7177099212598423
 30
0
 11
6.6945094488188976
 21
-3.7235326377952753
 31
0
  0
LINE
  5
91
330
1B
100
AcDbEntity
  8
Edge.Cuts
  6
CONTINUOUS
100
AcDbLine
 10
6.6945094488188976
 20
-3.7235326377952753
 30
0
 11
6.6859527952755906
 21
-3.730356338582677
 31
0
  0
LINE
  5
92
330
1B
100
AcDbEntity
  8
Edge.Cuts
  6
CONTINUOUS
100
AcDbLine
 10
6.6859527952755906
 20
-3.730356338582677
 30
0
 11
6.678214015748031
 21
-3.7380951181102362
 31
0
  0
LINE
  5
93
330
1B
100
AcDbEntity
  8
Edge.Cuts
  6
CONTINUOUS
100
AcDbLine
 10
6.678214015748031
 20
-3.7380951181102362
 30
0
 11
6.6713903149606297
 21
-3.7466517716535432
 31
0
  0
LINE
  5
94
330
1B
100
AcDbEntity
  8
Edge.Cuts
  6
CONTINUOUS
100
AcDbLine
 10
6.6713903149606297
 20
-3.7466517716535432
 30
0
 11
6.6655675984251967
 21
-3.7559185826771651
 31
0
  0
LINE
  5
95
330
1B
100
AcDbEntity
  8
Edge.Cuts
  6
CONTINUOUS
100
AcDbLine
 10
6.6655675984251967
 20
-3.7559185826771651
 30
0
 11
6.6608190157480314
 21
-3.765779094488189
 31
0
  0
LINE
  5
96
330
1B
100
AcDbEntity
  8
Edge.Cuts
  6
CONTINUOUS
100
AcDbLine
 10
6.6608190157480314
 20
-3.765779094488189
 30
0
 11
6.6572043307086615
 21
-3.7761092519685038
 31
0
  0
LINE
  5
97
330
1B
100
AcDbEntity
  8
Edge.Cuts
  6
CONTINUOUS
100
AcDbLine
 10
6.6572043307086615
 20
-3.7761092519685038
 30
0
 11
6.6547689763779525
 21
-3.7867792125984252
 31
0
  0
LINE
  5
98
330
1B
100
AcDbEntity
  8
Edge.Cuts
  6
CONTINUOUS
100
AcDbLine
 10
6.6547689763779525
 20
-3.7867792125984252
 30
0
 11
6.6535436220472439
 21
-3.7976547244094485
 31
0
  0
LINE
  5
99
330
1B
100
AcDbEntity
  8
Edge.Cuts
  6
CONTINUOUS
100
AcDbLine
 10
6.6535436220472439
 20
-3.7976547244094485
 30
0
 11
6.6535436220472439
 21
-3.8085990551181101
 31
0
  0
LINE
  5
9A
330
1B
100
AcDbEntity
  8
Edge.Cuts
  6
CONTINUOUS
100
AcDbLine
 10
1.7051362598425197
 20
-3.4238720078740155
 30
0
 11
1.7160046456692912
 21
-3.4263526377952753
 31
0
  0
LINE
  5
9B
330
1B
100
AcDbEntity
  8
Edge.Cuts
  6
CONTINUOUS
100
AcDbLine
 10
1.7160046456692912
 20
-3.4263526377952753
 30
0
 11
1.7265269291338583
 21
-3.4300345275590551
 31
0
  0
LINE
  5
9C
330
1B
100
AcDbEntity
  8
Edge.Cuts
  6
CONTINUOUS
100
AcDbLine
 10
1.7265269291338583
 20
-3.4300345275590551
 30
0
 11
1.7365707874015748
 21
-3.4348714173228347
 31
0
  0
LINE
  5
9D
330
1B
100
AcDbEntity
  8
Edge.Cuts
  6
CONTINUOUS
100
AcDbLine
 10
1.7365707874015748
 20
-3.4348714173228347
 30
0
 11
1.7460099606299213
 21
-3.4408024409448816
 31
0
  0
LINE
  5
9E
330
1B
100
AcDbEntity
  8
Edge.Cuts
  6
CONTINUOUS
100
AcDbLine
 10
1.7460099606299213
 20
-3.4408024409448816
 30
0
 11
1.7547257086614172
 21
-3.4477530314960627
 31
0
  0
LINE
  5
9F
330
1B
100
AcDbEntity
  8
Edge.Cuts
  6
CONTINUOUS
100
AcDbLine
 10
1.7547257086614172
 20
-3.4477530314960627
 30
0
 11
1.7626084251968503
 21
-3.4556357480314959
 31
0
  0
LINE
  5
A0
330
1B
100
AcDbEntity
  8
Edge.Cuts
  6
CONTINUOUS
100
AcDbLine
 10
1.7626084251968503
 20
-3.4556357480314959
 30
0
 11
1.7695590157480314
 21
-3.4643514960629922
 31
0
  0
LINE
  5
A1
330
1B
100
AcDbEntity
  8
Edge.Cuts
  6
CONTINUOUS
100
AcDbLine
 10
1.7695590157480314
 20
-3.4643514960629922
 30
0
 11
1.7754900393700788
 21
-3.4737906692913385
 31
0
  0
LINE
  5
A2
330
1B
100
AcDbEntity
  8
Edge.Cuts
  6
CONTINUOUS
100
AcDbLine
 10
1.7754900393700788
 20
-3.4737906692913385
 30
0
 11
1.7803269291338581
 21
-3.483834527559055
 31
0
  0
LINE
  5
A3
330
1B
100
AcDbEntity
  8
Edge.Cuts
  6
CONTINUOUS
100
AcDbLine
 10
1.7803269291338581
 20
-3.483834527559055
 30
0
 11
1.7840088188976377
 21
-3.4943568110236218
 31
0
  0
LINE
  5
A4
330
1B
100
AcDbEntity
  8
Edge.Cuts
  6
CONTINUOUS
100
AcDbLine
 10
1.7840088188976377
 20
-3.4943568110236218
 30
0
 11
1.7864894488188976
 21
-3.5052251968503936
 31
0
  0
LINE
  5
A5
330
1B
100
AcDbEntity
  8
Edge.Cuts
  6
CONTINUOUS
100
AcDbLine
 10
1.7864894488188976
 20
-3.5052251968503936
 30
0
 11
1.7877376377952756
 21
-3.5163029527559053
 31
0
  0
LINE
  5
A6
330
1B
100
AcDbEntity
  8
Edge.Cuts
  6
CONTINUOUS
100
AcDbLine
 10
1.7877376377952756
 20
-3.5163029527559053
 30
0
 11
1.7877376377952756
 21
-3.5274508267716533
 31
0
  0
LINE
  5
A7
330
1B
100
AcDbEntity
  8
Edge.Cuts
  6
CONTINUOUS
100
AcDbLine
 10
1.7877376377952756
 20
-3.5274508267716533
 30
0
 11
1.7864894488188976
 21
-3.5385285826771651
 31
0
  0
LINE
  5
A8
330
1B
100
AcDbEntity
  8
Edge.Cuts
  6
CONTINUOUS
100
AcDbLine
 10
1.7864894488188976
 20
-3.5385285826771651
 30
0
 11
1.7840088188976377
 21
-3.5493969685039368
 31
0
  0
LINE
  5
A9
330
1B
100
AcDbEntity
  8
Edge.Cuts
  6
CONTINUOUS
100
AcDbLine
 10
1.7840088188976377
 20
-3.5493969685039368
 30
0
 11
1.7803269291338581
 21
-3.5599192519685037
 31
0
  0
LINE
  5
AA
330
1B
100
AcDbEntity
  8
Edge.Cuts
  6
CONTINUOUS
100
AcDbLine
 10
1.7803269291338581
 20
-3.5599192519685037
 30
0
 11
1.7754900393700788
 21
-3.5699631102362206
 31
0
  0
LINE
  5
AB
330
1B
100
AcDbEntity
  8
Edge.Cuts
  6
CONTINUOUS
100
AcDbLine
 10
1.7754900393700788
 20
-3.5699631102362206
 30
0
 11
1.7695590157480314
 21
-3.5794022834645669
 31
0
  0
LINE
  5
AC
330
1B
100
AcDbEntity
  8
Edge.Cuts
  6
CONTINUOUS
100
AcDbLine
 10
1.7695590157480314
 20
-3.5794022834645669
 30
0
 11
1.7626084251968503
 21
-3.5881180314960628
 31
0
  0
LINE
  5
AD
330
1B
100
AcDbEntity
  8
Edge.Cuts
  6
CONTINUOUS
100
AcDbLine
 10
1.7626084251968503
 20
-3.5881180314960628
 30
0
 11
1.7547257086614172
 21
-3.5960007480314959
 31
0
  0
LINE
  5
AE
330
1B
100
AcDbEntity
  8
Edge.Cuts
  6
CONTINUOUS
100
AcDbLine
 10
1.7547257086614172
 20
-3.5960007480314959
 30
0
 11
1.7460099606299213
 21
-3.602951338582677
 31
0
  0
LINE
  5
AF
330
1B
100
AcDbEntity
  8
Edge.Cuts
  6
CONTINUOUS
100
AcDbLine
 10
1.7460099606299213
 20
-3.602951338582677
 30
0
 11
1.7365707874015748
 21
-3.6088823622047244
 31
0
  0
LINE
  5
B0
330
1B
100
AcDbEntity
  8
Edge.Cuts
  6
CONTINUOUS
100
AcDbLine
 10
1.7365707874015748
 20
-3.6088823622047244
 30
0
 11
1.7265269291338583
 21
-3.613719251968504
 31
0
  0
LINE
  5
B1
330
1B
100
AcDbEntity
  8
Edge.Cuts
  6
CONTINUOUS
100
AcDbLine
 10
1.7265269291338583
 20
-3.613719251968504
 30
0
 11
1.7160046456692912
 21
-3.6174011417322833
 31
0
  0
LINE
  5
B2
330
1B
100
AcDbEntity
  8
Edge.Cuts
  6
CONTINUOUS
100
AcDbLine
 10
1.7160046456692912
 20
-3.6174011417322833
 30
0
 11
1.7051362598425197
 21
-3.6198817716535432
 31
0
  0
LINE
  5
B3
330
1B
100
AcDbEntity
  8
Edge.Cuts
  6
CONTINUOUS
100
AcDbLine
 10
1.7051362598425197
 20
-3.6198817716535432
 30
0
 11
1.6940585039370077
 21
-3.6211299606299212
 31
0
  0
LINE
  5
B4
330
1B
100
AcDbEntity
  8
Edge.Cuts
  6
CONTINUOUS
100
AcDbLine
 10
1.6940585039370077
 20
-3.6211299606299212
 30
0
 11
1.6829106299212597
 21
-3.6211299606299212
 31
0
  0
LINE
  5
B5
330
1B
100
AcDbEntity
  8
Edge.Cuts
  6
CONTINUOUS
100
AcDbLine
 10
1.6829106299212597
 20
-3.6211299606299212
 30
0
 11
1.671832874015748
 21
-3.6198817716535432
 31
0
  0
LINE
  5
B6
330
1B
100
AcDbEntity
  8
Edge.Cuts
  6
CONTINUOUS
100
AcDbLine
 10
1.671832874015748
 20
-3.6198817716535432
 30
0
 11
1.6609644881889762
 21
-3.6174011417322833
 31
0
  0
LINE
  5
B7
330
1B
100
AcDbEntity
  8
Edge.Cuts
  6
CONTINUOUS
100
AcDbLine
 10
1.6609644881889762
 20
-3.6174011417322833
 30
0
 11
1.6504422047244094
 21
-3.613719251968504
 31
0
  0
LINE
  5
B8
330
1B
100
AcDbEntity
  8
Edge.Cuts
  6
CONTINUOUS
100
AcDbLine
 10
1.6504422047244094
 20
-3.613719251968504
 30
0
 11
1.6403983464566929
 21
-3.6088823622047244
 31
0
  0
LINE
  5
B9
330
1B
100
AcDbEntity
  8
Edge.Cuts
  6
CONTINUOUS
100
AcDbLine
 10
1.6403983464566929
 20
-3.6088823622047244
 30
0
 11
1.6309591732283464
 21
-3.602951338582677
 31
0
  0
LINE
  5
BA
330
1B
100
AcDbEntity
  8
Edge.Cuts
  6
CONTINUOUS
100
AcDbLine
 10
1.6309591732283464
 20
-3.602951338582677
 30
0
 11
1.6222434251968503
 21
-3.5960007480314959
 31
0
  0
LINE
  5
BB
330
1B
100
AcDbEntity
  8
Edge.Cuts
  6
CONTINUOUS
100
AcDbLine
 10
1.6222434251968503
 20
-3.5960007480314959
 30
0
 11
1.6143607086614173
 21
-3.5881180314960628
 31
0
  0
LINE
  5
BC
330
1B
100
AcDbEntity
  8
Edge.Cuts
  6
CONTINUOUS
100
AcDbLine
 10
1.6143607086614173
 20
-3.5881180314960628
 30
0
 11
1.6074101181102363
 21
-3.5794022834645669
 31
0
  0
LINE
  5
BD
330
1B
100
AcDbEntity
  8
Edge.Cuts
  6
CONTINUOUS
100
AcDbLine
 10
1.6074101181102363
 20
-3.5794022834645669
 30
0
 11
1.6014790944881889
 21
-3.5699631102362206
 31
0
  0
LINE
  5
BE
330
1B
100
AcDbEntity
  8
Edge.Cuts
  6
CONTINUOUS
100
AcDbLine
 10
1.6014790944881889
 20
-3.5699631102362206
 30
0
 11
1.5966422047244093
 21
-3.5599192519685037
 31
0
  0
LINE
  5
BF
330
1B
100
AcDbEntity
  8
Edge.Cuts
  6
CONTINUOUS
100
AcDbLine
 10
1.5966422047244093
 20
-3.5599192519685037
 30
0
 11
1.59296031496063
 21
-3.5493969685039368
 31
0
  0
LINE
  5
C0
330
1B
100
AcDbEntity
  8
Edge.Cuts
  6
CONTINUOUS
100
AcDbLine
 10
1.59296031496063
 20
-3.5493969685039368
 30
0
 11
1.5904796850393701
 21
-3.5385285826771651
 31
0
  0
LINE
  5
C1
330
1B
100
AcDbEntity
  8
Edge.Cuts
  6
CONTINUOUS
100
AcDbLine
 10
1.5904796850393701
 20
-3.5385285826771651
 30
0
 11
1.5892314960629921
 21
-3.5274508267716533
 31
0
  0
LINE
  5
C2
330
1B
100
AcDbEntity
  8
Edge.Cuts
  6
CONTINUOUS
100
AcDbLine
 10
1.5892314960629921
 20
-3.5274508267716533
 30
0
 11
1.5892314960629921
 21
-3.516404724409449
 31
0
  0
LINE
  5
C3
330
1B
100
AcDbEntity
  8
Edge.Cuts
  6
CONTINUOUS
100
AcDbLine
 10
1.5892314960629921
 20
-3.516404724409449
 30
0
 11
1.5892314960629921
 21
-3.5163029527559053
 31
0
  0
LINE
  5
C4
330
1B
100
AcDbEntity
  8
Edge.Cuts
  6
CONTINUOUS
100
AcDbLine
 10
1.5892314960629921
 20
-3.5163029527559053
 30
0
 11
1.5904796850393701
 21
-3.5052251968503936
 31
0
  0
LINE
  5
C5
330
1B
100
AcDbEntity
  8
Edge.Cuts
  6
CONTINUOUS
100
AcDbLine
 10
1.5904796850393701
 20
-3.5052251968503936
 30
0
 11
1.59296031496063
 21
-3.4943568110236218
 31
0
  0
LINE
  5
C6
330
1B
100
AcDbEntity
  8
Edge.Cuts
  6
CONTINUOUS
100
AcDbLine
 10
1.59296031496063
 20
-3.4943568110236218
 30
0
 11
1.5966422047244093
 21
-3.483834527559055
 31
0
  0
LINE
  5
C7
330
1B
100
AcDbEntity
  8
Edge.Cuts
  6
CONTINUOUS
100
AcDbLine
 10
1.5966422047244093
 20
-3.483834527559055
 30
0
 11
1.6014790944881889
 21
-3.4737906692913385
 31
0
  0
LINE
  5
C8
330
1B
100
AcDbEntity
  8
Edge.Cuts
  6
CONTINUOUS
100
AcDbLine
 10
1.6014790944881889
 20
-3.4737906692913385
 30
0
 11
1.6074101181102363
 21
-3.4643514960629922
 31
0
  0
LINE
  5
C9
330
1B
100
AcDbEntity
  8
Edge.Cuts
  6
CONTINUOUS
100
AcDbLine
 10
1.6074101181102363
 20
-3.4643514960629922
 30
0
 11
1.6143607086614173
 21
-3.4556357480314959
 31
0
  0
LINE
  5
CA
330
1B
100
AcDbEntity
  8
Edge.Cuts
  6
CONTINUOUS
100
AcDbLine
 10
1.6143607086614173
 20
-3.4556357480314959
 30
0
 11
1.6222434251968503
 21
-3.4477530314960627
 31
0
  0
LINE
  5
CB
330
1B
100
AcDbEntity
  8
Edge.Cuts
  6
CONTINUOUS
100
AcDbLine
 10
1.6222434251968503
 20
-3.4477530314960627
 30
0
 11
1.6309591732283464
 21
-3.4408024409448816
 31
0
  0
LINE
  5
CC
330
1B
100
AcDbEntity
  8
Edge.Cuts
  6
CONTINUOUS
100
AcDbLine
 10
1.6309591732283464
 20
-3.4408024409448816
 30
0
 11
1.6403983464566929
 21
-3.4348714173228347
 31
0
  0
LINE
  5
CD
330
1B
100
AcDbEntity
  8
Edge.Cuts
  6
CONTINUOUS
100
AcDbLine
 10
1.6403983464566929
 20
-3.4348714173228347
 30
0
 11
1.6504422047244094
 21
-3.4300345275590551
 31
0
  0
LINE
  5
CE
330
1B
100
AcDbEntity
  8
Edge.Cuts
  6
CONTINUOUS
100
AcDbLine
 10
1.6504422047244094
 20
-3.4300345275590551
 30
0
 11
1.6609644881889762
 21
-3.4263526377952753
 31
0
  0
LINE
  5
CF
330
1B
100
AcDbEntity
  8
Edge.Cuts
  6
CONTINUOUS
100
AcDbLine
 10
1.6609644881889762
 20
-3.4263526377952753
 30
0
 11
1.671832874015748
 21
-3.4238720078740155
 31
0
  0
LINE
  5
D0
330
1B
100
AcDbEntity
  8
Edge.Cuts
  6
CONTINUOUS
100
AcDbLine
 10
1.671832874015748
 20
-3.4238720078740155
 30
0
 11
1.6829106299212597
 21
-3.4226238188976379
 31
0
  0
LINE
  5
D1
330
1B
100
AcDbEntity
  8
Edge.Cuts
  6
CONTINUOUS
100
AcDbLine
 10
1.6829106299212597
 20
-3.4226238188976379
 30
0
 11
1.6940585039370077
 21
-3.4226238188976379
 31
0
  0
LINE
  5
D2
330
1B
100
AcDbEntity
  8
Edge.Cuts
  6
CONTINUOUS
100
AcDbLine
 10
1.6940585039370077
 20
-3.4226238188976379
 30
0
 11
1.7051362598425197
 21
-3.4238720078740155
 31
0
  0
LINE
  5
D3
330
1B
100
AcDbEntity
  8
Edge.Cuts
  6
CONTINUOUS
100
AcDbLine
 10
1.5910436220472441
 20
-3.5273490551181101
 30
0
 11
1.5922689763779527
 21
-3.5382245669291339
 31
0
  0
LINE
  5
D4
330
1B
100
AcDbEntity
  8
Edge.Cuts
  6
CONTINUOUS
100
AcDbLine
 10
1.5922689763779527
 20
-3.5382245669291339
 30
0
 11
1.5947043307086615
 21
-3.5488945275590549
 31
0
  0
LINE
  5
D5
330
1B
100
AcDbEntity
  8
Edge.Cuts
  6
CONTINUOUS
100
AcDbLine
 10
1.5947043307086615
 20
-3.5488945275590549
 30
0
 11
1.5983190157480314
 21
-3.5592246850393701
 31
0
  0
LINE
  5
D6
330
1B
100
AcDbEntity
  8
Edge.Cuts
  6
CONTINUOUS
100
AcDbLine
 10
1.5983190157480314
 20
-3.5592246850393701
 30
0
 11
1.6030675984251967
 21
-3.5690851968503936
 31
0
  0
LINE
  5
D7
330
1B
100
AcDbEntity
  8
Edge.Cuts
  6
CONTINUOUS
100
AcDbLine
 10
1.6030675984251967
 20
-3.5690851968503936
 30
0
 11
1.60889031496063
 21
-3.5783520078740159
 31
0
  0
LINE
  5
D8
330
1B
100
AcDbEntity
  8
Edge.Cuts
  6
CONTINUOUS
100
AcDbLine
 10
1.60889031496063
 20
-3.5783520078740159
 30
0
 11
1.6157140157480314
 21
-3.5869086614173229
 31
0
  0
LINE
  5
D9
330
1B
100
AcDbEntity
  8
Edge.Cuts
  6
CONTINUOUS
100
AcDbLine
 10
1.6157140157480314
 20
-3.5869086614173229
 30
0
 11
1.6234527952755906
 21
-3.5946474409448816
 31
0
  0
LINE
  5
DA
330
1B
100
AcDbEntity
  8
Edge.Cuts
  6
CONTINUOUS
100
AcDbLine
 10
1.6234527952755906
 20
-3.5946474409448816
 30
0
 11
1.6320094488188976
 21
-3.6014711417322833
 31
0
  0
LINE
  5
DB
330
1B
100
AcDbEntity
  8
Edge.Cuts
  6
CONTINUOUS
100
AcDbLine
 10
1.6320094488188976
 20
-3.6014711417322833
 30
0
 11
1.6412762598425197
 21
-3.6072938582677163
 31
0
  0
LINE
  5
DC
330
1B
100
AcDbEntity
  8
Edge.Cuts
  6
CONTINUOUS
100
AcDbLine
 10
1.6412762598425197
 20
-3.6072938582677163
 30
0
 11
1.6511367716535432
 21
-3.6120424409448817
 31
0
  0
LINE
  5
DD
330
1B
100
AcDbEntity
  8
Edge.Cuts
  6
CONTINUOUS
100
AcDbLine
 10
1.6511367716535432
 20
-3.6120424409448817
 30
0
 11
1.6614669291338582
 21
-3.615657125984252
 31
0
  0
LINE
  5
DE
330
1B
100
AcDbEntity
  8
Edge.Cuts
  6
CONTINUOUS
100
AcDbLine
 10
1.6614669291338582
 20
-3.615657125984252
 30
0
 11
1.6721368897637794
 21
-3.6180924803149606
 31
0
  0
LINE
  5
DF
330
1B
100
AcDbEntity
  8
Edge.Cuts
  6
CONTINUOUS
100
AcDbLine
 10
1.6721368897637794
 20
-3.6180924803149606
 30
0
 11
1.6830124015748031
 21
-3.6193178346456691
 31
0
  0
LINE
  5
E0
330
1B
100
AcDbEntity
  8
Edge.Cuts
  6
CONTINUOUS
100
AcDbLine
 10
1.6830124015748031
 20
-3.6193178346456691
 30
0
 11
1.6939567322834646
 21
-3.6193178346456691
 31
0
  0
LINE
  5
E1
330
1B
100
AcDbEntity
  8
Edge.Cuts
  6
CONTINUOUS
100
AcDbLine
 10
1.6939567322834646
 20
-3.6193178346456691
 30
0
 11
1.7048322440944881
 21
-3.6180924803149606
 31
0
  0
LINE
  5
E2
330
1B
100
AcDbEntity
  8
Edge.Cuts
  6
CONTINUOUS
100
AcDbLine
 10
1.7048322440944881
 20
-3.6180924803149606
 30
0
 11
1.7155022047244095
 21
-3.615657125984252
 31
0
  0
LINE
  5
E3
330
1B
100
AcDbEntity
  8
Edge.Cuts
  6
CONTINUOUS
100
AcDbLine
 10
1.7155022047244095
 20
-3.615657125984252
 30
0
 11
1.7258323622047245
 21
-3.6120424409448817
 31
0
  0
LINE
  5
E4
330
1B
100
AcDbEntity
  8
Edge.Cuts
  6
CONTINUOUS
100
AcDbLine
 10
1.7258323622047245
 20
-3.6120424409448817
 30
0
 11
1.735692874015748
 21
-3.6072938582677163
 31
0
  0
LINE
  5
E5
330
1B
100
AcDbEntity
  8
Edge.Cuts
  6
CONTINUOUS
100
AcDbLine
 10
1.735692874015748
 20
-3.6072938582677163
 30
0
 11
1.74495968503937
 21
-3.6014711417322833
 31
0
  0
LINE
  5
E6
330
1B
100
AcDbEntity
  8
Edge.Cuts
  6
CONTINUOUS
100
AcDbLine
 10
1.74495968503937
 20
-3.6014711417322833
 30
0
 11
1.7535163385826771
 21
-3.5946474409448816
 31
0
  0
LINE
  5
E7
330
1B
100
AcDbEntity
  8
Edge.Cuts
  6
CONTINUOUS
100
AcDbLine
 10
1.7535163385826771
 20
-3.5946474409448816
 30
0
 11
1.7612551181102363
 21
-3.5869086614173229
 31
0
  0
LINE
  5
E8
330
1B
100
AcDbEntity
  8
Edge.Cuts
  6
CONTINUOUS
100
AcDbLine
 10
1.7612551181102363
 20
-3.5869086614173229
 30
0
 11
1.7680788188976377
 21
-3.5783520078740159
 31
0
  0
LINE
  5
E9
330
1B
100
AcDbEntity
  8
Edge.Cuts
  6
CONTINUOUS
100
AcDbLine
 10
1.7680788188976377
 20
-3.5783520078740159
 30
0
 11
1.7739015354330707
 21
-3.5690851968503936
 31
0
  0
LINE
  5
EA
330
1B
100
AcDbEntity
  8
Edge.Cuts
  6
CONTINUOUS
100
AcDbLine
 10
1.7739015354330707
 20
-3.5690851968503936
 30
0
 11
1.7786501181102361
 21
-3.5592246850393701
 31
0
  0
LINE
  5
EB
330
1B
100
AcDbEntity
  8
Edge.Cuts
  6
CONTINUOUS
100
AcDbLine
 10
1.7786501181102361
 20
-3.5592246850393701
 30
0
 11
1.7822648031496062
 21
-3.5488945275590549
 31
0
  0
LINE
  5
EC
330
1B
100
AcDbEntity
  8
Edge.Cuts
  6
CONTINUOUS
100
AcDbLine
 10
1.7822648031496062
 20
-3.5488945275590549
 30
0
 11
1.784700157480315
 21
-3.5382245669291339
 31
0
  0
LINE
  5
ED
330
1B
100
AcDbEntity
  8
Edge.Cuts
  6
CONTINUOUS
100
AcDbLine
 10
1.784700157480315
 20
-3.5382245669291339
 30
0
 11
1.7859255118110235
 21
-3.5273490551181101
 31
0
  0
LINE
  5
EE
330
1B
100
AcDbEntity
  8
Edge.Cuts
  6
CONTINUOUS
100
AcDbLine
 10
1.7859255118110235
 20
-3.5273490551181101
 30
0
 11
1.7859255118110235
 21
-3.516404724409449
 31
0
  0
LINE
  5
EF
330
1B
100
AcDbEntity
  8
Edge.Cuts
  6
CONTINUOUS
100
AcDbLine
 10
1.7859255118110235
 20
-3.516404724409449
 30
0
 11
1.784700157480315
 21
-3.5055292125984252
 31
0
  0
LINE
  5
F0
330
1B
100
AcDbEntity
  8
Edge.Cuts
  6
CONTINUOUS
100
AcDbLine
 10
1.784700157480315
 20
-3.5055292125984252
 30
0
 11
1.7822648031496062
 21
-3.4948592519685038
 31
0
  0
LINE
  5
F1
330
1B
100
AcDbEntity
  8
Edge.Cuts
  6
CONTINUOUS
100
AcDbLine
 10
1.7822648031496062
 20
-3.4948592519685038
 30
0
 11
1.7786501181102361
 21
-3.484529094488189
 31
0
  0
LINE
  5
F2
330
1B
100
AcDbEntity
  8
Edge.Cuts
  6
CONTINUOUS
100
AcDbLine
 10
1.7786501181102361
 20
-3.484529094488189
 30
0
 11
1.7739015354330707
 21
-3.4746685826771655
 31
0
  0
LINE
  5
F3
330
1B
100
AcDbEntity
  8
Edge.Cuts
  6
CONTINUOUS
100
AcDbLine
 10
1.7739015354330707
 20
-3.4746685826771655
 30
0
 11
1.7680788188976377
 21
-3.4654017716535432
 31
0
  0
LINE
  5
F4
330
1B
100
AcDbEntity
  8
Edge.Cuts
  6
CONTINUOUS
100
AcDbLine
 10
1.7680788188976377
 20
-3.4654017716535432
 30
0
 11
1.7612551181102363
 21
-3.4568451181102362
 31
0
  0
LINE
  5
F5
330
1B
100
AcDbEntity
  8
Edge.Cuts
  6
CONTINUOUS
100
AcDbLine
 10
1.7612551181102363
 20
-3.4568451181102362
 30
0
 11
1.7535163385826771
 21
-3.449106338582677
 31
0
  0
LINE
  5
F6
330
1B
100
AcDbEntity
  8
Edge.Cuts
  6
CONTINUOUS
100
AcDbLine
 10
1.7535163385826771
 20
-3.449106338582677
 30
0
 11
1.74495968503937
 21
-3.4422826377952753
 31
0
  0
LINE
  5
F7
330
1B
100
AcDbEntity
  8
Edge.Cuts
  6
CONTINUOUS
100
AcDbLine
 10
1.74495968503937
 20
-3.4422826377952753
 30
0
 11
1.735692874015748
 21
-3.4364599212598423
 31
0
  0
LINE
  5
F8
330
1B
100
AcDbEntity
  8
Edge.Cuts
  6
CONTINUOUS
100
AcDbLine
 10
1.735692874015748
 20
-3.4364599212598423
 30
0
 11
1.7258323622047245
 21
-3.431711338582677
 31
0
  0
LINE
  5
F9
330
1B
100
AcDbEntity
  8
Edge.Cuts
  6
CONTINUOUS
100
AcDbLine
 10
1.7258323622047245
 20
-3.431711338582677
 30
0
 11
1.7155022047244095
 21
-3.4280966535433071
 31
0
  0
LINE
  5
FA
330
1B
100
AcDbEntity
  8
Edge.Cuts
  6
CONTINUOUS
100
AcDbLine
 10
1.7155022047244095
 20
-3.4280966535433071
 30
0
 11
1.7048322440944881
 21
-3.4256612992125985
 31
0
  0
LINE
  5
FB
330
1B
100
AcDbEntity
  8
Edge.Cuts
  6
CONTINUOUS
100
AcDbLine
 10
1.7048322440944881
 20
-3.4256612992125985
 30
0
 11
1.6939567322834646
 21
-3.4244359448818895
 31
0
  0
LINE
  5
FC
330
1B
100
AcDbEntity
  8
Edge.Cuts
  6
CONTINUOUS
100
AcDbLine
 10
1.6939567322834646
 20
-3.4244359448818895
 30
0
 11
1.6830124015748031
 21
-3.4244359448818895
 31
0
  0
LINE
  5
FD
330
1B
100
AcDbEntity
  8
Edge.Cuts
  6
CONTINUOUS
100
AcDbLine
 10
1.6830124015748031
 20
-3.4244359448818895
 30
0
 11
1.6721368897637794
 21
-3.4256612992125985
 31
0
  0
LINE
  5
FE
330
1B
100
AcDbEntity
  8
Edge.Cuts
  6
CONTINUOUS
100
AcDbLine
 10
1.6721368897637794
 20
-3.4256612992125985
 30
0
 11
1.6614669291338582
 21
-3.4280966535433071
 31
0
  0
LINE
  5
FF
330
1B
100
AcDbEntity
  8
Edge.Cuts
  6
CONTINUOUS
100
AcDbLine
 10
1.6614669291338582
 20
-3.4280966535433071
 30
0
 11
1.6511367716535432
 21
-3.431711338582677
 31
0
  0
LINE
  5
100
330
1B
100
AcDbEntity
  8
Edge.Cuts
  6
CONTINUOUS
100
AcDbLine
 10
1.6511367716535432
 20
-3.431711338582677
 30
0
 11
1.6412762598425197
 21
-3.4364599212598423
 31
0
  0
LINE
  5
101
330
1B
100
AcDbEntity
  8
Edge.Cuts
  6
CONTINUOUS
100
AcDbLine
 10
1.6412762598425197
 20
-3.4364599212598423
 30
0
 11
1.6320094488188976
 21
-3.4422826377952753
 31
0
  0
LINE
  5
102
330
1B
100
AcDbEntity
  8
Edge.Cuts
  6
CONTINUOUS
100
AcDbLine
 10
1.6320094488188976
 20
-3.4422826377952753
 30
0
 11
1.6234527952755906
 21
-3.449106338582677
 31
0
  0
LINE
  5
103
330
1B
100
AcDbEntity
  8
Edge.Cuts
  6
CONTINUOUS
100
AcDbLine
 10
1.6234527952755906
 20
-3.449106338582677
 30
0
 11
1.6157140157480314
 21
-3.4568451181102362
 31
0
  0
LINE
  5
104
330
1B
100
AcDbEntity
  8
Edge.Cuts
  6
CONTINUOUS
100
AcDbLine
 10
1.6157140157480314
 20
-3.4568451181102362
 30
0
 11
1.60889031496063
 21
-3.4654017716535432
 31
0
  0
LINE
  5
105
330
1B
100
AcDbEntity
  8
Edge.Cuts
  6
CONTINUOUS
100
AcDbLine
 10
1.60889031496063
 20
-3.4654017716535432
 30
0
 11
1.6030675984251967
 21
-3.4746685826771655
 31
0
  0
LINE
  5
106
330
1B
100
AcDbEntity
  8
Edge.Cuts
  6
CONTINUOUS
100
AcDbLine
 10
1.6030675984251967
 20
-3.4746685826771655
 30
0
 11
1.5983190157480314
 21
-3.484529094488189
 31
0
  0
LINE
  5
107
330
1B
100
AcDbEntity
  8
Edge.Cuts
  6
CONTINUOUS
100
AcDbLine
 10
1.5983190157480314
 20
-3.484529094488189
 30
0
 11
1.5947043307086615
 21
-3.4948592519685038
 31
0
  0
LINE
  5
108
330
1B
100
AcDbEntity
  8
Edge.Cuts
  6
CONTINUOUS
100
AcDbLine
 10
1.5947043307086615
 20
-3.4948592519685038
 30
0
 11
1.5922689763779527
 21
-3.5055292125984252
 31
0
  0
LINE
  5
109
330
1B
100
AcDbEntity
  8
Edge.Cuts
  6
CONTINUOUS
100
AcDbLine
 10
1.5922689763779527
 20
-3.5055292125984252
 30
0
 11
1.5910436220472441
 21
-3.516404724409449
 31
0
  0
LINE
  5
10A
330
1B
100
AcDbEntity
  8
Edge.Cuts
  6
CONTINUOUS
100
AcDbLine
 10
1.5910436220472441
 20
-3.516404724409449
 30
0
 11
1.5910436220472441
 21
-3.5273490551181101
 31
0
  0
LINE
  5
10B
330
1B
100
AcDbEntity
  8
Edge.Cuts
  6
CONTINUOUS
100
AcDbLine
 10
4.7051362598425195
 20
-3.2832470078740155
 30
0
 11
4.7160046456692912
 21
-3.2857276377952753
 31
0
  0
LINE
  5
10C
330
1B
100
AcDbEntity
  8
Edge.Cuts
  6
CONTINUOUS
100
AcDbLine
 10
4.7160046456692912
 20
-3.2857276377952753
 30
0
 11
4.7265269291338585
 21
-3.2894095275590551
 31
0
  0
LINE
  5
10D
330
1B
100
AcDbEntity
  8
Edge.Cuts
  6
CONTINUOUS
100
AcDbLine
 10
4.7265269291338585
 20
-3.2894095275590551
 30
0
 11
4.7365707874015746
 21
-3.2942464173228347
 31
0
  0
LINE
  5
10E
330
1B
100
AcDbEntity
  8
Edge.Cuts
  6
CONTINUOUS
100
AcDbLine
 10
4.7365707874015746
 20
-3.2942464173228347
 30
0
 11
4.7460099606299213
 21
-3.3001774409448816
 31
0
  0
LINE
  5
10F
330
1B
100
AcDbEntity
  8
Edge.Cuts
  6
CONTINUOUS
100
AcDbLine
 10
4.7460099606299213
 20
-3.3001774409448816
 30
0
 11
4.7547257086614172
 21
-3.3071280314960627
 31
0
  0
LINE
  5
110
330
1B
100
AcDbEntity
  8
Edge.Cuts
  6
CONTINUOUS
100
AcDbLine
 10
4.7547257086614172
 20
-3.3071280314960627
 30
0
 11
4.7626084251968503
 21
-3.3150107480314959
 31
0
  0
LINE
  5
111
330
1B
100
AcDbEntity
  8
Edge.Cuts
  6
CONTINUOUS
100
AcDbLine
 10
4.7626084251968503
 20
-3.3150107480314959
 30
0
 11
4.7695590157480314
 21
-3.3237264960629922
 31
0
  0
LINE
  5
112
330
1B
100
AcDbEntity
  8
Edge.Cuts
  6
CONTINUOUS
100
AcDbLine
 10
4.7695590157480314
 20
-3.3237264960629922
 30
0
 11
4.7754900393700783
 21
-3.3331656692913385
 31
0
  0
LINE
  5
113
330
1B
100
AcDbEntity
  8
Edge.Cuts
  6
CONTINUOUS
100
AcDbLine
 10
4.7754900393700783
 20
-3.3331656692913385
 30
0
 11
4.7803269291338584
 21
-3.343209527559055
 31
0
  0
LINE
  5
114
330
1B
100
AcDbEntity
  8
Edge.Cuts
  6
CONTINUOUS
100
AcDbLine
 10
4.7803269291338584
 20
-3.343209527559055
 30
0
 11
4.7840088188976377
 21
-3.3537318110236218
 31
0
  0
LINE
  5
115
330
1B
100
AcDbEntity
  8
Edge.Cuts
  6
CONTINUOUS
100
AcDbLine
 10
4.7840088188976377
 20
-3.3537318110236218
 30
0
 11
4.7864894488188972
 21
-3.3646001968503936
 31
0
  0
LINE
  5
116
330
1B
100
AcDbEntity
  8
Edge.Cuts
  6
CONTINUOUS
100
AcDbLine
 10
4.7864894488188972
 20
-3.3646001968503936
 30
0
 11
4.7877376377952752
 21
-3.3756779527559053
 31
0
  0
LINE
  5
117
330
1B
100
AcDbEntity
  8
Edge.Cuts
  6
CONTINUOUS
100
AcDbLine
 10
4.7877376377952752
 20
-3.3756779527559053
 30
0
 11
4.7877376377952752
 21
-3.3868258267716533
 31
0
  0
LINE
  5
118
330
1B
100
AcDbEntity
  8
Edge.Cuts
  6
CONTINUOUS
100
AcDbLine
 10
4.7877376377952752
 20
-3.3868258267716533
 30
0
 11
4.7864894488188972
 21
-3.3979035826771651
 31
0
  0
LINE
  5
119
330
1B
100
AcDbEntity
  8
Edge.Cuts
  6
CONTINUOUS
100
AcDbLine
 10
4.7864894488188972
 20
-3.3979035826771651
 30
0
 11
4.7840088188976377
 21
-3.4087719685039368
 31
0
  0
LINE
  5
11A
330
1B
100
AcDbEntity
  8
Edge.Cuts
  6
CONTINUOUS
100
AcDbLine
 10
4.7840088188976377
 20
-3.4087719685039368
 30
0
 11
4.7803269291338584
 21
-3.4192942519685037
 31
0
  0
LINE
  5
11B
330
1B
100
AcDbEntity
  8
Edge.Cuts
  6
CONTINUOUS
100
AcDbLine
 10
4.7803269291338584
 20
-3.4192942519685037
 30
0
 11
4.7754900393700783
 21
-3.4293381102362206
 31
0
  0
LINE
  5
11C
330
1B
100
AcDbEntity
  8
Edge.Cuts
  6
CONTINUOUS
100
AcDbLine
 10
4.7754900393700783
 20
-3.4293381102362206
 30
0
 11
4.7695590157480314
 21
-3.4387772834645669
 31
0
  0
LINE
  5
11D
330
1B
100
AcDbEntity
  8
Edge.Cuts
  6
CONTINUOUS
100
AcDbLine
 10
4.7695590157480314
 20
-3.4387772834645669
 30
0
 11
4.7626084251968503
 21
-3.4474930314960628
 31
0
  0
LINE
  5
11E
330
1B
100
AcDbEntity
  8
Edge.Cuts
  6
CONTINUOUS
100
AcDbLine
 10
4.7626084251968503
 20
-3.4474930314960628
 30
0
 11
4.7547257086614172
 21
-3.4553757480314959
 31
0
  0
LINE
  5
11F
330
1B
100
AcDbEntity
  8
Edge.Cuts
  6
CONTINUOUS
100
AcDbLine
 10
4.7547257086614172
 20
-3.4553757480314959
 30
0
 11
4.7460099606299213
 21
-3.462326338582677
 31
0
  0
LINE
  5
120
330
1B
100
AcDbEntity
  8
Edge.Cuts
  6
CONTINUOUS
100
AcDbLine
 10
4.7460099606299213
 20
-3.462326338582677
 30
0
 11
4.7365707874015746
 21
-3.4682573622047244
 31
0
  0
LINE
  5
121
330
1B
100
AcDbEntity
  8
Edge.Cuts
  6
CONTINUOUS
100
AcDbLine
 10
4.7365707874015746
 20
-3.4682573622047244
 30
0
 11
4.7265269291338585
 21
-3.473094251968504
 31
0
  0
LINE
  5
122
330
1B
100
AcDbEntity
  8
Edge.Cuts
  6
CONTINUOUS
100
AcDbLine
 10
4.7265269291338585
 20
-3.473094251968504
 30
0
 11
4.7160046456692912
 21
-3.4767761417322833
 31
0
  0
LINE
  5
123
330
1B
100
AcDbEntity
  8
Edge.Cuts
  6
CONTINUOUS
100
AcDbLine
 10
4.7160046456692912
 20
-3.4767761417322833
 30
0
 11
4.7051362598425195
 21
-3.4792567716535432
 31
0
  0
LINE
  5
124
330
1B
100
AcDbEntity
  8
Edge.Cuts
  6
CONTINUOUS
100
AcDbLine
 10
4.7051362598425195
 20
-3.4792567716535432
 30
0
 11
4.6940585039370077
 21
-3.4805049606299212
 31
0
  0
LINE
  5
125
330
1B
100
AcDbEntity
  8
Edge.Cuts
  6
CONTINUOUS
100
AcDbLine
 10
4.6940585039370077
 20
-3.4805049606299212
 30
0
 11
4.6829106299212597
 21
-3.4805049606299212
 31
0
  0
LINE
  5
126
330
1B
100
AcDbEntity
  8
Edge.Cuts
  6
CONTINUOUS
100
AcDbLine
 10
4.6829106299212597
 20
-3.4805049606299212
 30
0
 11
4.671832874015748
 21
-3.4792567716535432
 31
0
  0
LINE
  5
127
330
1B
100
AcDbEntity
  8
Edge.Cuts
  6
CONTINUOUS
100
AcDbLine
 10
4.671832874015748
 20
-3.4792567716535432
 30
0
 11
4.6609644881889762
 21
-3.4767761417322833
 31
0
  0
LINE
  5
128
330
1B
100
AcDbEntity
  8
Edge.Cuts
  6
CONTINUOUS
100
AcDbLine
 10
4.6609644881889762
 20
-3.4767761417322833
 30
0
 11
4.6504422047244089
 21
-3.473094251968504
 31
0
  0
LINE
  5
129
330
1B
100
AcDbEntity
  8
Edge.Cuts
  6
CONTINUOUS
100
AcDbLine
 10
4.6504422047244089
 20
-3.473094251968504
 30
0
 11
4.6403983464566929
 21
-3.4682573622047244
 31
0
  0
LINE
  5
12A
330
1B
100
AcDbEntity
  8
Edge.Cuts
  6
CONTINUOUS
100
AcDbLine
 10
4.6403983464566929
 20
-3.4682573622047244
 30
0
 11
4.6309591732283462
 21
-3.462326338582677
 31
0
  0
LINE
  5
12B
330
1B
100
AcDbEntity
  8
Edge.Cuts
  6
CONTINUOUS
100
AcDbLine
 10
4.6309591732283462
 20
-3.462326338582677
 30
0
 11
4.6222434251968503
 21
-3.4553757480314959
 31
0
  0
LINE
  5
12C
330
1B
100
AcDbEntity
  8
Edge.Cuts
  6
CONTINUOUS
100
AcDbLine
 10
4.6222434251968503
 20
-3.4553757480314959
 30
0
 11
4.6143607086614171
 21
-3.4474930314960628
 31
0
  0
LINE
  5
12D
330
1B
100
AcDbEntity
  8
Edge.Cuts
  6
CONTINUOUS
100
AcDbLine
 10
4.6143607086614171
 20
-3.4474930314960628
 30
0
 11
4.607410118110236
 21
-3.4387772834645669
 31
0
  0
LINE
  5
12E
330
1B
100
AcDbEntity
  8
Edge.Cuts
  6
CONTINUOUS
100
AcDbLine
 10
4.607410118110236
 20
-3.4387772834645669
 30
0
 11
4.6014790944881891
 21
-3.4293381102362206
 31
0
  0
LINE
  5
12F
330
1B
100
AcDbEntity
  8
Edge.Cuts
  6
CONTINUOUS
100
AcDbLine
 10
4.6014790944881891
 20
-3.4293381102362206
 30
0
 11
4.5966422047244091
 21
-3.4192942519685037
 31
0
  0
LINE
  5
130
330
1B
100
AcDbEntity
  8
Edge.Cuts
  6
CONTINUOUS
100
AcDbLine
 10
4.5966422047244091
 20
-3.4192942519685037
 30
0
 11
4.5929603149606297
 21
-3.4087719685039368
 31
0
  0
LINE
  5
131
330
1B
100
AcDbEntity
  8
Edge.Cuts
  6
CONTINUOUS
100
AcDbLine
 10
4.5929603149606297
 20
-3.4087719685039368
 30
0
 11
4.5904796850393703
 21
-3.3979035826771651
 31
0
  0
LINE
  5
132
330
1B
100
AcDbEntity
  8
Edge.Cuts
  6
CONTINUOUS
100
AcDbLine
 10
4.5904796850393703
 20
-3.3979035826771651
 30
0
 11
4.5892314960629923
 21
-3.3868258267716533
 31
0
  0
LINE
  5
133
330
1B
100
AcDbEntity
  8
Edge.Cuts
  6
CONTINUOUS
100
AcDbLine
 10
4.5892314960629923
 20
-3.3868258267716533
 30
0
 11
4.5892314960629923
 21
-3.375779724409449
 31
0
  0
LINE
  5
134
330
1B
100
AcDbEntity
  8
Edge.Cuts
  6
CONTINUOUS
100
AcDbLine
 10
4.5892314960629923
 20
-3.375779724409449
 30
0
 11
4.5892314960629923
 21
-3.3756779527559053
 31
0
  0
LINE
  5
135
330
1B
100
AcDbEntity
  8
Edge.Cuts
  6
CONTINUOUS
100
AcDbLine
 10
4.5892314960629923
 20
-3.3756779527559053
 30
0
 11
4.5904796850393703
 21
-3.3646001968503936
 31
0
  0
LINE
  5
136
330
1B
100
AcDbEntity
  8
Edge.Cuts
  6
CONTINUOUS
100
AcDbLine
 10
4.5904796850393703
 20
-3.3646001968503936
 30
0
 11
4.5929603149606297
 21
-3.3537318110236218
 31
0
  0
LINE
  5
137
330
1B
100
AcDbEntity
  8
Edge.Cuts
  6
CONTINUOUS
100
AcDbLine
 10
4.5929603149606297
 20
-3.3537318110236218
 30
0
 11
4.5966422047244091
 21
-3.343209527559055
 31
0
  0
LINE
  5
138
330
1B
100
AcDbEntity
  8
Edge.Cuts
  6
CONTINUOUS
100
AcDbLine
 10
4.5966422047244091
 20
-3.343209527559055
 30
0
 11
4.6014790944881891
 21
-3.3331656692913385
 31
0
  0
LINE
  5
139
330
1B
100
AcDbEntity
  8
Edge.Cuts
  6
CONTINUOUS
100
AcDbLine
 10
4.6014790944881891
 20
-3.3331656692913385
 30
0
 11
4.607410118110236
 21
-3.3237264960629922
 31
0
  0
LINE
  5
13A
330
1B
100
AcDbEntity
  8
Edge.Cuts
  6
CONTINUOUS
100
AcDbLine
 10
4.607410118110236
 20
-3.3237264960629922
 30
0
 11
4.6143607086614171
 21
-3.3150107480314959
 31
0
  0
LINE
  5
13B
330
1B
100
AcDbEntity
  8
Edge.Cuts
  6
CONTINUOUS
100
AcDbLine
 10
4.6143607086614171
 20
-3.3150107480314959
 30
0
 11
4.6222434251968503
 21
-3.3071280314960627
 31
0
  0
LINE
  5
13C
330
1B
100
AcDbEntity
  8
Edge.Cuts
  6
CONTINUOUS
100
AcDbLine
 10
4.6222434251968503
 20
-3.3071280314960627
 30
0
 11
4.6309591732283462
 21
-3.3001774409448816
 31
0
  0
LINE
  5
13D
330
1B
100
AcDbEntity
  8
Edge.Cuts
  6
CONTINUOUS
100
AcDbLine
 10
4.6309591732283462
 20
-3.3001774409448816
 30
0
 11
4.6403983464566929
 21
-3.2942464173228347
 31
0
  0
LINE
  5
13E
330
1B
100
AcDbEntity
  8
Edge.Cuts
  6
CONTINUOUS
100
AcDbLine
 10
4.6403983464566929
 20
-3.2942464173228347
 30
0
 11
4.6504422047244089
 21
-3.2894095275590551
 31
0
  0
LINE
  5
13F
330
1B
100
AcDbEntity
  8
Edge.Cuts
  6
CONTINUOUS
100
AcDbLine
 10
4.6504422047244089
 20
-3.2894095275590551
 30
0
 11
4.6609644881889762
 21
-3.2857276377952753
 31
0
  0
LINE
  5
140
330
1B
100
AcDbEntity
  8
Edge.Cuts
  6
CONTINUOUS
100
AcDbLine
 10
4.6609644881889762
 20
-3.2857276377952753
 30
0
 11
4.671832874015748
 21
-3.2832470078740155
 31
0
  0
LINE
  5
141
330
1B
100
AcDbEntity
  8
Edge.Cuts
  6
CONTINUOUS
100
AcDbLine
 10
4.671832874015748
 20
-3.2832470078740155
 30
0
 11
4.6829106299212597
 21
-3.2819988188976379
 31
0
  0
LINE
  5
142
330
1B
100
AcDbEntity
  8
Edge.Cuts
  6
CONTINUOUS
100
AcDbLine
 10
4.6829106299212597
 20
-3.2819988188976379
 30
0
 11
4.6940585039370077
 21
-3.2819988188976379
 31
0
  0
LINE
  5
143
330
1B
100
AcDbEntity
  8
Edge.Cuts
  6
CONTINUOUS
100
AcDbLine
 10
4.6940585039370077
 20
-3.2819988188976379
 30
0
 11
4.7051362598425195
 21
-3.2832470078740155
 31
0
  0
LINE
  5
144
330
1B
100
AcDbEntity
  8
Edge.Cuts
  6
CONTINUOUS
100
AcDbLine
 10
4.5910436220472439
 20
-3.3867240551181101
 30
0
 11
4.5922689763779525
 21
-3.3975995669291339
 31
0
  0
LINE
  5
145
330
1B
100
AcDbEntity
  8
Edge.Cuts
  6
CONTINUOUS
100
AcDbLine
 10
4.5922689763779525
 20
-3.3975995669291339
 30
0
 11
4.5947043307086615
 21
-3.4082695275590549
 31
0
  0
LINE
  5
146
330
1B
100
AcDbEntity
  8
Edge.Cuts
  6
CONTINUOUS
100
AcDbLine
 10
4.5947043307086615
 20
-3.4082695275590549
 30
0
 11
4.5983190157480314
 21
-3.4185996850393701
 31
0
  0
LINE
  5
147
330
1B
100
AcDbEntity
  8
Edge.Cuts
  6
CONTINUOUS
100
AcDbLine
 10
4.5983190157480314
 20
-3.4185996850393701
 30
0
 11
4.6030675984251967
 21
-3.4284601968503936
 31
0
  0
LINE
  5
148
330
1B
100
AcDbEntity
  8
Edge.Cuts
  6
CONTINUOUS
100
AcDbLine
 10
4.6030675984251967
 20
-3.4284601968503936
 30
0
 11
4.6088903149606297
 21
-3.4377270078740159
 31
0
  0
LINE
  5
149
330
1B
100
AcDbEntity
  8
Edge.Cuts
  6
CONTINUOUS
100
AcDbLine
 10
4.6088903149606297
 20
-3.4377270078740159
 30
0
 11
4.615714015748031
 21
-3.4462836614173229
 31
0
  0
LINE
  5
14A
330
1B
100
AcDbEntity
  8
Edge.Cuts
  6
CONTINUOUS
100
AcDbLine
 10
4.615714015748031
 20
-3.4462836614173229
 30
0
 11
4.6234527952755906
 21
-3.4540224409448816
 31
0
  0
LINE
  5
14B
330
1B
100
AcDbEntity
  8
Edge.Cuts
  6
CONTINUOUS
100
AcDbLine
 10
4.6234527952755906
 20
-3.4540224409448816
 30
0
 11
4.6320094488188976
 21
-3.4608461417322833
 31
0
  0
LINE
  5
14C
330
1B
100
AcDbEntity
  8
Edge.Cuts
  6
CONTINUOUS
100
AcDbLine
 10
4.6320094488188976
 20
-3.4608461417322833
 30
0
 11
4.6412762598425195
 21
-3.4666688582677163
 31
0
  0
LINE
  5
14D
330
1B
100
AcDbEntity
  8
Edge.Cuts
  6
CONTINUOUS
100
AcDbLine
 10
4.6412762598425195
 20
-3.4666688582677163
 30
0
 11
4.651136771653543
 21
-3.4714174409448817
 31
0
  0
LINE
  5
14E
330
1B
100
AcDbEntity
  8
Edge.Cuts
  6
CONTINUOUS
100
AcDbLine
 10
4.651136771653543
 20
-3.4714174409448817
 30
0
 11
4.6614669291338577
 21
-3.475032125984252
 31
0
  0
LINE
  5
14F
330
1B
100
AcDbEntity
  8
Edge.Cuts
  6
CONTINUOUS
100
AcDbLine
 10
4.6614669291338577
 20
-3.475032125984252
 30
0
 11
4.6721368897637792
 21
-3.4774674803149606
 31
0
  0
LINE
  5
150
330
1B
100
AcDbEntity
  8
Edge.Cuts
  6
CONTINUOUS
100
AcDbLine
 10
4.6721368897637792
 20
-3.4774674803149606
 30
0
 11
4.6830124015748034
 21
-3.4786928346456691
 31
0
  0
LINE
  5
151
330
1B
100
AcDbEntity
  8
Edge.Cuts
  6
CONTINUOUS
100
AcDbLine
 10
4.6830124015748034
 20
-3.4786928346456691
 30
0
 11
4.6939567322834641
 21
-3.4786928346456691
 31
0
  0
LINE
  5
152
330
1B
100
AcDbEntity
  8
Edge.Cuts
  6
CONTINUOUS
100
AcDbLine
 10
4.6939567322834641
 20
-3.4786928346456691
 30
0
 11
4.7048322440944883
 21
-3.4774674803149606
 31
0
  0
LINE
  5
153
330
1B
100
AcDbEntity
  8
Edge.Cuts
  6
CONTINUOUS
100
AcDbLine
 10
4.7048322440944883
 20
-3.4774674803149606
 30
0
 11
4.7155022047244097
 21
-3.475032125984252
 31
0
  0
LINE
  5
154
330
1B
100
AcDbEntity
  8
Edge.Cuts
  6
CONTINUOUS
100
AcDbLine
 10
4.7155022047244097
 20
-3.475032125984252
 30
0
 11
4.7258323622047245
 21
-3.4714174409448817
 31
0
  0
LINE
  5
155
330
1B
100
AcDbEntity
  8
Edge.Cuts
  6
CONTINUOUS
100
AcDbLine
 10
4.7258323622047245
 20
-3.4714174409448817
 30
0
 11
4.735692874015748
 21
-3.4666688582677163
 31
0
  0
LINE
  5
156
330
1B
100
AcDbEntity
  8
Edge.Cuts
  6
CONTINUOUS
100
AcDbLine
 10
4.735692874015748
 20
-3.4666688582677163
 30
0
 11
4.7449596850393698
 21
-3.4608461417322833
 31
0
  0
LINE
  5
157
330
1B
100
AcDbEntity
  8
Edge.Cuts
  6
CONTINUOUS
100
AcDbLine
 10
4.7449596850393698
 20
-3.4608461417322833
 30
0
 11
4.7535163385826769
 21
-3.4540224409448816
 31
0
  0
LINE
  5
158
330
1B
100
AcDbEntity
  8
Edge.Cuts
  6
CONTINUOUS
100
AcDbLine
 10
4.7535163385826769
 20
-3.4540224409448816
 30
0
 11
4.7612551181102365
 21
-3.4462836614173229
 31
0
  0
LINE
  5
159
330
1B
100
AcDbEntity
  8
Edge.Cuts
  6
CONTINUOUS
100
AcDbLine
 10
4.7612551181102365
 20
-3.4462836614173229
 30
0
 11
4.7680788188976377
 21
-3.4377270078740159
 31
0
  0
LINE
  5
15A
330
1B
100
AcDbEntity
  8
Edge.Cuts
  6
CONTINUOUS
100
AcDbLine
 10
4.7680788188976377
 20
-3.4377270078740159
 30
0
 11
4.7739015354330707
 21
-3.4284601968503936
 31
0
  0
LINE
  5
15B
330
1B
100
AcDbEntity
  8
Edge.Cuts
  6
CONTINUOUS
100
AcDbLine
 10
4.7739015354330707
 20
-3.4284601968503936
 30
0
 11
4.7786501181102361
 21
-3.4185996850393701
 31
0
  0
LINE
  5
15C
330
1B
100
AcDbEntity
  8
Edge.Cuts
  6
CONTINUOUS
100
AcDbLine
 10
4.7786501181102361
 20
-3.4185996850393701
 30
0
 11
4.782264803149606
 21
-3.4082695275590549
 31
0
  0
LINE
  5
15D
330
1B
100
AcDbEntity
  8
Edge.Cuts
  6
CONTINUOUS
100
AcDbLine
 10
4.782264803149606
 20
-3.4082695275590549
 30
0
 11
4.784700157480315
 21
-3.3975995669291339
 31
0
  0
LINE
  5
15E
330
1B
100
AcDbEntity
  8
Edge.Cuts
  6
CONTINUOUS
100
AcDbLine
 10
4.784700157480315
 20
-3.3975995669291339
 30
0
 11
4.7859255118110235
 21
-3.3867240551181101
 31
0
  0
LINE
  5
15F
330
1B
100
AcDbEntity
  8
Edge.Cuts
  6
CONTINUOUS
100
AcDbLine
 10
4.7859255118110235
 20
-3.3867240551181101
 30
0
 11
4.7859255118110235
 21
-3.375779724409449
 31
0
  0
LINE
  5
160
330
1B
100
AcDbEntity
  8
Edge.Cuts
  6
CONTINUOUS
100
AcDbLine
 10
4.7859255118110235
 20
-3.375779724409449
 30
0
 11
4.784700157480315
 21
-3.3649042125984252
 31
0
  0
LINE
  5
161
330
1B
100
AcDbEntity
  8
Edge.Cuts
  6
CONTINUOUS
100
AcDbLine
 10
4.784700157480315
 20
-3.3649042125984252
 30
0
 11
4.782264803149606
 21
-3.3542342519685038
 31
0
  0
LINE
  5
162
330
1B
100
AcDbEntity
  8
Edge.Cuts
  6
CONTINUOUS
100
AcDbLine
 10
4.782264803149606
 20
-3.3542342519685038
 30
0
 11
4.7786501181102361
 21
-3.343904094488189
 31
0
  0
LINE
  5
163
330
1B
100
AcDbEntity
  8
Edge.Cuts
  6
CONTINUOUS
100
AcDbLine
 10
4.7786501181102361
 20
-3.343904094488189
 30
0
 11
4.7739015354330707
 21
-3.3340435826771655
 31
0
  0
LINE
  5
164
330
1B
100
AcDbEntity
  8
Edge.Cuts
  6
CONTINUOUS
100
AcDbLine
 10
4.7739015354330707
 20
-3.3340435826771655
 30
0
 11
4.7680788188976377
 21
-3.3247767716535432
 31
0
  0
LINE
  5
165
330
1B
100
AcDbEntity
  8
Edge.Cuts
  6
CONTINUOUS
100
AcDbLine
 10
4.7680788188976377
 20
-3.3247767716535432
 30
0
 11
4.7612551181102365
 21
-3.3162201181102362
 31
0
  0
LINE
  5
166
330
1B
100
AcDbEntity
  8
Edge.Cuts
  6
CONTINUOUS
100
AcDbLine
 10
4.7612551181102365
 20
-3.3162201181102362
 30
0
 11
4.7535163385826769
 21
-3.308481338582677
 31
0
  0
LINE
  5
167
330
1B
100
AcDbEntity
  8
Edge.Cuts
  6
CONTINUOUS
100
AcDbLine
 10
4.7535163385826769
 20
-3.308481338582677
 30
0
 11
4.7449596850393698
 21
-3.3016576377952753
 31
0
  0
LINE
  5
168
330
1B
100
AcDbEntity
  8
Edge.Cuts
  6
CONTINUOUS
100
AcDbLine
 10
4.7449596850393698
 20
-3.3016576377952753
 30
0
 11
4.735692874015748
 21
-3.2958349212598423
 31
0
  0
LINE
  5
169
330
1B
100
AcDbEntity
  8
Edge.Cuts
  6
CONTINUOUS
100
AcDbLine
 10
4.735692874015748
 20
-3.2958349212598423
 30
0
 11
4.7258323622047245
 21
-3.291086338582677
 31
0
  0
LINE
  5
16A
330
1B
100
AcDbEntity
  8
Edge.Cuts
  6
CONTINUOUS
100
AcDbLine
 10
4.7258323622047245
 20
-3.291086338582677
 30
0
 11
4.7155022047244097
 21
-3.2874716535433071
 31
0
  0
LINE
  5
16B
330
1B
100
AcDbEntity
  8
Edge.Cuts
  6
CONTINUOUS
100
AcDbLine
 10
4.7155022047244097
 20
-3.2874716535433071
 30
0
 11
4.7048322440944883
 21
-3.2850362992125985
 31
0
  0
LINE
  5
16C
330
1B
100
AcDbEntity
  8
Edge.Cuts
  6
CONTINUOUS
100
AcDbLine
 10
4.7048322440944883
 20
-3.2850362992125985
 30
0
 11
4.6939567322834641
 21
-3.2838109448818895
 31
0
  0
LINE
  5
16D
330
1B
100
AcDbEntity
  8
Edge.Cuts
  6
CONTINUOUS
100
AcDbLine
 10
4.6939567322834641
 20
-3.2838109448818895
 30
0
 11
4.6830124015748034
 21
-3.2838109448818895
 31
0
  0
LINE
  5
16E
330
1B
100
AcDbEntity
  8
Edge.Cuts
  6
CONTINUOUS
100
AcDbLine
 10
4.6830124015748034
 20
-3.2838109448818895
 30
0
 11
4.6721368897637792
 21
-3.2850362992125985
 31
0
  0
LINE
  5
16F
330
1B
100
AcDbEntity
  8
Edge.Cuts
  6
CONTINUOUS
100
AcDbLine
 10
4.6721368897637792
 20
-3.2850362992125985
 30
0
 11
4.6614669291338577
 21
-3.2874716535433071
 31
0
  0
LINE
  5
170
330
1B
100
AcDbEntity
  8
Edge.Cuts
  6
CONTINUOUS
100
AcDbLine
 10
4.6614669291338577
 20
-3.2874716535433071
 30
0
 11
4.651136771653543
 21
-3.291086338582677
 31
0
  0
LINE
  5
171
330
1B
100
AcDbEntity
  8
Edge.Cuts
  6
CONTINUOUS
100
AcDbLine
 10
4.651136771653543
 20
-3.291086338582677
 30
0
 11
4.6412762598425195
 21
-3.2958349212598423
 31
0
  0
LINE
  5
172
330
1B
100
AcDbEntity
  8
Edge.Cuts
  6
CONTINUOUS
100
AcDbLine
 10
4.6412762598425195
 20
-3.2958349212598423
 30
0
 11
4.6320094488188976
 21
-3.3016576377952753
 31
0
  0
LINE
  5
173
330
1B
100
AcDbEntity
  8
Edge.Cuts
  6
CONTINUOUS
100
AcDbLine
 10
4.6320094488188976
 20
-3.3016576377952753
 30
0
 11
4.6234527952755906
 21
-3.308481338582677
 31
0
  0
LINE
  5
174
330
1B
100
AcDbEntity
  8
Edge.Cuts
  6
CONTINUOUS
100
AcDbLine
 10
4.6234527952755906
 20
-3.308481338582677
 30
0
 11
4.615714015748031
 21
-3.3162201181102362
 31
0
  0
LINE
  5
175
330
1B
100
AcDbEntity
  8
Edge.Cuts
  6
CONTINUOUS
100
AcDbLine
 10
4.615714015748031
 20
-3.3162201181102362
 30
0
 11
4.6088903149606297
 21
-3.3247767716535432
 31
0
  0
LINE
  5
176
330
1B
100
AcDbEntity
  8
Edge.Cuts
  6
CONTINUOUS
100
AcDbLine
 10
4.6088903149606297
 20
-3.3247767716535432
 30
0
 11
4.6030675984251967
 21
-3.3340435826771655
 31
0
  0
LINE
  5
177
330
1B
100
AcDbEntity
  8
Edge.Cuts
  6
CONTINUOUS
100
AcDbLine
 10
4.6030675984251967
 20
-3.3340435826771655
 30
0
 11
4.5983190157480314
 21
-3.343904094488189
 31
0
  0
LINE
  5
178
330
1B
100
AcDbEntity
  8
Edge.Cuts
  6
CONTINUOUS
100
AcDbLine
 10
4.5983190157480314
 20
-3.343904094488189
 30
0
 11
4.5947043307086615
 21
-3.3542342519685038
 31
0
  0
LINE
  5
179
330
1B
100
AcDbEntity
  8
Edge.Cuts
  6
CONTINUOUS
100
AcDbLine
 10
4.5947043307086615
 20
-3.3542342519685038
 30
0
 11
4.5922689763779525
 21
-3.3649042125984252
 31
0
  0
LINE
  5
17A
330
1B
100
AcDbEntity
  8
Edge.Cuts
  6
CONTINUOUS
100
AcDbLine
 10
4.5922689763779525
 20
-3.3649042125984252
 30
0
 11
4.5910436220472439
 21
-3.375779724409449
 31
0
  0
LINE
  5
17B
330
1B
100
AcDbEntity
  8
Edge.Cuts
  6
CONTINUOUS
100
AcDbLine
 10
4.5910436220472439
 20
-3.375779724409449
 30
0
 11
4.5910436220472439
 21
-3.3867240551181101
 31
0
  0
LINE
  5
17C
330
1B
100
AcDbEntity
  8
Edge.Cuts
  6
CONTINUOUS
100
AcDbLine
 10
1.7051362598425197
 20
-1.9238720078740157
 30
0
 11
1.7160046456692912
 21
-1.9263526377952755
 31
0
  0
LINE
  5
17D
330
1B
100
AcDbEntity
  8
Edge.Cuts
  6
CONTINUOUS
100
AcDbLine
 10
1.7160046456692912
 20
-1.9263526377952755
 30
0
 11
1.7265269291338583
 21
-1.9300345275590551
 31
0
  0
LINE
  5
17E
330
1B
100
AcDbEntity
  8
Edge.Cuts
  6
CONTINUOUS
100
AcDbLine
 10
1.7265269291338583
 20
-1.9300345275590551
 30
0
 11
1.7365707874015748
 21
-1.9348714173228345
 31
0
  0
LINE
  5
17F
330
1B
100
AcDbEntity
  8
Edge.Cuts
  6
CONTINUOUS
100
AcDbLine
 10
1.7365707874015748
 20
-1.9348714173228345
 30
0
 11
1.7460099606299213
 21
-1.9408024409448819
 31
0
  0
LINE
  5
180
330
1B
100
AcDbEntity
  8
Edge.Cuts
  6
CONTINUOUS
100
AcDbLine
 10
1.7460099606299213
 20
-1.9408024409448819
 30
0
 11
1.7547257086614172
 21
-1.9477530314960629
 31
0
  0
LINE
  5
181
330
1B
100
AcDbEntity
  8
Edge.Cuts
  6
CONTINUOUS
100
AcDbLine
 10
1.7547257086614172
 20
-1.9477530314960629
 30
0
 11
1.7626084251968503
 21
-1.9556357480314961
 31
0
  0
LINE
  5
182
330
1B
100
AcDbEntity
  8
Edge.Cuts
  6
CONTINUOUS
100
AcDbLine
 10
1.7626084251968503
 20
-1.9556357480314961
 30
0
 11
1.7695590157480314
 21
-1.964351496062992
 31
0
  0
LINE
  5
183
330
1B
100
AcDbEntity
  8
Edge.Cuts
  6
CONTINUOUS
100
AcDbLine
 10
1.7695590157480314
 20
-1.964351496062992
 30
0
 11
1.7754900393700788
 21
-1.9737906692913385
 31
0
  0
LINE
  5
184
330
1B
100
AcDbEntity
  8
Edge.Cuts
  6
CONTINUOUS
100
AcDbLine
 10
1.7754900393700788
 20
-1.9737906692913385
 30
0
 11
1.7803269291338581
 21
-1.983834527559055
 31
0
  0
LINE
  5
185
330
1B
100
AcDbEntity
  8
Edge.Cuts
  6
CONTINUOUS
100
AcDbLine
 10
1.7803269291338581
 20
-1.983834527559055
 30
0
 11
1.7840088188976377
 21
-1.9943568110236221
 31
0
  0
LINE
  5
186
330
1B
100
AcDbEntity
  8
Edge.Cuts
  6
CONTINUOUS
100
AcDbLine
 10
1.7840088188976377
 20
-1.9943568110236221
 30
0
 11
1.7864894488188976
 21
-2.0052251968503936
 31
0
  0
LINE
  5
187
330
1B
100
AcDbEntity
  8
Edge.Cuts
  6
CONTINUOUS
100
AcDbLine
 10
1.7864894488188976
 20
-2.0052251968503936
 30
0
 11
1.7877376377952756
 21
-2.0163029527559053
 31
0
  0
LINE
  5
188
330
1B
100
AcDbEntity
  8
Edge.Cuts
  6
CONTINUOUS
100
AcDbLine
 10
1.7877376377952756
 20
-2.0163029527559053
 30
0
 11
1.7877376377952756
 21
-2.0274508267716533
 31
0
  0
LINE
  5
189
330
1B
100
AcDbEntity
  8
Edge.Cuts
  6
CONTINUOUS
100
AcDbLine
 10
1.7877376377952756
 20
-2.0274508267716533
 30
0
 11
1.7864894488188976
 21
-2.0385285826771655
 31
0
  0
LINE
  5
18A
330
1B
100
AcDbEntity
  8
Edge.Cuts
  6
CONTINUOUS
100
AcDbLine
 10
1.7864894488188976
 20
-2.0385285826771655
 30
0
 11
1.7840088188976377
 21
-2.0493969685039368
 31
0
  0
LINE
  5
18B
330
1B
100
AcDbEntity
  8
Edge.Cuts
  6
CONTINUOUS
100
AcDbLine
 10
1.7840088188976377
 20
-2.0493969685039368
 30
0
 11
1.7803269291338581
 21
-2.0599192519685037
 31
0
  0
LINE
  5
18C
330
1B
100
AcDbEntity
  8
Edge.Cuts
  6
CONTINUOUS
100
AcDbLine
 10
1.7803269291338581
 20
-2.0599192519685037
 30
0
 11
1.7754900393700788
 21
-2.0699631102362206
 31
0
  0
LINE
  5
18D
330
1B
100
AcDbEntity
  8
Edge.Cuts
  6
CONTINUOUS
100
AcDbLine
 10
1.7754900393700788
 20
-2.0699631102362206
 30
0
 11
1.7695590157480314
 21
-2.0794022834645669
 31
0
  0
LINE
  5
18E
330
1B
100
AcDbEntity
  8
Edge.Cuts
  6
CONTINUOUS
100
AcDbLine
 10
1.7695590157480314
 20
-2.0794022834645669
 30
0
 11
1.7626084251968503
 21
-2.0881180314960628
 31
0
  0
LINE
  5
18F
330
1B
100
AcDbEntity
  8
Edge.Cuts
  6
CONTINUOUS
100
AcDbLine
 10
1.7626084251968503
 20
-2.0881180314960628
 30
0
 11
1.7547257086614172
 21
-2.0960007480314959
 31
0
  0
LINE
  5
190
330
1B
100
AcDbEntity
  8
Edge.Cuts
  6
CONTINUOUS
100
AcDbLine
 10
1.7547257086614172
 20
-2.0960007480314959
 30
0
 11
1.7460099606299213
 21
-2.102951338582677
 31
0
  0
LINE
  5
191
330
1B
100
AcDbEntity
  8
Edge.Cuts
  6
CONTINUOUS
100
AcDbLine
 10
1.7460099606299213
 20
-2.102951338582677
 30
0
 11
1.7365707874015748
 21
-2.1088823622047244
 31
0
  0
LINE
  5
192
330
1B
100
AcDbEntity
  8
Edge.Cuts
  6
CONTINUOUS
100
AcDbLine
 10
1.7365707874015748
 20
-2.1088823622047244
 30
0
 11
1.7265269291338583
 21
-2.113719251968504
 31
0
  0
LINE
  5
193
330
1B
100
AcDbEntity
  8
Edge.Cuts
  6
CONTINUOUS
100
AcDbLine
 10
1.7265269291338583
 20
-2.113719251968504
 30
0
 11
1.7160046456692912
 21
-2.1174011417322833
 31
0
  0
LINE
  5
194
330
1B
100
AcDbEntity
  8
Edge.Cuts
  6
CONTINUOUS
100
AcDbLine
 10
1.7160046456692912
 20
-2.1174011417322833
 30
0
 11
1.7051362598425197
 21
-2.1198817716535432
 31
0
  0
LINE
  5
195
330
1B
100
AcDbEntity
  8
Edge.Cuts
  6
CONTINUOUS
100
AcDbLine
 10
1.7051362598425197
 20
-2.1198817716535432
 30
0
 11
1.6940585039370077
 21
-2.1211299606299212
 31
0
  0
LINE
  5
196
330
1B
100
AcDbEntity
  8
Edge.Cuts
  6
CONTINUOUS
100
AcDbLine
 10
1.6940585039370077
 20
-2.1211299606299212
 30
0
 11
1.6829106299212597
 21
-2.1211299606299212
 31
0
  0
LINE
  5
197
330
1B
100
AcDbEntity
  8
Edge.Cuts
  6
CONTINUOUS
100
AcDbLine
 10
1.6829106299212597
 20
-2.1211299606299212
 30
0
 11
1.671832874015748
 21
-2.1198817716535432
 31
0
  0
LINE
  5
198
330
1B
100
AcDbEntity
  8
Edge.Cuts
  6
CONTINUOUS
100
AcDbLine
 10
1.671832874015748
 20
-2.1198817716535432
 30
0
 11
1.6609644881889762
 21
-2.1174011417322833
 31
0
  0
LINE
  5
199
330
1B
100
AcDbEntity
  8
Edge.Cuts
  6
CONTINUOUS
100
AcDbLine
 10
1.6609644881889762
 20
-2.1174011417322833
 30
0
 11
1.6504422047244094
 21
-2.113719251968504
 31
0
  0
LINE
  5
19A
330
1B
100
AcDbEntity
  8
Edge.Cuts
  6
CONTINUOUS
100
AcDbLine
 10
1.6504422047244094
 20
-2.113719251968504
 30
0
 11
1.6403983464566929
 21
-2.1088823622047244
 31
0
  0
LINE
  5
19B
330
1B
100
AcDbEntity
  8
Edge.Cuts
  6
CONTINUOUS
100
AcDbLine
 10
1.6403983464566929
 20
-2.1088823622047244
 30
0
 11
1.6309591732283464
 21
-2.102951338582677
 31
0
  0
LINE
  5
19C
330
1B
100
AcDbEntity
  8
Edge.Cuts
  6
CONTINUOUS
100
AcDbLine
 10
1.6309591732283464
 20
-2.102951338582677
 30
0
 11
1.6222434251968503
 21
-2.0960007480314959
 31
0
  0
LINE
  5
19D
330
1B
100
AcDbEntity
  8
Edge.Cuts
  6
CONTINUOUS
100
AcDbLine
 10
1.6222434251968503
 20
-2.0960007480314959
 30
0
 11
1.6143607086614173
 21
-2.0881180314960628
 31
0
  0
LINE
  5
19E
330
1B
100
AcDbEntity
  8
Edge.Cuts
  6
CONTINUOUS
100
AcDbLine
 10
1.6143607086614173
 20
-2.0881180314960628
 30
0
 11
1.6074101181102363
 21
-2.0794022834645669
 31
0
  0
LINE
  5
19F
330
1B
100
AcDbEntity
  8
Edge.Cuts
  6
CONTINUOUS
100
AcDbLine
 10
1.6074101181102363
 20
-2.0794022834645669
 30
0
 11
1.6014790944881889
 21
-2.0699631102362206
 31
0
  0
LINE
  5
1A0
330
1B
100
AcDbEntity
  8
Edge.Cuts
  6
CONTINUOUS
100
AcDbLine
 10
1.6014790944881889
 20
-2.0699631102362206
 30
0
 11
1.5966422047244093
 21
-2.0599192519685037
 31
0
  0
LINE
  5
1A1
330
1B
100
AcDbEntity
  8
Edge.Cuts
  6
CONTINUOUS
100
AcDbLine
 10
1.5966422047244093
 20
-2.0599192519685037
 30
0
 11
1.59296031496063
 21
-2.0493969685039368
 31
0
  0
LINE
  5
1A2
330
1B
100
AcDbEntity
  8
Edge.Cuts
  6
CONTINUOUS
100
AcDbLine
 10
1.59296031496063
 20
-2.0493969685039368
 30
0
 11
1.5904796850393701
 21
-2.0385285826771655
 31
0
  0
LINE
  5
1A3
330
1B
100
AcDbEntity
  8
Edge.Cuts
  6
CONTINUOUS
100
AcDbLine
 10
1.5904796850393701
 20
-2.0385285826771655
 30
0
 11
1.5892314960629921
 21
-2.0274508267716533
 31
0
  0
LINE
  5
1A4
330
1B
100
AcDbEntity
  8
Edge.Cuts
  6
CONTINUOUS
100
AcDbLine
 10
1.5892314960629921
 20
-2.0274508267716533
 30
0
 11
1.5892314960629921
 21
-2.016404724409449
 31
0
  0
LINE
  5
1A5
330
1B
100
AcDbEntity
  8
Edge.Cuts
  6
CONTINUOUS
100
AcDbLine
 10
1.5892314960629921
 20
-2.016404724409449
 30
0
 11
1.5892314960629921
 21
-2.0163029527559053
 31
0
  0
LINE
  5
1A6
330
1B
100
AcDbEntity
  8
Edge.Cuts
  6
CONTINUOUS
100
AcDbLine
 10
1.5892314960629921
 20
-2.0163029527559053
 30
0
 11
1.5904796850393701
 21
-2.0052251968503936
 31
0
  0
LINE
  5
1A7
330
1B
100
AcDbEntity
  8
Edge.Cuts
  6
CONTINUOUS
100
AcDbLine
 10
1.5904796850393701
 20
-2.0052251968503936
 30
0
 11
1.59296031496063
 21
-1.9943568110236221
 31
0
  0
LINE
  5
1A8
330
1B
100
AcDbEntity
  8
Edge.Cuts
  6
CONTINUOUS
100
AcDbLine
 10
1.59296031496063
 20
-1.9943568110236221
 30
0
 11
1.5966422047244093
 21
-1.983834527559055
 31
0
  0
LINE
  5
1A9
330
1B
100
AcDbEntity
  8
Edge.Cuts
  6
CONTINUOUS
100
AcDbLine
 10
1.5966422047244093
 20
-1.983834527559055
 30
0
 11
1.6014790944881889
 21
-1.9737906692913385
 31
0
  0
LINE
  5
1AA
330
1B
100
AcDbEntity
  8
Edge.Cuts
  6
CONTINUOUS
100
AcDbLine
 10
1.6014790944881889
 20
-1.9737906692913385
 30
0
 11
1.6074101181102363
 21
-1.964351496062992
 31
0
  0
LINE
  5
1AB
330
1B
100
AcDbEntity
  8
Edge.Cuts
  6
CONTINUOUS
100
AcDbLine
 10
1.6074101181102363
 20
-1.964351496062992
 30
0
 11
1.6143607086614173
 21
-1.9556357480314961
 31
0
  0
LINE
  5
1AC
330
1B
100
AcDbEntity
  8
Edge.Cuts
  6
CONTINUOUS
100
AcDbLine
 10
1.6143607086614173
 20
-1.9556357480314961
 30
0
 11
1.6222434251968503
 21
-1.9477530314960629
 31
0
  0
LINE
  5
1AD
330
1B
100
AcDbEntity
  8
Edge.Cuts
  6
CONTINUOUS
100
AcDbLine
 10
1.6222434251968503
 20
-1.9477530314960629
 30
0
 11
1.6309591732283464
 21
-1.9408024409448819
 31
0
  0
LINE
  5
1AE
330
1B
100
AcDbEntity
  8
Edge.Cuts
  6
CONTINUOUS
100
AcDbLine
 10
1.6309591732283464
 20
-1.9408024409448819
 30
0
 11
1.6403983464566929
 21
-1.9348714173228345
 31
0
  0
LINE
  5
1AF
330
1B
100
AcDbEntity
  8
Edge.Cuts
  6
CONTINUOUS
100
AcDbLine
 10
1.6403983464566929
 20
-1.9348714173228345
 30
0
 11
1.6504422047244094
 21
-1.9300345275590551
 31
0
  0
LINE
  5
1B0
330
1B
100
AcDbEntity
  8
Edge.Cuts
  6
CONTINUOUS
100
AcDbLine
 10
1.6504422047244094
 20
-1.9300345275590551
 30
0
 11
1.6609644881889762
 21
-1.9263526377952755
 31
0
  0
LINE
  5
1B1
330
1B
100
AcDbEntity
  8
Edge.Cuts
  6
CONTINUOUS
100
AcDbLine
 10
1.6609644881889762
 20
-1.9263526377952755
 30
0
 11
1.671832874015748
 21
-1.9238720078740157
 31
0
  0
LINE
  5
1B2
330
1B
100
AcDbEntity
  8
Edge.Cuts
  6
CONTINUOUS
100
AcDbLine
 10
1.671832874015748
 20
-1.9238720078740157
 30
0
 11
1.6829106299212597
 21
-1.9226238188976377
 31
0
  0
LINE
  5
1B3
330
1B
100
AcDbEntity
  8
Edge.Cuts
  6
CONTINUOUS
100
AcDbLine
 10
1.6829106299212597
 20
-1.9226238188976377
 30
0
 11
1.6940585039370077
 21
-1.9226238188976377
 31
0
  0
LINE
  5
1B4
330
1B
100
AcDbEntity
  8
Edge.Cuts
  6
CONTINUOUS
100
AcDbLine
 10
1.6940585039370077
 20
-1.9226238188976377
 30
0
 11
1.7051362598425197
 21
-1.9238720078740157
 31
0
  0
LINE
  5
1B5
330
1B
100
AcDbEntity
  8
Edge.Cuts
  6
CONTINUOUS
100
AcDbLine
 10
1.5910436220472441
 20
-2.0273490551181101
 30
0
 11
1.5922689763779527
 21
-2.0382245669291339
 31
0
  0
LINE
  5
1B6
330
1B
100
AcDbEntity
  8
Edge.Cuts
  6
CONTINUOUS
100
AcDbLine
 10
1.5922689763779527
 20
-2.0382245669291339
 30
0
 11
1.5947043307086615
 21
-2.0488945275590549
 31
0
  0
LINE
  5
1B7
330
1B
100
AcDbEntity
  8
Edge.Cuts
  6
CONTINUOUS
100
AcDbLine
 10
1.5947043307086615
 20
-2.0488945275590549
 30
0
 11
1.5983190157480314
 21
-2.0592246850393701
 31
0
  0
LINE
  5
1B8
330
1B
100
AcDbEntity
  8
Edge.Cuts
  6
CONTINUOUS
100
AcDbLine
 10
1.5983190157480314
 20
-2.0592246850393701
 30
0
 11
1.6030675984251967
 21
-2.0690851968503936
 31
0
  0
LINE
  5
1B9
330
1B
100
AcDbEntity
  8
Edge.Cuts
  6
CONTINUOUS
100
AcDbLine
 10
1.6030675984251967
 20
-2.0690851968503936
 30
0
 11
1.60889031496063
 21
-2.0783520078740159
 31
0
  0
LINE
  5
1BA
330
1B
100
AcDbEntity
  8
Edge.Cuts
  6
CONTINUOUS
100
AcDbLine
 10
1.60889031496063
 20
-2.0783520078740159
 30
0
 11
1.6157140157480314
 21
-2.0869086614173229
 31
0
  0
LINE
  5
1BB
330
1B
100
AcDbEntity
  8
Edge.Cuts
  6
CONTINUOUS
100
AcDbLine
 10
1.6157140157480314
 20
-2.0869086614173229
 30
0
 11
1.6234527952755906
 21
-2.0946474409448816
 31
0
  0
LINE
  5
1BC
330
1B
100
AcDbEntity
  8
Edge.Cuts
  6
CONTINUOUS
100
AcDbLine
 10
1.6234527952755906
 20
-2.0946474409448816
 30
0
 11
1.6320094488188976
 21
-2.1014711417322833
 31
0
  0
LINE
  5
1BD
330
1B
100
AcDbEntity
  8
Edge.Cuts
  6
CONTINUOUS
100
AcDbLine
 10
1.6320094488188976
 20
-2.1014711417322833
 30
0
 11
1.6412762598425197
 21
-2.1072938582677163
 31
0
  0
LINE
  5
1BE
330
1B
100
AcDbEntity
  8
Edge.Cuts
  6
CONTINUOUS
100
AcDbLine
 10
1.6412762598425197
 20
-2.1072938582677163
 30
0
 11
1.6511367716535432
 21
-2.1120424409448817
 31
0
  0
LINE
  5
1BF
330
1B
100
AcDbEntity
  8
Edge.Cuts
  6
CONTINUOUS
100
AcDbLine
 10
1.6511367716535432
 20
-2.1120424409448817
 30
0
 11
1.6614669291338582
 21
-2.115657125984252
 31
0
  0
LINE
  5
1C0
330
1B
100
AcDbEntity
  8
Edge.Cuts
  6
CONTINUOUS
100
AcDbLine
 10
1.6614669291338582
 20
-2.115657125984252
 30
0
 11
1.6721368897637794
 21
-2.1180924803149606
 31
0
  0
LINE
  5
1C1
330
1B
100
AcDbEntity
  8
Edge.Cuts
  6
CONTINUOUS
100
AcDbLine
 10
1.6721368897637794
 20
-2.1180924803149606
 30
0
 11
1.6830124015748031
 21
-2.1193178346456691
 31
0
  0
LINE
  5
1C2
330
1B
100
AcDbEntity
  8
Edge.Cuts
  6
CONTINUOUS
100
AcDbLine
 10
1.6830124015748031
 20
-2.1193178346456691
 30
0
 11
1.6939567322834646
 21
-2.1193178346456691
 31
0
  0
LINE
  5
1C3
330
1B
100
AcDbEntity
  8
Edge.Cuts
  6
CONTINUOUS
100
AcDbLine
 10
1.6939567322834646
 20
-2.1193178346456691
 30
0
 11
1.7048322440944881
 21
-2.1180924803149606
 31
0
  0
LINE
  5
1C4
330
1B
100
AcDbEntity
  8
Edge.Cuts
  6
CONTINUOUS
100
AcDbLine
 10
1.7048322440944881
 20
-2.1180924803149606
 30
0
 11
1.7155022047244095
 21
-2.115657125984252
 31
0
  0
LINE
  5
1C5
330
1B
100
AcDbEntity
  8
Edge.Cuts
  6
CONTINUOUS
100
AcDbLine
 10
1.7155022047244095
 20
-2.115657125984252
 30
0
 11
1.7258323622047245
 21
-2.1120424409448817
 31
0
  0
LINE
  5
1C6
330
1B
100
AcDbEntity
  8
Edge.Cuts
  6
CONTINUOUS
100
AcDbLine
 10
1.7258323622047245
 20
-2.1120424409448817
 30
0
 11
1.735692874015748
 21
-2.1072938582677163
 31
0
  0
LINE
  5
1C7
330
1B
100
AcDbEntity
  8
Edge.Cuts
  6
CONTINUOUS
100
AcDbLine
 10
1.735692874015748
 20
-2.1072938582677163
 30
0
 11
1.74495968503937
 21
-2.1014711417322833
 31
0
  0
LINE
  5
1C8
330
1B
100
AcDbEntity
  8
Edge.Cuts
  6
CONTINUOUS
100
AcDbLine
 10
1.74495968503937
 20
-2.1014711417322833
 30
0
 11
1.7535163385826771
 21
-2.0946474409448816
 31
0
  0
LINE
  5
1C9
330
1B
100
AcDbEntity
  8
Edge.Cuts
  6
CONTINUOUS
100
AcDbLine
 10
1.7535163385826771
 20
-2.0946474409448816
 30
0
 11
1.7612551181102363
 21
-2.0869086614173229
 31
0
  0
LINE
  5
1CA
330
1B
100
AcDbEntity
  8
Edge.Cuts
  6
CONTINUOUS
100
AcDbLine
 10
1.7612551181102363
 20
-2.0869086614173229
 30
0
 11
1.7680788188976377
 21
-2.0783520078740159
 31
0
  0
LINE
  5
1CB
330
1B
100
AcDbEntity
  8
Edge.Cuts
  6
CONTINUOUS
100
AcDbLine
 10
1.7680788188976377
 20
-2.0783520078740159
 30
0
 11
1.7739015354330707
 21
-2.0690851968503936
 31
0
  0
LINE
  5
1CC
330
1B
100
AcDbEntity
  8
Edge.Cuts
  6
CONTINUOUS
100
AcDbLine
 10
1.7739015354330707
 20
-2.0690851968503936
 30
0
 11
1.7786501181102361
 21
-2.0592246850393701
 31
0
  0
LINE
  5
1CD
330
1B
100
AcDbEntity
  8
Edge.Cuts
  6
CONTINUOUS
100
AcDbLine
 10
1.7786501181102361
 20
-2.0592246850393701
 30
0
 11
1.7822648031496062
 21
-2.0488945275590549
 31
0
  0
LINE
  5
1CE
330
1B
100
AcDbEntity
  8
Edge.Cuts
  6
CONTINUOUS
100
AcDbLine
 10
1.7822648031496062
 20
-2.0488945275590549
 30
0
 11
1.784700157480315
 21
-2.0382245669291339
 31
0
  0
LINE
  5
1CF
330
1B
100
AcDbEntity
  8
Edge.Cuts
  6
CONTINUOUS
100
AcDbLine
 10
1.784700157480315
 20
-2.0382245669291339
 30
0
 11
1.7859255118110235
 21
-2.0273490551181101
 31
0
  0
LINE
  5
1D0
330
1B
100
AcDbEntity
  8
Edge.Cuts
  6
CONTINUOUS
100
AcDbLine
 10
1.7859255118110235
 20
-2.0273490551181101
 30
0
 11
1.7859255118110235
 21
-2.016404724409449
 31
0
  0
LINE
  5
1D1
330
1B
100
AcDbEntity
  8
Edge.Cuts
  6
CONTINUOUS
100
AcDbLine
 10
1.7859255118110235
 20
-2.016404724409449
 30
0
 11
1.784700157480315
 21
-2.0055292125984252
 31
0
  0
LINE
  5
1D2
330
1B
100
AcDbEntity
  8
Edge.Cuts
  6
CONTINUOUS
100
AcDbLine
 10
1.784700157480315
 20
-2.0055292125984252
 30
0
 11
1.7822648031496062
 21
-1.994859251968504
 31
0
  0
LINE
  5
1D3
330
1B
100
AcDbEntity
  8
Edge.Cuts
  6
CONTINUOUS
100
AcDbLine
 10
1.7822648031496062
 20
-1.994859251968504
 30
0
 11
1.7786501181102361
 21
-1.984529094488189
 31
0
  0
LINE
  5
1D4
330
1B
100
AcDbEntity
  8
Edge.Cuts
  6
CONTINUOUS
100
AcDbLine
 10
1.7786501181102361
 20
-1.984529094488189
 30
0
 11
1.7739015354330707
 21
-1.9746685826771653
 31
0
  0
LINE
  5
1D5
330
1B
100
AcDbEntity
  8
Edge.Cuts
  6
CONTINUOUS
100
AcDbLine
 10
1.7739015354330707
 20
-1.9746685826771653
 30
0
 11
1.7680788188976377
 21
-1.9654017716535432
 31
0
  0
LINE
  5
1D6
330
1B
100
AcDbEntity
  8
Edge.Cuts
  6
CONTINUOUS
100
AcDbLine
 10
1.7680788188976377
 20
-1.9654017716535432
 30
0
 11
1.7612551181102363
 21
-1.9568451181102362
 31
0
  0
LINE
  5
1D7
330
1B
100
AcDbEntity
  8
Edge.Cuts
  6
CONTINUOUS
100
AcDbLine
 10
1.7612551181102363
 20
-1.9568451181102362
 30
0
 11
1.7535163385826771
 21
-1.949106338582677
 31
0
  0
LINE
  5
1D8
330
1B
100
AcDbEntity
  8
Edge.Cuts
  6
CONTINUOUS
100
AcDbLine
 10
1.7535163385826771
 20
-1.949106338582677
 30
0
 11
1.74495968503937
 21
-1.9422826377952755
 31
0
  0
LINE
  5
1D9
330
1B
100
AcDbEntity
  8
Edge.Cuts
  6
CONTINUOUS
100
AcDbLine
 10
1.74495968503937
 20
-1.9422826377952755
 30
0
 11
1.735692874015748
 21
-1.9364599212598426
 31
0
  0
LINE
  5
1DA
330
1B
100
AcDbEntity
  8
Edge.Cuts
  6
CONTINUOUS
100
AcDbLine
 10
1.735692874015748
 20
-1.9364599212598426
 30
0
 11
1.7258323622047245
 21
-1.9317113385826772
 31
0
  0
LINE
  5
1DB
330
1B
100
AcDbEntity
  8
Edge.Cuts
  6
CONTINUOUS
100
AcDbLine
 10
1.7258323622047245
 20
-1.9317113385826772
 30
0
 11
1.7155022047244095
 21
-1.9280966535433071
 31
0
  0
LINE
  5
1DC
330
1B
100
AcDbEntity
  8
Edge.Cuts
  6
CONTINUOUS
100
AcDbLine
 10
1.7155022047244095
 20
-1.9280966535433071
 30
0
 11
1.7048322440944881
 21
-1.9256612992125983
 31
0
  0
LINE
  5
1DD
330
1B
100
AcDbEntity
  8
Edge.Cuts
  6
CONTINUOUS
100
AcDbLine
 10
1.7048322440944881
 20
-1.9256612992125983
 30
0
 11
1.6939567322834646
 21
-1.9244359448818897
 31
0
  0
LINE
  5
1DE
330
1B
100
AcDbEntity
  8
Edge.Cuts
  6
CONTINUOUS
100
AcDbLine
 10
1.6939567322834646
 20
-1.9244359448818897
 30
0
 11
1.6830124015748031
 21
-1.9244359448818897
 31
0
  0
LINE
  5
1DF
330
1B
100
AcDbEntity
  8
Edge.Cuts
  6
CONTINUOUS
100
AcDbLine
 10
1.6830124015748031
 20
-1.9244359448818897
 30
0
 11
1.6721368897637794
 21
-1.9256612992125983
 31
0
  0
LINE
  5
1E0
330
1B
100
AcDbEntity
  8
Edge.Cuts
  6
CONTINUOUS
100
AcDbLine
 10
1.6721368897637794
 20
-1.9256612992125983
 30
0
 11
1.6614669291338582
 21
-1.9280966535433071
 31
0
  0
LINE
  5
1E1
330
1B
100
AcDbEntity
  8
Edge.Cuts
  6
CONTINUOUS
100
AcDbLine
 10
1.6614669291338582
 20
-1.9280966535433071
 30
0
 11
1.6511367716535432
 21
-1.9317113385826772
 31
0
  0
LINE
  5
1E2
330
1B
100
AcDbEntity
  8
Edge.Cuts
  6
CONTINUOUS
100
AcDbLine
 10
1.6511367716535432
 20
-1.9317113385826772
 30
0
 11
1.6412762598425197
 21
-1.9364599212598426
 31
0
  0
LINE
  5
1E3
330
1B
100
AcDbEntity
  8
Edge.Cuts
  6
CONTINUOUS
100
AcDbLine
 10
1.6412762598425197
 20
-1.9364599212598426
 30
0
 11
1.6320094488188976
 21
-1.9422826377952755
 31
0
  0
LINE
  5
1E4
330
1B
100
AcDbEntity
  8
Edge.Cuts
  6
CONTINUOUS
100
AcDbLine
 10
1.6320094488188976
 20
-1.9422826377952755
 30
0
 11
1.6234527952755906
 21
-1.949106338582677
 31
0
  0
LINE
  5
1E5
330
1B
100
AcDbEntity
  8
Edge.Cuts
  6
CONTINUOUS
100
AcDbLine
 10
1.6234527952755906
 20
-1.949106338582677
 30
0
 11
1.6157140157480314
 21
-1.9568451181102362
 31
0
  0
LINE
  5
1E6
330
1B
100
AcDbEntity
  8
Edge.Cuts
  6
CONTINUOUS
100
AcDbLine
 10
1.6157140157480314
 20
-1.9568451181102362
 30
0
 11
1.60889031496063
 21
-1.9654017716535432
 31
0
  0
LINE
  5
1E7
330
1B
100
AcDbEntity
  8
Edge.Cuts
  6
CONTINUOUS
100
AcDbLine
 10
1.60889031496063
 20
-1.9654017716535432
 30
0
 11
1.6030675984251967
 21
-1.9746685826771653
 31
0
  0
LINE
  5
1E8
330
1B
100
AcDbEntity
  8
Edge.Cuts
  6
CONTINUOUS
100
AcDbLine
 10
1.6030675984251967
 20
-1.9746685826771653
 30
0
 11
1.5983190157480314
 21
-1.984529094488189
 31
0
  0
LINE
  5
1E9
330
1B
100
AcDbEntity
  8
Edge.Cuts
  6
CONTINUOUS
100
AcDbLine
 10
1.5983190157480314
 20
-1.984529094488189
 30
0
 11
1.5947043307086615
 21
-1.994859251968504
 31
0
  0
LINE
  5
1EA
330
1B
100
AcDbEntity
  8
Edge.Cuts
  6
CONTINUOUS
100
AcDbLine
 10
1.5947043307086615
 20
-1.994859251968504
 30
0
 11
1.5922689763779527
 21
-2.0055292125984252
 31
0
  0
LINE
  5
1EB
330
1B
100
AcDbEntity
  8
Edge.Cuts
  6
CONTINUOUS
100
AcDbLine
 10
1.5922689763779527
 20
-2.0055292125984252
 30
0
 11
1.5910436220472441
 21
-2.016404724409449
 31
0
  0
LINE
  5
1EC
330
1B
100
AcDbEntity
  8
Edge.Cuts
  6
CONTINUOUS
100
AcDbLine
 10
1.5910436220472441
 20
-2.016404724409449
 30
0
 11
1.5910436220472441
 21
-2.0273490551181101
 31
0
  0
LINE
  5
1ED
330
1B
100
AcDbEntity
  8
Edge.Cuts
  6
CONTINUOUS
100
AcDbLine
 10
4.7051362598425195
 20
-1.7832470078740157
 30
0
 11
4.7160046456692912
 21
-1.7857276377952755
 31
0
  0
LINE
  5
1EE
330
1B
100
AcDbEntity
  8
Edge.Cuts
  6
CONTINUOUS
100
AcDbLine
 10
4.7160046456692912
 20
-1.7857276377952755
 30
0
 11
4.7265269291338585
 21
-1.7894095275590551
 31
0
  0
LINE
  5
1EF
330
1B
100
AcDbEntity
  8
Edge.Cuts
  6
CONTINUOUS
100
AcDbLine
 10
4.7265269291338585
 20
-1.7894095275590551
 30
0
 11
4.7365707874015746
 21
-1.7942464173228345
 31
0
  0
LINE
  5
1F0
330
1B
100
AcDbEntity
  8
Edge.Cuts
  6
CONTINUOUS
100
AcDbLine
 10
4.7365707874015746
 20
-1.7942464173228345
 30
0
 11
4.7460099606299213
 21
-1.8001774409448819
 31
0
  0
LINE
  5
1F1
330
1B
100
AcDbEntity
  8
Edge.Cuts
  6
CONTINUOUS
100
AcDbLine
 10
4.7460099606299213
 20
-1.8001774409448819
 30
0
 11
4.7547257086614172
 21
-1.8071280314960629
 31
0
  0
LINE
  5
1F2
330
1B
100
AcDbEntity
  8
Edge.Cuts
  6
CONTINUOUS
100
AcDbLine
 10
4.7547257086614172
 20
-1.8071280314960629
 30
0
 11
4.7626084251968503
 21
-1.8150107480314961
 31
0
  0
LINE
  5
1F3
330
1B
100
AcDbEntity
  8
Edge.Cuts
  6
CONTINUOUS
100
AcDbLine
 10
4.7626084251968503
 20
-1.8150107480314961
 30
0
 11
4.7695590157480314
 21
-1.823726496062992
 31
0
  0
LINE
  5
1F4
330
1B
100
AcDbEntity
  8
Edge.Cuts
  6
CONTINUOUS
100
AcDbLine
 10
4.7695590157480314
 20
-1.823726496062992
 30
0
 11
4.7754900393700783
 21
-1.8331656692913385
 31
0
  0
LINE
  5
1F5
330
1B
100
AcDbEntity
  8
Edge.Cuts
  6
CONTINUOUS
100
AcDbLine
 10
4.7754900393700783
 20
-1.8331656692913385
 30
0
 11
4.7803269291338584
 21
-1.843209527559055
 31
0
  0
LINE
  5
1F6
330
1B
100
AcDbEntity
  8
Edge.Cuts
  6
CONTINUOUS
100
AcDbLine
 10
4.7803269291338584
 20
-1.843209527559055
 30
0
 11
4.7840088188976377
 21
-1.8537318110236221
 31
0
  0
LINE
  5
1F7
330
1B
100
AcDbEntity
  8
Edge.Cuts
  6
CONTINUOUS
100
AcDbLine
 10
4.7840088188976377
 20
-1.8537318110236221
 30
0
 11
4.7864894488188972
 21
-1.8646001968503936
 31
0
  0
LINE
  5
1F8
330
1B
100
AcDbEntity
  8
Edge.Cuts
  6
CONTINUOUS
100
AcDbLine
 10
4.7864894488188972
 20
-1.8646001968503936
 30
0
 11
4.7877376377952752
 21
-1.8756779527559055
 31
0
  0
LINE
  5
1F9
330
1B
100
AcDbEntity
  8
Edge.Cuts
  6
CONTINUOUS
100
AcDbLine
 10
4.7877376377952752
 20
-1.8756779527559055
 30
0
 11
4.7877376377952752
 21
-1.8868258267716536
 31
0
  0
LINE
  5
1FA
330
1B
100
AcDbEntity
  8
Edge.Cuts
  6
CONTINUOUS
100
AcDbLine
 10
4.7877376377952752
 20
-1.8868258267716536
 30
0
 11
4.7864894488188972
 21
-1.8979035826771653
 31
0
  0
LINE
  5
1FB
330
1B
100
AcDbEntity
  8
Edge.Cuts
  6
CONTINUOUS
100
AcDbLine
 10
4.7864894488188972
 20
-1.8979035826771653
 30
0
 11
4.7840088188976377
 21
-1.908771968503937
 31
0
  0
LINE
  5
1FC
330
1B
100
AcDbEntity
  8
Edge.Cuts
  6
CONTINUOUS
100
AcDbLine
 10
4.7840088188976377
 20
-1.908771968503937
 30
0
 11
4.7803269291338584
 21
-1.9192942519685039
 31
0
  0
LINE
  5
1FD
330
1B
100
AcDbEntity
  8
Edge.Cuts
  6
CONTINUOUS
100
AcDbLine
 10
4.7803269291338584
 20
-1.9192942519685039
 30
0
 11
4.7754900393700783
 21
-1.9293381102362204
 31
0
  0
LINE
  5
1FE
330
1B
100
AcDbEntity
  8
Edge.Cuts
  6
CONTINUOUS
100
AcDbLine
 10
4.7754900393700783
 20
-1.9293381102362204
 30
0
 11
4.7695590157480314
 21
-1.9387772834645669
 31
0
  0
LINE
  5
1FF
330
1B
100
AcDbEntity
  8
Edge.Cuts
  6
CONTINUOUS
100
AcDbLine
 10
4.7695590157480314
 20
-1.9387772834645669
 30
0
 11
4.7626084251968503
 21
-1.947493031496063
 31
0
  0
LINE
  5
200
330
1B
100
AcDbEntity
  8
Edge.Cuts
  6
CONTINUOUS
100
AcDbLine
 10
4.7626084251968503
 20
-1.947493031496063
 30
0
 11
4.7547257086614172
 21
-1.9553757480314959
 31
0
  0
LINE
  5
201
330
1B
100
AcDbEntity
  8
Edge.Cuts
  6
CONTINUOUS
100
AcDbLine
 10
4.7547257086614172
 20
-1.9553757480314959
 30
0
 11
4.7460099606299213
 21
-1.962326338582677
 31
0
  0
LINE
  5
202
330
1B
100
AcDbEntity
  8
Edge.Cuts
  6
CONTINUOUS
100
AcDbLine
 10
4.7460099606299213
 20
-1.962326338582677
 30
0
 11
4.7365707874015746
 21
-1.9682573622047244
 31
0
  0
LINE
  5
203
330
1B
100
AcDbEntity
  8
Edge.Cuts
  6
CONTINUOUS
100
AcDbLine
 10
4.7365707874015746
 20
-1.9682573622047244
 30
0
 11
4.7265269291338585
 21
-1.973094251968504
 31
0
  0
LINE
  5
204
330
1B
100
AcDbEntity
  8
Edge.Cuts
  6
CONTINUOUS
100
AcDbLine
 10
4.7265269291338585
 20
-1.973094251968504
 30
0
 11
4.7160046456692912
 21
-1.9767761417322833
 31
0
  0
LINE
  5
205
330
1B
100
AcDbEntity
  8
Edge.Cuts
  6
CONTINUOUS
100
AcDbLine
 10
4.7160046456692912
 20
-1.9767761417322833
 30
0
 11
4.7051362598425195
 21
-1.9792567716535432
 31
0
  0
LINE
  5
206
330
1B
100
AcDbEntity
  8
Edge.Cuts
  6
CONTINUOUS
100
AcDbLine
 10
4.7051362598425195
 20
-1.9792567716535432
 30
0
 11
4.6940585039370077
 21
-1.9805049606299212
 31
0
  0
LINE
  5
207
330
1B
100
AcDbEntity
  8
Edge.Cuts
  6
CONTINUOUS
100
AcDbLine
 10
4.6940585039370077
 20
-1.9805049606299212
 30
0
 11
4.6829106299212597
 21
-1.9805049606299212
 31
0
  0
LINE
  5
208
330
1B
100
AcDbEntity
  8
Edge.Cuts
  6
CONTINUOUS
100
AcDbLine
 10
4.6829106299212597
 20
-1.9805049606299212
 30
0
 11
4.671832874015748
 21
-1.9792567716535432
 31
0
  0
LINE
  5
209
330
1B
100
AcDbEntity
  8
Edge.Cuts
  6
CONTINUOUS
100
AcDbLine
 10
4.671832874015748
 20
-1.9792567716535432
 30
0
 11
4.6609644881889762
 21
-1.9767761417322833
 31
0
  0
LINE
  5
20A
330
1B
100
AcDbEntity
  8
Edge.Cuts
  6
CONTINUOUS
100
AcDbLine
 10
4.6609644881889762
 20
-1.9767761417322833
 30
0
 11
4.6504422047244089
 21
-1.973094251968504
 31
0
  0
LINE
  5
20B
330
1B
100
AcDbEntity
  8
Edge.Cuts
  6
CONTINUOUS
100
AcDbLine
 10
4.6504422047244089
 20
-1.973094251968504
 30
0
 11
4.6403983464566929
 21
-1.9682573622047244
 31
0
  0
LINE
  5
20C
330
1B
100
AcDbEntity
  8
Edge.Cuts
  6
CONTINUOUS
100
AcDbLine
 10
4.6403983464566929
 20
-1.9682573622047244
 30
0
 11
4.6309591732283462
 21
-1.962326338582677
 31
0
  0
LINE
  5
20D
330
1B
100
AcDbEntity
  8
Edge.Cuts
  6
CONTINUOUS
100
AcDbLine
 10
4.6309591732283462
 20
-1.962326338582677
 30
0
 11
4.6222434251968503
 21
-1.9553757480314959
 31
0
  0
LINE
  5
20E
330
1B
100
AcDbEntity
  8
Edge.Cuts
  6
CONTINUOUS
100
AcDbLine
 10
4.6222434251968503
 20
-1.9553757480314959
 30
0
 11
4.6143607086614171
 21
-1.947493031496063
 31
0
  0
LINE
  5
20F
330
1B
100
AcDbEntity
  8
Edge.Cuts
  6
CONTINUOUS
100
AcDbLine
 10
4.6143607086614171
 20
-1.947493031496063
 30
0
 11
4.607410118110236
 21
-1.9387772834645669
 31
0
  0
LINE
  5
210
330
1B
100
AcDbEntity
  8
Edge.Cuts
  6
CONTINUOUS
100
AcDbLine
 10
4.607410118110236
 20
-1.9387772834645669
 30
0
 11
4.6014790944881891
 21
-1.9293381102362204
 31
0
  0
LINE
  5
211
330
1B
100
AcDbEntity
  8
Edge.Cuts
  6
CONTINUOUS
100
AcDbLine
 10
4.6014790944881891
 20
-1.9293381102362204
 30
0
 11
4.5966422047244091
 21
-1.9192942519685039
 31
0
  0
LINE
  5
212
330
1B
100
AcDbEntity
  8
Edge.Cuts
  6
CONTINUOUS
100
AcDbLine
 10
4.5966422047244091
 20
-1.9192942519685039
 30
0
 11
4.5929603149606297
 21
-1.908771968503937
 31
0
  0
LINE
  5
213
330
1B
100
AcDbEntity
  8
Edge.Cuts
  6
CONTINUOUS
100
AcDbLine
 10
4.5929603149606297
 20
-1.908771968503937
 30
0
 11
4.5904796850393703
 21
-1.8979035826771653
 31
0
  0
LINE
  5
214
330
1B
100
AcDbEntity
  8
Edge.Cuts
  6
CONTINUOUS
100
AcDbLine
 10
4.5904796850393703
 20
-1.8979035826771653
 30
0
 11
4.5892314960629923
 21
-1.8868258267716536
 31
0
  0
LINE
  5
215
330
1B
100
AcDbEntity
  8
Edge.Cuts
  6
CONTINUOUS
100
AcDbLine
 10
4.5892314960629923
 20
-1.8868258267716536
 30
0
 11
4.5892314960629923
 21
-1.8757797244094487
 31
0
  0
LINE
  5
216
330
1B
100
AcDbEntity
  8
Edge.Cuts
  6
CONTINUOUS
100
AcDbLine
 10
4.5892314960629923
 20
-1.8757797244094487
 30
0
 11
4.5892314960629923
 21
-1.8756779527559055
 31
0
  0
LINE
  5
217
330
1B
100
AcDbEntity
  8
Edge.Cuts
  6
CONTINUOUS
100
AcDbLine
 10
4.5892314960629923
 20
-1.8756779527559055
 30
0
 11
4.5904796850393703
 21
-1.8646001968503936
 31
0
  0
LINE
  5
218
330
1B
100
AcDbEntity
  8
Edge.Cuts
  6
CONTINUOUS
100
AcDbLine
 10
4.5904796850393703
 20
-1.8646001968503936
 30
0
 11
4.5929603149606297
 21
-1.8537318110236221
 31
0
  0
LINE
  5
219
330
1B
100
AcDbEntity
  8
Edge.Cuts
  6
CONTINUOUS
100
AcDbLine
 10
4.5929603149606297
 20
-1.8537318110236221
 30
0
 11
4.5966422047244091
 21
-1.843209527559055
 31
0
  0
LINE
  5
21A
330
1B
100
AcDbEntity
  8
Edge.Cuts
  6
CONTINUOUS
100
AcDbLine
 10
4.5966422047244091
 20
-1.843209527559055
 30
0
 11
4.6014790944881891
 21
-1.8331656692913385
 31
0
  0
LINE
  5
21B
330
1B
100
AcDbEntity
  8
Edge.Cuts
  6
CONTINUOUS
100
AcDbLine
 10
4.6014790944881891
 20
-1.8331656692913385
 30
0
 11
4.607410118110236
 21
-1.823726496062992
 31
0
  0
LINE
  5
21C
330
1B
100
AcDbEntity
  8
Edge.Cuts
  6
CONTINUOUS
100
AcDbLine
 10
4.607410118110236
 20
-1.823726496062992
 30
0
 11
4.6143607086614171
 21
-1.8150107480314961
 31
0
  0
LINE
  5
21D
330
1B
100
AcDbEntity
  8
Edge.Cuts
  6
CONTINUOUS
100
AcDbLine
 10
4.6143607086614171
 20
-1.8150107480314961
 30
0
 11
4.6222434251968503
 21
-1.8071280314960629
 31
0
  0
LINE
  5
21E
330
1B
100
AcDbEntity
  8
Edge.Cuts
  6
CONTINUOUS
100
AcDbLine
 10
4.6222434251968503
 20
-1.8071280314960629
 30
0
 11
4.6309591732283462
 21
-1.8001774409448819
 31
0
  0
LINE
  5
21F
330
1B
100
AcDbEntity
  8
Edge.Cuts
  6
CONTINUOUS
100
AcDbLine
 10
4.6309591732283462
 20
-1.8001774409448819
 30
0
 11
4.6403983464566929
 21
-1.7942464173228345
 31
0
  0
LINE
  5
220
330
1B
100
AcDbEntity
  8
Edge.Cuts
  6
CONTINUOUS
100
AcDbLine
 10
4.6403983464566929
 20
-1.7942464173228345
 30
0
 11
4.6504422047244089
 21
-1.7894095275590551
 31
0
  0
LINE
  5
221
330
1B
100
AcDbEntity
  8
Edge.Cuts
  6
CONTINUOUS
100
AcDbLine
 10
4.6504422047244089
 20
-1.7894095275590551
 30
0
 11
4.6609644881889762
 21
-1.7857276377952755
 31
0
  0
LINE
  5
222
330
1B
100
AcDbEntity
  8
Edge.Cuts
  6
CONTINUOUS
100
AcDbLine
 10
4.6609644881889762
 20
-1.7857276377952755
 30
0
 11
4.671832874015748
 21
-1.7832470078740157
 31
0
  0
LINE
  5
223
330
1B
100
AcDbEntity
  8
Edge.Cuts
  6
CONTINUOUS
100
AcDbLine
 10
4.671832874015748
 20
-1.7832470078740157
 30
0
 11
4.6829106299212597
 21
-1.7819988188976377
 31
0
  0
LINE
  5
224
330
1B
100
AcDbEntity
  8
Edge.Cuts
  6
CONTINUOUS
100
AcDbLine
 10
4.6829106299212597
 20
-1.7819988188976377
 30
0
 11
4.6940585039370077
 21
-1.7819988188976377
 31
0
  0
LINE
  5
225
330
1B
100
AcDbEntity
  8
Edge.Cuts
  6
CONTINUOUS
100
AcDbLine
 10
4.6940585039370077
 20
-1.7819988188976377
 30
0
 11
4.7051362598425195
 21
-1.7832470078740157
 31
0
  0
LINE
  5
226
330
1B
100
AcDbEntity
  8
Edge.Cuts
  6
CONTINUOUS
100
AcDbLine
 10
4.5910436220472439
 20
-1.8867240551181101
 30
0
 11
4.5922689763779525
 21
-1.8975995669291339
 31
0
  0
LINE
  5
227
330
1B
100
AcDbEntity
  8
Edge.Cuts
  6
CONTINUOUS
100
AcDbLine
 10
4.5922689763779525
 20
-1.8975995669291339
 30
0
 11
4.5947043307086615
 21
-1.9082695275590551
 31
0
  0
LINE
  5
228
330
1B
100
AcDbEntity
  8
Edge.Cuts
  6
CONTINUOUS
100
AcDbLine
 10
4.5947043307086615
 20
-1.9082695275590551
 30
0
 11
4.5983190157480314
 21
-1.9185996850393701
 31
0
  0
LINE
  5
229
330
1B
100
AcDbEntity
  8
Edge.Cuts
  6
CONTINUOUS
100
AcDbLine
 10
4.5983190157480314
 20
-1.9185996850393701
 30
0
 11
4.6030675984251967
 21
-1.9284601968503936
 31
0
  0
LINE
  5
22A
330
1B
100
AcDbEntity
  8
Edge.Cuts
  6
CONTINUOUS
100
AcDbLine
 10
4.6030675984251967
 20
-1.9284601968503936
 30
0
 11
4.6088903149606297
 21
-1.9377270078740156
 31
0
  0
LINE
  5
22B
330
1B
100
AcDbEntity
  8
Edge.Cuts
  6
CONTINUOUS
100
AcDbLine
 10
4.6088903149606297
 20
-1.9377270078740156
 30
0
 11
4.615714015748031
 21
-1.9462836614173229
 31
0
  0
LINE
  5
22C
330
1B
100
AcDbEntity
  8
Edge.Cuts
  6
CONTINUOUS
100
AcDbLine
 10
4.615714015748031
 20
-1.9462836614173229
 30
0
 11
4.6234527952755906
 21
-1.9540224409448819
 31
0
  0
LINE
  5
22D
330
1B
100
AcDbEntity
  8
Edge.Cuts
  6
CONTINUOUS
100
AcDbLine
 10
4.6234527952755906
 20
-1.9540224409448819
 30
0
 11
4.6320094488188976
 21
-1.9608461417322833
 31
0
  0
LINE
  5
22E
330
1B
100
AcDbEntity
  8
Edge.Cuts
  6
CONTINUOUS
100
AcDbLine
 10
4.6320094488188976
 20
-1.9608461417322833
 30
0
 11
4.6412762598425195
 21
-1.9666688582677165
 31
0
  0
LINE
  5
22F
330
1B
100
AcDbEntity
  8
Edge.Cuts
  6
CONTINUOUS
100
AcDbLine
 10
4.6412762598425195
 20
-1.9666688582677165
 30
0
 11
4.651136771653543
 21
-1.9714174409448819
 31
0
  0
LINE
  5
230
330
1B
100
AcDbEntity
  8
Edge.Cuts
  6
CONTINUOUS
100
AcDbLine
 10
4.651136771653543
 20
-1.9714174409448819
 30
0
 11
4.6614669291338577
 21
-1.9750321259842518
 31
0
  0
LINE
  5
231
330
1B
100
AcDbEntity
  8
Edge.Cuts
  6
CONTINUOUS
100
AcDbLine
 10
4.6614669291338577
 20
-1.9750321259842518
 30
0
 11
4.6721368897637792
 21
-1.9774674803149606
 31
0
  0
LINE
  5
232
330
1B
100
AcDbEntity
  8
Edge.Cuts
  6
CONTINUOUS
100
AcDbLine
 10
4.6721368897637792
 20
-1.9774674803149606
 30
0
 11
4.6830124015748034
 21
-1.9786928346456691
 31
0
  0
LINE
  5
233
330
1B
100
AcDbEntity
  8
Edge.Cuts
  6
CONTINUOUS
100
AcDbLine
 10
4.6830124015748034
 20
-1.9786928346456691
 30
0
 11
4.6939567322834641
 21
-1.9786928346456691
 31
0
  0
LINE
  5
234
330
1B
100
AcDbEntity
  8
Edge.Cuts
  6
CONTINUOUS
100
AcDbLine
 10
4.6939567322834641
 20
-1.9786928346456691
 30
0
 11
4.7048322440944883
 21
-1.9774674803149606
 31
0
  0
LINE
  5
235
330
1B
100
AcDbEntity
  8
Edge.Cuts
  6
CONTINUOUS
100
AcDbLine
 10
4.7048322440944883
 20
-1.9774674803149606
 30
0
 11
4.7155022047244097
 21
-1.9750321259842518
 31
0
  0
LINE
  5
236
330
1B
100
AcDbEntity
  8
Edge.Cuts
  6
CONTINUOUS
100
AcDbLine
 10
4.7155022047244097
 20
-1.9750321259842518
 30
0
 11
4.7258323622047245
 21
-1.9714174409448819
 31
0
  0
LINE
  5
237
330
1B
100
AcDbEntity
  8
Edge.Cuts
  6
CONTINUOUS
100
AcDbLine
 10
4.7258323622047245
 20
-1.9714174409448819
 30
0
 11
4.735692874015748
 21
-1.9666688582677165
 31
0
  0
LINE
  5
238
330
1B
100
AcDbEntity
  8
Edge.Cuts
  6
CONTINUOUS
100
AcDbLine
 10
4.735692874015748
 20
-1.9666688582677165
 30
0
 11
4.7449596850393698
 21
-1.9608461417322833
 31
0
  0
LINE
  5
239
330
1B
100
AcDbEntity
  8
Edge.Cuts
  6
CONTINUOUS
100
AcDbLine
 10
4.7449596850393698
 20
-1.9608461417322833
 30
0
 11
4.7535163385826769
 21
-1.9540224409448819
 31
0
  0
LINE
  5
23A
330
1B
100
AcDbEntity
  8
Edge.Cuts
  6
CONTINUOUS
100
AcDbLine
 10
4.7535163385826769
 20
-1.9540224409448819
 30
0
 11
4.7612551181102365
 21
-1.9462836614173229
 31
0
  0
LINE
  5
23B
330
1B
100
AcDbEntity
  8
Edge.Cuts
  6
CONTINUOUS
100
AcDbLine
 10
4.7612551181102365
 20
-1.9462836614173229
 30
0
 11
4.7680788188976377
 21
-1.9377270078740156
 31
0
  0
LINE
  5
23C
330
1B
100
AcDbEntity
  8
Edge.Cuts
  6
CONTINUOUS
100
AcDbLine
 10
4.7680788188976377
 20
-1.9377270078740156
 30
0
 11
4.7739015354330707
 21
-1.9284601968503936
 31
0
  0
LINE
  5
23D
330
1B
100
AcDbEntity
  8
Edge.Cuts
  6
CONTINUOUS
100
AcDbLine
 10
4.7739015354330707
 20
-1.9284601968503936
 30
0
 11
4.7786501181102361
 21
-1.9185996850393701
 31
0
  0
LINE
  5
23E
330
1B
100
AcDbEntity
  8
Edge.Cuts
  6
CONTINUOUS
100
AcDbLine
 10
4.7786501181102361
 20
-1.9185996850393701
 30
0
 11
4.782264803149606
 21
-1.9082695275590551
 31
0
  0
LINE
  5
23F
330
1B
100
AcDbEntity
  8
Edge.Cuts
  6
CONTINUOUS
100
AcDbLine
 10
4.782264803149606
 20
-1.9082695275590551
 30
0
 11
4.784700157480315
 21
-1.8975995669291339
 31
0
  0
LINE
  5
240
330
1B
100
AcDbEntity
  8
Edge.Cuts
  6
CONTINUOUS
100
AcDbLine
 10
4.784700157480315
 20
-1.8975995669291339
 30
0
 11
4.7859255118110235
 21
-1.8867240551181101
 31
0
  0
LINE
  5
241
330
1B
100
AcDbEntity
  8
Edge.Cuts
  6
CONTINUOUS
100
AcDbLine
 10
4.7859255118110235
 20
-1.8867240551181101
 30
0
 11
4.7859255118110235
 21
-1.8757797244094487
 31
0
  0
LINE
  5
242
330
1B
100
AcDbEntity
  8
Edge.Cuts
  6
CONTINUOUS
100
AcDbLine
 10
4.7859255118110235
 20
-1.8757797244094487
 30
0
 11
4.784700157480315
 21
-1.8649042125984252
 31
0
  0
LINE
  5
243
330
1B
100
AcDbEntity
  8
Edge.Cuts
  6
CONTINUOUS
100
AcDbLine
 10
4.784700157480315
 20
-1.8649042125984252
 30
0
 11
4.782264803149606
 21
-1.854234251968504
 31
0
  0
LINE
  5
244
330
1B
100
AcDbEntity
  8
Edge.Cuts
  6
CONTINUOUS
100
AcDbLine
 10
4.782264803149606
 20
-1.854234251968504
 30
0
 11
4.7786501181102361
 21
-1.843904094488189
 31
0
  0
LINE
  5
245
330
1B
100
AcDbEntity
  8
Edge.Cuts
  6
CONTINUOUS
100
AcDbLine
 10
4.7786501181102361
 20
-1.843904094488189
 30
0
 11
4.7739015354330707
 21
-1.8340435826771653
 31
0
  0
LINE
  5
246
330
1B
100
AcDbEntity
  8
Edge.Cuts
  6
CONTINUOUS
100
AcDbLine
 10
4.7739015354330707
 20
-1.8340435826771653
 30
0
 11
4.7680788188976377
 21
-1.8247767716535432
 31
0
  0
LINE
  5
247
330
1B
100
AcDbEntity
  8
Edge.Cuts
  6
CONTINUOUS
100
AcDbLine
 10
4.7680788188976377
 20
-1.8247767716535432
 30
0
 11
4.7612551181102365
 21
-1.8162201181102362
 31
0
  0
LINE
  5
248
330
1B
100
AcDbEntity
  8
Edge.Cuts
  6
CONTINUOUS
100
AcDbLine
 10
4.7612551181102365
 20
-1.8162201181102362
 30
0
 11
4.7535163385826769
 21
-1.8084813385826772
 31
0
  0
LINE
  5
249
330
1B
100
AcDbEntity
  8
Edge.Cuts
  6
CONTINUOUS
100
AcDbLine
 10
4.7535163385826769
 20
-1.8084813385826772
 30
0
 11
4.7449596850393698
 21
-1.8016576377952755
 31
0
  0
LINE
  5
24A
330
1B
100
AcDbEntity
  8
Edge.Cuts
  6
CONTINUOUS
100
AcDbLine
 10
4.7449596850393698
 20
-1.8016576377952755
 30
0
 11
4.735692874015748
 21
-1.7958349212598426
 31
0
  0
LINE
  5
24B
330
1B
100
AcDbEntity
  8
Edge.Cuts
  6
CONTINUOUS
100
AcDbLine
 10
4.735692874015748
 20
-1.7958349212598426
 30
0
 11
4.7258323622047245
 21
-1.7910863385826772
 31
0
  0
LINE
  5
24C
330
1B
100
AcDbEntity
  8
Edge.Cuts
  6
CONTINUOUS
100
AcDbLine
 10
4.7258323622047245
 20
-1.7910863385826772
 30
0
 11
4.7155022047244097
 21
-1.7874716535433071
 31
0
  0
LINE
  5
24D
330
1B
100
AcDbEntity
  8
Edge.Cuts
  6
CONTINUOUS
100
AcDbLine
 10
4.7155022047244097
 20
-1.7874716535433071
 30
0
 11
4.7048322440944883
 21
-1.7850362992125983
 31
0
  0
LINE
  5
24E
330
1B
100
AcDbEntity
  8
Edge.Cuts
  6
CONTINUOUS
100
AcDbLine
 10
4.7048322440944883
 20
-1.7850362992125983
 30
0
 11
4.6939567322834641
 21
-1.7838109448818897
 31
0
  0
LINE
  5
24F
330
1B
100
AcDbEntity
  8
Edge.Cuts
  6
CONTINUOUS
100
AcDbLine
 10
4.6939567322834641
 20
-1.7838109448818897
 30
0
 11
4.6830124015748034
 21
-1.7838109448818897
 31
0
  0
LINE
  5
250
330
1B
100
AcDbEntity
  8
Edge.Cuts
  6
CONTINUOUS
100
AcDbLine
 10
4.6830124015748034
 20
-1.7838109448818897
 30
0
 11
4.6721368897637792
 21
-1.7850362992125983
 31
0
  0
LINE
  5
251
330
1B
100
AcDbEntity
  8
Edge.Cuts
  6
CONTINUOUS
100
AcDbLine
 10
4.6721368897637792
 20
-1.7850362992125983
 30
0
 11
4.6614669291338577
 21
-1.7874716535433071
 31
0
  0
LINE
  5
252
330
1B
100
AcDbEntity
  8
Edge.Cuts
  6
CONTINUOUS
100
AcDbLine
 10
4.6614669291338577
 20
-1.7874716535433071
 30
0
 11
4.651136771653543
 21
-1.7910863385826772
 31
0
  0
LINE
  5
253
330
1B
100
AcDbEntity
  8
Edge.Cuts
  6
CONTINUOUS
100
AcDbLine
 10
4.651136771653543
 20
-1.7910863385826772
 30
0
 11
4.6412762598425195
 21
-1.7958349212598426
 31
0
  0
LINE
  5
254
330
1B
100
AcDbEntity
  8
Edge.Cuts
  6
CONTINUOUS
100
AcDbLine
 10
4.6412762598425195
 20
-1.7958349212598426
 30
0
 11
4.6320094488188976
 21
-1.8016576377952755
 31
0
  0
LINE
  5
255
330
1B
100
AcDbEntity
  8
Edge.Cuts
  6
CONTINUOUS
100
AcDbLine
 10
4.6320094488188976
 20
-1.8016576377952755
 30
0
 11
4.6234527952755906
 21
-1.8084813385826772
 31
0
  0
LINE
  5
256
330
1B
100
AcDbEntity
  8
Edge.Cuts
  6
CONTINUOUS
100
AcDbLine
 10
4.6234527952755906
 20
-1.8084813385826772
 30
0
 11
4.615714015748031
 21
-1.8162201181102362
 31
0
  0
LINE
  5
257
330
1B
100
AcDbEntity
  8
Edge.Cuts
  6
CONTINUOUS
100
AcDbLine
 10
4.615714015748031
 20
-1.8162201181102362
 30
0
 11
4.6088903149606297
 21
-1.8247767716535432
 31
0
  0
LINE
  5
258
330
1B
100
AcDbEntity
  8
Edge.Cuts
  6
CONTINUOUS
100
AcDbLine
 10
4.6088903149606297
 20
-1.8247767716535432
 30
0
 11
4.6030675984251967
 21
-1.8340435826771653
 31
0
  0
LINE
  5
259
330
1B
100
AcDbEntity
  8
Edge.Cuts
  6
CONTINUOUS
100
AcDbLine
 10
4.6030675984251967
 20
-1.8340435826771653
 30
0
 11
4.5983190157480314
 21
-1.843904094488189
 31
0
  0
LINE
  5
25A
330
1B
100
AcDbEntity
  8
Edge.Cuts
  6
CONTINUOUS
100
AcDbLine
 10
4.5983190157480314
 20
-1.843904094488189
 30
0
 11
4.5947043307086615
 21
-1.854234251968504
 31
0
  0
LINE
  5
25B
330
1B
100
AcDbEntity
  8
Edge.Cuts
  6
CONTINUOUS
100
AcDbLine
 10
4.5947043307086615
 20
-1.854234251968504
 30
0
 11
4.5922689763779525
 21
-1.8649042125984252
 31
0
  0
LINE
  5
25C
330
1B
100
AcDbEntity
  8
Edge.Cuts
  6
CONTINUOUS
100
AcDbLine
 10
4.5922689763779525
 20
-1.8649042125984252
 30
0
 11
4.5910436220472439
 21
-1.8757797244094487
 31
0
  0
LINE
  5
25D
330
1B
100
AcDbEntity
  8
Edge.Cuts
  6
CONTINUOUS
100
AcDbLine
 10
4.5910436220472439
 20
-1.8757797244094487
 30
0
 11
4.5910436220472439
 21
-1.8867240551181101
 31
0
  0
LINE
  5
25E
330
1B
100
AcDbEntity
  8
Edge.Cuts
  6
CONTINUOUS
100
AcDbLine
 10
7.2035016535433067
 20
-0.8367137007874016
 30
0
 11
7.2040343307086614
 21
-0.8372463779527559
 31
0
  0
LINE
  5
25F
330
1B
100
AcDbEntity
  8
Edge.Cuts
  6
CONTINUOUS
100
AcDbLine
 10
7.2040343307086614
 20
-0.8372463779527559
 30
0
 11
7.2041092519685037
 21
-0.837623031496063
 31
0
  0
LINE
  5
260
330
1B
100
AcDbEntity
  8
Edge.Cuts
  6
CONTINUOUS
100
AcDbLine
 10
7.2041092519685037
 20
-0.837623031496063
 30
0
 11
7.2041092519685037
 21
-4.4001230314960633
 31
0
  0
LINE
  5
261
330
1B
100
AcDbEntity
  8
Edge.Cuts
  6
CONTINUOUS
100
AcDbLine
 10
7.2041092519685037
 20
-4.4001230314960633
 30
0
 11
7.2040924015748029
 21
-4.400207677165354
 31
0
  0
LINE
  5
262
330
1B
100
AcDbEntity
  8
Edge.Cuts
  6
CONTINUOUS
100
AcDbLine
 10
7.2040924015748029
 20
-4.400207677165354
 30
0
 11
7.2040942913385821
 21
-4.400294015748031
 31
0
  0
LINE
  5
263
330
1B
100
AcDbEntity
  8
Edge.Cuts
  6
CONTINUOUS
100
AcDbLine
 10
7.2040942913385821
 20
-4.400294015748031
 30
0
 11
7.06641311023622
 21
-5.1808141338582674
 31
0
  0
LINE
  5
264
330
1B
100
AcDbEntity
  8
Edge.Cuts
  6
CONTINUOUS
100
AcDbLine
 10
7.06641311023622
 20
-5.1808141338582674
 30
0
 11
7.066273897637795
 21
-5.1811720472440941
 31
0
  0
LINE
  5
265
330
1B
100
AcDbEntity
  8
Edge.Cuts
  6
CONTINUOUS
100
AcDbLine
 10
7.066273897637795
 20
-5.1811720472440941
 30
0
 11
7.0658437007874015
 21
-5.1814732283464568
 31
0
  0
LINE
  5
266
330
1B
100
AcDbEntity
  8
Edge.Cuts
  6
CONTINUOUS
100
AcDbLine
 10
7.0658437007874015
 20
-5.1814732283464568
 30
0
 11
7.0656568503937009
 21
-5.1816040551181102
 31
0
  0
LINE
  5
267
330
1B
100
AcDbEntity
  8
Edge.Cuts
  6
CONTINUOUS
100
AcDbLine
 10
7.0656568503937009
 20
-5.1816040551181102
 30
0
 11
7.0656568110236222
 21
-5.1816040551181102
 31
0
  0
LINE
  5
268
330
1B
100
AcDbEntity
  8
Edge.Cuts
  6
CONTINUOUS
100
AcDbLine
 10
7.0656568110236222
 20
-5.1816040551181102
 30
0
 11
7.0656567716535434
 21
-5.1816040944881889
 31
0
  0
LINE
  5
269
330
1B
100
AcDbEntity
  8
Edge.Cuts
  6
CONTINUOUS
100
AcDbLine
 10
7.0656567716535434
 20
-5.1816040944881889
 30
0
 11
7.0656565748031497
 21
-5.1816040551181102
 31
0
  0
LINE
  5
26A
330
1B
100
AcDbEntity
  8
Edge.Cuts
  6
CONTINUOUS
100
AcDbLine
 10
7.0656565748031497
 20
-5.1816040551181102
 30
0
 11
7.0652729133858267
 21
-5.1816124409448818
 31
0
  0
LINE
  5
26B
330
1B
100
AcDbEntity
  8
Edge.Cuts
  6
CONTINUOUS
100
AcDbLine
 10
7.0652729133858267
 20
-5.1816124409448818
 30
0
 11
4.7655389370078742
 21
-4.776107283464567
 31
0
  0
LINE
  5
26C
330
1B
100
AcDbEntity
  8
Edge.Cuts
  6
CONTINUOUS
100
AcDbLine
 10
4.7655389370078742
 20
-4.776107283464567
 30
0
 11
3.171875
 21
-4.776107283464567
 31
0
  0
LINE
  5
26D
330
1B
100
AcDbEntity
  8
Edge.Cuts
  6
CONTINUOUS
100
AcDbLine
 10
3.171875
 20
-4.776107283464567
 30
0
 11
3.1714983464566928
 21
-4.7760323622047247
 31
0
  0
LINE
  5
26E
330
1B
100
AcDbEntity
  8
Edge.Cuts
  6
CONTINUOUS
100
AcDbLine
 10
3.1714983464566928
 20
-4.7760323622047247
 30
0
 11
3.1709656692913386
 21
-4.7754996850393701
 31
0
  0
LINE
  5
26F
330
1B
100
AcDbEntity
  8
Edge.Cuts
  6
CONTINUOUS
100
AcDbLine
 10
3.1709656692913386
 20
-4.7754996850393701
 30
0
 11
3.1708907480314958
 21
-4.7751230314960633
 31
0
  0
LINE
  5
270
330
1B
100
AcDbEntity
  8
Edge.Cuts
  6
CONTINUOUS
100
AcDbLine
 10
3.1708907480314958
 20
-4.7751230314960633
 30
0
 11
3.1708907480314958
 21
-4.307357283464567
 31
0
  0
LINE
  5
271
330
1B
100
AcDbEntity
  8
Edge.Cuts
  6
CONTINUOUS
100
AcDbLine
 10
3.1708907480314958
 20
-4.307357283464567
 30
0
 11
0.921875
 21
-4.307357283464567
 31
0
  0
LINE
  5
272
330
1B
100
AcDbEntity
  8
Edge.Cuts
  6
CONTINUOUS
100
AcDbLine
 10
0.921875
 20
-4.307357283464567
 30
0
 11
0.9214983464566929
 21
-4.3072823622047247
 31
0
  0
LINE
  5
273
330
1B
100
AcDbEntity
  8
Edge.Cuts
  6
CONTINUOUS
100
AcDbLine
 10
0.9214983464566929
 20
-4.3072823622047247
 30
0
 11
0.9209656692913386
 21
-4.3067496850393701
 31
0
  0
LINE
  5
274
330
1B
100
AcDbEntity
  8
Edge.Cuts
  6
CONTINUOUS
100
AcDbLine
 10
0.9209656692913386
 20
-4.3067496850393701
 30
0
 11
0.9208907480314961
 21
-4.3063730314960633
 31
0
  0
LINE
  5
275
330
1B
100
AcDbEntity
  8
Edge.Cuts
  6
CONTINUOUS
100
AcDbLine
 10
0.9208907480314961
 20
-4.3063730314960633
 30
0
 11
0.9208907480314961
 21
-1.2594980314960629
 31
0
  0
LINE
  5
276
330
1B
100
AcDbEntity
  8
Edge.Cuts
  6
CONTINUOUS
100
AcDbLine
 10
0.9208907480314961
 20
-1.2594980314960629
 30
0
 11
0.9209293700787401
 21
-1.2593037007874015
 31
0
  0
LINE
  5
277
330
1B
100
AcDbEntity
  8
Edge.Cuts
  6
CONTINUOUS
100
AcDbLine
 10
0.9209293700787401
 20
-1.2593037007874015
 30
0
 11
0.9209220866141732
 21
-1.2592516929133859
 31
0
  0
LINE
  5
278
330
1B
100
AcDbEntity
  8
Edge.Cuts
  6
CONTINUOUS
100
AcDbLine
 10
0.9209220866141732
 20
-1.2592516929133859
 30
0
 11
0.920946062992126
 21
-1.2592198031496062
 31
0
  0
LINE
  5
279
330
1B
100
AcDbEntity
  8
Edge.Cuts
  6
CONTINUOUS
100
AcDbLine
 10
0.920946062992126
 20
-1.2592198031496062
 30
0
 11
0.9209656692913386
 21
-1.2591213779527559
 31
0
  0
LINE
  5
27A
330
1B
100
AcDbEntity
  8
Edge.Cuts
  6
CONTINUOUS
100
AcDbLine
 10
0.9209656692913386
 20
-1.2591213779527559
 30
0
 11
0.9211870078740158
 21
-1.2588999999999999
 31
0
  0
LINE
  5
27B
330
1B
100
AcDbEntity
  8
Edge.Cuts
  6
CONTINUOUS
100
AcDbLine
 10
0.9211870078740158
 20
-1.2588999999999999
 30
0
 11
0.9213753937007874
 21
-1.25865
 31
0
  0
LINE
  5
27C
330
1B
100
AcDbEntity
  8
Edge.Cuts
  6
CONTINUOUS
100
AcDbLine
 10
0.9213753937007874
 20
-1.25865
 30
0
 11
0.9214701181102362
 21
-1.2586168897637795
 31
0
  0
LINE
  5
27D
330
1B
100
AcDbEntity
  8
Edge.Cuts
  6
CONTINUOUS
100
AcDbLine
 10
0.9214701181102362
 20
-1.2586168897637795
 30
0
 11
0.9214983464566929
 21
-1.2585887007874015
 31
0
  0
LINE
  5
27E
330
1B
100
AcDbEntity
  8
Edge.Cuts
  6
CONTINUOUS
100
AcDbLine
 10
0.9214983464566929
 20
-1.2585887007874015
 30
0
 11
0.921550905511811
 21
-1.2585887007874015
 31
0
  0
LINE
  5
27F
330
1B
100
AcDbEntity
  8
Edge.Cuts
  6
CONTINUOUS
100
AcDbLine
 10
0.921550905511811
 20
-1.2585887007874015
 30
0
 11
0.9217379527559055
 21
-1.2585233858267717
 31
0
  0
LINE
  5
280
330
1B
100
AcDbEntity
  8
Edge.Cuts
  6
CONTINUOUS
100
AcDbLine
 10
0.9217379527559055
 20
-1.2585233858267717
 30
0
 11
3.9217379527559055
 21
-0.8366483858267716
 31
0
  0
LINE
  5
281
330
1B
100
AcDbEntity
  8
Edge.Cuts
  6
CONTINUOUS
100
AcDbLine
 10
3.9217379527559055
 20
-0.8366483858267716
 30
0
 11
3.9218070078740155
 21
-0.8366522834645669
 31
0
  0
LINE
  5
282
330
1B
100
AcDbEntity
  8
Edge.Cuts
  6
CONTINUOUS
100
AcDbLine
 10
3.9218070078740155
 20
-0.8366522834645669
 30
0
 11
3.921875
 21
-0.8366387795275591
 31
0
  0
LINE
  5
283
330
1B
100
AcDbEntity
  8
Edge.Cuts
  6
CONTINUOUS
100
AcDbLine
 10
3.921875
 20
-0.8366387795275591
 30
0
 11
7.203125
 21
-0.8366387795275591
 31
0
  0
LINE
  5
284
330
1B
100
AcDbEntity
  8
Edge.Cuts
  6
CONTINUOUS
100
AcDbLine
 10
7.203125
 20
-0.8366387795275591
 30
0
 11
7.2035016535433067
 21
-0.8367137007874016
 31
0
  0
LINE
  5
285
330
1B
100
AcDbEntity
  8
Edge.Cuts
  6
CONTINUOUS
100
AcDbLine
 10
3.9219437795275591
 20
-0.8386072834645669
 30
0
 11
0.9228592519685039
 21
-1.2603535039370077
 31
0
  0
LINE
  5
286
330
1B
100
AcDbEntity
  8
Edge.Cuts
  6
CONTINUOUS
100
AcDbLine
 10
0.9228592519685039
 20
-1.2603535039370077
 30
0
 11
0.9228592519685039
 21
-4.3053887795275587
 31
0
  0
LINE
  5
287
330
1B
100
AcDbEntity
  8
Edge.Cuts
  6
CONTINUOUS
100
AcDbLine
 10
0.9228592519685039
 20
-4.3053887795275587
 30
0
 11
3.171875
 21
-4.3053887795275587
 31
0
  0
LINE
  5
288
330
1B
100
AcDbEntity
  8
Edge.Cuts
  6
CONTINUOUS
100
AcDbLine
 10
3.171875
 20
-4.3053887795275587
 30
0
 11
3.1722516535433072
 21
-4.305463700787401
 31
0
  0
LINE
  5
289
330
1B
100
AcDbEntity
  8
Edge.Cuts
  6
CONTINUOUS
100
AcDbLine
 10
3.1722516535433072
 20
-4.305463700787401
 30
0
 11
3.1727843307086614
 21
-4.3059963779527557
 31
0
  0
LINE
  5
28A
330
1B
100
AcDbEntity
  8
Edge.Cuts
  6
CONTINUOUS
100
AcDbLine
 10
3.1727843307086614
 20
-4.3059963779527557
 30
0
 11
3.1728592519685037
 21
-4.3063730314960633
 31
0
  0
LINE
  5
28B
330
1B
100
AcDbEntity
  8
Edge.Cuts
  6
CONTINUOUS
100
AcDbLine
 10
3.1728592519685037
 20
-4.3063730314960633
 30
0
 11
3.1728592519685037
 21
-4.7741387795275587
 31
0
  0
LINE
  5
28C
330
1B
100
AcDbEntity
  8
Edge.Cuts
  6
CONTINUOUS
100
AcDbLine
 10
3.1728592519685037
 20
-4.7741387795275587
 30
0
 11
4.765625
 21
-4.7741387795275587
 31
0
  0
LINE
  5
28D
330
1B
100
AcDbEntity
  8
Edge.Cuts
  6
CONTINUOUS
100
AcDbLine
 10
4.765625
 20
-4.7741387795275587
 30
0
 11
4.7657096456692916
 21
-4.7741555905511808
 31
0
  0
LINE
  5
28E
330
1B
100
AcDbEntity
  8
Edge.Cuts
  6
CONTINUOUS
100
AcDbLine
 10
4.7657096456692916
 20
-4.7741555905511808
 30
0
 11
4.7657959055118111
 21
-4.7741537401574803
 31
0
  0
LINE
  5
28F
330
1B
100
AcDbEntity
  8
Edge.Cuts
  6
CONTINUOUS
100
AcDbLine
 10
4.7657959055118111
 20
-4.7741537401574803
 30
0
 11
7.0646454724409447
 21
-5.1795029527559056
 31
0
  0
LINE
  5
290
330
1B
100
AcDbEntity
  8
Edge.Cuts
  6
CONTINUOUS
100
AcDbLine
 10
7.0646454724409447
 20
-5.1795029527559056
 30
0
 11
7.2021407480314963
 21
-4.4000368503937004
 31
0
  0
LINE
  5
291
330
1B
100
AcDbEntity
  8
Edge.Cuts
  6
CONTINUOUS
100
AcDbLine
 10
7.2021407480314963
 20
-4.4000368503937004
 30
0
 11
7.2021407480314963
 21
-0.8386072834645669
 31
0
  0
LINE
  5
292
330
1B
100
AcDbEntity
  8
Edge.Cuts
  6
CONTINUOUS
100
AcDbLine
 10
7.2021407480314963
 20
-0.8386072834645669
 30
0
 11
3.9219437795275591
 21
-0.8386072834645669
 31
0
  0
CIRCLE
  5
293
330
1B
100
AcDbEntity
  8
Edge.Cuts
100
AcDbCircle
 10
4.8634842519685035
 20
-2.8656250000000001
 30
0
 40
0.0344488188976378
  0
CIRCLE
  5
294
330
1B
100
AcDbEntity
  8
Edge.Cuts
100
AcDbCircle
 10
5.0634842519685037
 20
-2.8656250000000001
 30
0
 40
0.078740157480315
  0
CIRCLE
  5
295
330
1B
100
AcDbEntity
  8
Edge.Cuts
100
AcDbCircle
 10
5.2634842519685039
 20
-2.8656250000000001
 30
0
 40
0.0344488188976378
  0
CIRCLE
  5
296
330
1B
100
AcDbEntity
  8
Edge.Cuts
100
AcDbCircle
 10
4.9134842519685042
 20
-2.765625
 30
0
 40
0.0295275590551181
  0
CIRCLE
  5
297
330
1B
100
AcDbEntity
  8
Edge.Cuts
100
AcDbCircle
 10
5.1634842519685042
 20
-2.6656249999999999
 30
0
 40
0.0295275590551181
  0
CIRCLE
  5
298
330
1B
100
AcDbEntity
  8
Edge.Cuts
100
AcDbCircle
 10
2.613484251968504
 20
-3.1000000000000001
 30
0
 40
0.0344488188976378
  0
CIRCLE
  5
299
330
1B
100
AcDbEntity
  8
Edge.Cuts
100
AcDbCircle
 10
2.8134842519685037
 20
-3.1000000000000001
 30
0
 40
0.078740157480315
  0
CIRCLE
  5
29A
330
1B
100
AcDbEntity
  8
Edge.Cuts
100
AcDbCircle
 10
3.0134842519685039
 20
-3.1000000000000001
 30
0
 40
0.0344488188976378
  0
CIRCLE
  5
29B
330
1B
100
AcDbEntity
  8
Edge.Cuts
100
AcDbCircle
 10
2.6634842519685038
 20
-3.
 30
0
 40
0.0295275590551181
  0
CIRCLE
  5
29C
330
1B
100
AcDbEntity
  8
Edge.Cuts
100
AcDbCircle
 10
2.9134842519685038
 20
-2.8999999999999999
 30
0
 40
0.0295275590551181
  0
CIRCLE
  5
29D
330
1B
100
AcDbEntity
  8
Edge.Cuts
100
AcDbCircle
 10
5.6134842519685035
 20
-2.2093750000000001
 30
0
 40
0.0344488188976378
  0
CIRCLE
  5
29E
330
1B
100
AcDbEntity
  8
Edge.Cuts
100
AcDbCircle
 10
5.8134842519685037
 20
-2.2093750000000001
 30
0
 40
0.078740157480315
  0
CIRCLE
  5
29F
330
1B
100
AcDbEntity
  8
Edge.Cuts
100
AcDbCircle
 10
6.0134842519685039
 20
-2.2093750000000001
 30
0
 40
0.0344488188976378
  0
CIRCLE
  5
2A0
330
1B
100
AcDbEntity
  8
Edge.Cuts
100
AcDbCircle
 10
5.6634842519685042
 20
-2.109375
 30
0
 40
0.0295275590551181
  0
CIRCLE
  5
2A1
330
1B
100
AcDbEntity
  8
Edge.Cuts
100
AcDbCircle
 10
5.9134842519685042
 20
-2.0093749999999999
 30
0
 40
0.0295275590551181
  0
CIRCLE
  5
2A2
330
1B
100
AcDbEntity
  8
Edge.Cuts
100
AcDbCircle
 10
4.8634842519685035
 20
-3.6156250000000001
 30
0
 40
0.0344488188976378
  0
CIRCLE
  5
2A3
330
1B
100
AcDbEntity
  8
Edge.Cuts
100
AcDbCircle
 10
5.0634842519685037
 20
-3.6156250000000001
 30
0
 40
0.078740157480315
  0
CIRCLE
  5
2A4
330
1B
100
AcDbEntity
  8
Edge.Cuts
100
AcDbCircle
 10
5.2634842519685039
 20
-3.6156250000000001
 30
0
 40
0.0344488188976378
  0
CIRCLE
  5
2A5
330
1B
100
AcDbEntity
  8
Edge.Cuts
100
AcDbCircle
 10
4.9134842519685042
 20
-3.515625
 30
0
 40
0.0295275590551181
  0
CIRCLE
  5
2A6
330
1B
100
AcDbEntity
  8
Edge.Cuts
100
AcDbCircle
 10
5.1634842519685042
 20
-3.4156249999999999
 30
0
 40
0.0295275590551181
  0
CIRCLE
  5
2A7
330
1B
100
AcDbEntity
  8
Edge.Cuts
100
AcDbCircle
 10
4.1134842519685035
 20
-3.4750000000000001
 30
0
 40
0.0344488188976378
  0
CIRCLE
  5
2A8
330
1B
100
AcDbEntity
  8
Edge.Cuts
100
AcDbCircle
 10
4.3134842519685037
 20
-3.4750000000000001
 30
0
 40
0.078740157480315
  0
CIRCLE
  5
2A9
330
1B
100
AcDbEntity
  8
Edge.Cuts
100
AcDbCircle
 10
4.5134842519685039
 20
-3.4750000000000001
 30
0
 40
0.0344488188976378
  0
CIRCLE
  5
2AA
330
1B
100
AcDbEntity
  8
Edge.Cuts
100
AcDbCircle
 10
4.1634842519685042
 20
-3.375
 30
0
 40
0.0295275590551181
  0
CIRCLE
  5
2AB
330
1B
100
AcDbEntity
  8
Edge.Cuts
100
AcDbCircle
 10
4.4134842519685042
 20
-3.2749999999999999
 30
0
 40
0.0295275590551181
  0
CIRCLE
  5
2AC
330
1B
100
AcDbEntity
  8
Edge.Cuts
100
AcDbCircle
 10
4.9905384645669288
 20
-4.4122683858267715
 30
0
 40
0.0344488188976378
  0
CIRCLE
  5
2AD
330
1B
100
AcDbEntity
  8
Edge.Cuts
100
AcDbCircle
 10
5.1875
 20
-4.4469980314960633
 30
0
 40
0.078740157480315
  0
CIRCLE
  5
2AE
330
1B
100
AcDbEntity
  8
Edge.Cuts
100
AcDbCircle
 10
5.3844615354330712
 20
-4.4817276771653543
 30
0
 40
0.0344488188976378
  0
CIRCLE
  5
2AF
330
1B
100
AcDbEntity
  8
Edge.Cuts
100
AcDbCircle
 10
5.0571436220472439
 20
-4.32247
 30
0
 40
0.0295275590551181
  0
CIRCLE
  5
2B0
330
1B
100
AcDbEntity
  8
Edge.Cuts
100
AcDbCircle
 10
5.3207104330708663
 20
-4.2674012992125983
 30
0
 40
0.0295275590551181
  0
CIRCLE
  5
2B1
330
1B
100
AcDbEntity
  8
Edge.Cuts
100
AcDbCircle
 10
1.863484251968504
 20
-2.3968750000000001
 30
0
 40
0.0344488188976378
  0
CIRCLE
  5
2B2
330
1B
100
AcDbEntity
  8
Edge.Cuts
100
AcDbCircle
 10
2.0634842519685037
 20
-2.3968750000000001
 30
0
 40
0.078740157480315
  0
CIRCLE
  5
2B3
330
1B
100
AcDbEntity
  8
Edge.Cuts
100
AcDbCircle
 10
2.2634842519685039
 20
-2.3968750000000001
 30
0
 40
0.0344488188976378
  0
CIRCLE
  5
2B4
330
1B
100
AcDbEntity
  8
Edge.Cuts
100
AcDbCircle
 10
1.9134842519685038
 20
-2.296875
 30
0
 40
0.0295275590551181
  0
CIRCLE
  5
2B5
330
1B
100
AcDbEntity
  8
Edge.Cuts
100
AcDbCircle
 10
2.1634842519685038
 20
-2.1968749999999999
 30
0
 40
0.0295275590551181
  0
CIRCLE
  5
2B6
330
1B
100
AcDbEntity
  8
Edge.Cuts
100
AcDbCircle
 10
1.113484251968504
 20
-2.3968750000000001
 30
0
 40
0.0344488188976378
  0
CIRCLE
  5
2B7
330
1B
100
AcDbEntity
  8
Edge.Cuts
100
AcDbCircle
 10
1.3134842519685039
 20
-2.3968750000000001
 30
0
 40
0.078740157480315
  0
CIRCLE
  5
2B8
330
1B
100
AcDbEntity
  8
Edge.Cuts
100
AcDbCircle
 10
1.5134842519685039
 20
-2.3968750000000001
 30
0
 40
0.0344488188976378
  0
CIRCLE
  5
2B9
330
1B
100
AcDbEntity
  8
Edge.Cuts
100
AcDbCircle
 10
1.1634842519685038
 20
-2.296875
 30
0
 40
0.0295275590551181
  0
CIRCLE
  5
2BA
330
1B
100
AcDbEntity
  8
Edge.Cuts
100
AcDbCircle
 10
1.4134842519685038
 20
-2.1968749999999999
 30
0
 40
0.0295275590551181
  0
CIRCLE
  5
2BB
330
1B
100
AcDbEntity
  8
Edge.Cuts
100
AcDbCircle
 10
5.6134842519685035
 20
-3.7093750000000001
 30
0
 40
0.0344488188976378
  0
CIRCLE
  5
2BC
330
1B
100
AcDbEntity
  8
Edge.Cuts
100
AcDbCircle
 10
5.8134842519685037
 20
-3.7093750000000001
 30
0
 40
0.078740157480315
  0
CIRCLE
  5
2BD
330
1B
100
AcDbEntity
  8
Edge.Cuts
100
AcDbCircle
 10
6.0134842519685039
 20
-3.7093750000000001
 30
0
 40
0.0344488188976378
  0
CIRCLE
  5
2BE
330
1B
100
AcDbEntity
  8
Edge.Cuts
100
AcDbCircle
 10
5.6634842519685042
 20
-3.609375
 30
0
 40
0.0295275590551181
  0
CIRCLE
  5
2BF
330
1B
100
AcDbEntity
  8
Edge.Cuts
100
AcDbCircle
 10
5.9134842519685042
 20
-3.5093749999999999
 30
0
 40
0.0295275590551181
  0
CIRCLE
  5
2C0
330
1B
100
AcDbEntity
  8
Edge.Cuts
100
AcDbCircle
 10
2.613484251968504
 20
-2.3500000000000001
 30
0
 40
0.0344488188976378
  0
CIRCLE
  5
2C1
330
1B
100
AcDbEntity
  8
Edge.Cuts
100
AcDbCircle
 10
2.8134842519685037
 20
-2.3500000000000001
 30
0
 40
0.078740157480315
  0
CIRCLE
  5
2C2
330
1B
100
AcDbEntity
  8
Edge.Cuts
100
AcDbCircle
 10
3.0134842519685039
 20
-2.3500000000000001
 30
0
 40
0.0344488188976378
  0
CIRCLE
  5
2C3
330
1B
100
AcDbEntity
  8
Edge.Cuts
100
AcDbCircle
 10
2.6634842519685038
 20
-2.25
 30
0
 40
0.0295275590551181
  0
CIRCLE
  5
2C4
330
1B
100
AcDbEntity
  8
Edge.Cuts
100
AcDbCircle
 10
2.9134842519685038
 20
-2.1499999999999999
 30
0
 40
0.0295275590551181
  0
CIRCLE
  5
2C5
330
1B
100
AcDbEntity
  8
Edge.Cuts
100
AcDbCircle
 10
2.613484251968504
 20
-1.5999999999999999
 30
0
 40
0.0344488188976378
  0
CIRCLE
  5
2C6
330
1B
100
AcDbEntity
  8
Edge.Cuts
100
AcDbCircle
 10
2.8134842519685037
 20
-1.5999999999999999
 30
0
 40
0.078740157480315
  0
CIRCLE
  5
2C7
330
1B
100
AcDbEntity
  8
Edge.Cuts
100
AcDbCircle
 10
3.0134842519685039
 20
-1.5999999999999999
 30
0
 40
0.0344488188976378
  0
CIRCLE
  5
2C8
330
1B
100
AcDbEntity
  8
Edge.Cuts
100
AcDbCircle
 10
2.6634842519685038
 20
-1.5
 30
0
 40
0.0295275590551181
  0
CIRCLE
  5
2C9
330
1B
100
AcDbEntity
  8
Edge.Cuts
100
AcDbCircle
 10
2.9134842519685038
 20
-1.3999999999999999
 30
0
 40
0.0295275590551181
  0
CIRCLE
  5
2CA
330
1B
100
AcDbEntity
  8
Edge.Cuts
100
AcDbCircle
 10
2.613484251968504
 20
-3.8500000000000001
 30
0
 40
0.0344488188976378
  0
CIRCLE
  5
2CB
330
1B
100
AcDbEntity
  8
Edge.Cuts
100
AcDbCircle
 10
2.8134842519685037
 20
-3.8500000000000001
 30
0
 40
0.078740157480315
  0
CIRCLE
  5
2CC
330
1B
100
AcDbEntity
  8
Edge.Cuts
100
AcDbCircle
 10
3.0134842519685039
 20
-3.8500000000000001
 30
0
 40
0.0344488188976378
  0
CIRCLE
  5
2CD
330
1B
100
AcDbEntity
  8
Edge.Cuts
100
AcDbCircle
 10
2.6634842519685038
 20
-3.75
 30
0
 40
0.0295275590551181
  0
CIRCLE
  5
2CE
330
1B
100
AcDbEntity
  8
Edge.Cuts
100
AcDbCircle
 10
2.9134842519685038
 20
-3.6499999999999999
 30
0
 40
0.0295275590551181
  0
CIRCLE
  5
2CF
330
1B
100
AcDbEntity
  8
Edge.Cuts
100
AcDbCircle
 10
3.363484251968504
 20
-1.3656249999999999
 30
0
 40
0.0344488188976378
  0
CIRCLE
  5
2D0
330
1B
100
AcDbEntity
  8
Edge.Cuts
100
AcDbCircle
 10
3.5634842519685037
 20
-1.3656249999999999
 30
0
 40
0.078740157480315
  0
CIRCLE
  5
2D1
330
1B
100
AcDbEntity
  8
Edge.Cuts
100
AcDbCircle
 10
3.7634842519685039
 20
-1.3656249999999999
 30
0
 40
0.0344488188976378
  0
CIRCLE
  5
2D2
330
1B
100
AcDbEntity
  8
Edge.Cuts
100
AcDbCircle
 10
3.4134842519685038
 20
-1.265625
 30
0
 40
0.0295275590551181
  0
CIRCLE
  5
2D3
330
1B
100
AcDbEntity
  8
Edge.Cuts
100
AcDbCircle
 10
3.6634842519685038
 20
-1.1656249999999999
 30
0
 40
0.0295275590551181
  0
CIRCLE
  5
2D4
330
1B
100
AcDbEntity
  8
Edge.Cuts
100
AcDbCircle
 10
5.6134842519685035
 20
-2.9593750000000001
 30
0
 40
0.0344488188976378
  0
CIRCLE
  5
2D5
330
1B
100
AcDbEntity
  8
Edge.Cuts
100
AcDbCircle
 10
5.8134842519685037
 20
-2.9593750000000001
 30
0
 40
0.078740157480315
  0
CIRCLE
  5
2D6
330
1B
100
AcDbEntity
  8
Edge.Cuts
100
AcDbCircle
 10
6.0134842519685039
 20
-2.9593750000000001
 30
0
 40
0.0344488188976378
  0
CIRCLE
  5
2D7
330
1B
100
AcDbEntity
  8
Edge.Cuts
100
AcDbCircle
 10
5.6634842519685042
 20
-2.859375
 30
0
 40
0.0295275590551181
  0
CIRCLE
  5
2D8
330
1B
100
AcDbEntity
  8
Edge.Cuts
100
AcDbCircle
 10
5.9134842519685042
 20
-2.7593749999999999
 30
0
 40
0.0295275590551181
  0
CIRCLE
  5
2D9
330
1B
100
AcDbEntity
  8
Edge.Cuts
100
AcDbCircle
 10
4.8634842519685035
 20
-2.1156250000000001
 30
0
 40
0.0344488188976378
  0
CIRCLE
  5
2DA
330
1B
100
AcDbEntity
  8
Edge.Cuts
100
AcDbCircle
 10
5.0634842519685037
 20
-2.1156250000000001
 30
0
 40
0.078740157480315
  0
CIRCLE
  5
2DB
330
1B
100
AcDbEntity
  8
Edge.Cuts
100
AcDbCircle
 10
5.2634842519685039
 20
-2.1156250000000001
 30
0
 40
0.0344488188976378
  0
CIRCLE
  5
2DC
330
1B
100
AcDbEntity
  8
Edge.Cuts
100
AcDbCircle
 10
4.9134842519685042
 20
-2.015625
 30
0
 40
0.0295275590551181
  0
CIRCLE
  5
2DD
330
1B
100
AcDbEntity
  8
Edge.Cuts
100
AcDbCircle
 10
5.1634842519685042
 20
-1.9156249999999999
 30
0
 40
0.0295275590551181
  0
CIRCLE
  5
2DE
330
1B
100
AcDbEntity
  8
Edge.Cuts
100
AcDbCircle
 10
3.363484251968504
 20
-3.6156250000000001
 30
0
 40
0.0344488188976378
  0
CIRCLE
  5
2DF
330
1B
100
AcDbEntity
  8
Edge.Cuts
100
AcDbCircle
 10
3.5634842519685037
 20
-3.6156250000000001
 30
0
 40
0.078740157480315
  0
CIRCLE
  5
2E0
330
1B
100
AcDbEntity
  8
Edge.Cuts
100
AcDbCircle
 10
3.7634842519685039
 20
-3.6156250000000001
 30
0
 40
0.0344488188976378
  0
CIRCLE
  5
2E1
330
1B
100
AcDbEntity
  8
Edge.Cuts
100
AcDbCircle
 10
3.4134842519685038
 20
-3.515625
 30
0
 40
0.0295275590551181
  0
CIRCLE
  5
2E2
330
1B
100
AcDbEntity
  8
Edge.Cuts
100
AcDbCircle
 10
3.6634842519685038
 20
-3.4156249999999999
 30
0
 40
0.0295275590551181
  0
CIRCLE
  5
2E3
330
1B
100
AcDbEntity
  8
Edge.Cuts
100
AcDbCircle
 10
5.6134842519685035
 20
-1.4593749999999999
 30
0
 40
0.0344488188976378
  0
CIRCLE
  5
2E4
330
1B
100
AcDbEntity
  8
Edge.Cuts
100
AcDbCircle
 10
5.8134842519685037
 20
-1.4593749999999999
 30
0
 40
0.078740157480315
  0
CIRCLE
  5
2E5
330
1B
100
AcDbEntity
  8
Edge.Cuts
100
AcDbCircle
 10
6.0134842519685039
 20
-1.4593749999999999
 30
0
 40
0.0344488188976378
  0
CIRCLE
  5
2E6
330
1B
100
AcDbEntity
  8
Edge.Cuts
100
AcDbCircle
 10
5.6634842519685042
 20
-1.359375
 30
0
 40
0.0295275590551181
  0
CIRCLE
  5
2E7
330
1B
100
AcDbEntity
  8
Edge.Cuts
100
AcDbCircle
 10
5.9134842519685042
 20
-1.2593749999999999
 30
0
 40
0.0295275590551181
  0
CIRCLE
  5
2E8
330
1B
100
AcDbEntity
  8
Edge.Cuts
100
AcDbCircle
 10
4.1134842519685035
 20
-4.2249999999999996
 30
0
 40
0.0344488188976378
  0
CIRCLE
  5
2E9
330
1B
100
AcDbEntity
  8
Edge.Cuts
100
AcDbCircle
 10
4.3134842519685037
 20
-4.2249999999999996
 30
0
 40
0.078740157480315
  0
CIRCLE
  5
2EA
330
1B
100
AcDbEntity
  8
Edge.Cuts
100
AcDbCircle
 10
4.5134842519685039
 20
-4.2249999999999996
 30
0
 40
0.0344488188976378
  0
CIRCLE
  5
2EB
330
1B
100
AcDbEntity
  8
Edge.Cuts
100
AcDbCircle
 10
4.1634842519685042
 20
-4.125
 30
0
 40
0.0295275590551181
  0
CIRCLE
  5
2EC
330
1B
100
AcDbEntity
  8
Edge.Cuts
100
AcDbCircle
 10
4.4134842519685042
 20
-4.0249999999999995
 30
0
 40
0.0295275590551181
  0
CIRCLE
  5
2ED
330
1B
100
AcDbEntity
  8
Edge.Cuts
100
AcDbCircle
 10
4.8634842519685035
 20
-1.3656249999999999
 30
0
 40
0.0344488188976378
  0
CIRCLE
  5
2EE
330
1B
100
AcDbEntity
  8
Edge.Cuts
100
AcDbCircle
 10
5.0634842519685037
 20
-1.3656249999999999
 30
0
 40
0.078740157480315
  0
CIRCLE
  5
2EF
330
1B
100
AcDbEntity
  8
Edge.Cuts
100
AcDbCircle
 10
5.2634842519685039
 20
-1.3656249999999999
 30
0
 40
0.0344488188976378
  0
CIRCLE
  5
2F0
330
1B
100
AcDbEntity
  8
Edge.Cuts
100
AcDbCircle
 10
4.9134842519685042
 20
-1.265625
 30
0
 40
0.0295275590551181
  0
CIRCLE
  5
2F1
330
1B
100
AcDbEntity
  8
Edge.Cuts
100
AcDbCircle
 10
5.1634842519685042
 20
-1.1656249999999999
 30
0
 40
0.0295275590551181
  0
CIRCLE
  5
2F2
330
1B
100
AcDbEntity
  8
Edge.Cuts
100
AcDbCircle
 10
3.363484251968504
 20
-2.8656250000000001
 30
0
 40
0.0344488188976378
  0
CIRCLE
  5
2F3
330
1B
100
AcDbEntity
  8
Edge.Cuts
100
AcDbCircle
 10
3.5634842519685037
 20
-2.8656250000000001
 30
0
 40
0.078740157480315
  0
CIRCLE
  5
2F4
330
1B
100
AcDbEntity
  8
Edge.Cuts
100
AcDbCircle
 10
3.7634842519685039
 20
-2.8656250000000001
 30
0
 40
0.0344488188976378
  0
CIRCLE
  5
2F5
330
1B
100
AcDbEntity
  8
Edge.Cuts
100
AcDbCircle
 10
3.4134842519685038
 20
-2.765625
 30
0
 40
0.0295275590551181
  0
CIRCLE
  5
2F6
330
1B
100
AcDbEntity
  8
Edge.Cuts
100
AcDbCircle
 10
3.6634842519685038
 20
-2.6656249999999999
 30
0
 40
0.0295275590551181
  0
CIRCLE
  5
2F7
330
1B
100
AcDbEntity
  8
Edge.Cuts
100
AcDbCircle
 10
4.1134842519685035
 20
-1.9749999999999999
 30
0
 40
0.0344488188976378
  0
CIRCLE
  5
2F8
330
1B
100
AcDbEntity
  8
Edge.Cuts
100
AcDbCircle
 10
4.3134842519685037
 20
-1.9749999999999999
 30
0
 40
0.078740157480315
  0
CIRCLE
  5
2F9
330
1B
100
AcDbEntity
  8
Edge.Cuts
100
AcDbCircle
 10
4.5134842519685039
 20
-1.9749999999999999
 30
0
 40
0.0344488188976378
  0
CIRCLE
  5
2FA
330
1B
100
AcDbEntity
  8
Edge.Cuts
100
AcDbCircle
 10
4.1634842519685042
 20
-1.875
 30
0
 40
0.0295275590551181
  0
CIRCLE
  5
2FB
330
1B
100
AcDbEntity
  8
Edge.Cuts
100
AcDbCircle
 10
4.4134842519685042
 20
-1.7749999999999999
 30
0
 40
0.0295275590551181
  0
CIRCLE
  5
2FC
330
1B
100
AcDbEntity
  8
Edge.Cuts
100
AcDbCircle
 10
1.863484251968504
 20
-3.1468750000000001
 30
0
 40
0.0344488188976378
  0
CIRCLE
  5
2FD
330
1B
100
AcDbEntity
  8
Edge.Cuts
100
AcDbCircle
 10
2.0634842519685037
 20
-3.1468750000000001
 30
0
 40
0.078740157480315
  0
CIRCLE
  5
2FE
330
1B
100
AcDbEntity
  8
Edge.Cuts
100
AcDbCircle
 10
2.2634842519685039
 20
-3.1468750000000001
 30
0
 40
0.0344488188976378
  0
CIRCLE
  5
2FF
330
1B
100
AcDbEntity
  8
Edge.Cuts
100
AcDbCircle
 10
1.9134842519685038
 20
-3.046875
 30
0
 40
0.0295275590551181
  0
CIRCLE
  5
300
330
1B
100
AcDbEntity
  8
Edge.Cuts
100
AcDbCircle
 10
2.1634842519685038
 20
-2.9468749999999999
 30
0
 40
0.0295275590551181
  0
CIRCLE
  5
301
330
1B
100
AcDbEntity
  8
Edge.Cuts
100
AcDbCircle
 10
6.5456565748031492
 20
-4.6831837401574798
 30
0
 40
0.0344488188976378
  0
CIRCLE
  5
302
330
1B
100
AcDbEntity
  8
Edge.Cuts
100
AcDbCircle
 10
6.7426181102362204
 20
-4.7179133858267717
 30
0
 40
0.078740157480315
  0
CIRCLE
  5
303
330
1B
100
AcDbEntity
  8
Edge.Cuts
100
AcDbCircle
 10
6.9395796456692915
 20
-4.7526430314960626
 30
0
 40
0.0344488188976378
  0
CIRCLE
  5
304
330
1B
100
AcDbEntity
  8
Edge.Cuts
100
AcDbCircle
 10
6.6122617322834643
 20
-4.5933853543307084
 30
0
 40
0.0295275590551181
  0
CIRCLE
  5
305
330
1B
100
AcDbEntity
  8
Edge.Cuts
100
AcDbCircle
 10
6.8758285433070867
 20
-4.5383166535433066
 30
0
 40
0.0295275590551181
  0
CIRCLE
  5
306
330
1B
100
AcDbEntity
  8
Edge.Cuts
100
AcDbCircle
 10
5.7661290157480316
 20
-4.5493254724409447
 30
0
 40
0.0344488188976378
  0
CIRCLE
  5
307
330
1B
100
AcDbEntity
  8
Edge.Cuts
100
AcDbCircle
 10
5.9630905511811019
 20
-4.5840551181102365
 30
0
 40
0.078740157480315
  0
CIRCLE
  5
308
330
1B
100
AcDbEntity
  8
Edge.Cuts
100
AcDbCircle
 10
6.160052086614173
 20
-4.6187847637795274
 30
0
 40
0.0344488188976378
  0
CIRCLE
  5
309
330
1B
100
AcDbEntity
  8
Edge.Cuts
100
AcDbCircle
 10
5.8327342125984254
 20
-4.4595271259842519
 30
0
 40
0.0295275590551181
  0
CIRCLE
  5
30A
330
1B
100
AcDbEntity
  8
Edge.Cuts
100
AcDbCircle
 10
6.0963009842519682
 20
-4.4044583858267714
 30
0
 40
0.0295275590551181
  0
CIRCLE
  5
30B
330
1B
100
AcDbEntity
  8
Edge.Cuts
100
AcDbCircle
 10
4.1134842519685035
 20
-2.7250000000000001
 30
0
 40
0.0344488188976378
  0
CIRCLE
  5
30C
330
1B
100
AcDbEntity
  8
Edge.Cuts
100
AcDbCircle
 10
4.3134842519685037
 20
-2.7250000000000001
 30
0
 40
0.078740157480315
  0
CIRCLE
  5
30D
330
1B
100
AcDbEntity
  8
Edge.Cuts
100
AcDbCircle
 10
4.5134842519685039
 20
-2.7250000000000001
 30
0
 40
0.0344488188976378
  0
CIRCLE
  5
30E
330
1B
100
AcDbEntity
  8
Edge.Cuts
100
AcDbCircle
 10
4.1634842519685042
 20
-2.625
 30
0
 40
0.0295275590551181
  0
CIRCLE
  5
30F
330
1B
100
AcDbEntity
  8
Edge.Cuts
100
AcDbCircle
 10
4.4134842519685042
 20
-2.5249999999999999
 30
0
 40
0.0295275590551181
  0
CIRCLE
  5
310
330
1B
100
AcDbEntity
  8
Edge.Cuts
100
AcDbCircle
 10
4.1134842519685035
 20
-1.2249999999999999
 30
0
 40
0.0344488188976378
  0
CIRCLE
  5
311
330
1B
100
AcDbEntity
  8
Edge.Cuts
100
AcDbCircle
 10
4.3134842519685037
 20
-1.2249999999999999
 30
0
 40
0.078740157480315
  0
CIRCLE
  5
312
330
1B
100
AcDbEntity
  8
Edge.Cuts
100
AcDbCircle
 10
4.5134842519685039
 20
-1.2249999999999999
 30
0
 40
0.0344488188976378
  0
CIRCLE
  5
313
330
1B
100
AcDbEntity
  8
Edge.Cuts
100
AcDbCircle
 10
4.1634842519685042
 20
-1.125
 30
0
 40
0.0295275590551181
  0
CIRCLE
  5
314
330
1B
100
AcDbEntity
  8
Edge.Cuts
100
AcDbCircle
 10
4.4134842519685042
 20
-1.0249999999999999
 30
0
 40
0.0295275590551181
  0
CIRCLE
  5
315
330
1B
100
AcDbEntity
  8
Edge.Cuts
100
AcDbCircle
 10
6.3634842519685035
 20
-3.2875000000000001
 30
0
 40
0.0344488188976378
  0
CIRCLE
  5
316
330
1B
100
AcDbEntity
  8
Edge.Cuts
100
AcDbCircle
 10
6.5634842519685037
 20
-3.2875000000000001
 30
0
 40
0.078740157480315
  0
CIRCLE
  5
317
330
1B
100
AcDbEntity
  8
Edge.Cuts
100
AcDbCircle
 10
6.7634842519685039
 20
-3.2875000000000001
 30
0
 40
0.0344488188976378
  0
CIRCLE
  5
318
330
1B
100
AcDbEntity
  8
Edge.Cuts
100
AcDbCircle
 10
6.4134842519685034
 20
-3.1875
 30
0
 40
0.0295275590551181
  0
CIRCLE
  5
319
330
1B
100
AcDbEntity
  8
Edge.Cuts
100
AcDbCircle
 10
6.6634842519685034
 20
-3.0874999999999999
 30
0
 40
0.0295275590551181
  0
CIRCLE
  5
31A
330
1B
100
AcDbEntity
  8
Edge.Cuts
100
AcDbCircle
 10
1.113484251968504
 20
-3.1468750000000001
 30
0
 40
0.0344488188976378
  0
CIRCLE
  5
31B
330
1B
100
AcDbEntity
  8
Edge.Cuts
100
AcDbCircle
 10
1.3134842519685039
 20
-3.1468750000000001
 30
0
 40
0.078740157480315
  0
CIRCLE
  5
31C
330
1B
100
AcDbEntity
  8
Edge.Cuts
100
AcDbCircle
 10
1.5134842519685039
 20
-3.1468750000000001
 30
0
 40
0.0344488188976378
  0
CIRCLE
  5
31D
330
1B
100
AcDbEntity
  8
Edge.Cuts
100
AcDbCircle
 10
1.1634842519685038
 20
-3.046875
 30
0
 40
0.0295275590551181
  0
CIRCLE
  5
31E
330
1B
100
AcDbEntity
  8
Edge.Cuts
100
AcDbCircle
 10
1.4134842519685038
 20
-2.9468749999999999
 30
0
 40
0.0295275590551181
  0
CIRCLE
  5
31F
330
1B
100
AcDbEntity
  8
Edge.Cuts
100
AcDbCircle
 10
1.113484251968504
 20
-1.6468749999999999
 30
0
 40
0.0344488188976378
  0
CIRCLE
  5
320
330
1B
100
AcDbEntity
  8
Edge.Cuts
100
AcDbCircle
 10
1.3134842519685039
 20
-1.6468749999999999
 30
0
 40
0.078740157480315
  0
CIRCLE
  5
321
330
1B
100
AcDbEntity
  8
Edge.Cuts
100
AcDbCircle
 10
1.5134842519685039
 20
-1.6468749999999999
 30
0
 40
0.0344488188976378
  0
CIRCLE
  5
322
330
1B
100
AcDbEntity
  8
Edge.Cuts
100
AcDbCircle
 10
1.1634842519685038
 20
-1.546875
 30
0
 40
0.0295275590551181
  0
CIRCLE
  5
323
330
1B
100
AcDbEntity
  8
Edge.Cuts
100
AcDbCircle
 10
1.4134842519685038
 20
-1.4468749999999999
 30
0
 40
0.0295275590551181
  0
CIRCLE
  5
324
330
1B
100
AcDbEntity
  8
Edge.Cuts
100
AcDbCircle
 10
1.863484251968504
 20
-1.6468749999999999
 30
0
 40
0.0344488188976378
  0
CIRCLE
  5
325
330
1B
100
AcDbEntity
  8
Edge.Cuts
100
AcDbCircle
 10
2.0634842519685037
 20
-1.6468749999999999
 30
0
 40
0.078740157480315
  0
CIRCLE
  5
326
330
1B
100
AcDbEntity
  8
Edge.Cuts
100
AcDbCircle
 10
2.2634842519685039
 20
-1.6468749999999999
 30
0
 40
0.0344488188976378
  0
CIRCLE
  5
327
330
1B
100
AcDbEntity
  8
Edge.Cuts
100
AcDbCircle
 10
1.9134842519685038
 20
-1.546875
 30
0
 40
0.0295275590551181
  0
CIRCLE
  5
328
330
1B
100
AcDbEntity
  8
Edge.Cuts
100
AcDbCircle
 10
2.1634842519685038
 20
-1.4468749999999999
 30
0
 40
0.0295275590551181
  0
CIRCLE
  5
329
330
1B
100
AcDbEntity
  8
Edge.Cuts
100
AcDbCircle
 10
1.863484251968504
 20
-3.8968750000000001
 30
0
 40
0.0344488188976378
  0
CIRCLE
  5
32A
330
1B
100
AcDbEntity
  8
Edge.Cuts
100
AcDbCircle
 10
2.0634842519685037
 20
-3.8968750000000001
 30
0
 40
0.078740157480315
  0
CIRCLE
  5
32B
330
1B
100
AcDbEntity
  8
Edge.Cuts
100
AcDbCircle
 10
2.2634842519685039
 20
-3.8968750000000001
 30
0
 40
0.0344488188976378
  0
CIRCLE
  5
32C
330
1B
100
AcDbEntity
  8
Edge.Cuts
100
AcDbCircle
 10
1.9134842519685038
 20
-3.796875
 30
0
 40
0.0295275590551181
  0
CIRCLE
  5
32D
330
1B
100
AcDbEntity
  8
Edge.Cuts
100
AcDbCircle
 10
2.1634842519685038
 20
-3.6968749999999999
 30
0
 40
0.0295275590551181
  0
CIRCLE
  5
32E
330
1B
100
AcDbEntity
  8
Edge.Cuts
100
AcDbCircle
 10
3.363484251968504
 20
-2.1156250000000001
 30
0
 40
0.0344488188976378
  0
CIRCLE
  5
32F
330
1B
100
AcDbEntity
  8
Edge.Cuts
100
AcDbCircle
 10
3.5634842519685037
 20
-2.1156250000000001
 30
0
 40
0.078740157480315
  0
CIRCLE
  5
330
330
1B
100
AcDbEntity
  8
Edge.Cuts
100
AcDbCircle
 10
3.7634842519685039
 20
-2.1156250000000001
 30
0
 40
0.0344488188976378
  0
CIRCLE
  5
331
330
1B
100
AcDbEntity
  8
Edge.Cuts
100
AcDbCircle
 10
3.4134842519685038
 20
-2.015625
 30
0
 40
0.0295275590551181
  0
CIRCLE
  5
332
330
1B
100
AcDbEntity
  8
Edge.Cuts
100
AcDbCircle
 10
3.6634842519685038
 20
-1.9156249999999999
 30
0
 40
0.0295275590551181
  0
CIRCLE
  5
333
330
1B
100
AcDbEntity
  8
Edge.Cuts
100
AcDbCircle
 10
3.363484251968504
 20
-4.3656249999999996
 30
0
 40
0.0344488188976378
  0
CIRCLE
  5
334
330
1B
100
AcDbEntity
  8
Edge.Cuts
100
AcDbCircle
 10
3.5634842519685037
 20
-4.3656249999999996
 30
0
 40
0.078740157480315
  0
CIRCLE
  5
335
330
1B
100
AcDbEntity
  8
Edge.Cuts
100
AcDbCircle
 10
3.7634842519685039
 20
-4.3656249999999996
 30
0
 40
0.0344488188976378
  0
CIRCLE
  5
336
330
1B
100
AcDbEntity
  8
Edge.Cuts
100
AcDbCircle
 10
3.4134842519685038
 20
-4.265625
 30
0
 40
0.0295275590551181
  0
CIRCLE
  5
337
330
1B
100
AcDbEntity
  8
Edge.Cuts
100
AcDbCircle
 10
3.6634842519685038
 20
-4.1656249999999995
 30
0
 40
0.0295275590551181
  0
CIRCLE
  5
338
330
1B
100
AcDbEntity
  8
Edge.Cuts
100
AcDbCircle
 10
1.113484251968504
 20
-3.8968750000000001
 30
0
 40
0.0344488188976378
  0
CIRCLE
  5
339
330
1B
100
AcDbEntity
  8
Edge.Cuts
100
AcDbCircle
 10
1.3134842519685039
 20
-3.8968750000000001
 30
0
 40
0.078740157480315
  0
CIRCLE
  5
33A
330
1B
100
AcDbEntity
  8
Edge.Cuts
100
AcDbCircle
 10
1.5134842519685039
 20
-3.8968750000000001
 30
0
 40
0.0344488188976378
  0
CIRCLE
  5
33B
330
1B
100
AcDbEntity
  8
Edge.Cuts
100
AcDbCircle
 10
1.1634842519685038
 20
-3.796875
 30
0
 40
0.0295275590551181
  0
CIRCLE
  5
33C
330
1B
100
AcDbEntity
  8
Edge.Cuts
100
AcDbCircle
 10
1.4134842519685038
 20
-3.6968749999999999
 30
0
 40
0.0295275590551181
  0
CIRCLE
  5
33D
330
1B
100
AcDbEntity
  8
Edge.Cuts
100
AcDbCircle
 10
5.4375
 20
-3.1893700787401573
 30
0
 40
0.015748031496063
  0
CIRCLE
  5
33E
330
1B
100
AcDbEntity
  8
Edge.Cuts
100
AcDbCircle
 10
5.4375
 20
-2.8893700787401575
 30
0
 40
0.015748031496063
  0
CIRCLE
  5
33F
330
1B
100
AcDbEntity
  8
Edge.Cuts
100
AcDbCircle
 10
1.6875
 20
-1.7362450787401575
 30
0
 40
0.015748031496063
  0
CIRCLE
  5
340
330
1B
100
AcDbEntity
  8
Edge.Cuts
100
AcDbCircle
 10
1.6875
 20
-1.4362450787401575
 30
0
 40
0.015748031496063
  0
CIRCLE
  5
341
330
1B
100
AcDbEntity
  8
Edge.Cuts
100
AcDbCircle
 10
3.9375
 20
-1.6813730314960629
 30
0
 40
0.015748031496063
  0
CIRCLE
  5
342
330
1B
100
AcDbEntity
  8
Edge.Cuts
100
AcDbCircle
 10
3.9375
 20
-1.3813730314960631
 30
0
 40
0.015748031496063
  0
CIRCLE
  5
343
330
1B
100
AcDbEntity
  8
Edge.Cuts
100
AcDbCircle
 10
6.1875
 20
-3.1813730314960629
 30
0
 40
0.015748031496063
  0
CIRCLE
  5
344
330
1B
100
AcDbEntity
  8
Edge.Cuts
100
AcDbCircle
 10
6.1875
 20
-2.8813730314960631
 30
0
 40
0.015748031496063
  0
CIRCLE
  5
345
330
1B
100
AcDbEntity
  8
Edge.Cuts
100
AcDbCircle
 10
3.1875
 20
-3.9313730314960629
 30
0
 40
0.015748031496063
  0
CIRCLE
  5
346
330
1B
100
AcDbEntity
  8
Edge.Cuts
100
AcDbCircle
 10
3.1875
 20
-3.6313730314960631
 30
0
 40
0.015748031496063
  0
CIRCLE
  5
347
330
1B
100
AcDbEntity
  8
Edge.Cuts
100
AcDbCircle
 10
2.4375
 20
-3.2362450787401573
 30
0
 40
0.015748031496063
  0
CIRCLE
  5
348
330
1B
100
AcDbEntity
  8
Edge.Cuts
100
AcDbCircle
 10
2.4375
 20
-2.9362450787401575
 30
0
 40
0.015748031496063
  0
CIRCLE
  5
349
330
1B
100
AcDbEntity
  8
Edge.Cuts
100
AcDbCircle
 10
1.6875
 20
-3.2362450787401573
 30
0
 40
0.015748031496063
  0
CIRCLE
  5
34A
330
1B
100
AcDbEntity
  8
Edge.Cuts
100
AcDbCircle
 10
1.6875
 20
-2.9362450787401575
 30
0
 40
0.015748031496063
  0
CIRCLE
  5
34B
330
1B
100
AcDbEntity
  8
Edge.Cuts
100
AcDbCircle
 10
2.4375
 20
-2.4862450787401573
 30
0
 40
0.015748031496063
  0
CIRCLE
  5
34C
330
1B
100
AcDbEntity
  8
Edge.Cuts
100
AcDbCircle
 10
2.4375
 20
-2.1862450787401575
 30
0
 40
0.015748031496063
  0
CIRCLE
  5
34D
330
1B
100
AcDbEntity
  8
Edge.Cuts
100
AcDbCircle
 10
5.4375
 20
-1.6893700787401575
 30
0
 40
0.015748031496063
  0
CIRCLE
  5
34E
330
1B
100
AcDbEntity
  8
Edge.Cuts
100
AcDbCircle
 10
5.4375
 20
-1.3893700787401575
 30
0
 40
0.015748031496063
  0
CIRCLE
  5
34F
330
1B
100
AcDbEntity
  8
Edge.Cuts
100
AcDbCircle
 10
6.1875
 20
-3.9313730314960629
 30
0
 40
0.015748031496063
  0
CIRCLE
  5
350
330
1B
100
AcDbEntity
  8
Edge.Cuts
100
AcDbCircle
 10
6.1875
 20
-3.6313730314960631
 30
0
 40
0.015748031496063
  0
CIRCLE
  5
351
330
1B
100
AcDbEntity
  8
Edge.Cuts
100
AcDbCircle
 10
6.3333277559055112
 20
-4.8290941732283468
 30
0
 40
0.015748031496063
  0
CIRCLE
  5
352
330
1B
100
AcDbEntity
  8
Edge.Cuts
100
AcDbCircle
 10
6.3854222047244091
 20
-4.5336518503937011
 30
0
 40
0.015748031496063
  0
CIRCLE
  5
353
330
1B
100
AcDbEntity
  8
Edge.Cuts
100
AcDbCircle
 10
3.1875
 20
-1.6813730314960629
 30
0
 40
0.015748031496063
  0
CIRCLE
  5
354
330
1B
100
AcDbEntity
  8
Edge.Cuts
100
AcDbCircle
 10
3.1875
 20
-1.3813730314960631
 30
0
 40
0.015748031496063
  0
CIRCLE
  5
355
330
1B
100
AcDbEntity
  8
Edge.Cuts
100
AcDbCircle
 10
6.8541722440944879
 20
-3.9711518897637794
 30
0
 40
0.015748031496063
  0
CIRCLE
  5
356
330
1B
100
AcDbEntity
  8
Edge.Cuts
100
AcDbCircle
 10
6.80207779527559
 20
-4.2665942125984255
 30
0
 40
0.015748031496063
  0
CIRCLE
  5
357
330
1B
100
AcDbEntity
  8
Edge.Cuts
100
AcDbCircle
 10
6.1875
 20
-2.4313730314960629
 30
0
 40
0.015748031496063
  0
CIRCLE
  5
358
330
1B
100
AcDbEntity
  8
Edge.Cuts
100
AcDbCircle
 10
6.1875
 20
-2.1313730314960631
 30
0
 40
0.015748031496063
  0
CIRCLE
  5
359
330
1B
100
AcDbEntity
  8
Edge.Cuts
100
AcDbCircle
 10
5.4375
 20
-3.9393700787401573
 30
0
 40
0.015748031496063
  0
CIRCLE
  5
35A
330
1B
100
AcDbEntity
  8
Edge.Cuts
100
AcDbCircle
 10
5.4375
 20
-3.6393700787401575
 30
0
 40
0.015748031496063
  0
CIRCLE
  5
35B
330
1B
100
AcDbEntity
  8
Edge.Cuts
100
AcDbCircle
 10
2.4375
 20
-3.9862450787401573
 30
0
 40
0.015748031496063
  0
CIRCLE
  5
35C
330
1B
100
AcDbEntity
  8
Edge.Cuts
100
AcDbCircle
 10
2.4375
 20
-3.6862450787401575
 30
0
 40
0.015748031496063
  0
CIRCLE
  5
35D
330
1B
100
AcDbEntity
  8
Edge.Cuts
100
AcDbCircle
 10
1.6875
 20
-2.4862450787401573
 30
0
 40
0.015748031496063
  0
CIRCLE
  5
35E
330
1B
100
AcDbEntity
  8
Edge.Cuts
100
AcDbCircle
 10
1.6875
 20
-2.1862450787401575
 30
0
 40
0.015748031496063
  0
CIRCLE
  5
35F
330
1B
100
AcDbEntity
  8
Edge.Cuts
100
AcDbCircle
 10
3.9375
 20
-4.4001230314960633
 30
0
 40
0.015748031496063
  0
CIRCLE
  5
360
330
1B
100
AcDbEntity
  8
Edge.Cuts
100
AcDbCircle
 10
3.9375
 20
-4.1001230314960626
 30
0
 40
0.015748031496063
  0
CIRCLE
  5
361
330
1B
100
AcDbEntity
  8
Edge.Cuts
100
AcDbCircle
 10
2.4375
 20
-1.7362450787401575
 30
0
 40
0.015748031496063
  0
CIRCLE
  5
362
330
1B
100
AcDbEntity
  8
Edge.Cuts
100
AcDbCircle
 10
2.4375
 20
-1.4362450787401575
 30
0
 40
0.015748031496063
  0
CIRCLE
  5
363
330
1B
100
AcDbEntity
  8
Edge.Cuts
100
AcDbCircle
 10
3.9375
 20
-2.4313730314960629
 30
0
 40
0.015748031496063
  0
CIRCLE
  5
364
330
1B
100
AcDbEntity
  8
Edge.Cuts
100
AcDbCircle
 10
3.9375
 20
-2.1313730314960631
 30
0
 40
0.015748031496063
  0
CIRCLE
  5
365
330
1B
100
AcDbEntity
  8
Edge.Cuts
100
AcDbCircle
 10
3.1875
 20
-3.1813730314960629
 30
0
 40
0.015748031496063
  0
CIRCLE
  5
366
330
1B
100
AcDbEntity
  8
Edge.Cuts
100
AcDbCircle
 10
3.1875
 20
-2.8813730314960631
 30
0
 40
0.015748031496063
  0
CIRCLE
  5
367
330
1B
100
AcDbEntity
  8
Edge.Cuts
100
AcDbCircle
 10
3.1875
 20
-2.4313730314960629
 30
0
 40
0.015748031496063
  0
CIRCLE
  5
368
330
1B
100
AcDbEntity
  8
Edge.Cuts
100
AcDbCircle
 10
3.1875
 20
-2.1313730314960631
 30
0
 40
0.015748031496063
  0
CIRCLE
  5
369
330
1B
100
AcDbEntity
  8
Edge.Cuts
100
AcDbCircle
 10
5.5364527559055121
 20
-4.6884691732283468
 30
0
 40
0.015748031496063
  0
CIRCLE
  5
36A
330
1B
100
AcDbEntity
  8
Edge.Cuts
100
AcDbCircle
 10
5.5885472047244091
 20
-4.3930268503937011
 30
0
 40
0.015748031496063
  0
CIRCLE
  5
36B
330
1B
100
AcDbEntity
  8
Edge.Cuts
100
AcDbCircle
 10
3.9375
 20
-3.9313730314960629
 30
0
 40
0.015748031496063
  0
CIRCLE
  5
36C
330
1B
100
AcDbEntity
  8
Edge.Cuts
100
AcDbCircle
 10
3.9375
 20
-3.6313730314960631
 30
0
 40
0.015748031496063
  0
CIRCLE
  5
36D
330
1B
100
AcDbEntity
  8
Edge.Cuts
100
AcDbCircle
 10
4.6875
 20
-3.1893700787401573
 30
0
 40
0.015748031496063
  0
CIRCLE
  5
36E
330
1B
100
AcDbEntity
  8
Edge.Cuts
100
AcDbCircle
 10
4.6875
 20
-2.8893700787401575
 30
0
 40
0.015748031496063
  0
CIRCLE
  5
36F
330
1B
100
AcDbEntity
  8
Edge.Cuts
100
AcDbCircle
 10
4.6875
 20
-2.4393700787401573
 30
0
 40
0.015748031496063
  0
CIRCLE
  5
370
330
1B
100
AcDbEntity
  8
Edge.Cuts
100
AcDbCircle
 10
4.6875
 20
-2.1393700787401575
 30
0
 40
0.015748031496063
  0
CIRCLE
  5
371
330
1B
100
AcDbEntity
  8
Edge.Cuts
100
AcDbCircle
 10
6.9953740157480313
 20
-1.0025590551181103
 30
0
 40
0.0196850393700787
  0
CIRCLE
  5
372
330
1B
100
AcDbEntity
  8
Edge.Cuts
100
AcDbCircle
 10
6.9953740157480313
 20
-1.1025590551181101
 30
0
 40
0.0196850393700787
  0
CIRCLE
  5
373
330
1B
100
AcDbEntity
  8
Edge.Cuts
100
AcDbCircle
 10
6.9953740157480313
 20
-1.2025590551181102
 30
0
 40
0.0196850393700787
  0
CIRCLE
  5
374
330
1B
100
AcDbEntity
  8
Edge.Cuts
100
AcDbCircle
 10
6.9953740157480313
 20
-1.3025590551181101
 30
0
 40
0.0196850393700787
  0
CIRCLE
  5
375
330
1B
100
AcDbEntity
  8
Edge.Cuts
100
AcDbCircle
 10
6.9953740157480313
 20
-1.4025590551181102
 30
0
 40
0.0196850393700787
  0
CIRCLE
  5
376
330
1B
100
AcDbEntity
  8
Edge.Cuts
100
AcDbCircle
 10
6.9953740157480313
 20
-1.5025590551181103
 30
0
 40
0.0196850393700787
  0
CIRCLE
  5
377
330
1B
100
AcDbEntity
  8
Edge.Cuts
100
AcDbCircle
 10
6.9953740157480313
 20
-1.6025590551181101
 30
0
 40
0.0196850393700787
  0
CIRCLE
  5
378
330
1B
100
AcDbEntity
  8
Edge.Cuts
100
AcDbCircle
 10
6.9953740157480313
 20
-1.7025590551181102
 30
0
 40
0.0196850393700787
  0
CIRCLE
  5
379
330
1B
100
AcDbEntity
  8
Edge.Cuts
100
AcDbCircle
 10
6.9953740157480313
 20
-1.8025590551181101
 30
0
 40
0.0196850393700787
  0
CIRCLE
  5
37A
330
1B
100
AcDbEntity
  8
Edge.Cuts
100
AcDbCircle
 10
6.9953740157480313
 20
-1.9025590551181102
 30
0
 40
0.0196850393700787
  0
CIRCLE
  5
37B
330
1B
100
AcDbEntity
  8
Edge.Cuts
100
AcDbCircle
 10
6.9953740157480313
 20
-2.0025590551181103
 30
0
 40
0.0196850393700787
  0
CIRCLE
  5
37C
330
1B
100
AcDbEntity
  8
Edge.Cuts
100
AcDbCircle
 10
6.9953740157480313
 20
-2.1025590551181104
 30
0
 40
0.0196850393700787
  0
CIRCLE
  5
37D
330
1B
100
AcDbEntity
  8
Edge.Cuts
100
AcDbCircle
 10
6.3953740157480317
 20
-0.9525590551181102
 30
0
 40
0.0196850393700787
  0
CIRCLE
  5
37E
330
1B
100
AcDbEntity
  8
Edge.Cuts
100
AcDbCircle
 10
6.3953740157480317
 20
-1.1025590551181101
 30
0
 40
0.0196850393700787
  0
CIRCLE
  5
37F
330
1B
100
AcDbEntity
  8
Edge.Cuts
100
AcDbCircle
 10
6.3953740157480317
 20
-1.2025590551181102
 30
0
 40
0.0196850393700787
  0
CIRCLE
  5
380
330
1B
100
AcDbEntity
  8
Edge.Cuts
100
AcDbCircle
 10
6.3953740157480317
 20
-1.3025590551181101
 30
0
 40
0.0196850393700787
  0
CIRCLE
  5
381
330
1B
100
AcDbEntity
  8
Edge.Cuts
100
AcDbCircle
 10
6.3953740157480317
 20
-1.4025590551181102
 30
0
 40
0.0196850393700787
  0
CIRCLE
  5
382
330
1B
100
AcDbEntity
  8
Edge.Cuts
100
AcDbCircle
 10
6.3953740157480317
 20
-1.5025590551181103
 30
0
 40
0.0196850393700787
  0
CIRCLE
  5
383
330
1B
100
AcDbEntity
  8
Edge.Cuts
100
AcDbCircle
 10
6.3953740157480317
 20
-1.6025590551181101
 30
0
 40
0.0196850393700787
  0
CIRCLE
  5
384
330
1B
100
AcDbEntity
  8
Edge.Cuts
100
AcDbCircle
 10
6.3953740157480317
 20
-1.7025590551181102
 30
0
 40
0.0196850393700787
  0
CIRCLE
  5
385
330
1B
100
AcDbEntity
  8
Edge.Cuts
100
AcDbCircle
 10
6.3953740157480317
 20
-1.8025590551181101
 30
0
 40
0.0196850393700787
  0
CIRCLE
  5
386
330
1B
100
AcDbEntity
  8
Edge.Cuts
100
AcDbCircle
 10
6.3953740157480317
 20
-1.9025590551181102
 30
0
 40
0.0196850393700787
  0
CIRCLE
  5
387
330
1B
100
AcDbEntity
  8
Edge.Cuts
100
AcDbCircle
 10
6.3953740157480317
 20
-2.0025590551181103
 30
0
 40
0.0196850393700787
  0
CIRCLE
  5
388
330
1B
100
AcDbEntity
  8
Edge.Cuts
100
AcDbCircle
 10
6.3953740157480317
 20
-2.1025590551181104
 30
0
 40
0.0196850393700787
  0
CIRCLE
  5
389
330
1B
100
AcDbEntity
  8
Edge.Cuts
100
AcDbCircle
 10
6.8743740157480318
 20
-1.9807590551181102
 30
0
 40
0.0196850393700787
  0
CIRCLE
  5
38A
330
1B
100
AcDbEntity
  8
Edge.Cuts
100
AcDbCircle
 10
6.7743740157480312
 20
-1.9807590551181102
 30
0
 40
0.0196850393700787
  0
CIRCLE
  5
38B
330
1B
100
AcDbEntity
  8
Edge.Cuts
100
AcDbCircle
 10
6.6743740157480316
 20
-1.9807590551181102
 30
0
 40
0.0196850393700787
  0
CIRCLE
  5
38C
330
1B
100
AcDbEntity
  8
Edge.Cuts
100
AcDbCircle
 10
6.9953740157480313
 20
-0.9025590551181102
 30
0
 40
0.0196850393700787
  0
CIRCLE
  5
38D
330
1B
100
AcDbEntity
  8
Edge.Cuts
100
AcDbCircle
 10
6.3953740157480317
 20
-0.9025590551181102
 30
0
 40
0.0196850393700787
  0
CIRCLE
  5
38E
330
1B
100
AcDbEntity
  8
Edge.Cuts
100
AcDbCircle
 10
1.6875
 20
-3.9862450787401573
 30
0
 40
0.015748031496063
  0
CIRCLE
  5
38F
330
1B
100
AcDbEntity
  8
Edge.Cuts
100
AcDbCircle
 10
1.6875
 20
-3.6862450787401575
 30
0
 40
0.015748031496063
  0
CIRCLE
  5
390
330
1B
100
AcDbEntity
  8
Edge.Cuts
100
AcDbCircle
 10
6.1875
 20
-1.6813730314960629
 30
0
 40
0.015748031496063
  0
CIRCLE
  5
391
330
1B
100
AcDbEntity
  8
Edge.Cuts
100
AcDbCircle
 10
6.1875
 20
-1.3813730314960631
 30
0
 40
0.015748031496063
  0
CIRCLE
  5
392
330
1B
100
AcDbEntity
  8
Edge.Cuts
100
AcDbCircle
 10
6.9375
 20
-3.3782480314960628
 30
0
 40
0.015748031496063
  0
CIRCLE
  5
393
330
1B
100
AcDbEntity
  8
Edge.Cuts
100
AcDbCircle
 10
6.9375
 20
-3.078248031496063
 30
0
 40
0.015748031496063
  0
CIRCLE
  5
394
330
1B
100
AcDbEntity
  8
Edge.Cuts
100
AcDbCircle
 10
5.4375
 20
-2.4393700787401573
 30
0
 40
0.015748031496063
  0
CIRCLE
  5
395
330
1B
100
AcDbEntity
  8
Edge.Cuts
100
AcDbCircle
 10
5.4375
 20
-2.1393700787401575
 30
0
 40
0.015748031496063
  0
CIRCLE
  5
396
330
1B
100
AcDbEntity
  8
Edge.Cuts
100
AcDbCircle
 10
3.9375
 20
-3.1813730314960629
 30
0
 40
0.015748031496063
  0
CIRCLE
  5
397
330
1B
100
AcDbEntity
  8
Edge.Cuts
100
AcDbCircle
 10
3.9375
 20
-2.8813730314960631
 30
0
 40
0.015748031496063
  0
CIRCLE
  5
398
330
1B
100
AcDbEntity
  8
Edge.Cuts
100
AcDbCircle
 10
4.6875
 20
-1.6893700787401575
 30
0
 40
0.015748031496063
  0
CIRCLE
  5
399
330
1B
100
AcDbEntity
  8
Edge.Cuts
100
AcDbCircle
 10
4.6875
 20
-1.3893700787401575
 30
0
 40
0.015748031496063
  0
CIRCLE
  5
39A
330
1B
100
AcDbEntity
  8
Edge.Cuts
100
AcDbCircle
 10
4.6875
 20
-4.3944635826771652
 30
0
 40
0.015748031496063
  0
CIRCLE
  5
39B
330
1B
100
AcDbEntity
  8
Edge.Cuts
100
AcDbCircle
 10
4.6875
 20
-4.0944635826771654
 30
0
 40
0.015748031496063
  0
CIRCLE
  5
39C
330
1B
100
AcDbEntity
  8
Edge.Cuts
100
AcDbCircle
 10
4.6875
 20
-3.9393700787401573
 30
0
 40
0.015748031496063
  0
CIRCLE
  5
39D
330
1B
100
AcDbEntity
  8
Edge.Cuts
100
AcDbCircle
 10
4.6875
 20
-3.6393700787401575
 30
0
 40
0.015748031496063
  0
CIRCLE
  5
39E
330
1B
100
AcDbEntity
  8
Edge.Cuts
100
AcDbCircle
 10
6.8873031496062991
 20
-2.6757874015748029
 30
0
 40
0.0196850393700787
  0
CIRCLE
  5
39F
330
1B
100
AcDbEntity
  8
Edge.Cuts
100
AcDbCircle
 10
6.8873031496062991
 20
-2.5773622047244094
 30
0
 40
0.0196850393700787
  0
CIRCLE
  5
3A0
330
1B
100
AcDbEntity
  8
Edge.Cuts
100
AcDbCircle
 10
4.8634842519685035
 20
-2.8656250000000001
 30
0
 40
0.0344487795275591
  0
CIRCLE
  5
3A1
330
1B
100
AcDbEntity
  8
Edge.Cuts
100
AcDbCircle
 10
5.0634842519685037
 20
-2.8656250000000001
 30
0
 40
0.0787401181102362
  0
CIRCLE
  5
3A2
330
1B
100
AcDbEntity
  8
Edge.Cuts
100
AcDbCircle
 10
5.2634842519685039
 20
-2.8656250000000001
 30
0
 40
0.0344487795275591
  0
CIRCLE
  5
3A3
330
1B
100
AcDbEntity
  8
Edge.Cuts
100
AcDbCircle
 10
4.9134842519685042
 20
-2.765625
 30
0
 40
0.0295275590551181
  0
CIRCLE
  5
3A4
330
1B
100
AcDbEntity
  8
Edge.Cuts
100
AcDbCircle
 10
5.1634842519685042
 20
-2.6656249999999999
 30
0
 40
0.0295275590551181
  0
CIRCLE
  5
3A5
330
1B
100
AcDbEntity
  8
Edge.Cuts
100
AcDbCircle
 10
2.613484251968504
 20
-3.1000000000000001
 30
0
 40
0.0344487795275591
  0
CIRCLE
  5
3A6
330
1B
100
AcDbEntity
  8
Edge.Cuts
100
AcDbCircle
 10
2.8134842519685037
 20
-3.1000000000000001
 30
0
 40
0.0787401181102362
  0
CIRCLE
  5
3A7
330
1B
100
AcDbEntity
  8
Edge.Cuts
100
AcDbCircle
 10
3.0134842519685039
 20
-3.1000000000000001
 30
0
 40
0.0344487795275591
  0
CIRCLE
  5
3A8
330
1B
100
AcDbEntity
  8
Edge.Cuts
100
AcDbCircle
 10
2.6634842519685038
 20
-3.
 30
0
 40
0.0295275590551181
  0
CIRCLE
  5
3A9
330
1B
100
AcDbEntity
  8
Edge.Cuts
100
AcDbCircle
 10
2.9134842519685038
 20
-2.8999999999999999
 30
0
 40
0.0295275590551181
  0
CIRCLE
  5
3AA
330
1B
100
AcDbEntity
  8
Edge.Cuts
100
AcDbCircle
 10
5.6134842519685035
 20
-2.2093750000000001
 30
0
 40
0.0344487795275591
  0
CIRCLE
  5
3AB
330
1B
100
AcDbEntity
  8
Edge.Cuts
100
AcDbCircle
 10
5.8134842519685037
 20
-2.2093750000000001
 30
0
 40
0.0787401181102362
  0
CIRCLE
  5
3AC
330
1B
100
AcDbEntity
  8
Edge.Cuts
100
AcDbCircle
 10
6.0134842519685039
 20
-2.2093750000000001
 30
0
 40
0.0344487795275591
  0
CIRCLE
  5
3AD
330
1B
100
AcDbEntity
  8
Edge.Cuts
100
AcDbCircle
 10
5.6634842519685042
 20
-2.109375
 30
0
 40
0.0295275590551181
  0
CIRCLE
  5
3AE
330
1B
100
AcDbEntity
  8
Edge.Cuts
100
AcDbCircle
 10
5.9134842519685042
 20
-2.0093749999999999
 30
0
 40
0.0295275590551181
  0
CIRCLE
  5
3AF
330
1B
100
AcDbEntity
  8
Edge.Cuts
100
AcDbCircle
 10
4.8634842519685035
 20
-3.6156250000000001
 30
0
 40
0.0344487795275591
  0
CIRCLE
  5
3B0
330
1B
100
AcDbEntity
  8
Edge.Cuts
100
AcDbCircle
 10
5.0634842519685037
 20
-3.6156250000000001
 30
0
 40
0.0787401181102362
  0
CIRCLE
  5
3B1
330
1B
100
AcDbEntity
  8
Edge.Cuts
100
AcDbCircle
 10
5.2634842519685039
 20
-3.6156250000000001
 30
0
 40
0.0344487795275591
  0
CIRCLE
  5
3B2
330
1B
100
AcDbEntity
  8
Edge.Cuts
100
AcDbCircle
 10
4.9134842519685042
 20
-3.515625
 30
0
 40
0.0295275590551181
  0
CIRCLE
  5
3B3
330
1B
100
AcDbEntity
  8
Edge.Cuts
100
AcDbCircle
 10
5.1634842519685042
 20
-3.4156249999999999
 30
0
 40
0.0295275590551181
  0
CIRCLE
  5
3B4
330
1B
100
AcDbEntity
  8
Edge.Cuts
100
AcDbCircle
 10
4.1134842519685035
 20
-3.4750000000000001
 30
0
 40
0.0344487795275591
  0
CIRCLE
  5
3B5
330
1B
100
AcDbEntity
  8
Edge.Cuts
100
AcDbCircle
 10
4.3134842519685037
 20
-3.4750000000000001
 30
0
 40
0.0787401181102362
  0
CIRCLE
  5
3B6
330
1B
100
AcDbEntity
  8
Edge.Cuts
100
AcDbCircle
 10
4.5134842519685039
 20
-3.4750000000000001
 30
0
 40
0.0344487795275591
  0
CIRCLE
  5
3B7
330
1B
100
AcDbEntity
  8
Edge.Cuts
100
AcDbCircle
 10
4.1634842519685042
 20
-3.375
 30
0
 40
0.0295275590551181
  0
CIRCLE
  5
3B8
330
1B
100
AcDbEntity
  8
Edge.Cuts
100
AcDbCircle
 10
4.4134842519685042
 20
-3.2749999999999999
 30
0
 40
0.0295275590551181
  0
CIRCLE
  5
3B9
330
1B
100
AcDbEntity
  8
Edge.Cuts
100
AcDbCircle
 10
4.9905384645669288
 20
-4.4122683858267715
 30
0
 40
0.0344487795275591
  0
CIRCLE
  5
3BA
330
1B
100
AcDbEntity
  8
Edge.Cuts
100
AcDbCircle
 10
5.1875
 20
-4.4469980314960633
 30
0
 40
0.0787401181102362
  0
CIRCLE
  5
3BB
330
1B
100
AcDbEntity
  8
Edge.Cuts
100
AcDbCircle
 10
5.3844615354330712
 20
-4.4817276771653543
 30
0
 40
0.0344487795275591
  0
CIRCLE
  5
3BC
330
1B
100
AcDbEntity
  8
Edge.Cuts
100
AcDbCircle
 10
5.0571436220472439
 20
-4.32247
 30
0
 40
0.0295275590551181
  0
CIRCLE
  5
3BD
330
1B
100
AcDbEntity
  8
Edge.Cuts
100
AcDbCircle
 10
5.3207104330708663
 20
-4.2674012992125983
 30
0
 40
0.0295275590551181
  0
CIRCLE
  5
3BE
330
1B
100
AcDbEntity
  8
Edge.Cuts
100
AcDbCircle
 10
1.863484251968504
 20
-2.3968750000000001
 30
0
 40
0.0344487795275591
  0
CIRCLE
  5
3BF
330
1B
100
AcDbEntity
  8
Edge.Cuts
100
AcDbCircle
 10
2.0634842519685037
 20
-2.3968750000000001
 30
0
 40
0.0787401181102362
  0
CIRCLE
  5
3C0
330
1B
100
AcDbEntity
  8
Edge.Cuts
100
AcDbCircle
 10
2.2634842519685039
 20
-2.3968750000000001
 30
0
 40
0.0344487795275591
  0
CIRCLE
  5
3C1
330
1B
100
AcDbEntity
  8
Edge.Cuts
100
AcDbCircle
 10
1.9134842519685038
 20
-2.296875
 30
0
 40
0.0295275590551181
  0
CIRCLE
  5
3C2
330
1B
100
AcDbEntity
  8
Edge.Cuts
100
AcDbCircle
 10
2.1634842519685038
 20
-2.1968749999999999
 30
0
 40
0.0295275590551181
  0
CIRCLE
  5
3C3
330
1B
100
AcDbEntity
  8
Edge.Cuts
100
AcDbCircle
 10
1.113484251968504
 20
-2.3968750000000001
 30
0
 40
0.0344487795275591
  0
CIRCLE
  5
3C4
330
1B
100
AcDbEntity
  8
Edge.Cuts
100
AcDbCircle
 10
1.3134842519685039
 20
-2.3968750000000001
 30
0
 40
0.0787401181102362
  0
CIRCLE
  5
3C5
330
1B
100
AcDbEntity
  8
Edge.Cuts
100
AcDbCircle
 10
1.5134842519685039
 20
-2.3968750000000001
 30
0
 40
0.0344487795275591
  0
CIRCLE
  5
3C6
330
1B
100
AcDbEntity
  8
Edge.Cuts
100
AcDbCircle
 10
1.1634842519685038
 20
-2.296875
 30
0
 40
0.0295275590551181
  0
CIRCLE
  5
3C7
330
1B
100
AcDbEntity
  8
Edge.Cuts
100
AcDbCircle
 10
1.4134842519685038
 20
-2.1968749999999999
 30
0
 40
0.0295275590551181
  0
CIRCLE
  5
3C8
330
1B
100
AcDbEntity
  8
Edge.Cuts
100
AcDbCircle
 10
5.6134842519685035
 20
-3.7093750000000001
 30
0
 40
0.0344487795275591
  0
CIRCLE
  5
3C9
330
1B
100
AcDbEntity
  8
Edge.Cuts
100
AcDbCircle
 10
5.8134842519685037
 20
-3.7093750000000001
 30
0
 40
0.0787401181102362
  0
CIRCLE
  5
3CA
330
1B
100
AcDbEntity
  8
Edge.Cuts
100
AcDbCircle
 10
6.0134842519685039
 20
-3.7093750000000001
 30
0
 40
0.0344487795275591
  0
CIRCLE
  5
3CB
330
1B
100
AcDbEntity
  8
Edge.Cuts
100
AcDbCircle
 10
5.6634842519685042
 20
-3.609375
 30
0
 40
0.0295275590551181
  0
CIRCLE
  5
3CC
330
1B
100
AcDbEntity
  8
Edge.Cuts
100
AcDbCircle
 10
5.9134842519685042
 20
-3.5093749999999999
 30
0
 40
0.0295275590551181
  0
CIRCLE
  5
3CD
330
1B
100
AcDbEntity
  8
Edge.Cuts
100
AcDbCircle
 10
2.613484251968504
 20
-2.3500000000000001
 30
0
 40
0.0344487795275591
  0
CIRCLE
  5
3CE
330
1B
100
AcDbEntity
  8
Edge.Cuts
100
AcDbCircle
 10
2.8134842519685037
 20
-2.3500000000000001
 30
0
 40
0.0787401181102362
  0
CIRCLE
  5
3CF
330
1B
100
AcDbEntity
  8
Edge.Cuts
100
AcDbCircle
 10
3.0134842519685039
 20
-2.3500000000000001
 30
0
 40
0.0344487795275591
  0
CIRCLE
  5
3D0
330
1B
100
AcDbEntity
  8
Edge.Cuts
100
AcDbCircle
 10
2.6634842519685038
 20
-2.25
 30
0
 40
0.0295275590551181
  0
CIRCLE
  5
3D1
330
1B
100
AcDbEntity
  8
Edge.Cuts
100
AcDbCircle
 10
2.9134842519685038
 20
-2.1499999999999999
 30
0
 40
0.0295275590551181
  0
CIRCLE
  5
3D2
330
1B
100
AcDbEntity
  8
Edge.Cuts
100
AcDbCircle
 10
2.613484251968504
 20
-1.5999999999999999
 30
0
 40
0.0344487795275591
  0
CIRCLE
  5
3D3
330
1B
100
AcDbEntity
  8
Edge.Cuts
100
AcDbCircle
 10
2.8134842519685037
 20
-1.5999999999999999
 30
0
 40
0.0787401181102362
  0
CIRCLE
  5
3D4
330
1B
100
AcDbEntity
  8
Edge.Cuts
100
AcDbCircle
 10
3.0134842519685039
 20
-1.5999999999999999
 30
0
 40
0.0344487795275591
  0
CIRCLE
  5
3D5
330
1B
100
AcDbEntity
  8
Edge.Cuts
100
AcDbCircle
 10
2.6634842519685038
 20
-1.5
 30
0
 40
0.0295275590551181
  0
CIRCLE
  5
3D6
330
1B
100
AcDbEntity
  8
Edge.Cuts
100
AcDbCircle
 10
2.9134842519685038
 20
-1.3999999999999999
 30
0
 40
0.0295275590551181
  0
CIRCLE
  5
3D7
330
1B
100
AcDbEntity
  8
Edge.Cuts
100
AcDbCircle
 10
2.613484251968504
 20
-3.8500000000000001
 30
0
 40
0.0344487795275591
  0
CIRCLE
  5
3D8
330
1B
100
AcDbEntity
  8
Edge.Cuts
100
AcDbCircle
 10
2.8134842519685037
 20
-3.8500000000000001
 30
0
 40
0.0787401181102362
  0
CIRCLE
  5
3D9
330
1B
100
AcDbEntity
  8
Edge.Cuts
100
AcDbCircle
 10
3.0134842519685039
 20
-3.8500000000000001
 30
0
 40
0.0344487795275591
  0
CIRCLE
  5
3DA
330
1B
100
AcDbEntity
  8
Edge.Cuts
100
AcDbCircle
 10
2.6634842519685038
 20
-3.75
 30
0
 40
0.0295275590551181
  0
CIRCLE
  5
3DB
330
1B
100
AcDbEntity
  8
Edge.Cuts
100
AcDbCircle
 10
2.9134842519685038
 20
-3.6499999999999999
 30
0
 40
0.0295275590551181
  0
CIRCLE
  5
3DC
330
1B
100
AcDbEntity
  8
Edge.Cuts
100
AcDbCircle
 10
3.363484251968504
 20
-1.3656249999999999
 30
0
 40
0.0344487795275591
  0
CIRCLE
  5
3DD
330
1B
100
AcDbEntity
  8
Edge.Cuts
100
AcDbCircle
 10
3.5634842519685037
 20
-1.3656249999999999
 30
0
 40
0.0787401181102362
  0
CIRCLE
  5
3DE
330
1B
100
AcDbEntity
  8
Edge.Cuts
100
AcDbCircle
 10
3.7634842519685039
 20
-1.3656249999999999
 30
0
 40
0.0344487795275591
  0
CIRCLE
  5
3DF
330
1B
100
AcDbEntity
  8
Edge.Cuts
100
AcDbCircle
 10
3.4134842519685038
 20
-1.265625
 30
0
 40
0.0295275590551181
  0
CIRCLE
  5
3E0
330
1B
100
AcDbEntity
  8
Edge.Cuts
100
AcDbCircle
 10
3.6634842519685038
 20
-1.1656249999999999
 30
0
 40
0.0295275590551181
  0
CIRCLE
  5
3E1
330
1B
100
AcDbEntity
  8
Edge.Cuts
100
AcDbCircle
 10
5.6134842519685035
 20
-2.9593750000000001
 30
0
 40
0.0344487795275591
  0
CIRCLE
  5
3E2
330
1B
100
AcDbEntity
  8
Edge.Cuts
100
AcDbCircle
 10
5.8134842519685037
 20
-2.9593750000000001
 30
0
 40
0.0787401181102362
  0
CIRCLE
  5
3E3
330
1B
100
AcDbEntity
  8
Edge.Cuts
100
AcDbCircle
 10
6.0134842519685039
 20
-2.9593750000000001
 30
0
 40
0.0344487795275591
  0
CIRCLE
  5
3E4
330
1B
100
AcDbEntity
  8
Edge.Cuts
100
AcDbCircle
 10
5.6634842519685042
 20
-2.859375
 30
0
 40
0.0295275590551181
  0
CIRCLE
  5
3E5
330
1B
100
AcDbEntity
  8
Edge.Cuts
100
AcDbCircle
 10
5.9134842519685042
 20
-2.7593749999999999
 30
0
 40
0.0295275590551181
  0
CIRCLE
  5
3E6
330
1B
100
AcDbEntity
  8
Edge.Cuts
100
AcDbCircle
 10
4.8634842519685035
 20
-2.1156250000000001
 30
0
 40
0.0344487795275591
  0
CIRCLE
  5
3E7
330
1B
100
AcDbEntity
  8
Edge.Cuts
100
AcDbCircle
 10
5.0634842519685037
 20
-2.1156250000000001
 30
0
 40
0.0787401181102362
  0
CIRCLE
  5
3E8
330
1B
100
AcDbEntity
  8
Edge.Cuts
100
AcDbCircle
 10
5.2634842519685039
 20
-2.1156250000000001
 30
0
 40
0.0344487795275591
  0
CIRCLE
  5
3E9
330
1B
100
AcDbEntity
  8
Edge.Cuts
100
AcDbCircle
 10
4.9134842519685042
 20
-2.015625
 30
0
 40
0.0295275590551181
  0
CIRCLE
  5
3EA
330
1B
100
AcDbEntity
  8
Edge.Cuts
100
AcDbCircle
 10
5.1634842519685042
 20
-1.9156249999999999
 30
0
 40
0.0295275590551181
  0
CIRCLE
  5
3EB
330
1B
100
AcDbEntity
  8
Edge.Cuts
100
AcDbCircle
 10
3.363484251968504
 20
-3.6156250000000001
 30
0
 40
0.0344487795275591
  0
CIRCLE
  5
3EC
330
1B
100
AcDbEntity
  8
Edge.Cuts
100
AcDbCircle
 10
3.5634842519685037
 20
-3.6156250000000001
 30
0
 40
0.0787401181102362
  0
CIRCLE
  5
3ED
330
1B
100
AcDbEntity
  8
Edge.Cuts
100
AcDbCircle
 10
3.7634842519685039
 20
-3.6156250000000001
 30
0
 40
0.0344487795275591
  0
CIRCLE
  5
3EE
330
1B
100
AcDbEntity
  8
Edge.Cuts
100
AcDbCircle
 10
3.4134842519685038
 20
-3.515625
 30
0
 40
0.0295275590551181
  0
CIRCLE
  5
3EF
330
1B
100
AcDbEntity
  8
Edge.Cuts
100
AcDbCircle
 10
3.6634842519685038
 20
-3.4156249999999999
 30
0
 40
0.0295275590551181
  0
CIRCLE
  5
3F0
330
1B
100
AcDbEntity
  8
Edge.Cuts
100
AcDbCircle
 10
5.6134842519685035
 20
-1.4593749999999999
 30
0
 40
0.0344487795275591
  0
CIRCLE
  5
3F1
330
1B
100
AcDbEntity
  8
Edge.Cuts
100
AcDbCircle
 10
5.8134842519685037
 20
-1.4593749999999999
 30
0
 40
0.0787401181102362
  0
CIRCLE
  5
3F2
330
1B
100
AcDbEntity
  8
Edge.Cuts
100
AcDbCircle
 10
6.0134842519685039
 20
-1.4593749999999999
 30
0
 40
0.0344487795275591
  0
CIRCLE
  5
3F3
330
1B
100
AcDbEntity
  8
Edge.Cuts
100
AcDbCircle
 10
5.6634842519685042
 20
-1.359375
 30
0
 40
0.0295275590551181
  0
CIRCLE
  5
3F4
330
1B
100
AcDbEntity
  8
Edge.Cuts
100
AcDbCircle
 10
5.9134842519685042
 20
-1.2593749999999999
 30
0
 40
0.0295275590551181
  0
CIRCLE
  5
3F5
330
1B
100
AcDbEntity
  8
Edge.Cuts
100
AcDbCircle
 10
4.1134842519685035
 20
-4.2249999999999996
 30
0
 40
0.0344487795275591
  0
CIRCLE
  5
3F6
330
1B
100
AcDbEntity
  8
Edge.Cuts
100
AcDbCircle
 10
4.3134842519685037
 20
-4.2249999999999996
 30
0
 40
0.0787401181102362
  0
CIRCLE
  5
3F7
330
1B
100
AcDbEntity
  8
Edge.Cuts
100
AcDbCircle
 10
4.5134842519685039
 20
-4.2249999999999996
 30
0
 40
0.0344487795275591
  0
CIRCLE
  5
3F8
330
1B
100
AcDbEntity
  8
Edge.Cuts
100
AcDbCircle
 10
4.1634842519685042
 20
-4.125
 30
0
 40
0.0295275590551181
  0
CIRCLE
  5
3F9
330
1B
100
AcDbEntity
  8
Edge.Cuts
100
AcDbCircle
 10
4.4134842519685042
 20
-4.0249999999999995
 30
0
 40
0.0295275590551181
  0
CIRCLE
  5
3FA
330
1B
100
AcDbEntity
  8
Edge.Cuts
100
AcDbCircle
 10
4.8634842519685035
 20
-1.3656249999999999
 30
0
 40
0.0344487795275591
  0
CIRCLE
  5
3FB
330
1B
100
AcDbEntity
  8
Edge.Cuts
100
AcDbCircle
 10
5.0634842519685037
 20
-1.3656249999999999
 30
0
 40
0.0787401181102362
  0
CIRCLE
  5
3FC
330
1B
100
AcDbEntity
  8
Edge.Cuts
100
AcDbCircle
 10
5.2634842519685039
 20
-1.3656249999999999
 30
0
 40
0.0344487795275591
  0
CIRCLE
  5
3FD
330
1B
100
AcDbEntity
  8
Edge.Cuts
100
AcDbCircle
 10
4.9134842519685042
 20
-1.265625
 30
0
 40
0.0295275590551181
  0
CIRCLE
  5
3FE
330
1B
100
AcDbEntity
  8
Edge.Cuts
100
AcDbCircle
 10
5.1634842519685042
 20
-1.1656249999999999
 30
0
 40
0.0295275590551181
  0
CIRCLE
  5
3FF
330
1B
100
AcDbEntity
  8
Edge.Cuts
100
AcDbCircle
 10
3.363484251968504
 20
-2.8656250000000001
 30
0
 40
0.0344487795275591
  0
CIRCLE
  5
400
330
1B
100
AcDbEntity
  8
Edge.Cuts
100
AcDbCircle
 10
3.5634842519685037
 20
-2.8656250000000001
 30
0
 40
0.0787401181102362
  0
CIRCLE
  5
401
330
1B
100
AcDbEntity
  8
Edge.Cuts
100
AcDbCircle
 10
3.7634842519685039
 20
-2.8656250000000001
 30
0
 40
0.0344487795275591
  0
CIRCLE
  5
402
330
1B
100
AcDbEntity
  8
Edge.Cuts
100
AcDbCircle
 10
3.4134842519685038
 20
-2.765625
 30
0
 40
0.0295275590551181
  0
CIRCLE
  5
403
330
1B
100
AcDbEntity
  8
Edge.Cuts
100
AcDbCircle
 10
3.6634842519685038
 20
-2.6656249999999999
 30
0
 40
0.0295275590551181
  0
CIRCLE
  5
404
330
1B
100
AcDbEntity
  8
Edge.Cuts
100
AcDbCircle
 10
4.1134842519685035
 20
-1.9749999999999999
 30
0
 40
0.0344487795275591
  0
CIRCLE
  5
405
330
1B
100
AcDbEntity
  8
Edge.Cuts
100
AcDbCircle
 10
4.3134842519685037
 20
-1.9749999999999999
 30
0
 40
0.0787401181102362
  0
CIRCLE
  5
406
330
1B
100
AcDbEntity
  8
Edge.Cuts
100
AcDbCircle
 10
4.5134842519685039
 20
-1.9749999999999999
 30
0
 40
0.0344487795275591
  0
CIRCLE
  5
407
330
1B
100
AcDbEntity
  8
Edge.Cuts
100
AcDbCircle
 10
4.1634842519685042
 20
-1.875
 30
0
 40
0.0295275590551181
  0
CIRCLE
  5
408
330
1B
100
AcDbEntity
  8
Edge.Cuts
100
AcDbCircle
 10
4.4134842519685042
 20
-1.7749999999999999
 30
0
 40
0.0295275590551181
  0
CIRCLE
  5
409
330
1B
100
AcDbEntity
  8
Edge.Cuts
100
AcDbCircle
 10
1.863484251968504
 20
-3.1468750000000001
 30
0
 40
0.0344487795275591
  0
CIRCLE
  5
40A
330
1B
100
AcDbEntity
  8
Edge.Cuts
100
AcDbCircle
 10
2.0634842519685037
 20
-3.1468750000000001
 30
0
 40
0.0787401181102362
  0
CIRCLE
  5
40B
330
1B
100
AcDbEntity
  8
Edge.Cuts
100
AcDbCircle
 10
2.2634842519685039
 20
-3.1468750000000001
 30
0
 40
0.0344487795275591
  0
CIRCLE
  5
40C
330
1B
100
AcDbEntity
  8
Edge.Cuts
100
AcDbCircle
 10
1.9134842519685038
 20
-3.046875
 30
0
 40
0.0295275590551181
  0
CIRCLE
  5
40D
330
1B
100
AcDbEntity
  8
Edge.Cuts
100
AcDbCircle
 10
2.1634842519685038
 20
-2.9468749999999999
 30
0
 40
0.0295275590551181
  0
CIRCLE
  5
40E
330
1B
100
AcDbEntity
  8
Edge.Cuts
100
AcDbCircle
 10
6.5456565748031492
 20
-4.6831837401574798
 30
0
 40
0.0344487795275591
  0
CIRCLE
  5
40F
330
1B
100
AcDbEntity
  8
Edge.Cuts
100
AcDbCircle
 10
6.7426181102362204
 20
-4.7179133858267717
 30
0
 40
0.0787401181102362
  0
CIRCLE
  5
410
330
1B
100
AcDbEntity
  8
Edge.Cuts
100
AcDbCircle
 10
6.9395796456692915
 20
-4.7526430314960626
 30
0
 40
0.0344487795275591
  0
CIRCLE
  5
411
330
1B
100
AcDbEntity
  8
Edge.Cuts
100
AcDbCircle
 10
6.6122617322834643
 20
-4.5933853543307084
 30
0
 40
0.0295275590551181
  0
CIRCLE
  5
412
330
1B
100
AcDbEntity
  8
Edge.Cuts
100
AcDbCircle
 10
6.8758285433070867
 20
-4.5383166535433066
 30
0
 40
0.0295275590551181
  0
CIRCLE
  5
413
330
1B
100
AcDbEntity
  8
Edge.Cuts
100
AcDbCircle
 10
5.7661290157480316
 20
-4.5493254724409447
 30
0
 40
0.0344487795275591
  0
CIRCLE
  5
414
330
1B
100
AcDbEntity
  8
Edge.Cuts
100
AcDbCircle
 10
5.9630905511811019
 20
-4.5840551181102365
 30
0
 40
0.0787401181102362
  0
CIRCLE
  5
415
330
1B
100
AcDbEntity
  8
Edge.Cuts
100
AcDbCircle
 10
6.160052086614173
 20
-4.6187847637795274
 30
0
 40
0.0344487795275591
  0
CIRCLE
  5
416
330
1B
100
AcDbEntity
  8
Edge.Cuts
100
AcDbCircle
 10
5.8327342125984254
 20
-4.4595271259842519
 30
0
 40
0.0295275590551181
  0
CIRCLE
  5
417
330
1B
100
AcDbEntity
  8
Edge.Cuts
100
AcDbCircle
 10
6.0963009842519682
 20
-4.4044583858267714
 30
0
 40
0.0295275590551181
  0
CIRCLE
  5
418
330
1B
100
AcDbEntity
  8
Edge.Cuts
100
AcDbCircle
 10
4.1134842519685035
 20
-2.7250000000000001
 30
0
 40
0.0344487795275591
  0
CIRCLE
  5
419
330
1B
100
AcDbEntity
  8
Edge.Cuts
100
AcDbCircle
 10
4.3134842519685037
 20
-2.7250000000000001
 30
0
 40
0.0787401181102362
  0
CIRCLE
  5
41A
330
1B
100
AcDbEntity
  8
Edge.Cuts
100
AcDbCircle
 10
4.5134842519685039
 20
-2.7250000000000001
 30
0
 40
0.0344487795275591
  0
CIRCLE
  5
41B
330
1B
100
AcDbEntity
  8
Edge.Cuts
100
AcDbCircle
 10
4.1634842519685042
 20
-2.625
 30
0
 40
0.0295275590551181
  0
CIRCLE
  5
41C
330
1B
100
AcDbEntity
  8
Edge.Cuts
100
AcDbCircle
 10
4.4134842519685042
 20
-2.5249999999999999
 30
0
 40
0.0295275590551181
  0
CIRCLE
  5
41D
330
1B
100
AcDbEntity
  8
Edge.Cuts
100
AcDbCircle
 10
4.1134842519685035
 20
-1.2249999999999999
 30
0
 40
0.0344487795275591
  0
CIRCLE
  5
41E
330
1B
100
AcDbEntity
  8
Edge.Cuts
100
AcDbCircle
 10
4.3134842519685037
 20
-1.2249999999999999
 30
0
 40
0.0787401181102362
  0
CIRCLE
  5
41F
330
1B
100
AcDbEntity
  8
Edge.Cuts
100
AcDbCircle
 10
4.5134842519685039
 20
-1.2249999999999999
 30
0
 40
0.0344487795275591
  0
CIRCLE
  5
420
330
1B
100
AcDbEntity
  8
Edge.Cuts
100
AcDbCircle
 10
4.1634842519685042
 20
-1.125
 30
0
 40
0.0295275590551181
  0
CIRCLE
  5
421
330
1B
100
AcDbEntity
  8
Edge.Cuts
100
AcDbCircle
 10
4.4134842519685042
 20
-1.0249999999999999
 30
0
 40
0.0295275590551181
  0
CIRCLE
  5
422
330
1B
100
AcDbEntity
  8
Edge.Cuts
100
AcDbCircle
 10
6.3634842519685035
 20
-3.2875000000000001
 30
0
 40
0.0344487795275591
  0
CIRCLE
  5
423
330
1B
100
AcDbEntity
  8
Edge.Cuts
100
AcDbCircle
 10
6.5634842519685037
 20
-3.2875000000000001
 30
0
 40
0.0787401181102362
  0
CIRCLE
  5
424
330
1B
100
AcDbEntity
  8
Edge.Cuts
100
AcDbCircle
 10
6.7634842519685039
 20
-3.2875000000000001
 30
0
 40
0.0344487795275591
  0
CIRCLE
  5
425
330
1B
100
AcDbEntity
  8
Edge.Cuts
100
AcDbCircle
 10
6.4134842519685034
 20
-3.1875
 30
0
 40
0.0295275590551181
  0
CIRCLE
  5
426
330
1B
100
AcDbEntity
  8
Edge.Cuts
100
AcDbCircle
 10
6.6634842519685034
 20
-3.0874999999999999
 30
0
 40
0.0295275590551181
  0
CIRCLE
  5
427
330
1B
100
AcDbEntity
  8
Edge.Cuts
100
AcDbCircle
 10
1.113484251968504
 20
-3.1468750000000001
 30
0
 40
0.0344487795275591
  0
CIRCLE
  5
428
330
1B
100
AcDbEntity
  8
Edge.Cuts
100
AcDbCircle
 10
1.3134842519685039
 20
-3.1468750000000001
 30
0
 40
0.0787401181102362
  0
CIRCLE
  5
429
330
1B
100
AcDbEntity
  8
Edge.Cuts
100
AcDbCircle
 10
1.5134842519685039
 20
-3.1468750000000001
 30
0
 40
0.0344487795275591
  0
CIRCLE
  5
42A
330
1B
100
AcDbEntity
  8
Edge.Cuts
100
AcDbCircle
 10
1.1634842519685038
 20
-3.046875
 30
0
 40
0.0295275590551181
  0
CIRCLE
  5
42B
330
1B
100
AcDbEntity
  8
Edge.Cuts
100
AcDbCircle
 10
1.4134842519685038
 20
-2.9468749999999999
 30
0
 40
0.0295275590551181
  0
CIRCLE
  5
42C
330
1B
100
AcDbEntity
  8
Edge.Cuts
100
AcDbCircle
 10
1.113484251968504
 20
-1.6468749999999999
 30
0
 40
0.0344487795275591
  0
CIRCLE
  5
42D
330
1B
100
AcDbEntity
  8
Edge.Cuts
100
AcDbCircle
 10
1.3134842519685039
 20
-1.6468749999999999
 30
0
 40
0.0787401181102362
  0
CIRCLE
  5
42E
330
1B
100
AcDbEntity
  8
Edge.Cuts
100
AcDbCircle
 10
1.5134842519685039
 20
-1.6468749999999999
 30
0
 40
0.0344487795275591
  0
CIRCLE
  5
42F
330
1B
100
AcDbEntity
  8
Edge.Cuts
100
AcDbCircle
 10
1.1634842519685038
 20
-1.546875
 30
0
 40
0.0295275590551181
  0
CIRCLE
  5
430
330
1B
100
AcDbEntity
  8
Edge.Cuts
100
AcDbCircle
 10
1.4134842519685038
 20
-1.4468749999999999
 30
0
 40
0.0295275590551181
  0
CIRCLE
  5
431
330
1B
100
AcDbEntity
  8
Edge.Cuts
100
AcDbCircle
 10
1.863484251968504
 20
-1.6468749999999999
 30
0
 40
0.0344487795275591
  0
CIRCLE
  5
432
330
1B
100
AcDbEntity
  8
Edge.Cuts
100
AcDbCircle
 10
2.0634842519685037
 20
-1.6468749999999999
 30
0
 40
0.0787401181102362
  0
CIRCLE
  5
433
330
1B
100
AcDbEntity
  8
Edge.Cuts
100
AcDbCircle
 10
2.2634842519685039
 20
-1.6468749999999999
 30
0
 40
0.0344487795275591
  0
CIRCLE
  5
434
330
1B
100
AcDbEntity
  8
Edge.Cuts
100
AcDbCircle
 10
1.9134842519685038
 20
-1.546875
 30
0
 40
0.0295275590551181
  0
CIRCLE
  5
435
330
1B
100
AcDbEntity
  8
Edge.Cuts
100
AcDbCircle
 10
2.1634842519685038
 20
-1.4468749999999999
 30
0
 40
0.0295275590551181
  0
CIRCLE
  5
436
330
1B
100
AcDbEntity
  8
Edge.Cuts
100
AcDbCircle
 10
1.863484251968504
 20
-3.8968750000000001
 30
0
 40
0.0344487795275591
  0
CIRCLE
  5
437
330
1B
100
AcDbEntity
  8
Edge.Cuts
100
AcDbCircle
 10
2.0634842519685037
 20
-3.8968750000000001
 30
0
 40
0.0787401181102362
  0
CIRCLE
  5
438
330
1B
100
AcDbEntity
  8
Edge.Cuts
100
AcDbCircle
 10
2.2634842519685039
 20
-3.8968750000000001
 30
0
 40
0.0344487795275591
  0
CIRCLE
  5
439
330
1B
100
AcDbEntity
  8
Edge.Cuts
100
AcDbCircle
 10
1.9134842519685038
 20
-3.796875
 30
0
 40
0.0295275590551181
  0
CIRCLE
  5
43A
330
1B
100
AcDbEntity
  8
Edge.Cuts
100
AcDbCircle
 10
2.1634842519685038
 20
-3.6968749999999999
 30
0
 40
0.0295275590551181
  0
CIRCLE
  5
43B
330
1B
100
AcDbEntity
  8
Edge.Cuts
100
AcDbCircle
 10
3.363484251968504
 20
-2.1156250000000001
 30
0
 40
0.0344487795275591
  0
CIRCLE
  5
43C
330
1B
100
AcDbEntity
  8
Edge.Cuts
100
AcDbCircle
 10
3.5634842519685037
 20
-2.1156250000000001
 30
0
 40
0.0787401181102362
  0
CIRCLE
  5
43D
330
1B
100
AcDbEntity
  8
Edge.Cuts
100
AcDbCircle
 10
3.7634842519685039
 20
-2.1156250000000001
 30
0
 40
0.0344487795275591
  0
CIRCLE
  5
43E
330
1B
100
AcDbEntity
  8
Edge.Cuts
100
AcDbCircle
 10
3.4134842519685038
 20
-2.015625
 30
0
 40
0.0295275590551181
  0
CIRCLE
  5
43F
330
1B
100
AcDbEntity
  8
Edge.Cuts
100
AcDbCircle
 10
3.6634842519685038
 20
-1.9156249999999999
 30
0
 40
0.0295275590551181
  0
CIRCLE
  5
440
330
1B
100
AcDbEntity
  8
Edge.Cuts
100
AcDbCircle
 10
3.363484251968504
 20
-4.3656249999999996
 30
0
 40
0.0344487795275591
  0
CIRCLE
  5
441
330
1B
100
AcDbEntity
  8
Edge.Cuts
100
AcDbCircle
 10
3.5634842519685037
 20
-4.3656249999999996
 30
0
 40
0.0787401181102362
  0
CIRCLE
  5
442
330
1B
100
AcDbEntity
  8
Edge.Cuts
100
AcDbCircle
 10
3.7634842519685039
 20
-4.3656249999999996
 30
0
 40
0.0344487795275591
  0
CIRCLE
  5
443
330
1B
100
AcDbEntity
  8
Edge.Cuts
100
AcDbCircle
 10
3.4134842519685038
 20
-4.265625
 30
0
 40
0.0295275590551181
  0
CIRCLE
  5
444
330
1B
100
AcDbEntity
  8
Edge.Cuts
100
AcDbCircle
 10
3.6634842519685038
 20
-4.1656249999999995
 30
0
 40
0.0295275590551181
  0
CIRCLE
  5
445
330
1B
100
AcDbEntity
  8
Edge.Cuts
100
AcDbCircle
 10
1.113484251968504
 20
-3.8968750000000001
 30
0
 40
0.0344487795275591
  0
CIRCLE
  5
446
330
1B
100
AcDbEntity
  8
Edge.Cuts
100
AcDbCircle
 10
1.3134842519685039
 20
-3.8968750000000001
 30
0
 40
0.0787401181102362
  0
CIRCLE
  5
447
330
1B
100
AcDbEntity
  8
Edge.Cuts
100
AcDbCircle
 10
1.5134842519685039
 20
-3.8968750000000001
 30
0
 40
0.0344487795275591
  0
CIRCLE
  5
448
330
1B
100
AcDbEntity
  8
Edge.Cuts
100
AcDbCircle
 10
1.1634842519685038
 20
-3.796875
 30
0
 40
0.0295275590551181
  0
CIRCLE
  5
449
330
1B
100
AcDbEntity
  8
Edge.Cuts
100
AcDbCircle
 10
1.4134842519685038
 20
-3.6968749999999999
 30
0
 40
0.0295275590551181
  0
CIRCLE
  5
44A
330
1B
100
AcDbEntity
  8
Edge.Cuts
100
AcDbCircle
 10
5.4375
 20
-3.1893700787401573
 30
0
 40
0.015748031496063
  0
CIRCLE
  5
44B
330
1B
100
AcDbEntity
  8
Edge.Cuts
100
AcDbCircle
 10
5.4375
 20
-2.8893700787401575
 30
0
 40
0.015748031496063
  0
CIRCLE
  5
44C
330
1B
100
AcDbEntity
  8
Edge.Cuts
100
AcDbCircle
 10
1.6875
 20
-1.7362450787401575
 30
0
 40
0.015748031496063
  0
CIRCLE
  5
44D
330
1B
100
AcDbEntity
  8
Edge.Cuts
100
AcDbCircle
 10
1.6875
 20
-1.4362450787401575
 30
0
 40
0.015748031496063
  0
CIRCLE
  5
44E
330
1B
100
AcDbEntity
  8
Edge.Cuts
100
AcDbCircle
 10
3.9375
 20
-1.6813730314960629
 30
0
 40
0.015748031496063
  0
CIRCLE
  5
44F
330
1B
100
AcDbEntity
  8
Edge.Cuts
100
AcDbCircle
 10
3.9375
 20
-1.3813730314960631
 30
0
 40
0.015748031496063
  0
CIRCLE
  5
450
330
1B
100
AcDbEntity
  8
Edge.Cuts
100
AcDbCircle
 10
6.1875
 20
-3.1813730314960629
 30
0
 40
0.015748031496063
  0
CIRCLE
  5
451
330
1B
100
AcDbEntity
  8
Edge.Cuts
100
AcDbCircle
 10
6.1875
 20
-2.8813730314960631
 30
0
 40
0.015748031496063
  0
CIRCLE
  5
452
330
1B
100
AcDbEntity
  8
Edge.Cuts
100
AcDbCircle
 10
3.1875
 20
-3.9313730314960629
 30
0
 40
0.015748031496063
  0
CIRCLE
  5
453
330
1B
100
AcDbEntity
  8
Edge.Cuts
100
AcDbCircle
 10
3.1875
 20
-3.6313730314960631
 30
0
 40
0.015748031496063
  0
CIRCLE
  5
454
330
1B
100
AcDbEntity
  8
Edge.Cuts
100
AcDbCircle
 10
2.4375
 20
-3.2362450787401573
 30
0
 40
0.015748031496063
  0
CIRCLE
  5
455
330
1B
100
AcDbEntity
  8
Edge.Cuts
100
AcDbCircle
 10
2.4375
 20
-2.9362450787401575
 30
0
 40
0.015748031496063
  0
CIRCLE
  5
456
330
1B
100
AcDbEntity
  8
Edge.Cuts
100
AcDbCircle
 10
1.6875
 20
-3.2362450787401573
 30
0
 40
0.015748031496063
  0
CIRCLE
  5
457
330
1B
100
AcDbEntity
  8
Edge.Cuts
100
AcDbCircle
 10
1.6875
 20
-2.9362450787401575
 30
0
 40
0.015748031496063
  0
CIRCLE
  5
458
330
1B
100
AcDbEntity
  8
Edge.Cuts
100
AcDbCircle
 10
2.4375
 20
-2.4862450787401573
 30
0
 40
0.015748031496063
  0
CIRCLE
  5
459
330
1B
100
AcDbEntity
  8
Edge.Cuts
100
AcDbCircle
 10
2.4375
 20
-2.1862450787401575
 30
0
 40
0.015748031496063
  0
CIRCLE
  5
45A
330
1B
100
AcDbEntity
  8
Edge.Cuts
100
AcDbCircle
 10
5.4375
 20
-1.6893700787401575
 30
0
 40
0.015748031496063
  0
CIRCLE
  5
45B
330
1B
100
AcDbEntity
  8
Edge.Cuts
100
AcDbCircle
 10
5.4375
 20
-1.3893700787401575
 30
0
 40
0.015748031496063
  0
CIRCLE
  5
45C
330
1B
100
AcDbEntity
  8
Edge.Cuts
100
AcDbCircle
 10
6.1875
 20
-3.9313730314960629
 30
0
 40
0.015748031496063
  0
CIRCLE
  5
45D
330
1B
100
AcDbEntity
  8
Edge.Cuts
100
AcDbCircle
 10
6.1875
 20
-3.6313730314960631
 30
0
 40
0.015748031496063
  0
CIRCLE
  5
45E
330
1B
100
AcDbEntity
  8
Edge.Cuts
100
AcDbCircle
 10
6.3333277559055112
 20
-4.8290941732283468
 30
0
 40
0.015748031496063
  0
CIRCLE
  5
45F
330
1B
100
AcDbEntity
  8
Edge.Cuts
100
AcDbCircle
 10
6.3854222047244091
 20
-4.5336518503937011
 30
0
 40
0.015748031496063
  0
CIRCLE
  5
460
330
1B
100
AcDbEntity
  8
Edge.Cuts
100
AcDbCircle
 10
3.1875
 20
-1.6813730314960629
 30
0
 40
0.015748031496063
  0
CIRCLE
  5
461
330
1B
100
AcDbEntity
  8
Edge.Cuts
100
AcDbCircle
 10
3.1875
 20
-1.3813730314960631
 30
0
 40
0.015748031496063
  0
CIRCLE
  5
462
330
1B
100
AcDbEntity
  8
Edge.Cuts
100
AcDbCircle
 10
6.8541722440944879
 20
-3.9711518897637794
 30
0
 40
0.015748031496063
  0
CIRCLE
  5
463
330
1B
100
AcDbEntity
  8
Edge.Cuts
100
AcDbCircle
 10
6.80207779527559
 20
-4.2665942125984255
 30
0
 40
0.015748031496063
  0
CIRCLE
  5
464
330
1B
100
AcDbEntity
  8
Edge.Cuts
100
AcDbCircle
 10
6.1875
 20
-2.4313730314960629
 30
0
 40
0.015748031496063
  0
CIRCLE
  5
465
330
1B
100
AcDbEntity
  8
Edge.Cuts
100
AcDbCircle
 10
6.1875
 20
-2.1313730314960631
 30
0
 40
0.015748031496063
  0
CIRCLE
  5
466
330
1B
100
AcDbEntity
  8
Edge.Cuts
100
AcDbCircle
 10
5.4375
 20
-3.9393700787401573
 30
0
 40
0.015748031496063
  0
CIRCLE
  5
467
330
1B
100
AcDbEntity
  8
Edge.Cuts
100
AcDbCircle
 10
5.4375
 20
-3.6393700787401575
 30
0
 40
0.015748031496063
  0
CIRCLE
  5
468
330
1B
100
AcDbEntity
  8
Edge.Cuts
100
AcDbCircle
 10
2.4375
 20
-3.9862450787401573
 30
0
 40
0.015748031496063
  0
CIRCLE
  5
469
330
1B
100
AcDbEntity
  8
Edge.Cuts
100
AcDbCircle
 10
2.4375
 20
-3.6862450787401575
 30
0
 40
0.015748031496063
  0
CIRCLE
  5
46A
330
1B
100
AcDbEntity
  8
Edge.Cuts
100
AcDbCircle
 10
1.6875
 20
-2.4862450787401573
 30
0
 40
0.015748031496063
  0
CIRCLE
  5
46B
330
1B
100
AcDbEntity
  8
Edge.Cuts
100
AcDbCircle
 10
1.6875
 20
-2.1862450787401575
 30
0
 40
0.015748031496063
  0
CIRCLE
  5
46C
330
1B
100
AcDbEntity
  8
Edge.Cuts
100
AcDbCircle
 10
3.9375
 20
-4.4001230314960633
 30
0
 40
0.015748031496063
  0
CIRCLE
  5
46D
330
1B
100
AcDbEntity
  8
Edge.Cuts
100
AcDbCircle
 10
3.9375
 20
-4.1001230314960626
 30
0
 40
0.015748031496063
  0
CIRCLE
  5
46E
330
1B
100
AcDbEntity
  8
Edge.Cuts
100
AcDbCircle
 10
2.4375
 20
-1.7362450787401575
 30
0
 40
0.015748031496063
  0
CIRCLE
  5
46F
330
1B
100
AcDbEntity
  8
Edge.Cuts
100
AcDbCircle
 10
2.4375
 20
-1.4362450787401575
 30
0
 40
0.015748031496063
  0
CIRCLE
  5
470
330
1B
100
AcDbEntity
  8
Edge.Cuts
100
AcDbCircle
 10
3.9375
 20
-2.4313730314960629
 30
0
 40
0.015748031496063
  0
CIRCLE
  5
471
330
1B
100
AcDbEntity
  8
Edge.Cuts
100
AcDbCircle
 10
3.9375
 20
-2.1313730314960631
 30
0
 40
0.015748031496063
  0
CIRCLE
  5
472
330
1B
100
AcDbEntity
  8
Edge.Cuts
100
AcDbCircle
 10
3.1875
 20
-3.1813730314960629
 30
0
 40
0.015748031496063
  0
CIRCLE
  5
473
330
1B
100
AcDbEntity
  8
Edge.Cuts
100
AcDbCircle
 10
3.1875
 20
-2.8813730314960631
 30
0
 40
0.015748031496063
  0
CIRCLE
  5
474
330
1B
100
AcDbEntity
  8
Edge.Cuts
100
AcDbCircle
 10
3.1875
 20
-2.4313730314960629
 30
0
 40
0.015748031496063
  0
CIRCLE
  5
475
330
1B
100
AcDbEntity
  8
Edge.Cuts
100
AcDbCircle
 10
3.1875
 20
-2.1313730314960631
 30
0
 40
0.015748031496063
  0
CIRCLE
  5
476
330
1B
100
AcDbEntity
  8
Edge.Cuts
100
AcDbCircle
 10
5.5364527559055121
 20
-4.6884691732283468
 30
0
 40
0.015748031496063
  0
CIRCLE
  5
477
330
1B
100
AcDbEntity
  8
Edge.Cuts
100
AcDbCircle
 10
5.5885472047244091
 20
-4.3930268503937011
 30
0
 40
0.015748031496063
  0
CIRCLE
  5
478
330
1B
100
AcDbEntity
  8
Edge.Cuts
100
AcDbCircle
 10
3.9375
 20
-3.9313730314960629
 30
0
 40
0.015748031496063
  0
CIRCLE
  5
479
330
1B
100
AcDbEntity
  8
Edge.Cuts
100
AcDbCircle
 10
3.9375
 20
-3.6313730314960631
 30
0
 40
0.015748031496063
  0
CIRCLE
  5
47A
330
1B
100
AcDbEntity
  8
Edge.Cuts
100
AcDbCircle
 10
4.6875
 20
-3.1893700787401573
 30
0
 40
0.015748031496063
  0
CIRCLE
  5
47B
330
1B
100
AcDbEntity
  8
Edge.Cuts
100
AcDbCircle
 10
4.6875
 20
-2.8893700787401575
 30
0
 40
0.015748031496063
  0
CIRCLE
  5
47C
330
1B
100
AcDbEntity
  8
Edge.Cuts
100
AcDbCircle
 10
4.6875
 20
-2.4393700787401573
 30
0
 40
0.015748031496063
  0
CIRCLE
  5
47D
330
1B
100
AcDbEntity
  8
Edge.Cuts
100
AcDbCircle
 10
4.6875
 20
-2.1393700787401575
 30
0
 40
0.015748031496063
  0
CIRCLE
  5
47E
330
1B
100
AcDbEntity
  8
Edge.Cuts
100
AcDbCircle
 10
6.9953740157480313
 20
-1.0025590551181103
 30
0
 40
0.0196850393700787
  0
CIRCLE
  5
47F
330
1B
100
AcDbEntity
  8
Edge.Cuts
100
AcDbCircle
 10
6.9953740157480313
 20
-1.1025590551181101
 30
0
 40
0.0196850393700787
  0
CIRCLE
  5
480
330
1B
100
AcDbEntity
  8
Edge.Cuts
100
AcDbCircle
 10
6.9953740157480313
 20
-1.2025590551181102
 30
0
 40
0.0196850393700787
  0
CIRCLE
  5
481
330
1B
100
AcDbEntity
  8
Edge.Cuts
100
AcDbCircle
 10
6.9953740157480313
 20
-1.3025590551181101
 30
0
 40
0.0196850393700787
  0
CIRCLE
  5
482
330
1B
100
AcDbEntity
  8
Edge.Cuts
100
AcDbCircle
 10
6.9953740157480313
 20
-1.4025590551181102
 30
0
 40
0.0196850393700787
  0
CIRCLE
  5
483
330
1B
100
AcDbEntity
  8
Edge.Cuts
100
AcDbCircle
 10
6.9953740157480313
 20
-1.5025590551181103
 30
0
 40
0.0196850393700787
  0
CIRCLE
  5
484
330
1B
100
AcDbEntity
  8
Edge.Cuts
100
AcDbCircle
 10
6.9953740157480313
 20
-1.6025590551181101
 30
0
 40
0.0196850393700787
  0
CIRCLE
  5
485
330
1B
100
AcDbEntity
  8
Edge.Cuts
100
AcDbCircle
 10
6.9953740157480313
 20
-1.7025590551181102
 30
0
 40
0.0196850393700787
  0
CIRCLE
  5
486
330
1B
100
AcDbEntity
  8
Edge.Cuts
100
AcDbCircle
 10
6.9953740157480313
 20
-1.8025590551181101
 30
0
 40
0.0196850393700787
  0
CIRCLE
  5
487
330
1B
100
AcDbEntity
  8
Edge.Cuts
100
AcDbCircle
 10
6.9953740157480313
 20
-1.9025590551181102
 30
0
 40
0.0196850393700787
  0
CIRCLE
  5
488
330
1B
100
AcDbEntity
  8
Edge.Cuts
100
AcDbCircle
 10
6.9953740157480313
 20
-2.0025590551181103
 30
0
 40
0.0196850393700787
  0
CIRCLE
  5
489
330
1B
100
AcDbEntity
  8
Edge.Cuts
100
AcDbCircle
 10
6.9953740157480313
 20
-2.1025590551181104
 30
0
 40
0.0196850393700787
  0
CIRCLE
  5
48A
330
1B
100
AcDbEntity
  8
Edge.Cuts
100
AcDbCircle
 10
6.3953740157480317
 20
-1.0025590551181103
 30
0
 40
0.0196850393700787
  0
CIRCLE
  5
48B
330
1B
100
AcDbEntity
  8
Edge.Cuts
100
AcDbCircle
 10
6.3953740157480317
 20
-1.1025590551181101
 30
0
 40
0.0196850393700787
  0
CIRCLE
  5
48C
330
1B
100
AcDbEntity
  8
Edge.Cuts
100
AcDbCircle
 10
6.3953740157480317
 20
-1.2025590551181102
 30
0
 40
0.0196850393700787
  0
CIRCLE
  5
48D
330
1B
100
AcDbEntity
  8
Edge.Cuts
100
AcDbCircle
 10
6.3953740157480317
 20
-1.3025590551181101
 30
0
 40
0.0196850393700787
  0
CIRCLE
  5
48E
330
1B
100
AcDbEntity
  8
Edge.Cuts
100
AcDbCircle
 10
6.3953740157480317
 20
-1.4025590551181102
 30
0
 40
0.0196850393700787
  0
CIRCLE
  5
48F
330
1B
100
AcDbEntity
  8
Edge.Cuts
100
AcDbCircle
 10
6.3953740157480317
 20
-1.5025590551181103
 30
0
 40
0.0196850393700787
  0
CIRCLE
  5
490
330
1B
100
AcDbEntity
  8
Edge.Cuts
100
AcDbCircle
 10
6.3953740157480317
 20
-1.6025590551181101
 30
0
 40
0.0196850393700787
  0
CIRCLE
  5
491
330
1B
100
AcDbEntity
  8
Edge.Cuts
100
AcDbCircle
 10
6.3953740157480317
 20
-1.7025590551181102
 30
0
 40
0.0196850393700787
  0
CIRCLE
  5
492
330
1B
100
AcDbEntity
  8
Edge.Cuts
100
AcDbCircle
 10
6.3953740157480317
 20
-1.8025590551181101
 30
0
 40
0.0196850393700787
  0
CIRCLE
  5
493
330
1B
100
AcDbEntity
  8
Edge.Cuts
100
AcDbCircle
 10
6.3953740157480317
 20
-1.9025590551181102
 30
0
 40
0.0196850393700787
  0
CIRCLE
  5
494
330
1B
100
AcDbEntity
  8
Edge.Cuts
100
AcDbCircle
 10
6.3953740157480317
 20
-2.0025590551181103
 30
0
 40
0.0196850393700787
  0
CIRCLE
  5
495
330
1B
100
AcDbEntity
  8
Edge.Cuts
100
AcDbCircle
 10
6.3953740157480317
 20
-2.1025590551181104
 30
0
 40
0.0196850393700787
  0
CIRCLE
  5
496
330
1B
100
AcDbEntity
  8
Edge.Cuts
100
AcDbCircle
 10
6.8743740157480318
 20
-1.9807590551181102
 30
0
 40
0.0196850393700787
  0
CIRCLE
  5
497
330
1B
100
AcDbEntity
  8
Edge.Cuts
100
AcDbCircle
 10
6.7743740157480312
 20
-1.9807590551181102
 30
0
 40
0.0196850393700787
  0
CIRCLE
  5
498
330
1B
100
AcDbEntity
  8
Edge.Cuts
100
AcDbCircle
 10
6.6743740157480316
 20
-1.9807590551181102
 30
0
 40
0.0196850393700787
  0
CIRCLE
  5
499
330
1B
100
AcDbEntity
  8
Edge.Cuts
100
AcDbCircle
 10
6.9953740157480313
 20
-0.9025590551181102
 30
0
 40
0.0196850393700787
  0
CIRCLE
  5
49A
330
1B
100
AcDbEntity
  8
Edge.Cuts
100
AcDbCircle
 10
6.3953740157480317
 20
-0.9025590551181102
 30
0
 40
0.0196850393700787
  0
CIRCLE
  5
49B
330
1B
100
AcDbEntity
  8
Edge.Cuts
100
AcDbCircle
 10
1.6875
 20
-3.9862450787401573
 30
0
 40
0.015748031496063
  0
CIRCLE
  5
49C
330
1B
100
AcDbEntity
  8
Edge.Cuts
100
AcDbCircle
 10
1.6875
 20
-3.6862450787401575
 30
0
 40
0.015748031496063
  0
CIRCLE
  5
49D
330
1B
100
AcDbEntity
  8
Edge.Cuts
100
AcDbCircle
 10
6.1875
 20
-1.6813730314960629
 30
0
 40
0.015748031496063
  0
CIRCLE
  5
49E
330
1B
100
AcDbEntity
  8
Edge.Cuts
100
AcDbCircle
 10
6.1875
 20
-1.3813730314960631
 30
0
 40
0.015748031496063
  0
CIRCLE
  5
49F
330
1B
100
AcDbEntity
  8
Edge.Cuts
100
AcDbCircle
 10
6.9375
 20
-3.3782480314960628
 30
0
 40
0.015748031496063
  0
CIRCLE
  5
4A0
330
1B
100
AcDbEntity
  8
Edge.Cuts
100
AcDbCircle
 10
6.9375
 20
-3.078248031496063
 30
0
 40
0.015748031496063
  0
CIRCLE
  5
4A1
330
1B
100
AcDbEntity
  8
Edge.Cuts
100
AcDbCircle
 10
5.4375
 20
-2.4393700787401573
 30
0
 40
0.015748031496063
  0
CIRCLE
  5
4A2
330
1B
100
AcDbEntity
  8
Edge.Cuts
100
AcDbCircle
 10
5.4375
 20
-2.1393700787401575
 30
0
 40
0.015748031496063
  0
CIRCLE
  5
4A3
330
1B
100
AcDbEntity
  8
Edge.Cuts
100
AcDbCircle
 10
3.9375
 20
-3.1813730314960629
 30
0
 40
0.015748031496063
  0
CIRCLE
  5
4A4
330
1B
100
AcDbEntity
  8
Edge.Cuts
100
AcDbCircle
 10
3.9375
 20
-2.8813730314960631
 30
0
 40
0.015748031496063
  0
CIRCLE
  5
4A5
330
1B
100
AcDbEntity
  8
Edge.Cuts
100
AcDbCircle
 10
4.6875
 20
-1.6893700787401575
 30
0
 40
0.015748031496063
  0
CIRCLE
  5
4A6
330
1B
100
AcDbEntity
  8
Edge.Cuts
100
AcDbCircle
 10
4.6875
 20
-1.3893700787401575
 30
0
 40
0.015748031496063
  0
CIRCLE
  5
4A7
330
1B
100
AcDbEntity
  8
Edge.Cuts
100
AcDbCircle
 10
4.6875
 20
-4.3944635826771652
 30
0
 40
0.015748031496063
  0
CIRCLE
  5
4A8
330
1B
100
AcDbEntity
  8
Edge.Cuts
100
AcDbCircle
 10
4.6875
 20
-4.0944635826771654
 30
0
 40
0.015748031496063
  0
CIRCLE
  5
4A9
330
1B
100
AcDbEntity
  8
Edge.Cuts
100
AcDbCircle
 10
4.6875
 20
-3.9393700787401573
 30
0
 40
0.015748031496063
  0
CIRCLE
  5
4AA
330
1B
100
AcDbEntity
  8
Edge.Cuts
100
AcDbCircle
 10
4.6875
 20
-3.6393700787401575
 30
0
 40
0.015748031496063
  0
CIRCLE
  5
4AB
330
1B
100
AcDbEntity
  8
Edge.Cuts
100
AcDbCircle
 10
6.8873031496062991
 20
-2.6757874015748029
 30
0
 40
0.0196850393700787
  0
CIRCLE
  5
4AC
330
1B
100
AcDbEntity
  8
Edge.Cuts
100
AcDbCircle
 10
6.8873031496062991
 20
-2.5773622047244094
 30
0
 40
0.0196850393700787
  0
ENDSEC
  0
SECTION
  2
OBJECTS
  0
DICTIONARY
  5
21
330
0
100
AcDbDictionary
281
1
  3
ACAD_GROUP
350
4AD
  3
ACAD_LAYOUT
350
22
  3
ACAD_PLOTSTYLENAME
350
11
  0
DICTIONARY
  5
4AD
330
21
100
AcDbDictionary
281
1
  0
ACDBDICTIONARYWDFLT
  5
11
330
21
100
AcDbDictionary
281
1
  3
Normal
350
10
100
AcDbDictionaryWithDefault
340
10
  0
ACDBPLACEHOLDER
  5
10
330
11
  0
DICTIONARY
  5
22
330
21
100
AcDbDictionary
281
1
  3
Model
350
1E
  3
Layout1
350
1F
  3
Layout2
350
20
  0
LAYOUT
  5
1E
330
22
100
AcDbPlotSettings
  1

  2
none_device
  4
A3
  6

 40
0.0
 41
0.0
 42
0.0
 43
0.0
 44
420.0
 45
297.0
 46
0.0
 47
0.0
 48
0.0
 49
0.0
140
0.0
141
0.0
142
1.0
143
1.0
 70
1024
 72
1
 73
0
 74
5
  7

 75
16
 76
0
 77
2
 78
300
147
1.0
148
0.0
149
0.0
100
AcDbLayout
  1
Model
 70
1
 71
0
 10
0.0
 20
0.0
 11
420.0
 21
297.0
 12
0.0
 22
0.0
 32
0.0
 14
1e+20
 24
1e+20
 34
1e+20
 15
-1e+20
 25
-1e+20
 35
-1e+20
146
0.0
 13
0.0
 23
0.0
 33
0.0
 16
1.0
 26
0.0
 36
0.0
 17
0.0
 27
1.0
 37
0.0
 76
0
330
1B
  0
LAYOUT
  5
1F
330
22
100
AcDbPlotSettings
  1

  2
none_device
  4
A3
  6

 40
0.0
 41
0.0
 42
0.0
 43
0.0
 44
420.0
 45
297.0
 46
0.0
 47
0.0
 48
0.0
 49
0.0
140
0.0
141
0.0
142
1.0
143
1.0
 70
0
 72
1
 73
0
 74
5
  7

 75
16
 76
0
 77
2
 78
300
147
1.0
148
0.0
149
0.0
100
AcDbLayout
  1
Layout1
 70
1
 71
1
 10
0.0
 20
0.0
 11
420.0
 21
297.0
 12
0.0
 22
0.0
 32
0.0
 14
1e+20
 24
1e+20
 34
1e+20
 15
-1e+20
 25
-1e+20
 35
-1e+20
146
0.0
 13
0.0
 23
0.0
 33
0.0
 16
1.0
 26
0.0
 36
0.0
 17
0.0
 27
1.0
 37
0.0
 76
0
330
1C
  0
LAYOUT
  5
20
330
22
100
AcDbPlotSettings
  1

  2
none_device
  4
A3
  6

 40
0.0
 41
0.0
 42
0.0
 43
0.0
 44
420.0
 45
297.0
 46
0.0
 47
0.0
 48
0.0
 49
0.0
140
0.0
141
0.0
142
1.0
143
1.0
 70
0
 72
1
 73
0
 74
5
  7

 75
16
 76
0
 77
2
 78
300
147
1.0
148
0.0
149
0.0
100
AcDbLayout
  1
Layout2
 70
1
 71
2
 10
0.0
 20
0.0
 11
420.0
 21
297.0
 12
0.0
 22
0.0
 32
0.0
 14
1e+20
 24
1e+20
 34
1e+20
 15
-1e+20
 25
-1e+20
 35
-1e+20
146
0.0
 13
0.0
 23
0.0
 33
0.0
 16
1.0
 26
0.0
 36
0.0
 17
0.0
 27
1.0
 37
0.0
 76
0
330
1D
  0
ENDSEC
  0
EOF
